<svg width="30" height="30" viewBox="0 0 30 30" fill="none" xmlns="http://www.w3.org/2000/svg">
<path d="M16.3337 3.00267C15.707 3.00089 15.0403 3 14.3337 3C8.36299 3 5.37633 3 3.52166 4.85467C1.66699 6.70933 1.66699 9.69467 1.66699 15.6667C1.66699 21.6373 1.66699 24.624 3.52166 26.4787C5.37633 28.3333 8.36166 28.3333 14.3337 28.3333C20.3043 28.3333 23.291 28.3333 25.1457 26.4787C27.0003 24.624 27.0003 21.6387 27.0003 15.6667C27.0003 14.96 26.9994 14.2933 26.9977 13.6667" stroke="#6000DA" stroke-width="2" stroke-linecap="round" stroke-linejoin="round"/>
<path d="M8.33398 22.3337C11.4433 19.0777 17.1913 18.9243 20.334 22.3337M23.6673 1.66699L24.0113 2.59633C24.462 3.81499 24.6873 4.42433 25.1313 4.86833C25.5767 5.31366 26.186 5.53899 27.4047 5.98966L28.334 6.33366L27.4047 6.67766C26.186 7.12833 25.5767 7.35366 25.1327 7.79766C24.6873 8.24299 24.462 8.85233 24.0113 10.071L23.6673 11.0003L23.3233 10.071C22.8727 8.85233 22.6473 8.24299 22.2033 7.79899C21.758 7.35366 21.1487 7.12833 19.93 6.67766L19.0007 6.33366L19.93 5.98966C21.1487 5.53899 21.758 5.31366 22.202 4.86966C22.6473 4.42433 22.8727 3.81499 23.3233 2.59633L23.6673 1.66699ZM17.6607 12.3337C17.6607 14.1737 16.1673 15.667 14.3233 15.667C13.8851 15.6677 13.4511 15.582 13.0461 15.4148C12.641 15.2476 12.2729 15.0022 11.9628 14.6926C11.6528 14.383 11.4067 14.0153 11.2389 13.6105C11.071 13.2057 10.9847 12.7718 10.9847 12.3337C10.9847 10.4937 12.478 9.00033 14.3233 9.00033C14.7614 8.9998 15.1953 9.08563 15.6002 9.25291C16.005 9.42019 16.373 9.66564 16.6829 9.97522C16.9929 10.2848 17.2388 10.6524 17.4065 11.0571C17.5743 11.4618 17.6607 11.8956 17.6607 12.3337Z" stroke="#6000DA" stroke-width="2" stroke-linecap="round" stroke-linejoin="round"/>
</svg>
