<svg width="33" height="32" viewBox="0 0 33 32" fill="none" xmlns="http://www.w3.org/2000/svg">
<path d="M20.2238 9.35486C20.2238 9.35486 20.8905 10.0215 21.5571 11.3549C21.5571 11.3549 23.6758 8.02153 25.5571 7.35486M13.5771 2.69486C10.2451 2.55486 7.67181 2.93753 7.67181 2.93753C6.04647 3.05486 2.93181 3.9642 2.93181 9.28686C2.93181 14.5615 2.89847 21.0655 2.93181 23.6589C2.93181 25.2429 3.91314 28.9389 7.30781 29.1362C11.4345 29.3762 18.8678 29.4282 22.2785 29.1362C23.1905 29.0842 26.2305 28.3682 26.6145 25.0615C27.0131 21.6349 26.9345 19.2549 26.9345 18.6882" stroke="#6000DA" stroke-width="2" stroke-linecap="round" stroke-linejoin="round"/>
<path d="M9.55664 17.3551H14.89M9.55664 22.6885H20.2233M29.5833 9.35515C29.5833 13.0365 26.5966 16.0218 22.91 16.0218C22.0339 16.0227 21.1663 15.8509 20.3567 15.5163C19.5471 15.1816 18.8114 14.6907 18.1916 14.0716C17.5719 13.4524 17.0802 12.7172 16.7447 11.9079C16.4093 11.0986 16.2366 10.2312 16.2366 9.35515C16.2366 5.67248 19.2246 2.68848 22.91 2.68848C23.786 2.6876 24.6536 2.8594 25.4632 3.19404C26.2729 3.52867 27.0086 4.0196 27.6283 4.63874C28.2481 5.25789 28.7398 5.99311 29.0752 6.80238C29.4106 7.61165 29.5833 8.47911 29.5833 9.35515Z" stroke="#6000DA" stroke-width="2" stroke-linecap="round" stroke-linejoin="round"/>
</svg>
