<svg width="24" height="24" viewBox="0 0 24 24" fill="none" xmlns="http://www.w3.org/2000/svg">
<path d="M13.4529 6.7545C13.4527 7.81661 13.0307 8.83516 12.2796 9.58614C11.5286 10.3371 10.51 10.759 9.44785 10.759C8.92191 10.7591 8.40109 10.6557 7.91513 10.4545C7.42917 10.2534 6.98759 9.95848 6.6156 9.58667C6.2436 9.21486 5.94849 8.77343 5.7471 8.28757C5.54571 7.80171 5.44198 7.28094 5.44185 6.755V6.7545C5.44198 5.69239 5.864 4.67384 6.61507 3.92286C7.36613 3.17189 8.38475 2.75 9.44685 2.75C9.97284 2.74987 10.4937 2.85335 10.9797 3.05453C11.4657 3.25571 11.9073 3.55065 12.2793 3.92251C12.6513 4.29437 12.9464 4.73586 13.1477 5.22178C13.3491 5.70769 13.4528 6.22851 13.4529 6.7545ZM16.3424 20.471C16.3274 20.8125 15.9484 20.9365 15.4654 21.004C12.3239 21.44 6.75535 21.304 5.24535 20.5355C2.53535 19.1565 2.65385 16.3765 4.53385 14.2255C6.26885 12.2415 8.86385 11.6925 11.2439 12.178C13.5489 12.649 16.5329 16.103 16.3424 20.471Z" stroke="white" stroke-linecap="round" stroke-linejoin="round"/>
<path d="M15.0752 15.3152C16.3902 14.6437 18.6447 14.6617 19.8937 15.9052C21.2012 17.2057 21.0162 18.6087 20.1627 19.6252C19.4727 20.4477 17.0662 20.9467 15.9477 20.8967M19.7302 11.0577C19.7301 11.7331 19.4618 12.3807 18.9842 12.8582C18.5067 13.3358 17.8591 13.6041 17.1837 13.6042C16.8493 13.6043 16.5181 13.5385 16.2091 13.4105C15.9 13.2826 15.6193 13.095 15.3827 12.8586C15.1462 12.6221 14.9586 12.3413 14.8306 12.0324C14.7026 11.7234 14.6367 11.3922 14.6367 11.0577C14.6367 10.3822 14.9051 9.7344 15.3827 9.25674C15.8604 8.77909 16.5082 8.51074 17.1837 8.51074C17.8592 8.51074 18.5071 8.77909 18.9847 9.25674C19.4624 9.7344 19.7302 10.3822 19.7302 11.0577Z" stroke="white" stroke-linecap="round" stroke-linejoin="round"/>
</svg>
