<svg width="64" height="64" viewBox="0 0 64 64" fill="none" xmlns="http://www.w3.org/2000/svg">
<path fill-rule="evenodd" clip-rule="evenodd" d="M37.6665 53.2586C37.0745 53.6959 36.4318 54.0586 35.7251 54.2452C33.7358 54.7786 31.5625 53.9839 29.6638 53.4506C16.9358 49.8692 8.41048 44.2612 5.96515 35.8932C4.01315 29.2106 5.89048 22.5172 10.0185 18.3572C13.8425 14.5039 19.5118 12.9412 25.3278 15.4452C29.1145 10.3679 34.8078 8.88522 40.0452 10.3119C45.6985 11.8506 50.6691 16.7092 52.3198 23.4719C52.6451 24.7972 52.8051 26.1492 52.8078 27.5226C53.4878 27.8692 54.1331 28.3012 54.7278 28.8026C57.8131 31.4132 59.4611 35.8479 58.5411 40.4586C57.3678 46.3412 51.9145 50.4719 44.1145 53.4212C42.7785 53.9279 41.3171 54.5546 39.8585 54.2986C39.0478 54.1546 38.3225 53.7386 37.6665 53.2586ZM11.0851 34.3972C9.65848 29.5092 11.0931 24.8479 13.8051 22.1146C16.4078 19.4906 20.2665 18.5146 24.5331 21.0106C26.0238 21.8826 27.9465 21.3652 28.7998 19.8692C31.2478 15.5732 35.0771 14.4879 38.6425 15.4586C42.3598 16.4719 45.9331 19.7892 47.1385 24.7359C47.2851 25.3306 47.3838 25.9386 47.4318 26.5626C46.4547 26.687 45.5018 26.9576 44.6051 27.3652C41.7411 24.5732 37.9492 24.0239 34.6051 25.2559C30.8131 26.6506 27.7465 30.2559 27.0318 34.9039C26.3038 39.6639 28.5518 44.3039 32.7358 48.7652C32.2078 48.6319 31.6611 48.4719 31.1091 48.3172C18.7598 44.8426 12.7091 39.9572 11.0851 34.3972ZM32.3065 35.7119C32.7331 32.9119 34.5438 30.9626 36.4478 30.2586C38.2078 29.6132 40.1625 29.9519 41.6478 32.0986C41.8693 32.4184 42.1519 32.6912 42.4795 32.9012C42.807 33.1111 43.1729 33.2541 43.556 33.3218C43.9391 33.3895 44.3318 33.3805 44.7115 33.2955C45.0911 33.2105 45.4501 33.0511 45.7678 32.8266C47.9011 31.3146 49.8531 31.6666 51.2825 32.8746C52.8345 34.1866 53.8638 36.6399 53.3091 39.4159C52.7091 42.4292 49.6612 45.6239 42.2291 48.4319C41.7571 48.6106 41.2878 48.8026 40.8025 48.9439C40.3945 48.6426 40.0185 48.3039 39.6345 47.9759C33.6131 42.7946 31.8398 38.7492 32.3065 35.7092V35.7119Z" fill="#6000DA"/>
</svg>
