<svg width="25" height="24" viewBox="0 0 25 24" fill="none" xmlns="http://www.w3.org/2000/svg">
<g clip-path="url(#clip0_1057_859)">
<path fill-rule="evenodd" clip-rule="evenodd" d="M14.6248 19.972C14.4028 20.136 14.1618 20.272 13.8968 20.342C13.1508 20.542 12.3358 20.244 11.6238 20.044C6.85081 18.701 3.65381 16.598 2.73681 13.46C2.00481 10.954 2.70881 8.44396 4.25681 6.88396C5.69081 5.43896 7.81681 4.85296 9.99781 5.79196C11.4178 3.88796 13.5528 3.33196 15.5168 3.86696C17.6368 4.44396 19.5008 6.26596 20.1198 8.80196C20.2418 9.29896 20.3018 9.80596 20.3028 10.321C20.5578 10.451 20.7998 10.613 21.0228 10.801C22.1798 11.78 22.7978 13.443 22.4528 15.172C22.0128 17.378 19.9678 18.927 17.0428 20.033C16.5418 20.223 15.9938 20.458 15.4468 20.362C15.1428 20.308 14.8708 20.152 14.6248 19.972ZM4.65681 12.899C4.12181 11.066 4.65981 9.31796 5.67681 8.29296C6.65281 7.30896 8.09981 6.94296 9.69981 7.87896C10.2588 8.20596 10.9798 8.01196 11.2998 7.45096C12.2178 5.83996 13.6538 5.43296 14.9908 5.79696C16.3848 6.17696 17.7248 7.42096 18.1768 9.27596C18.2318 9.49896 18.2688 9.72696 18.2868 9.96096C17.9204 10.0076 17.5631 10.1091 17.2268 10.262C16.1528 9.21496 14.7308 9.00896 13.4768 9.47096C12.0548 9.99396 10.9048 11.346 10.6368 13.089C10.3638 14.874 11.2068 16.614 12.7758 18.287C12.5778 18.237 12.3728 18.177 12.1658 18.119C7.53481 16.816 5.26581 14.984 4.65681 12.899ZM12.6148 13.392C12.7748 12.342 13.4538 11.611 14.1678 11.347C14.8278 11.105 15.5608 11.232 16.1178 12.037C16.2009 12.1569 16.3069 12.2592 16.4297 12.3379C16.5525 12.4167 16.6897 12.4703 16.8334 12.4957C16.977 12.521 17.1243 12.5177 17.2667 12.4858C17.409 12.454 17.5437 12.3942 17.6628 12.31C18.4628 11.743 19.1948 11.875 19.7308 12.328C20.3128 12.82 20.6988 13.74 20.4908 14.781C20.2658 15.911 19.1228 17.109 16.3358 18.162C16.1588 18.229 15.9828 18.301 15.8008 18.354C15.6478 18.241 15.5068 18.114 15.3628 17.991C13.1048 16.048 12.4398 14.531 12.6148 13.391V13.392Z" fill="white"/>
</g>
<defs>
<clipPath id="clip0_1057_859">
<rect width="24" height="24" fill="white" transform="translate(0.5)"/>
</clipPath>
</defs>
</svg>
