<svg width="24" height="24" viewBox="0 0 24 24" fill="none" xmlns="http://www.w3.org/2000/svg">
<path fill-rule="evenodd" clip-rule="evenodd" d="M8.829 14.5039C8.677 14.5129 8.592 14.5349 8.56 14.5489C8.243 14.6939 7.2025 15.0714 6.5 15.3229V18.8729C6.86 18.8564 7.265 18.8424 7.4925 18.8514C8.5035 18.8919 9.267 19.1274 9.9805 19.3539L10.0435 19.3739C10.7325 19.5929 11.3755 19.7974 12.221 19.8614C12.4805 19.8814 12.707 19.9039 12.919 19.9254C13.1709 19.9533 13.4235 19.9748 13.6765 19.9899C14.1065 20.0119 14.4365 19.9884 14.7035 19.8904C15.0335 19.7694 16.2235 19.2129 17.4185 18.6064C17.9702 18.3286 18.5156 18.0387 19.0545 17.7369C19.2519 17.6264 19.4462 17.5103 19.637 17.3889C19.8005 17.2824 19.8795 17.2189 19.901 17.1969C19.99 17.1054 20.0535 16.8529 19.937 16.6254C19.856 16.4669 19.63 16.2349 18.995 16.3399C18.26 16.4614 17.386 16.8199 16.5275 17.1719C16.111 17.3429 15.6965 17.5124 15.33 17.6349C14.978 17.7524 14.6 17.8519 14.276 17.8324C13.806 17.8039 12.978 17.6799 12.291 17.5679C11.8968 17.5036 11.5031 17.4362 11.11 17.3659L11.0335 17.3524L11.007 17.3474L11.1025 16.3554L13.7825 16.3879L13.7935 16.3869C13.8115 16.3854 13.8475 16.3809 13.8995 16.3674C14.0015 16.3409 14.1695 16.2789 14.3775 16.1299C14.4495 16.0784 14.5375 15.9889 14.617 15.8729C14.682 15.7779 14.7305 15.6824 14.759 15.6014C14.3941 15.587 14.0312 15.5393 13.675 15.4589C13.5032 15.4212 13.3327 15.3775 13.164 15.3279L13.141 15.3209L9.858 14.5844H9.857C9.80482 14.5751 9.75248 14.5668 9.7 14.5594C9.56419 14.5396 9.42779 14.5241 9.291 14.5129C9.1372 14.4997 8.9827 14.4967 8.8285 14.5039M9.957 14.0939L10.0485 13.6029L10.0575 13.6044L13.4015 14.3544L13.422 14.3614L13.428 14.3634L13.451 14.3704L13.545 14.3974C13.6275 14.4204 13.7465 14.4509 13.888 14.4819C14.175 14.5449 14.537 14.6029 14.875 14.6029C15.187 14.6029 15.5095 14.7194 15.682 15.0354C15.83 15.3064 15.7955 15.6044 15.74 15.8104C15.671 16.0674 15.528 16.3374 15.3465 16.5669C15.6149 16.4638 15.8819 16.3571 16.1475 16.2469L16.209 16.2219C17.0205 15.8884 17.9825 15.4934 18.831 15.3534C19.801 15.1929 20.5065 15.5449 20.8265 16.1694C21.1115 16.7254 21.0455 17.4549 20.6165 17.8944C20.509 18.0049 20.345 18.1209 20.1805 18.2274C19.9731 18.36 19.7621 18.4867 19.5475 18.6074C18.9951 18.9167 18.436 19.2138 17.8705 19.4984C16.685 20.0999 15.442 20.6849 15.047 20.8294C14.589 20.9969 14.097 21.0129 13.6245 20.9884C13.3393 20.9706 13.0546 20.9465 12.7705 20.9159C12.5624 20.8944 12.354 20.8752 12.1455 20.8584C11.1815 20.7854 10.4415 20.5499 9.7605 20.3334L9.6775 20.3069C8.974 20.0834 8.3195 19.8854 7.452 19.8504C7.157 19.8389 6.4235 19.8769 6.0285 19.8999L5.5 19.9309V14.6174L5.8325 14.4994C6.51 14.2584 7.8235 13.7859 8.145 13.6394C8.346 13.5479 8.5785 13.5169 8.771 13.5054C8.97018 13.4956 9.16979 13.4991 9.3685 13.5159C9.59088 13.5333 9.8123 13.5613 10.032 13.5999L10.044 13.6019L10.047 13.6024H10.049L9.957 14.0939Z" fill="white"/>
<path fill-rule="evenodd" clip-rule="evenodd" d="M3 14.4999C3 14.2347 3.10536 13.9804 3.29289 13.7928C3.48043 13.6053 3.73478 13.4999 4 13.4999H5.5C5.76522 13.4999 6.01957 13.6053 6.20711 13.7928C6.39464 13.9804 6.5 14.2347 6.5 14.4999V19.9979C6.5 20.2632 6.39464 20.5175 6.20711 20.705C6.01957 20.8926 5.76522 20.9979 5.5 20.9979H4C3.73478 20.9979 3.48043 20.8926 3.29289 20.705C3.10536 20.5175 3 20.2632 3 19.9979V14.4999ZM4 14.4999V19.9979H5.5V14.5004L4 14.4999ZM9.6495 9.53944L9.6595 9.52944C9.7197 9.46891 9.7534 9.38694 9.75316 9.30156C9.75293 9.21618 9.71879 9.1344 9.65825 9.07419C9.59771 9.01399 9.51574 8.9803 9.43037 8.98053C9.34499 8.98077 9.2632 9.01491 9.203 9.07544L8.223 10.0619C8.12997 10.1555 8.01934 10.2298 7.89748 10.2804C7.77563 10.331 7.64496 10.357 7.513 10.3569H6.2205C6.13523 10.3569 6.05346 10.3908 5.99317 10.4511C5.93287 10.5114 5.899 10.5932 5.899 10.6784C5.899 10.7637 5.93287 10.8455 5.99317 10.9058C6.05346 10.9661 6.13523 10.9999 6.2205 10.9999H7.6005C7.80177 10.9999 8.00098 10.9594 8.18626 10.8808C8.37155 10.8022 8.53912 10.6872 8.679 10.5424L9.6495 9.53944ZM7.5135 9.35644H6.22C5.86945 9.35644 5.53326 9.4957 5.28538 9.74358C5.03751 9.99145 4.89825 10.3276 4.89825 10.6782C4.89825 11.0287 5.03751 11.3649 5.28538 11.6128C5.53326 11.8607 5.86945 11.9999 6.22 11.9999H7.6C7.93541 12 8.2674 11.9326 8.57621 11.8017C8.88502 11.6708 9.16432 11.479 9.3975 11.2379L10.3675 10.2344C10.6147 9.98594 10.753 9.64941 10.7521 9.29891C10.7511 8.9484 10.611 8.61263 10.3625 8.36544C10.114 8.11826 9.77747 7.97992 9.42696 7.98086C9.07646 7.9818 8.74068 8.12194 8.4935 8.37044L7.5135 9.35644ZM16.37 6.49894C16.5371 6.50367 16.7034 6.47485 16.8591 6.41418C17.0148 6.35351 17.1568 6.26223 17.2766 6.14574C17.3965 6.02924 17.4917 5.8899 17.5568 5.73595C17.6218 5.582 17.6554 5.41657 17.6554 5.24944C17.6554 5.08232 17.6218 4.91688 17.5568 4.76293C17.4917 4.60899 17.3965 4.46964 17.2766 4.35315C17.1568 4.23665 17.0148 4.14537 16.8591 4.08471C16.7034 4.02404 16.5371 3.99522 16.37 3.99994C16.0447 4.00915 15.7359 4.14483 15.5091 4.37815C15.2822 4.61147 15.1554 4.92404 15.1554 5.24944C15.1554 5.57484 15.2822 5.88742 15.5091 6.12074C15.7359 6.35406 16.0447 6.48974 16.37 6.49894ZM18.62 5.24944C18.6263 5.54884 18.5728 5.84649 18.4626 6.12494C18.3524 6.40339 18.1877 6.65703 17.9782 6.87101C17.7687 7.08498 17.5185 7.25498 17.2425 7.37104C16.9664 7.48709 16.67 7.54688 16.3705 7.54688C16.071 7.54688 15.7746 7.48709 15.4985 7.37104C15.2225 7.25498 14.9723 7.08498 14.7628 6.87101C14.5533 6.65703 14.3886 6.40339 14.2784 6.12494C14.1682 5.84649 14.1147 5.54884 14.121 5.24944C14.1334 4.66105 14.3759 4.10094 14.7964 3.6892C15.2169 3.27746 15.782 3.04688 16.3705 3.04688C16.959 3.04688 17.5241 3.27746 17.9446 3.6892C18.3651 4.10094 18.6076 4.66105 18.62 5.24944ZM14.859 11.6469L14.8955 11.6829C15.1158 11.8896 15.4085 12.0013 15.7105 11.9939L15.73 11.9954C15.736 11.9968 15.7425 11.9974 15.7495 11.9974L17.318 11.9954C17.6717 11.9951 18.0107 11.8543 18.2606 11.604C18.5104 11.3537 18.6506 11.0144 18.6502 10.6607C18.6499 10.307 18.5091 9.96798 18.2588 9.71813C18.0085 9.46829 17.6692 9.32811 17.3155 9.32844H16.3375C16.2375 9.32844 15.5125 8.56494 14.9725 7.97994C14.7826 7.77326 14.5519 7.60811 14.2951 7.49487C14.0382 7.38163 13.7607 7.32275 13.48 7.32194H11.052L11.286 11.9969H12.8275C13.1395 11.996 13.4481 11.9329 13.7355 11.8114C14.0225 11.6889 14.4625 11.3219 14.4985 11.2859C14.5325 11.2519 14.8255 11.6064 14.8565 11.6439L14.859 11.6469ZM13.343 10.8919L13.3665 10.8794C13.3842 10.8694 13.4068 10.8558 13.4345 10.8384C13.4905 10.8034 13.553 10.7594 13.615 10.7134C13.6838 10.6622 13.7512 10.609 13.817 10.5539C14.157 10.2354 14.5595 10.2724 14.717 10.3059C14.881 10.3409 14.9975 10.4089 15.04 10.4344C15.1119 10.4785 15.1794 10.5294 15.2415 10.5864C15.3155 10.6529 15.3865 10.7299 15.434 10.7824C15.487 10.8409 15.5365 10.8984 15.5715 10.9399L15.5915 10.9639C15.6019 10.9721 15.6133 10.9788 15.6255 10.9839M13.343 10.8919C13.1795 10.9614 13.004 10.9964 12.8265 10.9974H12.237L12.1035 8.32194H13.48C13.762 8.32194 14.0375 8.44194 14.2375 8.65844C14.51 8.95344 14.8355 9.30044 15.1095 9.57694C15.2445 9.71344 15.3785 9.84444 15.4925 9.94644C15.5475 9.99494 15.615 10.0534 15.6865 10.1049C15.721 10.1299 15.777 10.1684 15.8475 10.2054L15.8505 10.2069C15.8915 10.2289 16.0805 10.3284 16.3375 10.3284H17.3155C17.4039 10.3283 17.4888 10.3633 17.5515 10.4258C17.6141 10.4882 17.6494 10.573 17.6495 10.6614C17.6496 10.7499 17.6146 10.8348 17.5522 10.8974C17.4897 10.96 17.4049 10.9953 17.3165 10.9954L15.7965 10.9969C15.7679 10.9947 15.7392 10.9937 15.7105 10.9939H15.6845C15.6644 10.9946 15.6443 10.9912 15.6255 10.9839" fill="white"/>
</svg>
