<svg width="32" height="32" viewBox="0 0 32 32" fill="none" xmlns="http://www.w3.org/2000/svg">
<path d="M15.9993 13.3337C18.9449 13.3337 21.3327 10.9458 21.3327 8.00033C21.3327 5.05481 18.9449 2.66699 15.9993 2.66699C13.0538 2.66699 10.666 5.05481 10.666 8.00033C10.666 10.9458 13.0538 13.3337 15.9993 13.3337Z" stroke="#6000DA" stroke-width="2"/>
<path d="M19.9997 17.77C18.6866 17.4768 17.3451 17.3305 15.9997 17.334C10.109 17.334 5.33301 20.0207 5.33301 23.334C5.33301 26.6474 5.33301 29.334 15.9997 29.334C23.5823 29.334 25.7743 27.9767 26.409 26.0007" stroke="#6000DA" stroke-width="2"/>
<path d="M27.7722 17.5621C28.2674 18.0574 28.6603 18.6454 28.9283 19.2924C29.1963 19.9395 29.3343 20.6331 29.3343 21.3335C29.3343 22.0339 29.1963 22.7274 28.9283 23.3745C28.6603 24.0216 28.2674 24.6095 27.7722 25.1048C27.2769 25.6001 26.6889 25.9929 26.0418 26.261C25.3948 26.529 24.7012 26.6669 24.0008 26.6669C23.3004 26.6669 22.6069 26.529 21.9598 26.261C21.3127 25.9929 20.7247 25.6001 20.2295 25.1048L27.7708 17.5635M20.2282 25.1048C19.2279 24.1046 18.666 22.748 18.666 21.3335C18.666 20.6331 18.804 19.9395 19.072 19.2924C19.34 18.6454 19.7329 18.0574 20.2282 17.5621C20.7234 17.0669 21.3114 16.674 21.9585 16.406C22.6055 16.138 23.2991 16 23.9995 16C25.414 16 26.7706 16.5619 27.7708 17.5621" stroke="#6000DA" stroke-width="2" stroke-linejoin="round"/>
</svg>
