<svg width="100" height="82" viewBox="0 0 100 82" fill="none" xmlns="http://www.w3.org/2000/svg">
<path d="M85.1458 4.07227H55.9983V36.3264H85.1458V4.07227Z" fill="#E6E6E6"/>
<path d="M83.9399 5.34961H57.2812V35.1149H83.9399V5.34961Z" fill="#F5F5F5"/>
<path d="M64.8151 5.34961L57.2812 33.5666V18.2909L60.7284 5.34961H64.8151Z" fill="white"/>
<path d="M68.1831 5.34961L60.2354 35.1149H58.7366L66.6843 5.34961H68.1831Z" fill="white"/>
<path d="M83.94 13.4688V28.7464L82.251 35.1161H78.1643L83.94 13.4688Z" fill="white"/>
<path d="M71.0897 4.07227H70.0542V36.3264H71.0897V4.07227Z" fill="#E6E6E6"/>
<path d="M84.5855 10.6172H56.5032V11.6527H84.5855V10.6172Z" fill="#E6E6E6"/>
<path d="M88.492 54.45H52.7035C52.3959 54.4494 52.1011 54.327 51.8836 54.1095C51.6661 53.8921 51.5437 53.5972 51.5432 53.2897V1.16028C51.5437 0.852715 51.6661 0.557897 51.8836 0.340416C52.1011 0.122935 52.3959 0.000523515 52.7035 0H88.492C88.7995 0.000523515 89.0943 0.122935 89.3118 0.340416C89.5293 0.557897 89.6517 0.852715 89.6522 1.16028V53.2897C89.6517 53.5972 89.5293 53.8921 89.3118 54.1095C89.0943 54.327 88.7995 54.4494 88.492 54.45ZM52.7035 0.0495C52.4091 0.0500234 52.1268 0.167219 51.9186 0.375418C51.7104 0.583616 51.5932 0.865843 51.5927 1.16028V53.2897C51.5932 53.5841 51.7104 53.8663 51.9186 54.0745C52.1268 54.2827 52.4091 54.3999 52.7035 54.4005H88.492C88.7866 54.4005 89.0691 54.2834 89.2774 54.0751C89.4857 53.8668 89.6027 53.5843 89.6027 53.2897V1.16028C89.6027 0.865682 89.4857 0.583151 89.2774 0.37484C89.0691 0.166528 88.7866 0.0495 88.492 0.0495H52.7035Z" fill="#E0E0E0"/>
<path d="M47.2229 54.45H11.4364C11.1285 54.45 10.8332 54.3278 10.6153 54.1102C10.3974 53.8927 10.2747 53.5976 10.2742 53.2897V1.16028C10.2747 0.852372 10.3974 0.557255 10.6153 0.339717C10.8332 0.122179 11.1285 -4.468e-07 11.4364 0H47.2229C47.5306 0 47.8258 0.122243 48.0434 0.339838C48.261 0.557432 48.3832 0.852554 48.3832 1.16028V53.2897C48.3832 53.5974 48.261 53.8925 48.0434 54.1101C47.8258 54.3277 47.5306 54.45 47.2229 54.45ZM11.4364 0.0495C11.1416 0.0494995 10.8589 0.166464 10.6503 0.374719C10.4417 0.582974 10.3242 0.8655 10.3237 1.16028V53.2897C10.3226 53.4365 10.3506 53.582 10.4061 53.7179C10.4615 53.8539 10.5433 53.9775 10.6468 54.0816C10.7502 54.1858 10.8732 54.2685 11.0088 54.3249C11.1443 54.3813 11.2896 54.4104 11.4364 54.4104H47.2229C47.3688 54.4104 47.5132 54.3816 47.648 54.3258C47.7828 54.27 47.9052 54.1882 48.0084 54.085C48.1115 53.9819 48.1933 53.8594 48.2491 53.7247C48.305 53.5899 48.3337 53.4454 48.3337 53.2996V1.16028C48.3337 1.01441 48.305 0.869968 48.2491 0.735202C48.1933 0.600436 48.1115 0.477985 48.0084 0.37484C47.9052 0.271694 47.7828 0.189875 47.648 0.134053C47.5132 0.0782312 47.3688 0.0495 47.2229 0.0495H11.4364Z" fill="#E0E0E0"/>
<path d="M99.5959 66.541H0.595947V66.5905H99.5959V66.541Z" fill="#E0E0E0"/>
<path d="M14.0065 69.3652H10.8267V69.4147H14.0065V69.3652Z" fill="#E0E0E0"/>
<path d="M44.9241 68.8281H34.3252V68.8776H44.9241V68.8281Z" fill="#E0E0E0"/>
<path d="M21.3821 71.2051H14.2046V71.2546H21.3821V71.2051Z" fill="#E0E0E0"/>
<path d="M84.0609 68.8027H75.5093V68.8522H84.0609V68.8027Z" fill="#E0E0E0"/>
<path d="M87.0783 68.8027H85.825V68.8522H87.0783V68.8027Z" fill="#E0E0E0"/>
<path d="M73.8758 70.0371H63.2056V70.0866H73.8758V70.0371Z" fill="#E0E0E0"/>
<path d="M27.9634 12.1875H26.613V66.5919H27.9634V12.1875Z" fill="#E0E0E0"/>
<path d="M34.3451 66.5919H32.9908L27.7002 12.1875H29.0545L34.3451 66.5919Z" fill="#E6E6E6"/>
<path d="M23.0451 49.8086H19.1465V53.7072H23.0451V49.8086Z" fill="#E0E0E0"/>
<path d="M25.5378 39.9504L26.908 35.4004L27.6267 35.5826L26.1695 40.186L25.5378 39.9504Z" fill="#E0E0E0"/>
<path d="M22.5066 37.3867L20.5405 37.8599L19.9683 39.7944L21.3582 41.2596L23.3224 40.7884L23.8966 38.8539L22.5066 37.3867Z" fill="#E0E0E0"/>
<path d="M24.8094 40.0033C24.6841 40.0028 24.564 39.9528 24.4754 39.8642C24.3867 39.7755 24.3367 39.6555 24.3362 39.5301V38.6431C24.3364 38.5812 24.3489 38.52 24.3728 38.4629C24.3967 38.4058 24.4317 38.354 24.4756 38.3105C24.5195 38.2669 24.5716 38.2324 24.6289 38.2089C24.6862 38.1855 24.7475 38.1736 24.8094 38.1738C24.9339 38.1738 25.0532 38.2233 25.1412 38.3113C25.2292 38.3993 25.2787 38.5186 25.2787 38.6431V39.5301C25.2787 39.655 25.2294 39.7747 25.1415 39.8634C25.0536 39.952 24.9342 40.0023 24.8094 40.0033Z" fill="#E0E0E0"/>
<path d="M26.9081 39.3223H18.7466V43.0189H26.9081V39.3223Z" fill="#E6E6E6"/>
<path d="M24.8271 8.04297L23.6768 11.4585H25.8033L24.8271 8.04297Z" fill="#E0E0E0"/>
<path d="M28.8366 11.4585H24.8271L23.6768 5.88086H27.6843L28.8366 11.4585Z" fill="#E6E6E6"/>
<path d="M21.7107 28.6016L20.5603 32.019H22.6868L21.7107 28.6016Z" fill="#E0E0E0"/>
<path d="M25.7222 32.0191H21.7107L20.5603 26.4395H24.5698L25.7222 32.0191Z" fill="#E6E6E6"/>
<path d="M33.549 21.0586H15.1191V22.2426H33.549V21.0586Z" fill="#E0E0E0"/>
<path d="M33.549 31.9395H15.1191V33.1235H33.549V31.9395Z" fill="#E0E0E0"/>
<path d="M33.549 42.8242H15.1191V44.0083H33.549V42.8242Z" fill="#E0E0E0"/>
<path d="M33.5509 42.8242H20.9897V44.0083H33.5509V42.8242Z" fill="#F0F0F0"/>
<path d="M33.549 53.7051H15.1191V54.8891H33.549V53.7051Z" fill="#E0E0E0"/>
<path d="M33.5509 53.7051H20.9897V54.8891H33.5509V53.7051Z" fill="#F0F0F0"/>
<path d="M16.4695 12.1875H15.1191V66.5919H16.4695V12.1875Z" fill="#E0E0E0"/>
<path d="M22.8531 66.5919H21.4988L16.2083 12.1875H17.5626L22.8531 66.5919Z" fill="#E6E6E6"/>
<path d="M33.549 11.2734H15.1191V12.4575H33.549V11.2734Z" fill="#E0E0E0"/>
<path d="M33.5509 11.2734H20.9897V12.4575H33.5509V11.2734Z" fill="#F0F0F0"/>
<path d="M19.0098 9.39155C18.9042 9.13442 18.8543 8.85779 18.8635 8.57995C18.8727 8.30211 18.9408 8.0294 19.0633 7.77983C19.489 6.98783 19.6137 6.78983 19.3286 6.62747C19.0435 6.46511 18.9326 7.26701 18.9326 7.26701C18.7965 6.90386 18.7826 6.50622 18.893 6.13445C19.0791 5.55629 19.1979 4.61183 18.9405 4.51085C18.6831 4.40987 18.893 5.69885 18.6752 6.12455C18.5616 5.81779 18.4877 5.49772 18.4554 5.17217C18.4277 4.70687 18.4752 3.96635 18.2713 3.78617C18.0674 3.60599 17.9387 3.72677 18.1367 4.75241C18.256 5.36197 18.3223 5.98073 18.3347 6.60173C18.3347 6.60173 17.8931 5.25731 17.5961 5.21573C17.2991 5.17415 17.3011 5.61173 17.5545 5.98991C17.808 6.36809 18.297 7.04723 18.3802 7.39373C18.3802 7.39373 17.8931 6.37997 17.4595 6.69281C17.0259 7.00565 17.8377 7.61351 18.2 7.83527C18.5624 8.05703 18.8118 9.43511 18.8118 9.43511L19.0098 9.39155Z" fill="#E0E0E0"/>
<path d="M18.7129 9.71231C18.8157 9.45426 18.8626 9.1773 18.8503 8.89978C18.838 8.62226 18.7668 8.35052 18.6416 8.10257C18.206 7.31057 18.0812 7.11257 18.3505 6.95417C18.6198 6.79577 18.7465 7.58975 18.7465 7.58975C18.8767 7.22414 18.8857 6.82635 18.7723 6.45521C18.5743 5.87903 18.4475 4.93655 18.7049 4.83359C18.9623 4.73063 18.7683 6.00773 18.996 6.44135C19.1072 6.13361 19.1784 5.81287 19.2079 5.48699C19.2316 5.02169 19.1762 4.28117 19.3781 4.08911C19.5801 3.89705 19.7108 4.02179 19.5227 5.05337C19.4096 5.66409 19.3507 6.28359 19.3465 6.90467C19.3465 6.90467 19.7722 5.55233 20.0672 5.51867C20.3622 5.48501 20.3681 5.91467 20.1167 6.29285C19.8652 6.67103 19.388 7.35017 19.3247 7.71053C19.3247 7.71053 19.7959 6.68885 20.2335 6.99377C20.6711 7.29869 19.8672 7.92041 19.5068 8.14613C19.1465 8.37185 18.9128 9.76379 18.9128 9.76379L18.7129 9.71231Z" fill="#EBEBEB"/>
<path d="M20.3839 9.13086H17.3921L17.6336 11.2732H20.1423L20.3839 9.13086Z" fill="#E0E0E0"/>
<path d="M25.6705 20.1083V20.928H25.8032V21.0587H19.6771C19.6032 21.0631 19.5292 21.0524 19.4596 21.0272C19.39 21.002 19.3264 20.9629 19.2725 20.9122C19.2186 20.8614 19.1756 20.8002 19.1463 20.7323C19.1169 20.6644 19.1018 20.5911 19.1018 20.5171C19.1018 20.4431 19.1169 20.3699 19.1463 20.302C19.1756 20.234 19.2186 20.1728 19.2725 20.1221C19.3264 20.0714 19.39 20.0322 19.4596 20.007C19.5292 19.9818 19.6032 19.9711 19.6771 19.9756H25.8032V20.1083H25.6705Z" fill="#E0E0E0"/>
<path opacity="0.3" d="M25.6706 20.1073V20.927H25.8032V21.0577H22.7085C22.5705 21.0493 22.441 20.9886 22.3462 20.888C22.2515 20.7874 22.1987 20.6544 22.1987 20.5161C22.1987 20.3779 22.2515 20.2449 22.3462 20.1443C22.441 20.0436 22.5705 19.983 22.7085 19.9746H25.8032V20.1073H25.6706Z" fill="white"/>
<path d="M25.6705 20.1074V20.9271H22.7005C22.5928 20.9288 22.4886 20.8883 22.4102 20.8144C22.3318 20.7404 22.2854 20.6388 22.2808 20.5311C22.2802 20.4247 22.3213 20.3222 22.3953 20.2456C22.4693 20.169 22.5703 20.1244 22.6768 20.1213H25.6468L25.6705 20.1074Z" fill="white"/>
<path d="M26.3358 19.0213V19.841H26.4685V19.9737H20.3345C20.1965 19.9653 20.0669 19.9047 19.9722 19.804C19.8775 19.7034 19.8247 19.5704 19.8247 19.4322C19.8247 19.2939 19.8775 19.1609 19.9722 19.0603C20.0669 18.9597 20.1965 18.899 20.3345 18.8906H26.4606V19.0213H26.3358Z" fill="#E0E0E0"/>
<path d="M26.3358 19.0223V19.842H26.4685V19.9747H23.3658C23.2919 19.9791 23.2179 19.9685 23.1484 19.9433C23.0788 19.9181 23.0151 19.8789 22.9612 19.8282C22.9073 19.7775 22.8644 19.7162 22.835 19.6483C22.8057 19.5804 22.7905 19.5071 22.7905 19.4331C22.7905 19.3591 22.8057 19.2859 22.835 19.218C22.8644 19.15 22.9073 19.0888 22.9612 19.0381C23.0151 18.9874 23.0788 18.9482 23.1484 18.923C23.2179 18.8978 23.2919 18.8871 23.3658 18.8916H26.4586V19.0223H26.3358Z" fill="#E6E6E6"/>
<path d="M26.3359 19.0215V19.8412H23.3659C23.2572 19.8412 23.153 19.798 23.0761 19.7212C22.9992 19.6443 22.9561 19.54 22.9561 19.4313C22.9561 19.3226 22.9992 19.2184 23.0761 19.1415C23.153 19.0647 23.2572 19.0215 23.3659 19.0215H26.3359Z" fill="white"/>
<path d="M25.5003 17.9393V18.759H25.633V18.8917H19.5069C19.363 18.8917 19.225 18.8345 19.1233 18.7328C19.0215 18.631 18.9644 18.493 18.9644 18.3492C18.9644 18.2053 19.0215 18.0673 19.1233 17.9655C19.225 17.8638 19.363 17.8066 19.5069 17.8066H25.633V17.9393H25.5003Z" fill="#E0E0E0"/>
<path d="M25.5002 17.9393V18.759H25.6329V18.8917H22.554C22.4828 18.8917 22.4122 18.8776 22.3464 18.8504C22.2806 18.8231 22.2208 18.7832 22.1704 18.7328C22.12 18.6824 22.08 18.6226 22.0528 18.5568C22.0255 18.491 22.0115 18.4204 22.0115 18.3492C22.0115 18.2779 22.0255 18.2074 22.0528 18.1415C22.08 18.0757 22.12 18.0159 22.1704 17.9655C22.2208 17.9152 22.2806 17.8752 22.3464 17.8479C22.4122 17.8207 22.4828 17.8066 22.554 17.8066H25.6468V17.9393H25.5002Z" fill="#E6E6E6"/>
<path d="M25.5004 17.9395V18.7592H22.5542C22.4457 18.7619 22.3406 18.7219 22.2613 18.6478C22.1821 18.5738 22.1351 18.4715 22.1304 18.3632C22.1283 18.3099 22.137 18.2566 22.1559 18.2068C22.1749 18.1569 22.2037 18.1113 22.2407 18.0729C22.2777 18.0344 22.322 18.0038 22.3712 17.9829C22.4203 17.962 22.4731 17.9513 22.5264 17.9513H25.4964L25.5004 17.9395Z" fill="white"/>
<path d="M26.6052 48.1094C26.9617 48.1094 27.3037 48.251 27.5558 48.5031C27.8079 48.7553 27.9496 49.0972 27.9496 49.4538V51.4338C27.9491 51.79 27.8072 52.1315 27.5551 52.3832C27.303 52.6349 26.9614 52.7762 26.6052 52.7762C26.2493 52.7757 25.9081 52.6341 25.6565 52.3825C25.4048 52.1308 25.2632 51.7897 25.2627 51.4338V49.4617C25.2617 49.2847 25.2956 49.1091 25.3626 48.9452C25.4296 48.7814 25.5282 48.6323 25.653 48.5066C25.7777 48.381 25.926 48.2812 26.0894 48.213C26.2528 48.1449 26.4281 48.1096 26.6052 48.1094Z" fill="#E6E6E6"/>
<path d="M26.9278 51.5703H26.2783V53.7087H26.9278V51.5703Z" fill="#E6E6E6"/>
<path d="M27.6209 53.5039H25.5874V53.7039H27.6209V53.5039Z" fill="#E6E6E6"/>
<path d="M80.5028 61.5511C80.5028 61.4501 80.1623 51.5144 78.5466 49.9443C76.9745 48.4158 75.1707 49.8869 75.0955 49.9443L74.9331 49.7463C74.9529 49.7285 76.9883 48.0673 78.7228 49.7463C80.4118 51.3877 80.7424 61.1135 80.7563 61.5273L80.5028 61.5511Z" fill="#E0E0E0"/>
<path d="M80.6414 63.5025C80.6295 63.3837 79.5365 51.575 83.849 46.625L84.047 46.7913C79.8058 51.6582 80.879 63.3599 80.8988 63.4787L80.6414 63.5025Z" fill="#E0E0E0"/>
<path d="M80.4809 62.2538L80.2295 62.2379C80.2295 62.1033 81.0729 48.8116 77.9109 45.9029L78.0812 45.7148C81.3323 48.7066 80.5185 61.7033 80.4809 62.2538Z" fill="#E0E0E0"/>
<path d="M80.8928 62.2473H80.6414C80.6414 61.881 80.7443 53.268 83.1916 51.8662C83.424 51.7156 83.6892 51.6229 83.9648 51.5961C84.2404 51.5692 84.5185 51.6089 84.7756 51.7117C86.2547 52.3236 86.9892 54.957 87.0189 55.0678L86.7754 55.1352C86.7754 55.1094 86.0448 52.5097 84.6786 51.9454C84.4571 51.8584 84.218 51.8258 83.9814 51.8503C83.7447 51.8747 83.5173 51.9555 83.3183 52.086C80.9958 53.4205 80.8948 62.1582 80.8928 62.2473Z" fill="#E0E0E0"/>
<path d="M79.9405 62.2525L79.689 62.2366C79.689 62.1693 80.0573 55.4314 78.2397 53.0574C77.7982 52.4832 77.321 52.2079 76.8161 52.2436C75.6281 52.3267 74.6242 54.0711 74.6143 54.0889L74.3945 53.9642C74.4381 53.887 75.4697 52.0852 76.7963 51.9842C77.3903 51.9426 77.9447 52.2495 78.4397 52.897C80.3147 55.3522 79.9563 61.9713 79.9405 62.2525Z" fill="#E0E0E0"/>
<path d="M80.3405 63.1705C80.291 62.5151 79.1525 47.1325 81.1563 44.4199L81.3543 44.5704C79.4059 47.2078 80.5761 62.9844 80.588 63.1507L80.3405 63.1705Z" fill="#E0E0E0"/>
<path d="M85.3201 53.2696C85.3201 53.2696 84.1162 53.7131 84.4746 54.7586C84.833 55.804 88.6326 57.5306 88.6326 57.5306C88.6326 57.5306 90.2166 56.0713 88.7613 53.6973C87.306 51.3233 85.3517 52.5192 85.3201 53.2696Z" fill="#EBEBEB"/>
<path d="M80.0929 51.2754C80.0929 51.2754 81.372 51.2219 81.4452 52.3267C81.5185 53.4316 78.6732 56.4847 78.6732 56.4847C78.6732 56.4847 76.6417 55.7501 77.0773 52.996C77.5129 50.2418 79.7741 50.5982 80.0929 51.2754Z" fill="#EBEBEB"/>
<path d="M79.004 45.9955C79.004 45.9955 79.8573 45.9025 79.796 45.3837C79.7346 44.865 76.4735 43.5205 74.5569 45.6985C74.5569 45.6985 75.7845 47.8072 77.5586 47.835C79.3326 47.8627 79.004 45.9955 79.004 45.9955Z" fill="#EBEBEB"/>
<path d="M80.5977 44.7326C80.5977 44.7326 79.8255 45.1069 79.6077 44.6277C79.3899 44.1485 81.4411 41.2954 84.2131 42.119C84.2131 42.119 84.2864 44.5584 82.7935 45.5207C81.3006 46.483 80.5977 44.7326 80.5977 44.7326Z" fill="#EBEBEB"/>
<path d="M76.5567 52.8489C76.5567 52.8489 77.1507 52.3737 76.5112 52.1421C75.8716 51.9104 72.7492 51.9758 72.7214 55.0665C72.7214 55.0665 76.3567 55.6605 76.8062 54.4923C77.2556 53.3241 76.5567 52.8489 76.5567 52.8489Z" fill="#EBEBEB"/>
<path d="M83.9657 45.9154C83.9657 45.9154 83.3717 45.4402 84.0132 45.2085C84.6547 44.9768 87.7752 45.0422 87.8009 48.1329C87.8009 48.1329 84.1676 48.7369 83.7182 47.5588C83.2687 46.3807 83.9657 45.9154 83.9657 45.9154Z" fill="#EBEBEB"/>
<path d="M82.0452 48.4067C82.0452 48.4067 81.9938 47.8285 82.4611 48.0542C82.9283 48.28 84.5539 50.0342 82.8689 51.7014C82.8689 51.7014 80.5979 50.0204 81.0077 49.1452C81.4176 48.2701 82.0452 48.4067 82.0452 48.4067Z" fill="#EBEBEB"/>
<path d="M76.0339 49.2313C76.0339 49.2313 76.3863 48.77 75.8715 48.7126C75.3567 48.6552 73.0441 49.2729 73.5807 51.5796C73.5807 51.5796 76.3982 51.3678 76.519 50.4094C76.6398 49.4511 76.0339 49.2313 76.0339 49.2313Z" fill="#EBEBEB"/>
<path d="M83.2609 66.704H77.5803L76.0696 59.7344H84.6291L83.2609 66.704Z" fill="#F0F0F0"/>
<path d="M85.122 59.6328H75.5547V61.6366H85.122V59.6328Z" fill="#E6E6E6"/>
<path d="M91.4542 79.952C91.4542 80.6232 72.9373 81.1677 50.096 81.1677C27.2547 81.1677 8.73779 80.6133 8.73779 79.952C8.73779 79.2907 27.2547 78.7383 50.096 78.7383C72.9373 78.7383 91.4542 79.2729 91.4542 79.952Z" fill="#F5F5F5"/>
<path d="M64.8547 35.8878L63.0866 56.2818L60.3918 74.3513L58.3069 74.0365C58.3069 74.0365 57.602 66.4808 58.1089 60.5349C58.2257 59.1647 58.7841 57.6302 58.786 56.5353C58.786 55.577 58.5049 54.9335 58.293 52.7277C58.0356 50.0607 57.8792 46.5125 58.4395 43.8514C58.4395 43.8514 58.0158 39.6261 59.2929 35.8047L64.8547 35.8878Z" fill="#D89380"/>
<path d="M69.876 55.4448L69.6978 74.5003L69.6305 76.4803L68.1712 76.3991L67.605 72.9262C67.605 72.9262 65.9319 66.3229 65.5755 60.369C65.4963 58.9969 65.821 57.399 65.6705 56.314C65.5378 55.3636 65.1616 54.7696 64.631 52.6252C63.9895 50.0215 63.3282 46.5368 63.4905 43.8182C63.4905 43.8182 60.7047 40.9096 61.4175 36.9417L67.6743 35.4824L69.876 55.4448Z" fill="#D89380"/>
<path d="M72.5133 78.3349C72.2111 78.1582 71.8841 78.0281 71.5431 77.9488C71.5431 77.9488 70.4898 77.1805 69.9433 74.8322L68.5692 74.5788C68.35 74.5369 68.1238 74.5497 67.9108 74.616C67.6977 74.6823 67.5042 74.8001 67.3475 74.959C67.3122 75.0005 67.2835 75.0473 67.2624 75.0976C67.1997 75.3458 67.1573 75.5988 67.1357 75.8539C67.0795 76.7161 67.0908 77.5813 67.1693 78.4418H67.4247L67.4861 76.8162C67.4861 76.2638 68.0801 76.9053 68.2563 77.4953C68.4326 78.0854 68.781 78.7289 70.3789 78.7289C72.2143 78.7348 72.9885 78.6734 72.5133 78.3349Z" fill="#263238"/>
<path d="M69.6819 73.9902C69.9102 74.758 70.1799 75.5128 70.4897 76.2514C70.7135 76.8891 71.0767 77.4688 71.553 77.9482C71.553 77.9482 70.365 78.1245 69.8304 77.5226C69.2958 76.9206 68.5513 74.8476 67.3416 74.9703C67.4365 74.8122 67.5516 74.667 67.6841 74.5387C67.886 74.3209 69.6819 73.9902 69.6819 73.9902Z" fill="#D89380"/>
<path d="M62.0827 78.8788C61.8331 78.6339 61.5473 78.4289 61.2353 78.2709C61.2353 78.2709 60.3958 77.271 60.4294 74.8614L59.1583 74.2852C58.9557 74.1915 58.7331 74.1494 58.5103 74.1625C58.2875 74.1756 58.0714 74.2436 57.8812 74.3604C57.8366 74.3925 57.7972 74.4312 57.7644 74.4753C57.6443 74.7009 57.543 74.936 57.4614 75.1782C57.1983 76.0016 56.9997 76.8444 56.8674 77.6987L57.1169 77.7601L57.5683 76.1959C57.701 75.6613 58.1267 76.4275 58.1524 77.0413C58.1782 77.6551 58.3643 78.364 59.9146 78.7481C61.6986 79.1956 62.4649 79.3223 62.0827 78.8788Z" fill="#263238"/>
<path d="M60.3801 73.9827C60.419 74.7833 60.5016 75.5811 60.6276 76.3726C60.6907 77.0455 60.9039 77.6957 61.2513 78.2754C61.2513 78.2754 60.0515 78.1585 59.6812 77.4477C59.3109 76.7369 59.0872 74.5431 57.8794 74.3728C58.0094 74.2422 58.1558 74.129 58.315 74.0362C58.5566 73.8699 60.3801 73.9827 60.3801 73.9827Z" fill="#D89380"/>
<path d="M59.3702 11.8701C59.4223 11.6789 59.4022 11.4751 59.3139 11.2977C59.2255 11.1203 59.075 10.9815 58.891 10.9078C58.7041 10.8423 58.5037 10.8252 58.3084 10.8581C58.1131 10.891 57.9294 10.9728 57.7743 11.0959C57.4669 11.3474 57.2341 11.6781 57.1011 12.0523C56.858 12.6826 56.7803 13.3647 56.8753 14.0335C56.9702 14.7024 57.2347 15.3359 57.6436 15.8737C58.0396 16.3865 58.6079 16.8102 59.2553 16.8835C59.9028 16.9567 60.6176 16.6023 60.8156 15.9826L59.3702 11.8701Z" fill="#263238"/>
<path d="M63.6351 10.7497C63.6351 10.7497 65.3399 14.1038 65.3894 15.1294C66.0666 15.7491 66.6071 14.5612 66.6388 12.9514C66.6665 11.6288 66.027 10.1794 64.9043 9.62105C63.3243 8.835 63.6351 10.7497 63.6351 10.7497Z" fill="#263238"/>
<path d="M63.0492 20.1979C62.9047 20.0621 62.7972 19.8918 62.7366 19.7031C62.6759 19.5143 62.6643 19.3132 62.7027 19.1188C62.7672 18.7627 62.8742 18.4157 63.0214 18.0852L62.5839 17.5823L60.293 15.2617C60.3504 16.8061 60.5365 19.2851 59.3287 20.1226C59.3287 20.1226 57.8319 20.7424 57.1785 20.877C57.5745 21.1978 60.0693 24.5954 62.3819 24.4093C64.4847 24.239 64.6351 21.275 64.8569 20.4077C64.2589 20.2216 63.6135 20.3266 63.0492 20.1979Z" fill="#D89380"/>
<path opacity="0.2" d="M62.7065 19.187C62.0769 18.8128 61.3858 18.1634 61.469 17.4229C61.4964 17.1527 61.5562 16.8868 61.6472 16.6309L62.9263 18.3257C62.8235 18.6045 62.7498 18.8931 62.7065 19.187Z" fill="black"/>
<path d="M59.7564 12.7827C59.9722 15.137 60.0138 16.1349 61.2275 17.3684C63.0551 19.2237 65.8647 18.6 66.3498 16.2675C66.7854 14.1668 66.3597 10.6721 64.049 9.68206C61.778 8.7079 59.5406 10.4285 59.7564 12.7827Z" fill="#D89380"/>
<path d="M62.9143 13.7231C62.9143 13.9449 63.0272 14.1369 63.1816 14.1528C63.336 14.1686 63.4647 14.0023 63.4727 13.7825C63.4806 13.5627 63.3578 13.3707 63.2034 13.3529C63.049 13.335 62.9202 13.5033 62.9143 13.7231Z" fill="#263238"/>
<path d="M65.3122 13.6051C65.2945 13.6943 65.3093 13.7869 65.354 13.866C65.3987 13.9452 65.4703 14.0058 65.5558 14.0367C65.7082 14.0625 65.8468 13.91 65.8647 13.6962C65.8823 13.6073 65.8674 13.515 65.8227 13.4361C65.778 13.3572 65.7065 13.297 65.6211 13.2665C65.4687 13.2408 65.3301 13.3932 65.3122 13.6051Z" fill="#263238"/>
<path d="M62.3165 12.9443C62.3315 12.9457 62.3467 12.944 62.361 12.9392C62.3753 12.9344 62.3885 12.9267 62.3997 12.9166C62.5001 12.8181 62.6234 12.7459 62.7584 12.7065C62.8935 12.6671 63.0362 12.6618 63.1739 12.6909C63.1879 12.695 63.2027 12.6962 63.2172 12.6944C63.2317 12.6927 63.2457 12.6879 63.2584 12.6805C63.271 12.6731 63.282 12.6631 63.2906 12.6513C63.2992 12.6394 63.3053 12.626 63.3085 12.6117C63.3137 12.5809 63.3076 12.5492 63.2912 12.5226C63.2748 12.496 63.2493 12.4763 63.2194 12.4671C63.0462 12.4267 62.8657 12.4306 62.6944 12.4784C62.5231 12.5261 62.3666 12.6162 62.2393 12.7404C62.2181 12.7625 62.2063 12.7919 62.2063 12.8225C62.2063 12.8532 62.2181 12.8826 62.2393 12.9047C62.2601 12.9258 62.2872 12.9397 62.3165 12.9443Z" fill="#263238"/>
<path d="M65.9755 12.594C65.9892 12.5903 66.0021 12.5838 66.0133 12.5749C66.0246 12.5661 66.0339 12.5551 66.0408 12.5426C66.0478 12.5291 66.0519 12.5144 66.053 12.4993C66.0541 12.4842 66.052 12.4691 66.047 12.4548C66.042 12.4405 66.0341 12.4274 66.0239 12.4163C66.0136 12.4051 66.0012 12.3962 65.9873 12.3901C65.8257 12.2971 65.6448 12.2426 65.4586 12.2309C65.2725 12.2192 65.0862 12.2507 64.9142 12.3228C64.9009 12.3296 64.8893 12.339 64.8799 12.3506C64.8705 12.3621 64.8636 12.3755 64.8597 12.3898C64.8558 12.4042 64.8549 12.4192 64.8572 12.4339C64.8594 12.4486 64.8646 12.4627 64.8726 12.4752C64.8884 12.502 64.9137 12.5217 64.9434 12.5305C64.9732 12.5394 65.0052 12.5366 65.033 12.5228C65.1705 12.4688 65.3183 12.4464 65.4656 12.457C65.6129 12.4676 65.756 12.5111 65.8844 12.5841C65.8981 12.592 65.9132 12.5969 65.9289 12.5986C65.9446 12.6003 65.9604 12.5987 65.9755 12.594Z" fill="#263238"/>
<path d="M59.0456 14.7021C59.2941 15.1377 59.7048 15.4573 60.1881 15.5911C60.8118 15.7475 61.1325 14.7457 60.9207 14.122C60.8207 13.8411 60.6238 13.6051 60.3654 13.4563C60.107 13.3075 59.8041 13.2557 59.5109 13.3102C58.913 13.425 58.7268 14.1497 59.0456 14.7021Z" fill="#D89380"/>
<path d="M64.4944 13.4238C64.7088 13.9268 64.9742 14.4065 65.2864 14.8554C65.3028 14.8782 65.3136 14.9045 65.3182 14.9322C65.3227 14.9599 65.3208 14.9882 65.3125 15.0151C65.3043 15.0419 65.29 15.0665 65.2706 15.0869C65.2513 15.1072 65.2276 15.1229 65.2012 15.1326C64.9956 15.1939 64.7771 15.1973 64.5696 15.1425L64.4944 13.4238Z" fill="#A24E3F"/>
<path d="M63.1638 13.3449L63.7123 13.2617C63.7123 13.2617 63.3777 13.6399 63.1638 13.3449Z" fill="#263238"/>
<path d="M65.5657 13.2624L66.1181 13.2129C66.1181 13.2129 65.7696 13.5713 65.5657 13.2624Z" fill="#263238"/>
<path d="M59.1682 11.4759C58.8335 11.9254 59.4196 13.2856 59.4196 13.2856C59.4196 13.2856 60.5581 12.9926 60.5581 14.6914C60.9719 14.7766 61.4966 13.2084 61.4867 11.6105C61.4353 10.7077 59.7602 10.6839 59.1682 11.4759Z" fill="#263238"/>
<path d="M65.8606 10.4114C65.4012 9.36 63.4113 8.32446 61.0452 9.23922C58.9088 10.0609 58.1901 13.1022 59.7068 13.2725C61.2234 13.4428 63.0728 12.0191 63.0728 12.0191L65.8606 10.4114Z" fill="#263238"/>
<path opacity="0.2" d="M60.0712 14.9942H60.0573C59.9273 14.9671 59.805 14.9115 59.6992 14.8314C59.5934 14.7513 59.5067 14.6486 59.4455 14.5308C59.4101 14.4645 59.389 14.3914 59.3835 14.3164C59.378 14.2414 59.3884 14.166 59.4138 14.0952C59.4583 13.9949 59.5395 13.9154 59.6408 13.8731C59.742 13.8308 59.8556 13.8288 59.9583 13.8675C59.9645 13.8699 59.9701 13.8735 59.9748 13.8782C59.9795 13.8828 59.9832 13.8884 59.9856 13.8945C59.988 13.9007 59.9891 13.9073 59.9889 13.9139C59.9886 13.9205 59.9869 13.9269 59.984 13.9329C59.9784 13.9446 59.9686 13.9538 59.9564 13.9586C59.9443 13.9634 59.9308 13.9634 59.9187 13.9586C59.8402 13.9304 59.754 13.9329 59.6772 13.9655C59.6005 13.9982 59.5389 14.0587 59.5049 14.1348C59.4851 14.1928 59.4775 14.2542 59.4826 14.3152C59.4878 14.3762 59.5054 14.4354 59.5346 14.4893C59.5902 14.5937 59.6682 14.6847 59.763 14.7555C59.8578 14.8264 59.9671 14.8754 60.083 14.8991C60.0894 14.9005 60.0954 14.9032 60.1007 14.9069C60.1059 14.9107 60.1104 14.9155 60.1137 14.9211C60.117 14.9267 60.1192 14.9329 60.1201 14.9393C60.1209 14.9457 60.1204 14.9523 60.1187 14.9585C60.1154 14.9686 60.1091 14.9775 60.1006 14.9839C60.0921 14.9903 60.0818 14.9939 60.0712 14.9942Z" fill="black"/>
<path d="M64.136 15.8964C63.9155 15.8937 63.6998 15.8318 63.5113 15.7172C63.3229 15.6026 63.1687 15.4395 63.0648 15.245C63.0596 15.2319 63.0598 15.2172 63.0653 15.2042C63.0709 15.1912 63.0814 15.1809 63.0945 15.1757C63.1077 15.1704 63.1224 15.1706 63.1354 15.1762C63.1483 15.1818 63.1586 15.1923 63.1638 15.2054C63.261 15.3875 63.4065 15.5392 63.5843 15.644C63.7621 15.7488 63.9653 15.8026 64.1717 15.7994C64.1781 15.7988 64.1847 15.7996 64.1908 15.8018C64.1969 15.804 64.2025 15.8074 64.2072 15.8119C64.2119 15.8164 64.2156 15.8219 64.218 15.8279C64.2204 15.8339 64.2215 15.8404 64.2212 15.8469C64.2214 15.8534 64.2204 15.8599 64.2182 15.866C64.2159 15.8721 64.2125 15.8777 64.2081 15.8825C64.2037 15.8873 64.1984 15.8911 64.1924 15.8939C64.1865 15.8966 64.1802 15.8981 64.1736 15.8984L64.136 15.8964Z" fill="#263238"/>
<path d="M59.9524 15.9092C60.1306 15.9092 60.2751 15.7647 60.2751 15.5864C60.2751 15.4082 60.1306 15.2637 59.9524 15.2637C59.7741 15.2637 59.6296 15.4082 59.6296 15.5864C59.6296 15.7647 59.7741 15.9092 59.9524 15.9092Z" fill="#B379FC"/>
<path d="M65.2923 10.6644C64.7518 11.3475 63.9954 11.7791 63.2351 12.1771C62.3679 12.6285 61.4314 13.1413 60.4196 12.9433C60.3265 12.9235 60.2869 13.0661 60.38 13.0859C61.3818 13.2839 62.3025 12.8265 63.1678 12.379C63.9855 11.9553 64.8152 11.5039 65.3973 10.7693C65.4567 10.696 65.3517 10.5891 65.2923 10.6644Z" fill="#263238"/>
<path d="M70.5751 43.3494C69.8385 37.3481 66.9675 32.7446 66.3913 31.8536C66.3265 31.7527 66.2998 31.6319 66.3161 31.513L66.6151 25.5235L66.1241 20.3755C65.7954 20.3042 64.3025 20.2132 63.9579 20.1934C63.9579 20.1934 62.3621 25.4364 58.9604 20.2646L56.9963 20.8131L56.3844 25.4285C56.4221 25.7077 56.919 27.2976 57.0913 28.0025L58.3288 31.6892C58.3447 31.7479 58.3507 31.8088 58.3466 31.8694C58.2595 32.9861 57.6972 34.7463 57.4932 35.4948C56.5329 39.0192 56.8082 39.3419 56.2577 43.292C55.2242 50.723 54.6381 55.6136 53.0066 59.9062C52.9771 59.9821 52.9664 60.0641 52.9756 60.1451C52.9848 60.226 53.0135 60.3035 53.0593 60.3709C53.1051 60.4383 53.1665 60.4936 53.2384 60.532C53.3103 60.5704 53.3904 60.5907 53.4719 60.5913L72.4699 60.8011L70.5751 43.3494Z" fill="#B379FC"/>
<path opacity="0.3" d="M70.5751 43.3494C69.8385 37.3481 66.9675 32.7446 66.3913 31.8536C66.3265 31.7527 66.2998 31.6319 66.3161 31.513L66.6151 25.5235L66.1241 20.3755C65.7954 20.3042 64.3025 20.2132 63.9579 20.1934C63.9579 20.1934 62.3621 25.4364 58.9604 20.2646L56.9963 20.8131L56.3844 25.4285C56.4221 25.7077 56.919 27.2976 57.0913 28.0025L58.3288 31.6892C58.3447 31.7479 58.3507 31.8088 58.3466 31.8694C58.2595 32.9861 57.6972 34.7463 57.4932 35.4948C56.5329 39.0192 56.8082 39.3419 56.2577 43.292C55.2242 50.723 54.6381 55.6136 53.0066 59.9062C52.9771 59.9821 52.9664 60.0641 52.9756 60.1451C52.9848 60.226 53.0135 60.3035 53.0593 60.3709C53.1051 60.4383 53.1665 60.4936 53.2384 60.532C53.3103 60.5704 53.3904 60.5907 53.4719 60.5913L72.4699 60.8011L70.5751 43.3494Z" fill="white"/>
<g opacity="0.2">
<path d="M64.55 30.2122C63.4768 29.044 61.382 28.5272 60.0237 29.1311C61.5681 29.1251 62.9996 29.5627 64.55 30.2122Z" fill="black"/>
</g>
<path d="M56.8973 20.8262C56.8973 20.8262 55.9073 21.0895 55.4598 21.7528C55.0123 22.4161 53.3966 30.9083 53.5847 32.029C53.7728 33.1497 57.4339 36.2405 57.4339 36.2405L58.4932 34.7911L56.137 31.1697L56.9527 25.4039L56.8973 20.8262Z" fill="#D89380"/>
<path d="M68.7177 24.4102L66.2724 25.5982L67.1238 30.4393L62.6807 35.5872L63.443 37.5098C63.443 37.5098 69.478 32.3024 69.8958 31.2451C70.3136 30.1878 69.0186 25.1487 68.7177 24.4102Z" fill="#D89380"/>
<path d="M66.134 20.3828C66.134 20.3828 67.5675 20.4838 68.2882 22.2163C68.9555 23.826 69.896 26.0555 69.896 26.0555L66.3221 27.0633C66.3221 27.0633 65.7281 22.4262 65.7776 22.4103C65.8271 22.3945 66.134 20.3828 66.134 20.3828Z" fill="#B379FC"/>
<path opacity="0.3" d="M66.134 20.3828C66.134 20.3828 67.5675 20.4838 68.2882 22.2163C68.9555 23.826 69.896 26.0555 69.896 26.0555L66.3221 27.0633C66.3221 27.0633 65.7281 22.4262 65.7776 22.4103C65.8271 22.3945 66.134 20.3828 66.134 20.3828Z" fill="white"/>
<path d="M56.8002 28.3437C56.6933 28.3774 53.1926 26.9419 53.1926 26.9419C53.1926 26.9419 54.5786 22.3602 55.1548 21.6197C55.7052 20.9088 57.8753 20.5742 57.8753 20.5742L57.4793 25.841L56.8002 28.3437Z" fill="#B379FC"/>
<path opacity="0.3" d="M56.8002 28.3437C56.6933 28.3774 53.1926 26.9419 53.1926 26.9419C53.1926 26.9419 54.5786 22.3602 55.1548 21.6197C55.7052 20.9088 57.8753 20.5742 57.8753 20.5742L57.4793 25.841L56.8002 28.3437Z" fill="white"/>
<path opacity="0.2" d="M56.9941 27.6309C56.9941 27.6309 56.3843 25.7043 56.4001 24.4629C56.4001 24.4629 55.8061 26.6112 56.7961 28.3476L56.9941 27.6309Z" fill="black"/>
<path opacity="0.2" d="M66.5418 26.9986C66.6153 26.5105 66.6399 26.0164 66.6151 25.5235C66.5636 24.8463 66.1597 23.3633 66.1597 23.3633C66.1597 23.3633 67.1734 25.0938 67.1219 26.8342L66.5418 26.9986Z" fill="black"/>
<path opacity="0.2" d="M67.1239 30.4384C67.1239 30.4384 67.7179 30.4384 68.0188 30.773C67.9455 30.5883 67.8146 30.4321 67.6456 30.3276C67.4765 30.2231 67.2783 30.1758 67.0803 30.1928L67.1239 30.4384Z" fill="black"/>
<path d="M39.3763 71.5762L38.7803 76.6489L40.5999 76.9004L42.5126 72.1326L39.3763 71.5762Z" fill="#263238"/>
<path d="M42.0453 75.6588C42.073 75.348 42.0453 75.0906 41.6889 75.0648L41.1761 75.0371C40.9956 75.0595 40.826 75.1353 40.689 75.2549C39.5129 76.0053 39.0298 75.0371 38.5744 75.0371C37.9804 75.0371 38.3645 76.7558 38.3368 76.8468L37.6972 78.8407C37.6418 79.007 37.7546 79.3674 37.9487 79.4149C37.9838 79.4228 38.0196 79.4268 38.0556 79.4268H44.843C45.9241 79.4268 45.936 78.213 45.4905 78.1279C43.4907 77.7497 42.7027 77.1498 42.0433 76.7102C42.0192 76.3601 42.0198 76.0088 42.0453 75.6588Z" fill="#B379FC"/>
<path opacity="0.4" d="M44.8429 79.435H38.0555C38.0195 79.4351 37.9836 79.4311 37.9485 79.4231C37.8159 79.3894 37.7228 79.2152 37.6931 79.0528V78.9004H45.7062C45.6388 79.0704 45.5184 79.2142 45.3629 79.3105C45.2075 79.4068 45.0251 79.4504 44.8429 79.435Z" fill="white"/>
<path d="M42.9896 77.3377C42.8175 77.4821 42.6738 77.6574 42.5659 77.8545C42.5565 77.8716 42.5542 77.8918 42.5593 77.9106C42.5645 77.9295 42.5768 77.9455 42.5936 77.9555C42.6019 77.9605 42.6112 77.9638 42.6207 77.9652C42.6303 77.9666 42.6401 77.9661 42.6495 77.9637C42.6589 77.9613 42.6677 77.9571 42.6755 77.9512C42.6832 77.9454 42.6897 77.9381 42.6946 77.9297C42.794 77.7434 42.9284 77.578 43.0906 77.4427C43.1038 77.4284 43.1112 77.4096 43.1112 77.3902C43.1112 77.3707 43.1038 77.352 43.0906 77.3377C43.0766 77.3241 43.0577 77.3164 43.0381 77.3164C43.0185 77.3164 42.9997 77.3241 42.9857 77.3377H42.9896Z" fill="#263238"/>
<path d="M42.3739 76.9815C42.2179 77.1206 42.0844 77.2828 41.9779 77.4626C41.9709 77.4794 41.9703 77.4982 41.9761 77.5154C41.9819 77.5327 41.9937 77.5472 42.0094 77.5564C42.0251 77.5656 42.0436 77.5687 42.0615 77.5653C42.0793 77.5619 42.0954 77.5522 42.1066 77.5379C42.2067 77.368 42.3338 77.2156 42.4828 77.0864C42.4898 77.0796 42.4954 77.0715 42.4992 77.0624C42.503 77.0534 42.5049 77.0438 42.5049 77.034C42.5049 77.0242 42.503 77.0145 42.4992 77.0055C42.4954 76.9965 42.4898 76.9883 42.4828 76.9815C42.4685 76.9683 42.4498 76.9609 42.4303 76.9609C42.4109 76.9609 42.3921 76.9683 42.3779 76.9815H42.3739Z" fill="#263238"/>
<path d="M41.9364 76.6782C41.7775 76.756 41.6472 76.8822 41.5642 77.0385C41.5548 77.0557 41.5524 77.0758 41.5576 77.0946C41.5628 77.1135 41.5751 77.1296 41.5919 77.1395C41.6088 77.1491 41.6288 77.1517 41.6476 77.1469C41.6664 77.1421 41.6826 77.1303 41.6929 77.1138C41.711 77.0794 41.7315 77.0463 41.7543 77.0148C41.7543 77.0148 41.7662 76.9969 41.7543 77.0148V77.0029L41.7741 76.9811L41.8157 76.9375L41.8592 76.8979H41.8711C41.8711 76.8979 41.8909 76.8821 41.8968 76.8781C41.9304 76.8547 41.9654 76.8336 42.0018 76.8148C42.0101 76.8098 42.0174 76.8033 42.0232 76.7956C42.029 76.7878 42.0332 76.779 42.0356 76.7696C42.038 76.7602 42.0385 76.7505 42.0371 76.7409C42.0357 76.7313 42.0325 76.7221 42.0275 76.7138C42.0226 76.7055 42.0161 76.6982 42.0083 76.6924C42.0006 76.6866 41.9917 76.6824 41.9824 76.68C41.973 76.6776 41.9632 76.6771 41.9537 76.6785C41.9441 76.6799 41.9349 76.6831 41.9265 76.6881L41.9364 76.6782Z" fill="#263238"/>
<path d="M41.9779 76.0332C41.7897 76.0346 41.6033 76.0694 41.4274 76.1362C41.4086 76.1417 41.3926 76.1542 41.3827 76.1711C41.3728 76.1881 41.3696 76.2081 41.374 76.2272C41.3799 76.2461 41.3929 76.262 41.4102 76.2716C41.4275 76.2811 41.4479 76.2837 41.467 76.2787C41.6305 76.2185 41.8036 76.1883 41.9779 76.1896C41.9975 76.1891 42.0161 76.181 42.0298 76.1669C42.0435 76.1528 42.0511 76.134 42.0511 76.1144C42.0511 76.095 42.0434 76.0763 42.0297 76.0626C42.0159 76.0488 41.9973 76.0411 41.9779 76.0411V76.0332Z" fill="#263238"/>
<g opacity="0.3">
<path d="M40.0614 76.2598C40.0636 76.3514 40.0415 76.442 39.9973 76.5224C39.9532 76.6027 39.8885 76.6699 39.8099 76.7171C39.6966 76.7583 39.5755 76.7739 39.4555 76.7627L38.3764 76.733V76.7231C38.3209 76.2538 38.1685 75.1094 38.614 75.1094C38.9664 75.1094 39.3347 75.7667 40.0693 75.5747C40.0574 75.8242 40.0693 76.141 40.0614 76.2598Z" fill="black"/>
</g>
<path d="M44.9954 55.8223C44.6727 52.8899 40.5919 37.3212 40.5919 37.3212L35.3964 37.1945L27.3992 36.9688C27.3992 36.9688 26.9299 41.1446 26.9299 46.6074C26.9299 46.6074 27.3259 69.9397 27.6348 75.4936L32.0245 75.6639C32.5254 71.3079 33.1847 57.6855 33.1847 57.6855C33.4857 55.2184 33.757 47.9379 33.9767 45.8589C34.0678 45.3976 34.1549 44.9343 34.2401 44.4729C35.0935 46.7282 39.0079 56.3747 39.3089 57.7587L37.7031 76.1074L42.4274 75.9272C42.4274 75.9272 45.3202 58.7666 44.9954 55.8223Z" fill="#263238"/>
<path d="M37.8357 37.924C38.0941 38.6816 38.5348 39.3641 39.119 39.9114C39.7032 40.4586 40.413 40.8539 41.1859 41.0623C41.2027 41.067 41.2169 41.0782 41.2255 41.0934C41.234 41.1086 41.2362 41.1266 41.2314 41.1434C41.2267 41.1602 41.2155 41.1745 41.2003 41.183C41.1851 41.1916 41.1671 41.1937 41.1503 41.189C40.3537 40.9758 39.6219 40.5696 39.0197 40.0063C38.4174 39.4431 37.9632 38.7401 37.6971 37.9596C37.6714 37.8784 37.8041 37.8448 37.8298 37.924H37.8357Z" fill="black"/>
<path d="M33.8599 38.1439C33.9536 39.4547 34.0466 40.7654 34.139 42.0762C34.139 42.1613 34.2816 42.1613 34.2776 42.0762C34.2281 41.4049 34.1806 40.7298 34.1331 40.0566C34.4756 40.3061 34.8756 40.0031 34.9865 39.6705C35.1408 39.1046 35.1311 38.5065 34.9588 37.9459C34.935 37.8627 34.8023 37.8984 34.8241 37.9796C34.9268 38.3572 34.9649 38.7495 34.937 39.1398C34.9362 39.3493 34.8917 39.5564 34.8063 39.7477C34.6974 39.9457 34.4202 40.1219 34.1984 39.9457C34.1883 39.9375 34.1761 39.9322 34.1632 39.9305C34.1503 39.9288 34.1371 39.9306 34.1252 39.9358C34.0836 39.3418 34.04 38.7478 33.9985 38.1538C33.9866 38.0607 33.8599 38.0607 33.8599 38.1439Z" fill="black"/>
<path d="M30.5968 37.9022C30.6166 39.6387 29.2108 41.094 27.3774 41.2306C27.2902 41.2306 27.2902 41.1078 27.3774 41.1019C29.1297 40.9712 30.478 39.5654 30.4602 37.9022C30.4602 37.8191 30.5949 37.8191 30.5968 37.9022Z" fill="black"/>
<path d="M31.2581 71.8223L30.4859 77.0277L28.6366 77.1148L28.0366 72.0955L31.2581 71.8223Z" fill="#263238"/>
<path d="M27.0606 79.4455H31.1988C31.1988 79.4455 31.2879 79.2871 31.185 78.8614C31.1691 78.7961 31.1493 78.7228 31.1216 78.6436C31.1225 78.6397 31.1225 78.6357 31.1216 78.6317C31.084 78.5149 31.0384 78.3704 30.9929 78.214C30.7949 77.5784 30.6741 76.1171 30.6741 76.1171C30.6741 76.1171 29.892 75.3964 29.0901 75.735C28.3833 76.03 28.4961 76.4062 28.4961 76.4062C28.4961 76.4062 28.4842 77.3744 27.9477 77.814C27.617 78.0853 27.2883 78.2951 27.1299 78.6317C27.0996 78.695 27.0764 78.7614 27.0606 78.8297V78.8555C27.0198 79.05 27.0198 79.251 27.0606 79.4455Z" fill="#B379FC"/>
<path d="M31.185 78.8613C31.288 79.287 31.1989 79.4454 31.1989 79.4454H27.0607C27.0154 79.2539 27.0101 79.0551 27.0448 78.8613H31.185Z" fill="white"/>
<path d="M28.7118 77.0904C28.8222 77.0108 28.9565 76.9715 29.0924 76.979C29.2283 76.9866 29.3574 77.0406 29.4583 77.132C29.5157 77.1835 29.6008 77.1043 29.5454 77.0528C29.4202 76.9408 29.2602 76.8755 29.0925 76.8679C28.9247 76.8604 28.7595 76.911 28.6247 77.0112C28.5633 77.0548 28.6504 77.134 28.7118 77.0904Z" fill="#263238"/>
<path d="M28.5932 77.4459C28.7035 77.3662 28.8379 77.3269 28.9738 77.3345C29.1096 77.3421 29.2388 77.3961 29.3396 77.4874C29.397 77.5389 29.4822 77.4597 29.4267 77.4082C29.3016 77.2963 29.1416 77.231 28.9738 77.2234C28.806 77.2158 28.6408 77.2664 28.506 77.3667C28.4447 77.4102 28.5318 77.4894 28.5932 77.4459Z" fill="#263238"/>
<path d="M28.4762 77.775C28.5868 77.6957 28.7213 77.6567 28.8572 77.6646C28.9931 77.6726 29.1221 77.7269 29.2227 77.8186C29.2801 77.8681 29.3652 77.7889 29.3098 77.7394C29.1849 77.6271 29.025 77.5615 28.8572 77.5535C28.6894 77.5456 28.5241 77.5959 28.3891 77.6958C28.3277 77.7414 28.4148 77.8186 28.4762 77.775Z" fill="#263238"/>
<path d="M40.5503 36.1079C41.2869 37.3177 41.2869 38.2859 40.584 38.5373C40.584 38.5373 34.2024 39.6184 27.6764 38.8779C26.1043 38.963 26.8725 37.5077 26.8725 37.5077L26.8388 17.3613C31.7987 16.3079 37.8001 17.2821 39.0158 17.3613L40.5503 36.1079Z" fill="#B379FC"/>
<path d="M24.9895 20.2852C24.9895 20.2852 22.9699 29.2328 22.7857 31.29C22.6016 33.3472 22.564 43.17 22.564 43.17L24.7063 42.9621L25.9121 32.7987L28.3277 20.8217L24.9895 20.2852Z" fill="#B97964"/>
<path d="M24.5539 42.6757C24.5539 42.6757 25.2251 43.0935 25.3796 43.7568C25.534 44.4201 25.8211 44.9032 25.9043 45.4042C25.9874 45.9051 25.4845 45.4695 25.2628 45.1824C25.041 44.8953 24.7836 44.5686 24.6074 44.7864C24.4312 45.0042 23.9599 47.3822 23.6808 47.6475C23.4016 47.9128 23.3659 47.501 23.3659 47.501C23.3659 47.501 23.2372 48.0752 23.0076 48.0851C22.9482 48.0851 22.8096 47.9881 22.8254 47.7168C22.869 47.105 23.0234 45.824 23.0234 45.824C23.0234 45.8992 22.7165 47.4634 22.6432 47.6911C22.5462 47.9901 22.3581 48.0871 22.1958 48.0138C21.9661 47.9208 22.275 45.9685 22.2334 45.8754C22.2334 45.8754 22.0908 47.006 21.7938 47.1288C21.4968 47.2515 21.5523 46.5348 21.7107 45.9091C21.8572 45.3369 22.0037 44.1766 22.2076 43.6103C22.4571 42.9133 22.7719 42.5055 23.4313 42.4599C23.8181 42.4291 24.2061 42.5036 24.5539 42.6757Z" fill="#B97964"/>
<path d="M26.8388 17.3613C26.8388 17.3613 25.2707 17.3613 24.6747 19.4839C24.0371 21.749 22.4967 30.9342 22.2749 32.1301C22.0532 33.3261 22.2155 42.4519 22.2155 42.4519H25.1063C25.1063 42.4519 25.8409 33.1459 25.9122 32.7994C25.9835 32.4529 28.9535 20.7016 28.9535 20.7016L26.8388 17.3613Z" fill="#B379FC"/>
<path opacity="0.2" d="M26.8586 29.0669V22.4121C26.8586 22.4121 25.8824 29.2411 26.3735 30.936L26.8586 29.0669Z" fill="black"/>
<path d="M38.8098 17.3596C38.8098 17.3596 40.7284 17.2883 41.5818 19.8662C42.4867 22.6224 44.4033 29.5524 44.4033 29.5524L50.4106 35.33L49.3078 36.518C49.3078 36.518 44.6746 34.0866 42.5025 32.7303C40.3305 31.374 38.9088 24.7093 38.9563 24.3648C39.0039 24.0203 38.8098 17.3596 38.8098 17.3596Z" fill="#B379FC"/>
<path opacity="0.2" d="M40.4632 29.7115L39.9107 28.2899L39.2197 21.7559C39.2197 21.7559 40.776 26.9415 40.4632 29.7115Z" fill="black"/>
<path d="M36.2894 8.39497C36.2894 8.39497 38.9228 6.91393 37.3606 5.32399C36.127 4.06867 35.0361 4.25083 33.3887 4.55179C29.3475 5.28835 29.5831 6.97135 29.5831 6.97135L36.2894 8.39497Z" fill="#263238"/>
<path d="M31.1434 16.8733C31.1434 16.8733 31.3612 15.323 30.4524 12.6361C30.4524 12.6361 30.593 12.5649 30.593 12.5609C30.4682 12.1847 30.3376 11.8382 30.2148 11.5392C30.2145 11.5353 30.2145 11.5313 30.2148 11.5273L34.0362 13.6657C33.9867 14.5389 34.3728 16.2081 34.5886 16.909C34.5886 16.909 35.1153 18.1742 33.4006 18.3049C32.1572 18.3999 31.1434 16.8733 31.1434 16.8733Z" fill="#B97964"/>
<path opacity="0.2" d="M34.1509 14.8862L31.9888 14.4902C32.2105 15.1476 32.8342 15.9119 34.3291 15.9099C34.2426 15.574 34.183 15.2317 34.1509 14.8862Z" fill="black"/>
<path d="M30.0979 9.71996C30.4523 12.0702 30.6048 13.4008 31.9056 14.4977C33.8599 16.1451 36.6319 14.8383 36.9823 12.4345C37.3031 10.2565 36.6715 6.7856 34.2737 6.0728C33.7432 5.91424 33.1812 5.89267 32.6402 6.01011C32.0991 6.12755 31.5966 6.38016 31.1796 6.74437C30.7626 7.10858 30.4447 7.57251 30.2555 8.09285C30.0664 8.61319 30.0121 9.17298 30.0979 9.71996Z" fill="#B97964"/>
<path d="M29.5534 6.90831C32.4383 4.13632 35.3706 5.68863 36.4933 7.21125L31.4641 7.27065C31.2423 7.27065 31.1176 7.49637 31.1671 7.91415C31.1671 7.91415 32.9115 11.0426 30.5058 12.7968C29.6465 12.4681 29.4722 11.0366 29.1356 10.205C28.6367 8.96751 28.005 7.14393 29.5534 6.90831Z" fill="#263238"/>
<path d="M29.3455 11.7707C29.4599 12.0426 29.6271 12.289 29.8375 12.4957C30.0479 12.7023 30.2973 12.8651 30.5711 12.9746C31.3077 13.2636 31.5017 12.4697 31.3631 11.7311C31.2443 11.0678 30.977 10.2679 30.2029 10.2956C29.4287 10.3233 29.0683 11.0955 29.3455 11.7707Z" fill="#B97964"/>
<path d="M33.2778 10.058C33.2976 10.2996 33.4441 10.4837 33.6025 10.4679C33.7609 10.4521 33.8698 10.2442 33.85 10.0026C33.8302 9.76105 33.6817 9.57691 33.5253 9.59275C33.3689 9.60859 33.2659 9.82045 33.2778 10.058Z" fill="#263238"/>
<path d="M35.719 9.98383C35.7388 10.2254 35.8854 10.4095 36.0438 10.3937C36.2022 10.3778 36.3111 10.1699 36.2913 9.92839C36.2715 9.68683 36.1249 9.50269 35.9665 9.51853C35.8081 9.53437 35.6973 9.74227 35.719 9.98383Z" fill="#263238"/>
<path d="M35.137 9.87695C35.137 9.87695 36.0062 11.0095 36.2953 11.4768C35.9864 11.8114 35.3944 11.7223 35.3944 11.7223L35.137 9.87695Z" fill="#A24E3F"/>
<path d="M32.8542 9.01589C32.8733 9.02202 32.8937 9.02287 32.9132 9.01834C32.9327 9.0138 32.9506 9.00406 32.9651 8.99015C33.0679 8.88874 33.1932 8.81295 33.3308 8.76892C33.4684 8.7249 33.6144 8.71386 33.7571 8.73671C33.7865 8.74391 33.8175 8.73922 33.8435 8.72364C33.8694 8.70807 33.8882 8.68288 33.8957 8.65355C33.8995 8.63911 33.9004 8.62405 33.8982 8.60927C33.8961 8.59448 33.891 8.58029 33.8832 8.56753C33.8754 8.55477 33.8652 8.54371 33.853 8.53501C33.8409 8.52632 33.8271 8.52017 33.8125 8.51693C33.6348 8.48586 33.4523 8.49767 33.2801 8.5514C33.1079 8.60513 32.951 8.69921 32.8225 8.82581C32.8119 8.83631 32.8035 8.8488 32.7978 8.86256C32.792 8.87632 32.7891 8.89109 32.7891 8.906C32.7891 8.92091 32.792 8.93568 32.7978 8.94944C32.8035 8.96321 32.8119 8.9757 32.8225 8.98619C32.8313 8.99784 32.842 9.00789 32.8542 9.01589Z" fill="#263238"/>
<path d="M34.5629 12.6313C34.194 12.6128 33.8435 12.4649 33.5729 12.2135C33.5578 12.2008 33.5483 12.1827 33.5465 12.1631C33.5446 12.1435 33.5505 12.1239 33.563 12.1086C33.5753 12.0937 33.5931 12.0842 33.6124 12.0824C33.6317 12.0805 33.651 12.0864 33.6659 12.0987C34.0362 12.3957 34.3312 12.5086 34.6559 12.4789C34.6656 12.4778 34.6753 12.4786 34.6846 12.4813C34.6939 12.484 34.7026 12.4885 34.7102 12.4946C34.7177 12.5006 34.724 12.5082 34.7286 12.5167C34.7332 12.5252 34.7361 12.5345 34.7371 12.5442C34.7388 12.5638 34.7326 12.5834 34.7201 12.5986C34.7075 12.6137 34.6894 12.6234 34.6698 12.6254L34.5629 12.6313Z" fill="#263238"/>
<path opacity="0.2" d="M30.9692 11.7333C30.9577 11.7332 30.9466 11.7292 30.9377 11.722C30.9287 11.7149 30.9224 11.7049 30.9197 11.6937C30.8803 11.4998 30.7909 11.3196 30.6603 11.171C30.5596 11.0475 30.42 10.9617 30.2643 10.9274C30.1891 10.9122 30.1109 10.9201 30.0402 10.9502C29.9696 10.9802 29.9096 11.031 29.8683 11.0957C29.8611 11.1057 29.8505 11.1125 29.8385 11.1151C29.8265 11.1176 29.814 11.1156 29.8034 11.1094C29.7928 11.1033 29.7849 11.0934 29.7812 11.0817C29.7774 11.0701 29.7782 11.0574 29.7832 11.0462C29.8338 10.965 29.9077 10.9009 29.9954 10.8624C30.083 10.8239 30.1802 10.8128 30.2742 10.8304C30.4547 10.866 30.6171 10.9634 30.7336 11.1056C30.8749 11.2675 30.9718 11.4633 31.0148 11.6739C31.0171 11.6865 31.0145 11.6995 31.0075 11.7102C31.0005 11.7209 30.9896 11.7285 30.9771 11.7313L30.9692 11.7333Z" fill="black"/>
<path d="M36.8754 8.82903C36.8965 8.82292 36.9152 8.81047 36.9289 8.79339C36.9385 8.78189 36.9458 8.76857 36.9502 8.75423C36.9546 8.73989 36.9561 8.72481 36.9547 8.70988C36.9532 8.69494 36.9487 8.68045 36.9416 8.66726C36.9345 8.65406 36.9248 8.64242 36.9131 8.63302C36.7772 8.51561 36.615 8.43271 36.4402 8.39135C36.2655 8.34999 36.0833 8.35138 35.9092 8.39541C35.8807 8.40536 35.8571 8.42597 35.8434 8.45292C35.8298 8.47987 35.8271 8.51107 35.8359 8.53995C35.845 8.56819 35.8649 8.59171 35.8912 8.60542C35.9175 8.61913 35.9482 8.62193 35.9765 8.61321C36.1147 8.57884 36.2591 8.57893 36.3972 8.61345C36.5353 8.64797 36.6628 8.71588 36.7685 8.81121C36.7831 8.82344 36.8008 8.83155 36.8196 8.83468C36.8383 8.83781 36.8576 8.83586 36.8754 8.82903Z" fill="#263238"/>
<path opacity="0.3" d="M28.7792 9.22517L31.6661 9.29645C31.591 8.96291 31.4876 8.63636 31.3572 8.32031H28.5852C28.6162 8.62819 28.6813 8.93167 28.7792 9.22517Z" fill="white"/>
<g opacity="0.2">
<path d="M33.4382 11.6191C33.3346 11.7328 33.2547 11.8659 33.203 12.0107C33.1514 12.1555 33.129 12.3091 33.1372 12.4626C33.0555 12.3099 33.0283 12.1339 33.06 11.9637C33.1214 11.7063 33.4382 11.6191 33.4382 11.6191Z" fill="black"/>
</g>
<path d="M34.2362 15.6358L35.5984 16.8614L33.3234 19.6195L30.0366 16.8495L31.0108 15.418L33.066 17.1326L34.2362 15.6358Z" fill="#B379FC"/>
<path opacity="0.8" d="M34.2362 15.6358L35.5984 16.8614L33.3234 19.6195L30.0366 16.8495L31.0108 15.418L33.066 17.1326L34.2362 15.6358Z" fill="white"/>
<path d="M68.5257 66.3741V57.7433C68.5257 55.1693 69.1475 51.4944 66.3379 50.2193C65.4766 49.8233 64.5024 49.8768 63.5659 49.8906C63.5528 49.616 63.4356 49.3566 63.238 49.1653C63.0405 48.9741 62.7775 48.8652 62.5026 48.861H52.5749C52.2993 48.8653 52.0358 48.9747 51.8381 49.1668C51.6405 49.3589 51.5237 49.6192 51.5116 49.8946H49.0089L48.5535 45.396C48.4228 44.0971 48.3773 42.7507 48.1456 41.4637C47.9916 40.5925 47.5413 39.8013 46.8709 39.224C46.2005 38.6467 45.3512 38.3188 44.4668 38.2957H44.3876C44.3339 38.2324 44.2668 38.1817 44.1911 38.1475C44.1154 38.1132 44.0331 38.0963 43.95 38.0977H39.7009C38.9089 38.0977 38.9089 39.3768 39.7009 39.3768H43.9579C44.106 39.378 44.2484 39.3203 44.3539 39.2164C45.4469 39.3036 46.4428 39.6263 47.0348 40.8242C47.3081 41.3826 47.3437 41.9686 47.4031 42.5686L47.6665 45.0673L48.5515 53.8546C43.4174 54.8446 39.4851 60.0856 39.4851 66.4295C39.4851 73.4546 44.3302 79.1708 50.2939 79.1708C56.125 79.1708 60.8889 73.6862 61.0869 66.877H65.5142C66.1664 66.839 66.8208 66.8636 67.4684 66.9503C67.5397 66.9641 67.609 66.978 67.6763 66.9958V72.4289C67.1942 72.0756 66.6128 71.8836 66.0151 71.8805C64.2727 71.8805 62.8471 73.516 62.8471 75.5296C62.8471 77.5433 64.2648 79.1768 66.0151 79.1768C67.7654 79.1768 69.1831 77.5413 69.1831 75.5296C69.1881 74.7508 68.9651 73.9875 68.5416 73.3338V66.3642L68.5257 66.3741ZM66.0012 77.6423C65.0746 77.6423 64.3202 76.6958 64.3202 75.5316C64.3202 74.3674 65.0746 73.4189 66.0012 73.4189C66.3138 73.4356 66.6151 73.5407 66.8703 73.7219C67.1255 73.9031 67.3239 74.153 67.4427 74.4426C67.2189 75.0208 66.7715 75.4326 65.8864 75.4861C65.334 75.5138 65.33 76.4107 65.8864 76.381C66.564 76.3656 67.2086 76.0856 67.6823 75.6009C67.6506 76.7236 66.912 77.6423 66.0012 77.6423ZM50.2781 77.6423C45.1301 77.6423 40.9563 72.617 40.9563 66.4375C40.9563 60.9073 44.3222 56.2999 48.7 55.395C48.7218 55.6188 48.7456 55.8445 48.7673 56.0682C44.5836 56.9216 41.3839 61.2439 41.3839 66.4375C41.3839 72.2408 45.3716 76.9631 50.2702 76.9631C55.0459 76.9631 58.9505 72.4765 59.1584 66.8849H59.5999C59.4019 72.8566 55.2954 77.6423 50.2781 77.6423ZM59.1663 65.99C58.9683 60.3925 55.0598 55.9118 50.2781 55.9118C50.0583 55.9118 49.8365 55.9237 49.6187 55.9435L49.5514 55.2683C49.791 55.2465 50.0306 55.2307 50.2721 55.2307C55.2895 55.2307 59.398 60.0163 59.5781 65.99H59.1663ZM49.2663 60.9133C49.3891 62.1409 49.4643 63.3902 49.6425 64.6079C50.0207 67.1641 52.4719 66.8849 54.3252 66.8849H58.501C58.303 72.1201 54.6935 76.28 50.2781 76.28C45.7419 76.28 42.0492 71.8646 42.0492 66.4375C42.0492 61.6003 44.9855 57.5671 48.8366 56.7493L49.2584 60.9073L49.2663 60.9133ZM56.7705 65.99H53.3847C52.8263 65.99 52.1274 66.087 51.5869 65.8949C50.1177 65.3742 50.3058 62.7547 50.1751 61.4696L49.6999 56.6226C49.8979 56.6068 50.0959 56.5949 50.2939 56.5949C54.7073 56.5949 58.3189 60.7687 58.5149 65.99H56.7705ZM66.6606 65.99C66.029 65.9761 65.3954 65.99 64.7638 65.99H61.073C60.875 59.1689 56.1112 53.6942 50.2781 53.6942C49.9831 53.6942 49.6841 53.712 49.397 53.7397C49.2967 52.7537 49.1963 51.7683 49.096 50.7836H51.8542C52.0477 50.9702 52.306 51.0745 52.5749 51.0747H62.5066C62.7756 51.0737 63.0339 50.9687 63.2273 50.7816H64.6271C66.3082 50.7816 67.613 51.9518 67.6605 53.7516C67.6842 54.601 67.6605 55.4564 67.6605 56.3058V66.1009C67.3257 66.03 66.9849 65.9915 66.6428 65.986L66.6606 65.99Z" fill="#B379FC"/>
<path opacity="0.4" d="M68.5257 66.3741V57.7433C68.5257 55.1693 69.1475 51.4944 66.3379 50.2193C65.4766 49.8233 64.5024 49.8768 63.5659 49.8906C63.5528 49.616 63.4356 49.3566 63.238 49.1653C63.0405 48.9741 62.7775 48.8652 62.5026 48.861H52.5749C52.2993 48.8653 52.0358 48.9747 51.8381 49.1668C51.6405 49.3589 51.5237 49.6192 51.5116 49.8946H49.0089L48.5535 45.396C48.4228 44.0971 48.3773 42.7507 48.1456 41.4637C47.9916 40.5925 47.5413 39.8013 46.8709 39.224C46.2005 38.6467 45.3512 38.3188 44.4668 38.2957H44.3876C44.3339 38.2324 44.2668 38.1817 44.1911 38.1475C44.1154 38.1132 44.0331 38.0963 43.95 38.0977H39.7009C38.9089 38.0977 38.9089 39.3768 39.7009 39.3768H43.9579C44.106 39.378 44.2484 39.3203 44.3539 39.2164C45.4469 39.3036 46.4428 39.6263 47.0348 40.8242C47.3081 41.3826 47.3437 41.9686 47.4031 42.5686L47.6665 45.0673L48.5515 53.8546C43.4174 54.8446 39.4851 60.0856 39.4851 66.4295C39.4851 73.4546 44.3302 79.1708 50.2939 79.1708C56.125 79.1708 60.8889 73.6862 61.0869 66.877H65.5142C66.1664 66.839 66.8208 66.8636 67.4684 66.9503C67.5397 66.9641 67.609 66.978 67.6763 66.9958V72.4289C67.1942 72.0756 66.6128 71.8836 66.0151 71.8805C64.2727 71.8805 62.8471 73.516 62.8471 75.5296C62.8471 77.5433 64.2648 79.1768 66.0151 79.1768C67.7654 79.1768 69.1831 77.5413 69.1831 75.5296C69.1881 74.7508 68.9651 73.9875 68.5416 73.3338V66.3642L68.5257 66.3741ZM66.0012 77.6423C65.0746 77.6423 64.3202 76.6958 64.3202 75.5316C64.3202 74.3674 65.0746 73.4189 66.0012 73.4189C66.3138 73.4356 66.6151 73.5407 66.8703 73.7219C67.1255 73.9031 67.3239 74.153 67.4427 74.4426C67.2189 75.0208 66.7715 75.4326 65.8864 75.4861C65.334 75.5138 65.33 76.4107 65.8864 76.381C66.564 76.3656 67.2086 76.0856 67.6823 75.6009C67.6506 76.7236 66.912 77.6423 66.0012 77.6423ZM50.2781 77.6423C45.1301 77.6423 40.9563 72.617 40.9563 66.4375C40.9563 60.9073 44.3222 56.2999 48.7 55.395C48.7218 55.6188 48.7456 55.8445 48.7673 56.0682C44.5836 56.9216 41.3839 61.2439 41.3839 66.4375C41.3839 72.2408 45.3716 76.9631 50.2702 76.9631C55.0459 76.9631 58.9505 72.4765 59.1584 66.8849H59.5999C59.4019 72.8566 55.2954 77.6423 50.2781 77.6423ZM59.1663 65.99C58.9683 60.3925 55.0598 55.9118 50.2781 55.9118C50.0583 55.9118 49.8365 55.9237 49.6187 55.9435L49.5514 55.2683C49.791 55.2465 50.0306 55.2307 50.2721 55.2307C55.2895 55.2307 59.398 60.0163 59.5781 65.99H59.1663ZM49.2663 60.9133C49.3891 62.1409 49.4643 63.3902 49.6425 64.6079C50.0207 67.1641 52.4719 66.8849 54.3252 66.8849H58.501C58.303 72.1201 54.6935 76.28 50.2781 76.28C45.7419 76.28 42.0492 71.8646 42.0492 66.4375C42.0492 61.6003 44.9855 57.5671 48.8366 56.7493L49.2584 60.9073L49.2663 60.9133ZM56.7705 65.99H53.3847C52.8263 65.99 52.1274 66.087 51.5869 65.8949C50.1177 65.3742 50.3058 62.7547 50.1751 61.4696L49.6999 56.6226C49.8979 56.6068 50.0959 56.5949 50.2939 56.5949C54.7073 56.5949 58.3189 60.7687 58.5149 65.99H56.7705ZM66.6606 65.99C66.029 65.9761 65.3954 65.99 64.7638 65.99H61.073C60.875 59.1689 56.1112 53.6942 50.2781 53.6942C49.9831 53.6942 49.6841 53.712 49.397 53.7397C49.2967 52.7537 49.1963 51.7683 49.096 50.7836H51.8542C52.0477 50.9702 52.306 51.0745 52.5749 51.0747H62.5066C62.7756 51.0737 63.0339 50.9687 63.2273 50.7816H64.6271C66.3082 50.7816 67.613 51.9518 67.6605 53.7516C67.6842 54.601 67.6605 55.4564 67.6605 56.3058V66.1009C67.3257 66.03 66.9849 65.9915 66.6428 65.986L66.6606 65.99Z" fill="black"/>
<path d="M51.1572 35.8516C51.1572 35.8516 52.7214 36.0773 53.4223 37.3742C54.248 38.9008 56.1092 41.5183 56.1092 41.5183L58.105 38.1622L60.2731 38.98C60.2731 38.98 57.9684 43.627 57.5011 44.4923C56.923 45.5417 55.5489 45.1259 55.0479 44.7932C53.8738 44.0012 52.6719 42.6667 52.6719 42.6667L51.1572 35.8516Z" fill="#B379FC"/>
<path opacity="0.5" d="M51.1572 35.8516C51.1572 35.8516 52.7214 36.0773 53.4223 37.3742C54.248 38.9008 56.1092 41.5183 56.1092 41.5183L58.105 38.1622L60.2731 38.98C60.2731 38.98 57.9684 43.627 57.5011 44.4923C56.923 45.5417 55.5489 45.1259 55.0479 44.7932C53.8738 44.0012 52.6719 42.6667 52.6719 42.6667L51.1572 35.8516Z" fill="white"/>
<path d="M67.1892 58.2305H39.8949C39.4324 58.2305 39.0574 58.6054 39.0574 59.068V59.4066C39.0574 59.8691 39.4324 60.2441 39.8949 60.2441H67.1892C67.6517 60.2441 68.0267 59.8691 68.0267 59.4066V59.068C68.0267 58.6054 67.6517 58.2305 67.1892 58.2305Z" fill="#B379FC"/>
<path d="M38.9128 49.9501H49.1177L48.4386 43.2656H38.2336L38.9128 49.9501Z" fill="#B379FC"/>
<path d="M69.6107 56.1453C68.9117 53.0308 67.2525 52.2051 65.9734 51.7893C62.552 50.6488 54.2538 49.8786 54.2538 49.8786L53.5786 48.9599L43.8628 48.3184C43.8628 48.3184 44.2944 54.6049 49.9176 57.2284C50.7461 57.5933 51.6147 57.8591 52.5055 58.0204C56.5464 58.7877 60.6866 58.88 64.7577 58.2936L68.2762 71.4527L72.4698 70.3102L69.6107 56.1453Z" fill="#263238"/>
<path d="M71.9728 70.4305C71.955 70.1454 71.9035 69.9157 71.6006 69.9414L71.1709 69.979C71.0221 70.0231 70.8906 70.1124 70.7947 70.2345C69.9156 71.0562 69.3889 70.2345 69.0127 70.2919C68.5276 70.3632 69.0662 71.8759 69.0543 71.959L68.785 73.842C68.7593 74.0004 68.8999 74.3113 69.0682 74.3311C69.0984 74.335 69.129 74.335 69.1593 74.3311L71.5075 73.9905L74.7983 73.5133C75.6952 73.3827 75.5447 72.2838 75.1646 72.26C73.4539 72.157 72.7193 71.7096 72.1154 71.3908C72.0472 71.0741 71.9996 70.7533 71.9728 70.4305Z" fill="#B379FC"/>
<path opacity="0.4" d="M74.7944 73.5119L71.5037 73.9891L69.1554 74.3296C69.1252 74.3336 69.0945 74.3336 69.0643 74.3296C68.9514 74.3158 68.8505 74.1692 68.8049 74.0247L68.7871 73.8881L75.4399 72.9238C75.4121 73.0793 75.3338 73.2212 75.2171 73.3275C75.1003 73.4338 74.9518 73.4987 74.7944 73.5119Z" fill="white"/>
<path d="M72.9747 71.835C72.8447 71.995 72.7454 72.1776 72.6816 72.3736C72.6767 72.3925 72.6793 72.4125 72.6889 72.4295C72.6985 72.4465 72.7144 72.4591 72.7331 72.4647C72.752 72.4691 72.7718 72.4662 72.7887 72.4567C72.8056 72.4472 72.8182 72.4316 72.8242 72.4132C72.881 72.2417 72.9674 72.0815 73.0796 71.94C73.0933 71.9259 73.1009 71.9071 73.1009 71.8875C73.1009 71.8679 73.0933 71.8491 73.0796 71.835C73.0653 71.8218 73.0466 71.8145 73.0271 71.8145C73.0077 71.8145 72.9889 71.8218 72.9747 71.835Z" fill="#263238"/>
<path d="M72.4103 71.5852C72.2923 71.737 72.1981 71.9059 72.1311 72.0862C72.1262 72.1053 72.1287 72.1256 72.1383 72.143C72.1479 72.1603 72.1638 72.1733 72.1826 72.1792C72.2018 72.1835 72.2218 72.1804 72.2387 72.1705C72.2556 72.1606 72.2682 72.1446 72.2737 72.1258C72.3328 71.9693 72.4149 71.8224 72.5172 71.6902C72.5305 71.6759 72.5378 71.6571 72.5378 71.6377C72.5378 71.6182 72.5305 71.5995 72.5172 71.5852C72.5026 71.5719 72.4836 71.5645 72.4638 71.5645C72.444 71.5645 72.4249 71.5719 72.4103 71.5852Z" fill="#263238"/>
<path d="M72.0184 71.3535C71.8863 71.4527 71.7892 71.5914 71.7412 71.7495C71.7363 71.7684 71.7389 71.7885 71.7485 71.8055C71.7581 71.8225 71.7739 71.8351 71.7927 71.8406C71.8121 71.845 71.8324 71.8419 71.8496 71.832C71.8669 71.8221 71.8798 71.8061 71.8857 71.7871C71.8901 71.771 71.8954 71.7551 71.9016 71.7396V71.7297L71.9134 71.706C71.9286 71.6748 71.9465 71.6449 71.9669 71.6169C71.9709 71.6098 71.9755 71.6032 71.9808 71.5971L72.0164 71.5575L72.0521 71.5238L72.0718 71.504C72.058 71.504 72.0857 71.4921 72.0718 71.504C72.0878 71.4938 72.0997 71.4784 72.1055 71.4604C72.1094 71.4514 72.1114 71.4416 72.1114 71.4317C72.1114 71.4219 72.1094 71.4121 72.1055 71.403C72.0956 71.3862 72.0795 71.3739 72.0606 71.3687C72.0418 71.3635 72.0217 71.3659 72.0045 71.3753L72.0184 71.3535Z" fill="#263238"/>
<path d="M71.953 70.7735C71.7954 70.7986 71.6442 70.8537 71.5075 70.9359C71.4906 70.9458 71.4783 70.9619 71.4731 70.9807C71.468 70.9996 71.4703 71.0197 71.4797 71.0369C71.4904 71.0535 71.5068 71.0655 71.5258 71.0706C71.5449 71.0758 71.5652 71.0736 71.5827 71.0646C71.7079 70.9879 71.8473 70.9374 71.9925 70.9161C72.002 70.9136 72.0108 70.9092 72.0185 70.9032C72.0262 70.8973 72.0326 70.8898 72.0374 70.8813C72.0422 70.8729 72.0453 70.8635 72.0464 70.8538C72.0475 70.8442 72.0467 70.8344 72.044 70.825C72.0381 70.8065 72.0254 70.791 72.0085 70.7815C71.9917 70.7719 71.9718 70.7691 71.953 70.7735Z" fill="#263238"/>
<g opacity="0.3">
<path d="M70.3175 71.1682C70.3325 71.2487 70.3268 71.3316 70.3008 71.4092C70.2748 71.4868 70.2295 71.5565 70.169 71.6117C70.082 71.6635 69.9831 71.6921 69.8819 71.6949L68.981 71.7998C68.8721 71.3821 68.585 70.3624 68.9652 70.3089C69.2582 70.2673 69.6503 70.8178 70.2363 70.5544C70.2581 70.7722 70.3076 71.0593 70.3175 71.1682Z" fill="black"/>
</g>
<path opacity="0.3" d="M60.4888 52.196C63.9082 53.1345 63.7003 55.166 64.7596 58.233C64.7596 58.233 60.2413 58.9992 54.1943 58.233L53.0063 55.6293L54.9071 51.1446C56.2951 51.1386 58.3009 51.6396 60.4888 52.196Z" fill="black"/>
<path d="M65.6092 70.7999C65.5914 70.5167 65.5399 70.2851 65.237 70.3128L64.8073 70.3504C64.6581 70.3938 64.5264 70.4832 64.4311 70.6058C63.552 71.4275 63.0253 70.6058 62.6491 70.6633C62.162 70.7345 62.7026 72.2473 62.6907 72.3304L62.4155 74.2114C62.3917 74.3678 62.5323 74.6807 62.7006 74.7005C62.7302 74.7044 62.7601 74.7044 62.7897 74.7005L65.1439 74.3599L68.4347 73.8827C69.3296 73.7521 69.1811 72.6532 68.801 72.6294C67.0902 72.5264 66.3557 72.079 65.7518 71.7602C65.6836 71.4435 65.636 71.1227 65.6092 70.7999Z" fill="#B379FC"/>
<path opacity="0.4" d="M68.4306 73.883L65.1438 74.3602L62.7935 74.7008C62.764 74.7047 62.734 74.7047 62.7044 74.7008C62.5896 74.6869 62.4906 74.5384 62.4451 74.3958L62.4272 74.2572L69.084 73.293C69.0562 73.45 68.9769 73.5933 68.8586 73.7001C68.7402 73.807 68.5896 73.8714 68.4306 73.883Z" fill="white"/>
<path d="M66.611 72.1956C66.4814 72.3551 66.3821 72.5369 66.3179 72.7321C66.3129 72.7513 66.3155 72.7716 66.3251 72.7889C66.3347 72.8063 66.3505 72.8192 66.3694 72.8252C66.3886 72.83 66.4089 72.8271 66.4259 72.8171C66.4429 72.8071 66.4554 72.7908 66.4605 72.7717C66.5169 72.6007 66.6034 72.4411 66.7159 72.3005C66.7298 72.2866 66.7376 72.2677 66.7376 72.248C66.7376 72.2283 66.7298 72.2095 66.7159 72.1956C66.702 72.1816 66.6831 72.1738 66.6634 72.1738C66.6437 72.1738 66.6249 72.1816 66.611 72.1956Z" fill="#263238"/>
<path d="M66.0467 71.9561C65.9282 72.1076 65.8341 72.2766 65.7675 72.4571C65.7648 72.4664 65.764 72.4762 65.7651 72.4859C65.7663 72.4956 65.7693 72.5049 65.7741 72.5134C65.7789 72.5219 65.7854 72.5293 65.7931 72.5353C65.8008 72.5412 65.8096 72.5456 65.819 72.5481C65.8379 72.553 65.858 72.5504 65.875 72.5408C65.8919 72.5312 65.9045 72.5154 65.9101 72.4967C65.9692 72.3406 66.0506 72.1939 66.1516 72.0611C66.1653 72.047 66.173 72.0282 66.173 72.0086C66.173 71.989 66.1653 71.9702 66.1516 71.9561C66.1374 71.9429 66.1186 71.9355 66.0992 71.9355C66.0797 71.9355 66.061 71.9429 66.0467 71.9561Z" fill="#263238"/>
<path d="M65.6547 71.7246C65.5232 71.8245 65.4263 71.9629 65.3775 72.1206C65.3749 72.13 65.3741 72.1398 65.3753 72.1494C65.3765 72.159 65.3796 72.1684 65.3843 72.1768C65.3891 72.1853 65.3955 72.1927 65.4032 72.1987C65.4108 72.2047 65.4196 72.2091 65.4289 72.2117C65.4383 72.2143 65.4481 72.215 65.4577 72.2138C65.4674 72.2127 65.4767 72.2096 65.4851 72.2048C65.4936 72.2 65.501 72.1936 65.507 72.186C65.513 72.1783 65.5174 72.1696 65.52 72.1602L65.5378 72.1107V72.1008L65.5497 72.079C65.5637 72.0476 65.581 72.0178 65.6012 71.9899L65.617 71.9701C65.617 71.9701 65.617 71.9701 65.617 71.9582L65.6527 71.9206L65.6883 71.885L65.7081 71.8672H65.718C65.7042 71.8672 65.7319 71.8553 65.718 71.8672C65.7345 71.8567 65.7465 71.8404 65.7517 71.8216C65.7587 71.8038 65.7587 71.784 65.7517 71.7662C65.7469 71.7577 65.7406 71.7502 65.7329 71.7441C65.7252 71.7381 65.7164 71.7337 65.707 71.7311C65.6976 71.7285 65.6878 71.7278 65.6781 71.7291C65.6684 71.7304 65.6591 71.7336 65.6507 71.7385L65.6547 71.7246Z" fill="#263238"/>
<path d="M65.5894 71.143C65.4315 71.1667 65.28 71.2219 65.1439 71.3054C65.1271 71.3153 65.1148 71.3314 65.1096 71.3503C65.1044 71.3691 65.1068 71.3892 65.1162 71.4064C65.1268 71.423 65.1434 71.435 65.1626 71.4397C65.1817 71.4445 65.202 71.4418 65.2192 71.4321C65.2814 71.3942 65.3479 71.3636 65.4172 71.341C65.4878 71.3154 65.5607 71.2968 65.635 71.2856C65.6444 71.2831 65.6532 71.2787 65.6609 71.2728C65.6686 71.2668 65.675 71.2594 65.6798 71.2509C65.6846 71.2424 65.6877 71.233 65.6888 71.2234C65.69 71.2137 65.6891 71.2039 65.6864 71.1945C65.6809 71.1758 65.6683 71.16 65.6513 71.1504C65.6343 71.1408 65.6143 71.1381 65.5954 71.143H65.5894Z" fill="#263238"/>
<g opacity="0.3">
<path d="M63.9558 71.5356C63.9712 71.616 63.9656 71.6991 63.9396 71.7768C63.9136 71.8545 63.868 71.9241 63.8073 71.9791C63.7204 72.0315 63.6216 72.0608 63.5202 72.0642L62.6173 72.1692C62.5084 71.7494 62.2312 70.7317 62.6015 70.6782C62.8945 70.6347 63.2865 71.1871 63.8726 70.9238C63.8944 71.1416 63.9439 71.4267 63.9558 71.5356Z" fill="black"/>
</g>
<path d="M42.4373 51.0128C42.4373 51.0128 42.2809 57.5844 46.3815 57.9626C51.5176 58.4358 57.9447 58.2339 57.9447 58.2339L61.7463 71.3771L66.0765 70.5851C66.0765 70.5851 64.639 55.3094 61.4037 53.0443C60.5305 52.4325 51.6898 50.3574 51.6898 50.3574L42.4373 51.0128Z" fill="#263238"/>
<path d="M47.599 31.0686C46.7714 29.7142 46.1002 28.7797 46.2308 27.1977L45.2408 25.778C44.5102 25.2117 43.2985 25.7384 42.8233 26.3106C42.3656 26.9044 42.1277 27.6383 42.1501 28.3877C42.1501 29.0074 42.2807 29.6232 42.2708 30.2429C42.2609 30.8626 42.0847 31.5259 41.6016 31.914C41.2729 32.1793 40.8096 32.3239 40.6492 32.7159C40.5086 33.0684 40.6908 33.4683 40.9304 33.7614C41.3326 34.2264 41.8769 34.5457 42.479 34.6699C43.0811 34.7942 43.7074 34.7163 44.2607 34.4484C44.1103 34.8009 44.3696 35.2266 44.726 35.3671C45.0955 35.4836 45.4954 35.4553 45.8447 35.2879C46.4981 35.0266 47.4287 34.3455 47.6267 33.6742C47.898 32.8664 48.2049 32.0625 47.599 31.0686Z" fill="#263238"/>
<path d="M48.7336 37.7062C48.3238 38.0131 48.0208 37.8409 47.5832 37.5736C44.9479 36.1262 45.9893 34.9065 45.9893 34.9065C46.619 34.3699 46.7596 33.6294 46.7457 32.4632C46.7476 32.43 46.7516 32.3969 46.7576 32.3642C46.7823 32.2153 46.8513 32.0773 46.9556 31.9682C47.024 31.8957 47.1061 31.8374 47.1972 31.7967C47.2882 31.7559 47.3863 31.7335 47.486 31.7308C47.5857 31.728 47.6849 31.7449 47.7781 31.7806C47.8712 31.8162 47.9564 31.8699 48.0287 31.9385L49.2167 32.4949V32.5503C49.1217 33.172 49.0187 33.6512 48.9712 34.0294C48.9688 34.0761 48.9622 34.1225 48.9514 34.168C48.9513 34.2153 48.946 34.2624 48.9356 34.3086C48.8841 34.8333 48.9494 35.1283 49.2801 35.3659C49.5019 35.5203 50.1216 36.6727 48.7336 37.7062Z" fill="#B97964"/>
<path opacity="0.2" d="M49.2326 32.4869C49.2286 32.5058 49.2286 32.5254 49.2326 32.5443C49.1376 33.166 49.0346 33.6452 48.9871 34.0233C48.9776 34.0691 48.971 34.1154 48.9673 34.1619C48.9644 34.2107 48.9644 34.2597 48.9673 34.3085C48.0598 33.898 47.2997 33.2194 46.7893 32.3641C46.8157 32.2158 46.8844 32.0782 46.9873 31.9681C47.1242 31.8207 47.3139 31.7334 47.5149 31.7252C47.7159 31.7171 47.912 31.7887 48.0605 31.9245L49.2326 32.4869Z" fill="black"/>
<path opacity="0.2" d="M53.3687 40.8167C53.2479 39.3832 52.3787 38.0586 52.3787 38.0586C52.611 38.5178 52.7941 39.0003 52.9251 39.4981C53.236 40.5554 51.9114 42.7789 51.9114 42.7789L52.8004 42.8086C53.2083 42.1354 53.4399 41.6661 53.3687 40.8167Z" fill="black"/>
<path d="M43.542 46.5213L43.3638 50.0675L53.8875 49.0913C53.5905 48.3369 52.4481 45.1907 52.454 44.4502C52.6263 43.5117 52.8777 42.5217 53.1252 41.3832C53.3925 39.5418 51.5056 35.8392 51.2205 35.7046C50.5629 35.4369 49.8795 35.2379 49.1811 35.1106C48.1283 35.0073 47.0708 34.9604 46.0131 34.97C45.8151 34.97 45.6052 34.97 45.4032 34.97C45.4032 34.97 41.4531 35.168 41.4927 36.7836C41.4848 36.8727 43.3381 41.3871 43.542 46.5213Z" fill="#B379FC"/>
<path opacity="0.5" d="M43.542 46.5213L43.3638 50.0675L53.8875 49.0913C53.5905 48.3369 52.4481 45.1907 52.454 44.4502C52.6263 43.5117 52.8777 42.5217 53.1252 41.3832C53.3925 39.5418 51.5056 35.8392 51.2205 35.7046C50.5629 35.4369 49.8795 35.2379 49.1811 35.1106C48.1283 35.0073 47.0708 34.9604 46.0131 34.97C45.8151 34.97 45.6052 34.97 45.4032 34.97C45.4032 34.97 41.4531 35.168 41.4927 36.7836C41.4848 36.8727 43.3381 41.3871 43.542 46.5213Z" fill="white"/>
<path d="M45.5754 34.9421C45.7376 35.4399 46.0251 35.8875 46.4104 36.2419C46.7957 36.5964 47.2657 36.8456 47.7752 36.9657C48.0196 37.032 48.2773 37.032 48.5217 36.9657C48.7963 36.8772 49.0401 36.7124 49.2246 36.4905C49.5176 36.0351 49.3869 35.2589 49.381 35.1797C48.0623 34.7877 46.9001 34.6669 45.5754 34.9421Z" fill="#B97964"/>
<path opacity="0.2" d="M43.4172 48.9699L45.9279 49.5263H46.9832L47.207 48.9521L43.4707 48.1641L43.4172 48.9699Z" fill="black"/>
<path opacity="0.2" d="M43.0034 42.1452L43.4331 40.082C43.4153 40.1692 43.6034 43.1134 43.2747 43.6995L43.0034 42.1452Z" fill="black"/>
<path d="M42.5995 35.584C42.5995 35.584 41.7263 35.6929 40.7284 37.4194C39.7304 39.146 38.5147 45.4919 39.2473 46.9017C39.9799 48.3114 47.0149 49.4479 47.0149 49.4479L48.0049 46.9017L42.4609 44.7514L43.536 39.5856L42.5995 35.584Z" fill="#B379FC"/>
<path opacity="0.5" d="M42.5995 35.584C42.5995 35.584 41.7263 35.6929 40.7284 37.4194C39.7304 39.146 38.5147 45.4919 39.2473 46.9017C39.9799 48.3114 47.0149 49.4479 47.0149 49.4479L48.0049 46.9017L42.4609 44.7514L43.536 39.5856L42.5995 35.584Z" fill="white"/>
<path d="M45.7061 27.3525C45.6555 27.0985 45.5894 26.8479 45.5081 26.6021C45.429 26.3546 45.4346 26.0878 45.5239 25.8438L45.4645 25.8794C45.2535 25.9142 45.0537 25.9986 44.8816 26.1256C44.7095 26.2526 44.57 26.4186 44.4745 26.61C44.3283 26.8567 44.2593 27.1415 44.2765 27.4277C44.2871 27.5705 44.3308 27.7088 44.404 27.8318C44.4771 27.9548 44.5779 28.0591 44.6982 28.1366C44.8207 28.2097 44.963 28.2425 45.1051 28.2304C45.2472 28.2184 45.3819 28.162 45.4902 28.0693C45.5784 27.9741 45.6437 27.8601 45.6811 27.7359C45.7185 27.6117 45.7271 27.4805 45.7061 27.3525Z" fill="#B379FC"/>
<path d="M45.6765 28.0766C45.6982 30.3219 45.6606 31.2684 46.716 32.5316C48.3 34.4284 51.0106 34.0542 51.6481 31.8822C52.2223 29.9279 52.0877 26.5857 49.977 25.4729C47.898 24.372 45.6527 25.8293 45.6765 28.0766Z" fill="#B97964"/>
<path d="M48.3931 29.0028C48.3931 29.2127 48.502 29.3988 48.6485 29.3988C48.795 29.3988 48.9178 29.2563 48.9237 29.0464C48.9296 28.8365 48.8148 28.6504 48.6683 28.6504C48.5218 28.6504 48.399 28.793 48.3931 29.0028Z" fill="#263238"/>
<path d="M50.7057 29.16C50.6936 29.2457 50.7128 29.3329 50.7597 29.4056C50.8066 29.4783 50.8781 29.5317 50.9611 29.556C51.1056 29.5699 51.2284 29.4174 51.2323 29.2155C51.2444 29.1298 51.2252 29.0427 51.1783 28.97C51.1314 28.8972 51.0599 28.8438 50.9769 28.8195C50.8324 28.8036 50.7096 28.9561 50.7057 29.16Z" fill="#263238"/>
<path d="M48.104 28.1755C48.1181 28.1786 48.1328 28.1784 48.1469 28.175C48.161 28.1715 48.1741 28.1649 48.1852 28.1557C48.2885 28.0714 48.4112 28.014 48.5422 27.9888C48.6731 27.9636 48.8083 27.9712 48.9356 28.0111C48.9485 28.0168 48.9625 28.0196 48.9766 28.0194C48.9906 28.0191 49.0045 28.0159 49.0173 28.0099C49.03 28.0039 49.0413 27.9953 49.0505 27.9846C49.0596 27.9739 49.0663 27.9613 49.0702 27.9478C49.0784 27.9194 49.0758 27.889 49.063 27.8624C49.0503 27.8357 49.0282 27.8147 49.0009 27.8032C48.8404 27.7501 48.6692 27.738 48.5028 27.7681C48.3364 27.7982 48.1803 27.8695 48.0486 27.9755C48.0264 27.9947 48.0125 28.0217 48.01 28.0509C48.0074 28.0801 48.0162 28.1092 48.0347 28.1319C48.0519 28.1542 48.0765 28.1696 48.104 28.1755Z" fill="#263238"/>
<path d="M51.4818 28.3397C51.5073 28.3494 51.5355 28.3494 51.561 28.3397C51.5859 28.3252 51.604 28.3014 51.6114 28.2736C51.6189 28.2458 51.615 28.2161 51.6006 28.1912C51.5242 28.0313 51.4119 27.8913 51.2725 27.7821C51.133 27.6728 50.9702 27.5974 50.7967 27.5615C50.7828 27.5596 50.7687 27.5606 50.7552 27.5644C50.7417 27.5682 50.7291 27.5748 50.7183 27.5837C50.7075 27.5927 50.6987 27.6038 50.6924 27.6163C50.6862 27.6288 50.6826 27.6426 50.6819 27.6566C50.68 27.6862 50.6894 27.7155 50.7081 27.7386C50.7268 27.7617 50.7535 27.7769 50.7828 27.7813C50.9196 27.8103 51.048 27.8697 51.1587 27.955C51.2694 28.0403 51.3595 28.1495 51.4224 28.2743C51.4337 28.3025 51.4548 28.3257 51.4818 28.3397Z" fill="#263238"/>
<path d="M46.5121 29.5495C46.5121 29.5495 47.2823 28.5595 47.1635 26.5201C47.1511 26.3552 47.2029 26.1919 47.3081 26.0642C47.4132 25.9366 47.5636 25.8545 47.7278 25.835C48.704 25.7261 50.086 24.6173 51.4581 27.1537C51.4581 27.1537 50.9097 24.0273 46.4725 25.0153C43.6193 25.6489 44.8885 29.2505 45.2667 29.6227C45.6449 29.995 46.5121 29.5495 46.5121 29.5495Z" fill="#263238"/>
<path d="M44.8549 29.8343C44.9544 30.0485 45.0952 30.2409 45.2691 30.4006C45.4431 30.5602 45.6468 30.6841 45.8687 30.7649C46.4468 30.9629 46.827 30.0382 46.6745 29.4304C46.6019 29.1567 46.434 28.9179 46.2009 28.7571C45.9679 28.5962 45.685 28.524 45.4034 28.5532C44.8272 28.6225 44.5955 29.2878 44.8549 29.8343Z" fill="#B97964"/>
<path d="M49.9672 31.2901C49.7924 31.5424 49.6363 31.8071 49.5 32.0821L49.3475 32.0326C48.6505 31.8089 48.4011 31.4762 48.3377 31.1733C48.2978 30.9394 48.3397 30.6988 48.4565 30.4922C48.7555 30.8308 49.3871 31.0862 49.7316 31.2129C49.8742 31.2624 49.9672 31.2901 49.9672 31.2901Z" fill="#263238"/>
<path d="M49.7315 31.209L49.587 31.4387C48.9316 31.2268 48.5 30.9892 48.3594 30.7239C48.3805 30.6412 48.4132 30.5619 48.4564 30.4883C48.7554 30.8269 49.387 31.0862 49.7315 31.209Z" fill="white"/>
<path d="M49.3474 32.0371C48.6505 31.8133 48.401 31.4807 48.3376 31.1777C48.6002 31.2657 48.8449 31.3998 49.0603 31.5737C49.2027 31.6939 49.3032 31.8561 49.3474 32.0371Z" fill="#DE5753"/>
<path d="M50.1117 29.0488C50.2734 29.5404 50.4851 30.0141 50.7433 30.4625C50.7571 30.4856 50.7654 30.5115 50.7675 30.5382C50.7697 30.565 50.7656 30.5918 50.7556 30.6167C50.7457 30.6417 50.7301 30.6639 50.7101 30.6818C50.6901 30.6997 50.6662 30.7128 50.6404 30.7199C50.4425 30.7615 50.237 30.7478 50.0464 30.6803L50.1117 29.0488Z" fill="#A24E3F"/>
<path opacity="0.2" d="M46.2428 30.0449H46.2309C46.2184 30.0417 46.2076 30.0336 46.2009 30.0225C46.1943 30.0114 46.1922 29.9981 46.1952 29.9855C46.2414 29.7961 46.2108 29.5961 46.1101 29.4292C46.0608 29.3463 45.9954 29.274 45.9179 29.2166C45.8404 29.1591 45.7523 29.1177 45.6587 29.0945C45.6523 29.093 45.6463 29.0902 45.641 29.0863C45.6357 29.0824 45.6312 29.0775 45.6278 29.0719C45.6244 29.0663 45.6222 29.0601 45.6212 29.0536C45.6202 29.0471 45.6205 29.0405 45.622 29.0342C45.6236 29.0278 45.6264 29.0218 45.6303 29.0165C45.6342 29.0112 45.639 29.0067 45.6446 29.0033C45.6503 28.9999 45.6565 28.9977 45.663 28.9967C45.6694 28.9957 45.6761 28.996 45.6824 28.9975C45.8971 29.0513 46.0816 29.188 46.1956 29.3777C46.3095 29.5674 46.3436 29.7945 46.2903 30.0093C46.2873 30.0196 46.281 30.0286 46.2725 30.035C46.2639 30.0415 46.2535 30.0449 46.2428 30.0449Z" fill="black"/>
<path d="M48.6248 28.6417L49.1455 28.5625C49.1455 28.5625 48.8346 28.9229 48.6248 28.6417Z" fill="#263238"/>
<path d="M50.9255 28.8194L51.4463 28.7402C51.4463 28.7402 51.1354 29.0986 50.9255 28.8194Z" fill="#263238"/>
<path d="M51.7729 28.1284C51.7729 28.1284 53.2618 26.5899 51.0383 25.0455C51.0383 25.0455 49.0959 23.7605 47.0367 24.9148C44.9775 26.0692 44.8745 26.9542 46.5635 29.1342C46.5635 29.1342 46.3853 28.8511 47.1179 28.3046C47.8505 27.7581 48.6524 27.2809 48.3316 26.6671C48.3316 26.6671 48.884 26.9324 48.8801 27.4769L49.9037 27.2789C49.8811 27.0001 49.7972 26.7297 49.6582 26.4869C49.9415 26.6904 50.1595 26.9717 50.2859 27.2968L51.1393 27.5304C51.1393 27.5304 51.0759 26.7265 50.8541 26.4196C50.8541 26.4176 51.5808 27.2987 51.7729 28.1284Z" fill="#263238"/>
<path d="M31.165 38.2691H32.2025C33.1925 38.2691 34.1825 38.2394 35.1725 38.2691C35.9915 38.2798 36.7821 38.571 37.4123 39.0942C38.0425 39.6174 38.4743 40.3409 38.6355 41.144C38.8612 42.3122 38.8969 43.5339 39.0196 44.708C39.5278 49.5749 40.038 54.4417 40.5501 59.3085C40.6709 60.4728 40.4947 62.8527 41.8807 63.324C42.3876 63.4982 43.0469 63.4111 43.5736 63.4111H54.2834C54.8774 63.4111 55.4714 63.3992 56.0654 63.4111C56.547 63.4184 57.025 63.4944 57.4851 63.6368V64.508C57.271 64.4185 57.048 64.3522 56.8198 64.31C56.2094 64.2312 55.593 64.2086 54.9784 64.2427H44.4507C42.7084 64.2427 40.3957 64.4961 40.0354 62.1775C39.8651 61.0707 39.8096 59.9362 39.6829 58.8234C39.18 54.0292 38.6784 49.2356 38.1781 44.4427C38.0963 43.6877 38.0164 42.9293 37.9385 42.1677C37.8811 41.6192 37.8494 41.0866 37.5901 40.5837C36.8555 39.1482 35.4536 39.0947 34.0617 39.0947H31.165C31.0568 39.0947 30.953 39.0517 30.8765 38.9753C30.8001 38.8988 30.7571 38.795 30.7571 38.6868C30.7571 38.5787 30.8001 38.4749 30.8765 38.3984C30.953 38.3219 31.0568 38.279 31.165 38.279V38.2691Z" fill="#263238"/>
<path opacity="0.7" d="M31.165 38.2691H32.2025C33.1925 38.2691 34.1825 38.2394 35.1725 38.2691C35.9915 38.2798 36.7821 38.571 37.4123 39.0942C38.0425 39.6174 38.4743 40.3409 38.6355 41.144C38.8612 42.3122 38.8969 43.5339 39.0196 44.708C39.5278 49.5749 40.038 54.4417 40.5501 59.3085C40.6709 60.4728 40.4947 62.8527 41.8807 63.324C42.3876 63.4982 43.0469 63.4111 43.5736 63.4111H54.2834C54.8774 63.4111 55.4714 63.3992 56.0654 63.4111C56.547 63.4184 57.025 63.4944 57.4851 63.6368V64.508C57.271 64.4185 57.048 64.3522 56.8198 64.31C56.2094 64.2312 55.593 64.2086 54.9784 64.2427H44.4507C42.7084 64.2427 40.3957 64.4961 40.0354 62.1775C39.8651 61.0707 39.8096 59.9362 39.6829 58.8234C39.18 54.0292 38.6784 49.2356 38.1781 44.4427C38.0963 43.6877 38.0164 42.9293 37.9385 42.1677C37.8811 41.6192 37.8494 41.0866 37.5901 40.5837C36.8555 39.1482 35.4536 39.0947 34.0617 39.0947H31.165C31.0568 39.0947 30.953 39.0517 30.8765 38.9753C30.8001 38.8988 30.7571 38.795 30.7571 38.6868C30.7571 38.5787 30.8001 38.4749 30.8765 38.3984C30.953 38.3219 31.0568 38.279 31.165 38.279V38.2691Z" fill="white"/>
<path d="M30.678 39.256H34.6816C35.43 39.256 35.43 38.0957 34.6816 38.0957H30.678C29.9316 38.0957 29.9296 39.256 30.678 39.256Z" fill="#B379FC"/>
<path opacity="0.3" d="M30.678 39.256H34.6816C35.43 39.256 35.43 38.0957 34.6816 38.0957H30.678C29.9316 38.0957 29.9296 39.256 30.678 39.256Z" fill="black"/>
<path d="M55.529 79.4219C53.8856 79.4219 52.5491 77.9369 52.5491 76.1114C52.5491 74.2858 53.8856 72.7988 55.529 72.7988C57.1724 72.7988 58.499 74.2818 58.499 76.1114C58.499 77.9409 57.1704 79.4219 55.529 79.4219ZM55.529 74.1927C54.6558 74.1927 53.945 75.0521 53.945 76.1114C53.945 77.1707 54.6558 78.028 55.529 78.028C56.4021 78.028 57.113 77.1687 57.113 76.1114C57.113 75.054 56.4021 74.1927 55.529 74.1927Z" fill="#263238"/>
<path d="M39.976 79.4465C34.0182 79.4465 29.1672 73.9401 29.1672 67.1705C29.1672 60.4009 34.0143 54.8945 39.976 54.8945C45.9378 54.8945 50.7829 60.4029 50.7829 67.1705C50.7829 73.9382 45.9378 79.4465 39.976 79.4465ZM39.976 56.3716C34.8281 56.3716 30.6503 61.2167 30.6503 67.1804C30.6503 73.1442 34.832 77.9734 39.976 77.9734C45.1201 77.9734 49.3038 73.1343 49.3038 67.1804C49.3038 61.2266 45.1141 56.3716 39.976 56.3716Z" fill="#263238"/>
<path opacity="0.2" d="M39.976 79.4465C34.0182 79.4465 29.1672 73.9401 29.1672 67.1705C29.1672 60.4009 34.0143 54.8945 39.976 54.8945C45.9378 54.8945 50.7829 60.4029 50.7829 67.1705C50.7829 73.9382 45.9378 79.4465 39.976 79.4465ZM39.976 56.3716C34.8281 56.3716 30.6503 61.2167 30.6503 67.1804C30.6503 73.1442 34.832 77.9734 39.976 77.9734C45.1201 77.9734 49.3038 73.1343 49.3038 67.1804C49.3038 61.2266 45.1141 56.3716 39.976 56.3716Z" fill="white"/>
<path d="M39.9761 77.3222C35.0736 77.3222 31.0879 72.7682 31.0879 67.1806C31.0879 61.5931 35.0756 57.0371 39.9761 57.0371C44.8766 57.0371 48.8623 61.5911 48.8623 67.1806C48.8623 72.7702 44.8746 77.3222 39.9761 77.3222ZM39.9761 57.6964C35.436 57.6964 31.7433 61.9495 31.7433 67.1806C31.7433 72.4118 35.436 76.6629 39.9761 76.6629C44.5162 76.6629 48.207 72.4098 48.207 67.1806C48.207 61.9515 44.5123 57.6865 39.9761 57.6865V57.6964Z" fill="#263238"/>
<g opacity="0.7">
<path d="M39.9761 77.3222C35.0736 77.3222 31.0879 72.7682 31.0879 67.1806C31.0879 61.5931 35.0756 57.0371 39.9761 57.0371C44.8766 57.0371 48.8623 61.5911 48.8623 67.1806C48.8623 72.7702 44.8746 77.3222 39.9761 77.3222ZM39.9761 57.6964C35.436 57.6964 31.7433 61.9495 31.7433 67.1806C31.7433 72.4118 35.436 76.6629 39.9761 76.6629C44.5162 76.6629 48.207 72.4098 48.207 67.1806C48.207 61.9515 44.5123 57.6865 39.9761 57.6865V57.6964Z" fill="white"/>
</g>
<path d="M39.0078 51.3781C44.0113 51.3781 49.0187 51.3504 54.0241 51.3781C55.6081 51.3781 56.8357 52.5027 56.8832 54.2313C56.903 55.047 56.8832 55.8687 56.8832 56.6825V71.9186C56.8832 73.263 56.9842 74.9817 55.2081 75.0866C54.6854 75.1123 54.6835 75.9736 55.2081 75.9439C56.8397 75.8588 57.697 74.5362 57.697 72.9225V58.0725C57.697 55.6014 58.291 52.0751 55.6358 50.8475C54.731 50.4257 53.6875 50.5366 52.7213 50.5366H39.0078C38.9028 50.549 38.806 50.5995 38.7358 50.6785C38.6655 50.7575 38.6267 50.8596 38.6267 50.9653C38.6267 51.071 38.6655 51.173 38.7358 51.2521C38.806 51.3311 38.9028 51.3816 39.0078 51.3939V51.3781Z" fill="#263238"/>
<g opacity="0.7">
<path d="M39.0078 51.3781C44.0113 51.3781 49.0187 51.3504 54.0241 51.3781C55.6081 51.3781 56.8357 52.5027 56.8832 54.2313C56.903 55.047 56.8832 55.8687 56.8832 56.6825V71.9186C56.8832 73.263 56.9842 74.9817 55.2081 75.0866C54.6854 75.1123 54.6835 75.9736 55.2081 75.9439C56.8397 75.8588 57.697 74.5362 57.697 72.9225V58.0725C57.697 55.6014 58.291 52.0751 55.6358 50.8475C54.731 50.4257 53.6875 50.5366 52.7213 50.5366H39.0078C38.9028 50.549 38.806 50.5995 38.7358 50.6785C38.6655 50.7575 38.6267 50.8596 38.6267 50.9653C38.6267 51.071 38.6655 51.173 38.7358 51.2521C38.806 51.3311 38.9028 51.3816 39.0078 51.3939V51.3781Z" fill="white"/>
</g>
<path d="M42.4985 49.5254H52.2005C52.3136 49.5285 52.425 49.5538 52.5284 49.6C52.6317 49.6461 52.7249 49.7122 52.8027 49.7944C52.8805 49.8766 52.9413 49.9733 52.9817 50.079C53.0221 50.1847 53.0412 50.2973 53.0381 50.4105V50.7688C53.0412 50.8819 53.0221 50.9946 52.9817 51.1003C52.9413 51.206 52.8805 51.3027 52.8027 51.3849C52.7249 51.4671 52.6317 51.5332 52.5284 51.5793C52.425 51.6255 52.3136 51.6508 52.2005 51.6539H42.4985C42.3854 51.6508 42.274 51.6255 42.1707 51.5793C42.0673 51.5332 41.9741 51.4671 41.8964 51.3849C41.8186 51.3027 41.7577 51.206 41.7174 51.1003C41.677 50.9946 41.6578 50.8819 41.661 50.7688V50.4105C41.6578 50.2973 41.677 50.1847 41.7174 50.079C41.7577 49.9733 41.8186 49.8766 41.8964 49.7944C41.9741 49.7122 42.0673 49.6461 42.1707 49.6C42.274 49.5538 42.3854 49.5285 42.4985 49.5254Z" fill="#B379FC"/>
<path opacity="0.3" d="M42.4985 49.5254H52.2005C52.3136 49.5285 52.425 49.5538 52.5284 49.6C52.6317 49.6461 52.7249 49.7122 52.8027 49.7944C52.8805 49.8766 52.9413 49.9733 52.9817 50.079C53.0221 50.1847 53.0412 50.2973 53.0381 50.4105V50.7688C53.0412 50.8819 53.0221 50.9946 52.9817 51.1003C52.9413 51.206 52.8805 51.3027 52.8027 51.3849C52.7249 51.4671 52.6317 51.5332 52.5284 51.5793C52.425 51.6255 52.3136 51.6508 52.2005 51.6539H42.4985C42.3854 51.6508 42.274 51.6255 42.1707 51.5793C42.0673 51.5332 41.9741 51.4671 41.8964 51.3849C41.8186 51.3027 41.7577 51.206 41.7174 51.1003C41.677 50.9946 41.6578 50.8819 41.661 50.7688V50.4105C41.6578 50.2973 41.677 50.1847 41.7174 50.079C41.7577 49.9733 41.8186 49.8766 41.8964 49.7944C41.9741 49.7122 42.0673 49.6461 42.1707 49.6C42.274 49.5538 42.3854 49.5285 42.4985 49.5254Z" fill="black"/>
<path d="M50.6621 49.5404C50.6621 49.5404 51.2165 51.558 51.0739 51.6372C50.9314 51.7164 50.4364 51.8352 50.1255 51.661C50.0071 51.7226 49.8725 51.746 49.7402 51.7279C49.6079 51.7098 49.4845 51.6511 49.387 51.56L49.2207 51.3303C49.2207 51.3303 48.9989 51.7936 48.4821 51.3442C47.9654 50.8947 47.7376 50.0809 47.6763 49.5186L47.0466 49.3662L47.8545 47.2832C47.8545 47.2832 50.4007 48.5682 50.9076 48.79C51.241 48.9255 51.5072 49.1875 51.6481 49.5186L50.6621 49.5404Z" fill="#B97964"/>
<path d="M73.0283 74.0469H61.3047V74.9874H73.0283V74.0469Z" fill="#263238"/>
<path opacity="0.7" d="M73.0283 74.0469H61.3047V74.9874H73.0283V74.0469Z" fill="white"/>
<path d="M56.9526 66.4753L61.3601 74.8764L62.1323 74.5161L57.709 65.9922L56.9526 66.4753Z" fill="#263238"/>
<path opacity="0.7" d="M56.9526 66.4753L61.3601 74.8764L62.1323 74.5161L57.709 65.9922L56.9526 66.4753Z" fill="white"/>
<path d="M49.8822 35.4881C49.8822 35.4881 49.8386 37.3572 50.1495 37.6245C50.4603 37.8918 50.589 37.3216 50.589 37.3216C50.589 37.3216 50.4841 37.9552 50.7474 38.0363C51.0623 38.1334 51.1969 37.5374 51.1969 37.5374C51.1969 37.5374 51.1316 38.0581 51.3711 38.1155C51.6107 38.173 51.8166 37.5215 51.8166 37.5215C51.8166 37.5215 51.8424 37.8958 52.0305 37.8423C52.2186 37.7889 52.6661 36.389 52.5195 35.8999C52.373 35.4109 50.5574 34.9 50.1435 34.8703C49.7297 34.8406 49.7337 34.803 48.9932 35.1317C49.306 35.2842 49.6307 35.397 49.8861 35.498L49.8822 35.4881Z" fill="#B97964"/>
<path opacity="0.2" d="M50.6185 37.3274L50.7472 36.2126C50.7475 36.209 50.747 36.2053 50.7459 36.2019C50.7447 36.1984 50.7429 36.1952 50.7405 36.1924C50.7381 36.1897 50.7352 36.1874 50.7319 36.1858C50.7287 36.1842 50.7251 36.1832 50.7215 36.1829C50.7178 36.1817 50.7139 36.1814 50.7101 36.1819C50.7063 36.1823 50.7027 36.1837 50.6994 36.1858C50.6962 36.1879 50.6935 36.1906 50.6915 36.1939C50.6895 36.1972 50.6882 36.2009 50.6878 36.2047L50.5571 37.3195C50.5571 37.3333 50.569 37.3472 50.5848 37.3511C50.5924 37.3518 50.5999 37.3498 50.6061 37.3455C50.6122 37.3411 50.6167 37.3347 50.6185 37.3274Z" fill="black"/>
<path opacity="0.2" d="M51.2343 37.5133L51.4422 36.454C51.4433 36.4465 51.4415 36.4387 51.4371 36.4324C51.4327 36.4261 51.426 36.4218 51.4184 36.4204C51.4109 36.4191 51.4031 36.4206 51.3965 36.4246C51.3899 36.4286 51.3851 36.4348 51.3828 36.4422L51.1729 37.5015C51.1723 37.5054 51.1726 37.5093 51.1736 37.5132C51.1746 37.517 51.1763 37.5206 51.1787 37.5237C51.1811 37.5268 51.1841 37.5294 51.1875 37.5314C51.191 37.5334 51.1947 37.5346 51.1986 37.5351C51.2063 37.5369 51.2143 37.5356 51.2209 37.5316C51.2276 37.5275 51.2324 37.5209 51.2343 37.5133Z" fill="black"/>
<path opacity="0.2" d="M51.8562 37.4806L52.0344 36.6886C52.0351 36.6811 52.0331 36.6736 52.0287 36.6674C52.0243 36.6612 52.0179 36.6568 52.0106 36.655C52.003 36.6534 51.9951 36.6546 51.9883 36.6582C51.9814 36.6618 51.976 36.6676 51.973 36.6748L51.7948 37.4668C51.7942 37.4746 51.7964 37.4823 51.8012 37.4885C51.8059 37.4947 51.8128 37.499 51.8205 37.5004C51.8279 37.5023 51.8356 37.5013 51.8423 37.4976C51.8489 37.4939 51.8539 37.4878 51.8562 37.4806Z" fill="black"/>
<path d="M60.0257 35.0849C60.0257 35.0849 60.4217 34.7384 60.8177 34.9007C61.2137 35.0631 61.083 35.3779 61.083 35.3779C61.083 35.3779 61.875 35.4591 61.677 35.8511L61.5166 36.1263C61.6428 36.1411 61.7606 36.1969 61.8519 36.2853C61.9432 36.3737 62.0028 36.4897 62.0215 36.6154C62.1284 37.0847 60.4019 38.5182 60.4019 38.5182L60.2672 38.9795L58.0991 38.1618L58.3763 37.4628L60.0257 35.0849Z" fill="#B97964"/>
<g opacity="0.2">
<path d="M60.0671 35.2959C60.0671 35.2959 60.5403 36.5691 60.3799 36.9611C60.2195 37.3531 59.8315 36.8898 59.8315 36.8898C59.8315 36.8898 60.2275 37.4264 60.0295 37.6244C59.7839 37.864 59.38 37.3769 59.38 37.3769C59.38 37.3769 59.6849 37.8264 59.4909 37.9907C59.2969 38.155 58.7939 37.6442 58.7939 37.6442C58.7939 37.6442 58.9484 38.0026 58.7484 38.0402C58.5484 38.0778 57.4772 37.0027 57.3822 36.48C57.2872 35.9572 58.5088 34.6247 58.9325 34.5198C59.3563 34.4148 59.9008 34.593 60.5383 35.0009L60.075 35.2959H60.0671Z" fill="black"/>
</g>
<path d="M59.8632 35.1573C59.8632 35.1573 60.3345 36.4304 60.1741 36.8205C60.0137 37.2105 59.6256 36.7492 59.6256 36.7492C59.6256 36.7492 60.0216 37.2858 59.8236 37.4838C59.5781 37.7233 59.1742 37.2363 59.1742 37.2363C59.1742 37.2363 59.4791 37.6857 59.2851 37.852C59.091 38.0184 58.5881 37.5055 58.5881 37.5055C58.5881 37.5055 58.7426 37.8619 58.5426 37.9015C58.3426 37.9411 57.2714 36.862 57.1764 36.3393C57.0813 35.8166 58.305 34.4841 58.7267 34.3791C59.1485 34.2742 59.6949 34.4524 60.3325 34.8603L59.8712 35.1573H59.8632Z" fill="#D89380"/>
<path opacity="0.2" d="M59.5999 36.7712L58.9544 35.799C58.9522 35.7957 58.9508 35.7919 58.9501 35.788C58.9495 35.784 58.9496 35.78 58.9505 35.7761C58.9514 35.7722 58.9531 35.7686 58.9555 35.7654C58.9579 35.7622 58.9609 35.7595 58.9643 35.7574C58.9669 35.7545 58.9701 35.7521 58.9737 35.7505C58.9773 35.7489 58.9811 35.748 58.9851 35.748C58.989 35.748 58.9929 35.7489 58.9965 35.7505C59.0001 35.7521 59.0033 35.7545 59.0059 35.7574L59.6514 36.7237C59.6552 36.7306 59.6563 36.7387 59.6545 36.7464C59.6526 36.7541 59.648 36.7608 59.6415 36.7653C59.6364 36.7711 59.6294 36.775 59.6218 36.7761C59.6141 36.7772 59.6063 36.7755 59.5999 36.7712Z" fill="black"/>
<path opacity="0.2" d="M59.1207 37.2321L58.4277 36.353C58.4222 36.3474 58.4192 36.34 58.4192 36.3322C58.4192 36.3244 58.4222 36.317 58.4277 36.3114C58.4336 36.3058 58.4414 36.3027 58.4495 36.3027C58.4576 36.3027 58.4654 36.3058 58.4712 36.3114L59.1642 37.1905C59.1697 37.1961 59.1727 37.2035 59.1727 37.2113C59.1727 37.2191 59.1697 37.2266 59.1642 37.2321C59.1615 37.2351 59.1581 37.2375 59.1543 37.2391C59.1506 37.2408 59.1466 37.2416 59.1425 37.2416C59.1384 37.2416 59.1343 37.2408 59.1306 37.2391C59.1268 37.2375 59.1235 37.2351 59.1207 37.2321Z" fill="black"/>
<path opacity="0.2" d="M58.5308 37.4943L57.9982 36.8567C57.9926 36.8509 57.9895 36.8431 57.9895 36.835C57.9895 36.8269 57.9926 36.8191 57.9982 36.8132C58.0037 36.8077 58.0112 36.8047 58.019 36.8047C58.0267 36.8047 58.0342 36.8077 58.0398 36.8132L58.5744 37.4507C58.5799 37.4566 58.583 37.4644 58.583 37.4725C58.583 37.4806 58.5799 37.4884 58.5744 37.4943C58.5683 37.4995 58.5606 37.5023 58.5526 37.5023C58.5446 37.5023 58.5369 37.4995 58.5308 37.4943Z" fill="black"/>
<path d="M60.9602 34.982C60.8561 34.9099 60.7374 34.8616 60.6125 34.8403C60.4876 34.8191 60.3596 34.8256 60.2375 34.8593C60.0395 34.9246 59.2277 35.6691 59.4455 35.8493C59.6633 36.0295 60.1385 35.7503 60.1385 35.7503C60.1385 35.7503 59.5267 36.1106 59.8257 36.3839C60.1246 36.6571 60.4988 36.2987 60.4988 36.2987C60.4679 36.3295 60.4433 36.366 60.4266 36.4063C60.4098 36.4466 60.4012 36.4897 60.4012 36.5334C60.4012 36.577 60.4098 36.6202 60.4266 36.6604C60.4433 36.7007 60.4679 36.7373 60.4988 36.768C60.7285 36.9997 61.4888 37.0115 61.4888 37.0115L61.0572 35.9166L60.9602 34.982Z" fill="#B97964"/>
<path d="M63.0807 35.8196C62.7857 35.5107 62.3976 35.5622 61.6413 35.5661L61.5977 35.8611C61.5977 35.8611 60.6196 36.6848 60.5444 37.1006C60.4691 37.5164 61.0453 37.3343 61.0453 37.3343C61.0453 37.3343 60.4256 37.5758 60.4909 37.853C60.5701 38.1857 61.174 37.9916 61.174 37.9916C61.174 37.9916 60.675 38.2074 60.7503 38.451C60.8255 38.6945 61.5245 38.5322 61.5245 38.5322C61.5245 38.5322 61.2017 38.75 61.3502 38.8905C61.4987 39.0311 62.9798 38.6925 63.3401 38.2965C63.7005 37.9005 63.3817 36.1324 63.0807 35.8196Z" fill="#D89380"/>
<path opacity="0.2" d="M61.0553 37.3663L62.1185 36.895C62.1257 36.8912 62.1312 36.8848 62.1338 36.877C62.1364 36.8693 62.1359 36.8608 62.1324 36.8534C62.1297 36.8461 62.1242 36.8402 62.1172 36.8368C62.1102 36.8335 62.1021 36.8331 62.0947 36.8356L61.0315 37.3069C61.0246 37.311 61.0194 37.3175 61.0169 37.3251C61.0143 37.3327 61.0146 37.341 61.0176 37.3484C61.0203 37.3558 61.0258 37.3617 61.0328 37.365C61.0398 37.3684 61.0479 37.3688 61.0553 37.3663Z" fill="black"/>
<path opacity="0.2" d="M61.2137 38.0112L62.269 37.639C62.2729 37.6377 62.2764 37.6356 62.2795 37.6328C62.2825 37.6301 62.2849 37.6268 62.2866 37.623C62.2882 37.6193 62.2891 37.6153 62.2892 37.6112C62.2892 37.6072 62.2884 37.6031 62.2869 37.5994C62.2857 37.5956 62.2839 37.592 62.2813 37.589C62.2788 37.5859 62.2757 37.5834 62.2722 37.5815C62.2687 37.5797 62.2649 37.5786 62.2609 37.5782C62.257 37.5779 62.253 37.5783 62.2492 37.5796L61.1919 37.9498C61.1848 37.9533 61.1793 37.9592 61.1763 37.9666C61.1734 37.9739 61.1733 37.982 61.1761 37.9894C61.177 37.9934 61.1787 37.9971 61.1811 38.0004C61.1836 38.0037 61.1866 38.0065 61.1902 38.0085C61.1937 38.0105 61.1976 38.0118 61.2016 38.0123C61.2057 38.0128 61.2098 38.0124 61.2137 38.0112Z" fill="black"/>
<path opacity="0.2" d="M61.5798 38.5497L62.3718 38.2962C62.3755 38.2947 62.3789 38.2925 62.3817 38.2896C62.3845 38.2868 62.3867 38.2835 62.3881 38.2798C62.3896 38.2761 62.3903 38.2721 62.3903 38.2681C62.3902 38.2642 62.3893 38.2603 62.3877 38.2566C62.3854 38.2493 62.3805 38.243 62.374 38.239C62.3674 38.235 62.3596 38.2335 62.352 38.2348L61.56 38.4883C61.5531 38.492 61.5476 38.4979 61.5444 38.5051C61.5412 38.5122 61.5404 38.5202 61.5422 38.5279C61.5431 38.5319 61.5448 38.5356 61.5473 38.5389C61.5497 38.5422 61.5528 38.5449 61.5563 38.547C61.5598 38.549 61.5637 38.5503 61.5678 38.5508C61.5718 38.5512 61.5759 38.5508 61.5798 38.5497Z" fill="black"/>
</svg>
