<svg width="20" height="20" viewBox="0 0 20 20" fill="none" xmlns="http://www.w3.org/2000/svg">
<path d="M12.2738 18.8406L10.0562 14.3586L8.30273 12.1168C8.04365 11.6785 7.90699 11.1787 7.90703 10.6695V5.625M7.90703 5.625H8.51914C8.72549 5.62495 8.92983 5.66555 9.12049 5.74448C9.31115 5.82341 9.48439 5.93913 9.63032 6.08502C9.77625 6.23092 9.89202 6.40413 9.97099 6.59477C10.05 6.78541 10.0906 6.98974 10.0906 7.19609V14.3586M7.90703 5.625C6.45156 5.625 4.99609 8.53633 4.99609 8.53633V11.4473M14.457 10.7195L11.875 9.02344M6.66133 18.6859L8.75 15.625" stroke="black" stroke-width="1.2" stroke-linecap="round" stroke-linejoin="round"/>
<path d="M10.0902 4.16875C10.8941 4.16875 11.5457 3.51711 11.5457 2.71328C11.5457 1.90945 10.8941 1.25781 10.0902 1.25781C9.2864 1.25781 8.63477 1.90945 8.63477 2.71328C8.63477 3.51711 9.2864 4.16875 10.0902 4.16875Z" stroke="black" stroke-width="1.2" stroke-linecap="round" stroke-linejoin="round"/>
</svg>
