<svg width="24" height="24" viewBox="0 0 24 24" fill="none" xmlns="http://www.w3.org/2000/svg">
<path d="M4.687 6.21262L6.8 18.9756C6.89665 19.5599 7.19759 20.0909 7.6492 20.474C8.10081 20.8571 8.67377 21.0675 9.266 21.0676H12.614M19.312 6.21262L17.2 18.9756C17.1033 19.5599 16.8024 20.0909 16.3508 20.474C15.8992 20.8571 15.3262 21.0675 14.734 21.0676H11.386M10.022 11.1156V16.1646M13.978 11.1156V16.1646M2.75 6.21262H21.25M14.777 6.21262V4.43262C14.777 4.03479 14.619 3.65326 14.3377 3.37196C14.0564 3.09065 13.6748 2.93262 13.277 2.93262H10.723C10.3252 2.93262 9.94364 3.09065 9.66234 3.37196C9.38104 3.65326 9.223 4.03479 9.223 4.43262V6.21262H14.777Z" stroke="#1C1C1C" stroke-width="1.5" stroke-linecap="round" stroke-linejoin="round"/>
</svg>
