<svg width="20" height="20" viewBox="0 0 20 20" fill="none" xmlns="http://www.w3.org/2000/svg">
<g filter="url(#filter0_i_793_4758)">
<path d="M6.42422 17.4043H5.76797C4.29922 17.4043 3.10547 16.2105 3.10547 14.7418V12.5605H6.41797V17.4043H6.42422Z" fill="url(#paint0_linear_793_4758)"/>
</g>
<g filter="url(#filter1_i_793_4758)">
<path d="M13.5488 17.4043H14.2051C15.6738 17.4043 16.8676 16.2105 16.8676 14.7418V12.5605H13.5551V17.4043H13.5488Z" fill="url(#paint1_linear_793_4758)"/>
<path d="M13.5488 17.4043H14.2051C15.6738 17.4043 16.8676 16.2105 16.8676 14.7418V12.5605H13.5551V17.4043H13.5488Z" fill="url(#paint2_radial_793_4758)"/>
</g>
<path d="M4.04297 13.0176C4.58169 13.0176 5.09835 12.8036 5.47928 12.4226C5.86021 12.0417 6.07422 11.525 6.07422 10.9863C6.07422 10.4476 5.86021 9.93095 5.47928 9.55002C5.09835 9.16908 4.58169 8.95508 4.04297 8.95508C3.50425 8.95508 2.98759 9.16908 2.60666 9.55002C2.22572 9.93095 2.01172 10.4476 2.01172 10.9863C2.01172 11.525 2.22572 12.0417 2.60666 12.4226C2.98759 12.8036 3.50425 13.0176 4.04297 13.0176Z" fill="url(#paint3_linear_793_4758)"/>
<path d="M4.04297 13.0176C4.58169 13.0176 5.09835 12.8036 5.47928 12.4226C5.86021 12.0417 6.07422 11.525 6.07422 10.9863C6.07422 10.4476 5.86021 9.93095 5.47928 9.55002C5.09835 9.16908 4.58169 8.95508 4.04297 8.95508C3.50425 8.95508 2.98759 9.16908 2.60666 9.55002C2.22572 9.93095 2.01172 10.4476 2.01172 10.9863C2.01172 11.525 2.22572 12.0417 2.60666 12.4226C2.98759 12.8036 3.50425 13.0176 4.04297 13.0176Z" fill="url(#paint4_radial_793_4758)"/>
<g filter="url(#filter2_f_793_4758)">
<path d="M4.04297 12.2748C4.38477 12.2748 4.71257 12.139 4.95425 11.8973C5.19594 11.6556 5.33172 11.3278 5.33172 10.986C5.33172 10.6442 5.19594 10.3164 4.95425 10.0747C4.71257 9.83304 4.38477 9.69727 4.04297 9.69727C3.70109 9.69727 3.37321 9.83308 3.13146 10.0748C2.88972 10.3166 2.75391 10.6444 2.75391 10.9863C2.75391 11.3282 2.88972 11.6561 3.13146 11.8978C3.37321 12.1396 3.70109 12.2754 4.04297 12.2754" fill="url(#paint5_radial_793_4758)"/>
</g>
<path d="M15.918 13.0176C16.4567 13.0176 16.9733 12.8036 17.3543 12.4226C17.7352 12.0417 17.9492 11.525 17.9492 10.9863C17.9492 10.4476 17.7352 9.93095 17.3543 9.55002C16.9733 9.16908 16.4567 8.95508 15.918 8.95508C15.3792 8.95508 14.8626 9.16908 14.4817 9.55002C14.1007 9.93095 13.8867 10.4476 13.8867 10.9863C13.8867 11.525 14.1007 12.0417 14.4817 12.4226C14.8626 12.8036 15.3792 13.0176 15.918 13.0176Z" fill="url(#paint6_radial_793_4758)"/>
<path d="M15.918 13.0176C16.4567 13.0176 16.9733 12.8036 17.3543 12.4226C17.7352 12.0417 17.9492 11.525 17.9492 10.9863C17.9492 10.4476 17.7352 9.93095 17.3543 9.55002C16.9733 9.16908 16.4567 8.95508 15.918 8.95508C15.3792 8.95508 14.8626 9.16908 14.4817 9.55002C14.1007 9.93095 13.8867 10.4476 13.8867 10.9863C13.8867 11.525 14.1007 12.0417 14.4817 12.4226C14.8626 12.8036 15.3792 13.0176 15.918 13.0176Z" fill="url(#paint7_radial_793_4758)"/>
<path d="M15.918 13.0176C16.4567 13.0176 16.9733 12.8036 17.3543 12.4226C17.7352 12.0417 17.9492 11.525 17.9492 10.9863C17.9492 10.4476 17.7352 9.93095 17.3543 9.55002C16.9733 9.16908 16.4567 8.95508 15.918 8.95508C15.3792 8.95508 14.8626 9.16908 14.4817 9.55002C14.1007 9.93095 13.8867 10.4476 13.8867 10.9863C13.8867 11.525 14.1007 12.0417 14.4817 12.4226C14.8626 12.8036 15.3792 13.0176 15.918 13.0176Z" fill="url(#paint8_radial_793_4758)"/>
<path d="M15.918 13.0176C16.4567 13.0176 16.9733 12.8036 17.3543 12.4226C17.7352 12.0417 17.9492 11.525 17.9492 10.9863C17.9492 10.4476 17.7352 9.93095 17.3543 9.55002C16.9733 9.16908 16.4567 8.95508 15.918 8.95508C15.3792 8.95508 14.8626 9.16908 14.4817 9.55002C14.1007 9.93095 13.8867 10.4476 13.8867 10.9863C13.8867 11.525 14.1007 12.0417 14.4817 12.4226C14.8626 12.8036 15.3792 13.0176 15.918 13.0176Z" fill="url(#paint9_radial_793_4758)"/>
<g filter="url(#filter3_f_793_4758)">
<path d="M15.918 12.2363C16.2495 12.2363 16.5674 12.1046 16.8019 11.8702C17.0363 11.6358 17.168 11.3178 17.168 10.9863C17.168 10.6548 17.0363 10.3369 16.8019 10.1024C16.5674 9.86802 16.2495 9.73633 15.918 9.73633C15.5864 9.73633 15.2685 9.86802 15.0341 10.1024C14.7997 10.3369 14.668 10.6548 14.668 10.9863C14.668 11.3178 14.7997 11.6358 15.0341 11.8702C15.2685 12.1046 15.5864 12.2363 15.918 12.2363Z" fill="#E8B19A"/>
<path d="M15.918 12.2363C16.2495 12.2363 16.5674 12.1046 16.8019 11.8702C17.0363 11.6358 17.168 11.3178 17.168 10.9863C17.168 10.6548 17.0363 10.3369 16.8019 10.1024C16.5674 9.86802 16.2495 9.73633 15.918 9.73633C15.5864 9.73633 15.2685 9.86802 15.0341 10.1024C14.7997 10.3369 14.668 10.6548 14.668 10.9863C14.668 11.3178 14.7997 11.6358 15.0341 11.8702C15.2685 12.1046 15.5864 12.2363 15.918 12.2363Z" fill="url(#paint10_radial_793_4758)"/>
</g>
<g filter="url(#filter4_ii_793_4758)">
<path d="M8.43304 2.43164C5.71804 2.43164 3.52054 4.69227 3.63304 7.41789L3.82429 12.5666C3.97429 16.2241 6.72054 18.6816 10.0587 18.6816C13.3962 18.6816 16.143 16.2248 16.2924 12.5666L16.5237 7.43539C16.6355 4.70914 14.3987 2.43164 11.6843 2.43164H8.43304Z" fill="url(#paint11_radial_793_4758)"/>
<path d="M8.43304 2.43164C5.71804 2.43164 3.52054 4.69227 3.63304 7.41789L3.82429 12.5666C3.97429 16.2241 6.72054 18.6816 10.0587 18.6816C13.3962 18.6816 16.143 16.2248 16.2924 12.5666L16.5237 7.43539C16.6355 4.70914 14.3987 2.43164 11.6843 2.43164H8.43304Z" fill="url(#paint12_radial_793_4758)"/>
<path d="M8.43304 2.43164C5.71804 2.43164 3.52054 4.69227 3.63304 7.41789L3.82429 12.5666C3.97429 16.2241 6.72054 18.6816 10.0587 18.6816C13.3962 18.6816 16.143 16.2248 16.2924 12.5666L16.5237 7.43539C16.6355 4.70914 14.3987 2.43164 11.6843 2.43164H8.43304Z" fill="url(#paint13_radial_793_4758)"/>
<path d="M8.43304 2.43164C5.71804 2.43164 3.52054 4.69227 3.63304 7.41789L3.82429 12.5666C3.97429 16.2241 6.72054 18.6816 10.0587 18.6816C13.3962 18.6816 16.143 16.2248 16.2924 12.5666L16.5237 7.43539C16.6355 4.70914 14.3987 2.43164 11.6843 2.43164H8.43304Z" fill="url(#paint14_radial_793_4758)"/>
<path d="M8.43304 2.43164C5.71804 2.43164 3.52054 4.69227 3.63304 7.41789L3.82429 12.5666C3.97429 16.2241 6.72054 18.6816 10.0587 18.6816C13.3962 18.6816 16.143 16.2248 16.2924 12.5666L16.5237 7.43539C16.6355 4.70914 14.3987 2.43164 11.6843 2.43164H8.43304Z" fill="url(#paint15_radial_793_4758)"/>
<path d="M8.43304 2.43164C5.71804 2.43164 3.52054 4.69227 3.63304 7.41789L3.82429 12.5666C3.97429 16.2241 6.72054 18.6816 10.0587 18.6816C13.3962 18.6816 16.143 16.2248 16.2924 12.5666L16.5237 7.43539C16.6355 4.70914 14.3987 2.43164 11.6843 2.43164H8.43304Z" fill="url(#paint16_radial_793_4758)"/>
<path d="M8.43304 2.43164C5.71804 2.43164 3.52054 4.69227 3.63304 7.41789L3.82429 12.5666C3.97429 16.2241 6.72054 18.6816 10.0587 18.6816C13.3962 18.6816 16.143 16.2248 16.2924 12.5666L16.5237 7.43539C16.6355 4.70914 14.3987 2.43164 11.6843 2.43164H8.43304Z" fill="url(#paint17_radial_793_4758)"/>
</g>
<path d="M8.43304 2.43164C5.71804 2.43164 3.52054 4.69227 3.63304 7.41789L3.82429 12.5666C3.97429 16.2241 6.72054 18.6816 10.0587 18.6816C13.3962 18.6816 16.143 16.2248 16.2924 12.5666L16.5237 7.43539C16.6355 4.70914 14.3987 2.43164 11.6843 2.43164H8.43304Z" fill="url(#paint18_radial_793_4758)"/>
<g filter="url(#filter5_i_793_4758)">
<path d="M6.05566 8.69795C6.42441 8.5667 6.93691 8.47295 7.59941 8.53545" stroke="#111111" stroke-miterlimit="10" stroke-linecap="round" stroke-linejoin="round"/>
</g>
<g filter="url(#filter6_f_793_4758)">
<path d="M6.07422 8.63936C6.44297 8.50811 6.95547 8.41436 7.61797 8.47686" stroke="url(#paint19_linear_793_4758)" stroke-width="0.25" stroke-miterlimit="10" stroke-linecap="round" stroke-linejoin="round"/>
</g>
<g filter="url(#filter7_i_793_4758)">
<path d="M13.9178 8.69795C13.549 8.5667 13.0365 8.47295 12.374 8.53545" stroke="#111111" stroke-miterlimit="10" stroke-linecap="round" stroke-linejoin="round"/>
</g>
<g filter="url(#filter8_f_793_4758)">
<path d="M13.9178 8.60811C13.549 8.47686 13.0365 8.38311 12.374 8.44561" stroke="url(#paint20_linear_793_4758)" stroke-width="0.25" stroke-miterlimit="10" stroke-linecap="round" stroke-linejoin="round"/>
</g>
<g filter="url(#filter9_f_793_4758)">
<path d="M7.78906 14.2396C7.758 14.1927 7.74349 14.1368 7.74782 14.0807C7.75216 14.0246 7.7751 13.9716 7.813 13.93C7.8509 13.8885 7.9016 13.8607 7.95704 13.8513C8.01249 13.8418 8.06951 13.8511 8.11906 13.8777C8.69403 14.1773 9.33323 14.3326 9.98156 14.3302C10.6303 14.3357 11.2702 14.1802 11.8441 13.8777L11.8453 13.8771C12.0741 13.7621 12.3122 14.0227 12.1741 14.2396C11.9382 14.6072 11.6139 14.9097 11.2309 15.1195C10.8478 15.3292 10.4183 15.4395 9.98156 15.4402C9.54484 15.4395 9.11528 15.3292 8.73223 15.1195C8.34918 14.9097 8.02489 14.6072 7.78906 14.2396ZM7.78906 14.2396L7.82844 14.2146" stroke="url(#paint21_linear_793_4758)" stroke-width="0.15"/>
</g>
<path d="M9.98061 14.3754C9.32464 14.3777 8.67793 14.2205 8.09624 13.9172C8.05585 13.8954 8.00934 13.8878 7.9641 13.8955C7.91886 13.9032 7.87749 13.9258 7.84659 13.9597C7.81568 13.9936 7.79702 14.0369 7.79355 14.0827C7.79009 14.1285 7.80204 14.1741 7.82749 14.2122C8.05906 14.5734 8.3776 14.8706 8.7539 15.0767C9.1302 15.2828 9.55221 15.391 9.98124 15.3916C10.4101 15.3909 10.832 15.2825 11.2082 15.0765C11.5844 14.8704 11.9028 14.5733 12.1344 14.2122C12.2469 14.0366 12.0531 13.8235 11.8656 13.9172C11.285 14.2233 10.6369 14.3808 9.98061 14.3754Z" fill="url(#paint22_linear_793_4758)"/>
<g filter="url(#filter10_ii_793_4758)">
<path d="M16.9461 2.88258C16.9748 2.96972 16.9825 3.06243 16.9685 3.15311C16.9545 3.24379 16.9192 3.32987 16.8656 3.40431C16.8119 3.47874 16.7414 3.53942 16.6598 3.58138C16.5782 3.62334 16.4878 3.64538 16.3961 3.6457H16.1067C16.0411 3.6457 16.0192 3.73383 16.0773 3.76445C16.7175 4.10565 17.2521 4.61543 17.6234 5.23863C17.9946 5.86183 18.1884 6.5747 18.1836 7.30008V8.4707C18.1836 8.91445 17.8211 9.27758 17.3773 9.27758H17.1961C17.1557 9.27755 17.1169 9.29315 17.0878 9.32111C17.0586 9.34908 17.0415 9.38723 17.0398 9.42758L17.0336 9.6032L16.9961 10.5295C16.9836 10.8732 16.7023 11.1426 16.3586 11.1426L16.4336 8.84633C16.4403 8.65905 16.4092 8.47233 16.3422 8.29732C16.2752 8.1223 16.1737 7.96258 16.0436 7.82766C15.9135 7.69275 15.7576 7.58542 15.5852 7.51206C15.4127 7.43871 15.2272 7.40083 15.0398 7.4007H11.8086C11.1141 7.40051 10.4303 7.22999 9.81704 6.90407C9.20379 6.57816 8.67983 6.10681 8.29109 5.53133C8.25984 5.48508 8.18609 5.49758 8.17047 5.55133C8.01637 6.0839 7.69363 6.5521 7.25071 6.88558C6.8078 7.21906 6.26864 7.39982 5.71422 7.4007H4.93922C4.77148 7.40065 4.60542 7.43419 4.45085 7.49934C4.29627 7.5645 4.15631 7.65995 4.03923 7.78007C3.92214 7.90018 3.83029 8.04253 3.7691 8.19872C3.70792 8.35491 3.67863 8.52177 3.68297 8.68945C3.70547 9.50758 3.74359 10.3226 3.77172 11.1401C3.42797 11.1401 3.13359 10.8738 3.12109 10.5295L3.08234 9.4807C3.08073 9.44036 3.06356 9.4022 3.03443 9.37424C3.0053 9.34627 2.96647 9.33067 2.92609 9.3307H2.71484C2.18672 9.3307 1.93359 8.8932 1.93359 8.36445V6.54945C1.9331 5.46808 2.36211 4.43079 3.12628 3.66568C3.89046 2.90056 4.92722 2.47028 6.00859 2.46945C6.19047 2.46945 6.33984 2.3307 6.39797 2.1582C6.49501 1.86364 6.68224 1.60706 6.93315 1.42479C7.18407 1.24252 7.48596 1.14379 7.79609 1.14258H14.5648C15.6773 1.14258 16.6273 1.87508 16.9461 2.88258Z" fill="url(#paint23_linear_793_4758)"/>
<path d="M16.9461 2.88258C16.9748 2.96972 16.9825 3.06243 16.9685 3.15311C16.9545 3.24379 16.9192 3.32987 16.8656 3.40431C16.8119 3.47874 16.7414 3.53942 16.6598 3.58138C16.5782 3.62334 16.4878 3.64538 16.3961 3.6457H16.1067C16.0411 3.6457 16.0192 3.73383 16.0773 3.76445C16.7175 4.10565 17.2521 4.61543 17.6234 5.23863C17.9946 5.86183 18.1884 6.5747 18.1836 7.30008V8.4707C18.1836 8.91445 17.8211 9.27758 17.3773 9.27758H17.1961C17.1557 9.27755 17.1169 9.29315 17.0878 9.32111C17.0586 9.34908 17.0415 9.38723 17.0398 9.42758L17.0336 9.6032L16.9961 10.5295C16.9836 10.8732 16.7023 11.1426 16.3586 11.1426L16.4336 8.84633C16.4403 8.65905 16.4092 8.47233 16.3422 8.29732C16.2752 8.1223 16.1737 7.96258 16.0436 7.82766C15.9135 7.69275 15.7576 7.58542 15.5852 7.51206C15.4127 7.43871 15.2272 7.40083 15.0398 7.4007H11.8086C11.1141 7.40051 10.4303 7.22999 9.81704 6.90407C9.20379 6.57816 8.67983 6.10681 8.29109 5.53133C8.25984 5.48508 8.18609 5.49758 8.17047 5.55133C8.01637 6.0839 7.69363 6.5521 7.25071 6.88558C6.8078 7.21906 6.26864 7.39982 5.71422 7.4007H4.93922C4.77148 7.40065 4.60542 7.43419 4.45085 7.49934C4.29627 7.5645 4.15631 7.65995 4.03923 7.78007C3.92214 7.90018 3.83029 8.04253 3.7691 8.19872C3.70792 8.35491 3.67863 8.52177 3.68297 8.68945C3.70547 9.50758 3.74359 10.3226 3.77172 11.1401C3.42797 11.1401 3.13359 10.8738 3.12109 10.5295L3.08234 9.4807C3.08073 9.44036 3.06356 9.4022 3.03443 9.37424C3.0053 9.34627 2.96647 9.33067 2.92609 9.3307H2.71484C2.18672 9.3307 1.93359 8.8932 1.93359 8.36445V6.54945C1.9331 5.46808 2.36211 4.43079 3.12628 3.66568C3.89046 2.90056 4.92722 2.47028 6.00859 2.46945C6.19047 2.46945 6.33984 2.3307 6.39797 2.1582C6.49501 1.86364 6.68224 1.60706 6.93315 1.42479C7.18407 1.24252 7.48596 1.14379 7.79609 1.14258H14.5648C15.6773 1.14258 16.6273 1.87508 16.9461 2.88258Z" fill="url(#paint24_radial_793_4758)"/>
<path d="M16.9461 2.88258C16.9748 2.96972 16.9825 3.06243 16.9685 3.15311C16.9545 3.24379 16.9192 3.32987 16.8656 3.40431C16.8119 3.47874 16.7414 3.53942 16.6598 3.58138C16.5782 3.62334 16.4878 3.64538 16.3961 3.6457H16.1067C16.0411 3.6457 16.0192 3.73383 16.0773 3.76445C16.7175 4.10565 17.2521 4.61543 17.6234 5.23863C17.9946 5.86183 18.1884 6.5747 18.1836 7.30008V8.4707C18.1836 8.91445 17.8211 9.27758 17.3773 9.27758H17.1961C17.1557 9.27755 17.1169 9.29315 17.0878 9.32111C17.0586 9.34908 17.0415 9.38723 17.0398 9.42758L17.0336 9.6032L16.9961 10.5295C16.9836 10.8732 16.7023 11.1426 16.3586 11.1426L16.4336 8.84633C16.4403 8.65905 16.4092 8.47233 16.3422 8.29732C16.2752 8.1223 16.1737 7.96258 16.0436 7.82766C15.9135 7.69275 15.7576 7.58542 15.5852 7.51206C15.4127 7.43871 15.2272 7.40083 15.0398 7.4007H11.8086C11.1141 7.40051 10.4303 7.22999 9.81704 6.90407C9.20379 6.57816 8.67983 6.10681 8.29109 5.53133C8.25984 5.48508 8.18609 5.49758 8.17047 5.55133C8.01637 6.0839 7.69363 6.5521 7.25071 6.88558C6.8078 7.21906 6.26864 7.39982 5.71422 7.4007H4.93922C4.77148 7.40065 4.60542 7.43419 4.45085 7.49934C4.29627 7.5645 4.15631 7.65995 4.03923 7.78007C3.92214 7.90018 3.83029 8.04253 3.7691 8.19872C3.70792 8.35491 3.67863 8.52177 3.68297 8.68945C3.70547 9.50758 3.74359 10.3226 3.77172 11.1401C3.42797 11.1401 3.13359 10.8738 3.12109 10.5295L3.08234 9.4807C3.08073 9.44036 3.06356 9.4022 3.03443 9.37424C3.0053 9.34627 2.96647 9.33067 2.92609 9.3307H2.71484C2.18672 9.3307 1.93359 8.8932 1.93359 8.36445V6.54945C1.9331 5.46808 2.36211 4.43079 3.12628 3.66568C3.89046 2.90056 4.92722 2.47028 6.00859 2.46945C6.19047 2.46945 6.33984 2.3307 6.39797 2.1582C6.49501 1.86364 6.68224 1.60706 6.93315 1.42479C7.18407 1.24252 7.48596 1.14379 7.79609 1.14258H14.5648C15.6773 1.14258 16.6273 1.87508 16.9461 2.88258Z" fill="url(#paint25_radial_793_4758)"/>
<path d="M16.9461 2.88258C16.9748 2.96972 16.9825 3.06243 16.9685 3.15311C16.9545 3.24379 16.9192 3.32987 16.8656 3.40431C16.8119 3.47874 16.7414 3.53942 16.6598 3.58138C16.5782 3.62334 16.4878 3.64538 16.3961 3.6457H16.1067C16.0411 3.6457 16.0192 3.73383 16.0773 3.76445C16.7175 4.10565 17.2521 4.61543 17.6234 5.23863C17.9946 5.86183 18.1884 6.5747 18.1836 7.30008V8.4707C18.1836 8.91445 17.8211 9.27758 17.3773 9.27758H17.1961C17.1557 9.27755 17.1169 9.29315 17.0878 9.32111C17.0586 9.34908 17.0415 9.38723 17.0398 9.42758L17.0336 9.6032L16.9961 10.5295C16.9836 10.8732 16.7023 11.1426 16.3586 11.1426L16.4336 8.84633C16.4403 8.65905 16.4092 8.47233 16.3422 8.29732C16.2752 8.1223 16.1737 7.96258 16.0436 7.82766C15.9135 7.69275 15.7576 7.58542 15.5852 7.51206C15.4127 7.43871 15.2272 7.40083 15.0398 7.4007H11.8086C11.1141 7.40051 10.4303 7.22999 9.81704 6.90407C9.20379 6.57816 8.67983 6.10681 8.29109 5.53133C8.25984 5.48508 8.18609 5.49758 8.17047 5.55133C8.01637 6.0839 7.69363 6.5521 7.25071 6.88558C6.8078 7.21906 6.26864 7.39982 5.71422 7.4007H4.93922C4.77148 7.40065 4.60542 7.43419 4.45085 7.49934C4.29627 7.5645 4.15631 7.65995 4.03923 7.78007C3.92214 7.90018 3.83029 8.04253 3.7691 8.19872C3.70792 8.35491 3.67863 8.52177 3.68297 8.68945C3.70547 9.50758 3.74359 10.3226 3.77172 11.1401C3.42797 11.1401 3.13359 10.8738 3.12109 10.5295L3.08234 9.4807C3.08073 9.44036 3.06356 9.4022 3.03443 9.37424C3.0053 9.34627 2.96647 9.33067 2.92609 9.3307H2.71484C2.18672 9.3307 1.93359 8.8932 1.93359 8.36445V6.54945C1.9331 5.46808 2.36211 4.43079 3.12628 3.66568C3.89046 2.90056 4.92722 2.47028 6.00859 2.46945C6.19047 2.46945 6.33984 2.3307 6.39797 2.1582C6.49501 1.86364 6.68224 1.60706 6.93315 1.42479C7.18407 1.24252 7.48596 1.14379 7.79609 1.14258H14.5648C15.6773 1.14258 16.6273 1.87508 16.9461 2.88258Z" fill="url(#paint26_radial_793_4758)"/>
<path d="M16.9461 2.88258C16.9748 2.96972 16.9825 3.06243 16.9685 3.15311C16.9545 3.24379 16.9192 3.32987 16.8656 3.40431C16.8119 3.47874 16.7414 3.53942 16.6598 3.58138C16.5782 3.62334 16.4878 3.64538 16.3961 3.6457H16.1067C16.0411 3.6457 16.0192 3.73383 16.0773 3.76445C16.7175 4.10565 17.2521 4.61543 17.6234 5.23863C17.9946 5.86183 18.1884 6.5747 18.1836 7.30008V8.4707C18.1836 8.91445 17.8211 9.27758 17.3773 9.27758H17.1961C17.1557 9.27755 17.1169 9.29315 17.0878 9.32111C17.0586 9.34908 17.0415 9.38723 17.0398 9.42758L17.0336 9.6032L16.9961 10.5295C16.9836 10.8732 16.7023 11.1426 16.3586 11.1426L16.4336 8.84633C16.4403 8.65905 16.4092 8.47233 16.3422 8.29732C16.2752 8.1223 16.1737 7.96258 16.0436 7.82766C15.9135 7.69275 15.7576 7.58542 15.5852 7.51206C15.4127 7.43871 15.2272 7.40083 15.0398 7.4007H11.8086C11.1141 7.40051 10.4303 7.22999 9.81704 6.90407C9.20379 6.57816 8.67983 6.10681 8.29109 5.53133C8.25984 5.48508 8.18609 5.49758 8.17047 5.55133C8.01637 6.0839 7.69363 6.5521 7.25071 6.88558C6.8078 7.21906 6.26864 7.39982 5.71422 7.4007H4.93922C4.77148 7.40065 4.60542 7.43419 4.45085 7.49934C4.29627 7.5645 4.15631 7.65995 4.03923 7.78007C3.92214 7.90018 3.83029 8.04253 3.7691 8.19872C3.70792 8.35491 3.67863 8.52177 3.68297 8.68945C3.70547 9.50758 3.74359 10.3226 3.77172 11.1401C3.42797 11.1401 3.13359 10.8738 3.12109 10.5295L3.08234 9.4807C3.08073 9.44036 3.06356 9.4022 3.03443 9.37424C3.0053 9.34627 2.96647 9.33067 2.92609 9.3307H2.71484C2.18672 9.3307 1.93359 8.8932 1.93359 8.36445V6.54945C1.9331 5.46808 2.36211 4.43079 3.12628 3.66568C3.89046 2.90056 4.92722 2.47028 6.00859 2.46945C6.19047 2.46945 6.33984 2.3307 6.39797 2.1582C6.49501 1.86364 6.68224 1.60706 6.93315 1.42479C7.18407 1.24252 7.48596 1.14379 7.79609 1.14258H14.5648C15.6773 1.14258 16.6273 1.87508 16.9461 2.88258Z" fill="url(#paint27_radial_793_4758)"/>
<path d="M16.9461 2.88258C16.9748 2.96972 16.9825 3.06243 16.9685 3.15311C16.9545 3.24379 16.9192 3.32987 16.8656 3.40431C16.8119 3.47874 16.7414 3.53942 16.6598 3.58138C16.5782 3.62334 16.4878 3.64538 16.3961 3.6457H16.1067C16.0411 3.6457 16.0192 3.73383 16.0773 3.76445C16.7175 4.10565 17.2521 4.61543 17.6234 5.23863C17.9946 5.86183 18.1884 6.5747 18.1836 7.30008V8.4707C18.1836 8.91445 17.8211 9.27758 17.3773 9.27758H17.1961C17.1557 9.27755 17.1169 9.29315 17.0878 9.32111C17.0586 9.34908 17.0415 9.38723 17.0398 9.42758L17.0336 9.6032L16.9961 10.5295C16.9836 10.8732 16.7023 11.1426 16.3586 11.1426L16.4336 8.84633C16.4403 8.65905 16.4092 8.47233 16.3422 8.29732C16.2752 8.1223 16.1737 7.96258 16.0436 7.82766C15.9135 7.69275 15.7576 7.58542 15.5852 7.51206C15.4127 7.43871 15.2272 7.40083 15.0398 7.4007H11.8086C11.1141 7.40051 10.4303 7.22999 9.81704 6.90407C9.20379 6.57816 8.67983 6.10681 8.29109 5.53133C8.25984 5.48508 8.18609 5.49758 8.17047 5.55133C8.01637 6.0839 7.69363 6.5521 7.25071 6.88558C6.8078 7.21906 6.26864 7.39982 5.71422 7.4007H4.93922C4.77148 7.40065 4.60542 7.43419 4.45085 7.49934C4.29627 7.5645 4.15631 7.65995 4.03923 7.78007C3.92214 7.90018 3.83029 8.04253 3.7691 8.19872C3.70792 8.35491 3.67863 8.52177 3.68297 8.68945C3.70547 9.50758 3.74359 10.3226 3.77172 11.1401C3.42797 11.1401 3.13359 10.8738 3.12109 10.5295L3.08234 9.4807C3.08073 9.44036 3.06356 9.4022 3.03443 9.37424C3.0053 9.34627 2.96647 9.33067 2.92609 9.3307H2.71484C2.18672 9.3307 1.93359 8.8932 1.93359 8.36445V6.54945C1.9331 5.46808 2.36211 4.43079 3.12628 3.66568C3.89046 2.90056 4.92722 2.47028 6.00859 2.46945C6.19047 2.46945 6.33984 2.3307 6.39797 2.1582C6.49501 1.86364 6.68224 1.60706 6.93315 1.42479C7.18407 1.24252 7.48596 1.14379 7.79609 1.14258H14.5648C15.6773 1.14258 16.6273 1.87508 16.9461 2.88258Z" fill="url(#paint28_radial_793_4758)"/>
</g>
<path d="M12.987 9.58203C13.4209 9.5821 13.8423 9.72727 14.1842 9.99442C14.5261 10.2616 14.7688 10.6354 14.8738 11.0564C14.8882 11.113 14.8894 11.1721 14.8773 11.2292C14.8652 11.2862 14.8401 11.3398 14.8041 11.3857C14.7681 11.4316 14.722 11.4686 14.6694 11.4938C14.6168 11.5191 14.5591 11.532 14.5007 11.5314H11.3945C11.3473 11.5316 11.3007 11.5215 11.2579 11.5016C11.2151 11.4817 11.1772 11.4527 11.147 11.4165C11.1167 11.3804 11.0948 11.3379 11.0828 11.2923C11.0708 11.2467 11.069 11.199 11.0776 11.1527C11.1646 10.7102 11.4026 10.3117 11.7508 10.0252C12.0991 9.73875 12.536 9.5821 12.987 9.58203Z" fill="white"/>
<path d="M12.6999 9.95961C12.8909 9.95987 13.0792 10.0041 13.2503 10.089C13.4214 10.1738 13.5706 10.297 13.6864 10.4488C13.8021 10.6007 13.8813 10.7772 13.9178 10.9646C13.9543 11.1521 13.9471 11.3454 13.8968 11.5296H11.4968C11.4674 11.4229 11.4521 11.3128 11.4512 11.2021C11.4512 10.5184 12.0105 9.95898 12.6993 9.95898" fill="url(#paint29_radial_793_4758)"/>
<path d="M11.9874 11.2021C11.9874 10.8065 12.3042 10.4902 12.6999 10.4902C13.0949 10.4902 13.4111 10.8065 13.4111 11.2021C13.4111 11.3209 13.383 11.4334 13.3317 11.5296H12.0724C12.0153 11.43 11.986 11.3169 11.9874 11.2021Z" fill="black"/>
<g filter="url(#filter11_f_793_4758)">
<path d="M12.6079 10.2223C12.6967 10.341 12.5117 10.4848 12.3011 10.6423C12.0904 10.7998 11.9342 10.9104 11.8461 10.7923C11.7573 10.6735 11.8561 10.4498 12.0667 10.2923C12.2773 10.1354 12.5192 10.1035 12.6079 10.2223Z" fill="#C7A7A3"/>
<path d="M12.6079 10.2223C12.6967 10.341 12.5117 10.4848 12.3011 10.6423C12.0904 10.7998 11.9342 10.9104 11.8461 10.7923C11.7573 10.6735 11.8561 10.4498 12.0667 10.2923C12.2773 10.1354 12.5192 10.1035 12.6079 10.2223Z" fill="url(#paint30_radial_793_4758)"/>
</g>
<g filter="url(#filter12_f_793_4758)">
<path d="M13.8055 11.0383C13.7685 10.7952 13.6559 10.5699 13.4836 10.3945L13.1211 10.7914L13.2848 11.1089L13.8055 11.0383Z" fill="url(#paint31_linear_793_4758)"/>
</g>
<path d="M6.9787 9.58789C6.5465 9.58802 6.12675 9.73265 5.78621 9.99879C5.44567 10.2649 5.20389 10.6373 5.09932 11.0566C5.0852 11.1129 5.08415 11.1716 5.09624 11.2284C5.10833 11.2851 5.13325 11.3383 5.16909 11.3839C5.20493 11.4295 5.25073 11.4663 5.30299 11.4915C5.35524 11.5167 5.41257 11.5296 5.47057 11.5291H8.56557C8.61249 11.5294 8.65888 11.5193 8.70143 11.4995C8.74398 11.4797 8.78165 11.4508 8.81174 11.4148C8.84183 11.3788 8.8636 11.3366 8.8755 11.2912C8.8874 11.2458 8.88913 11.1984 8.88057 11.1523C8.79296 10.712 8.55566 10.3156 8.20898 10.0305C7.86229 9.74531 7.42759 9.58893 6.9787 9.58789Z" fill="white"/>
<path d="M7.2654 9.96484C7.07504 9.96491 6.88726 10.0089 6.71667 10.0934C6.54609 10.1778 6.39728 10.3005 6.28184 10.4519C6.1664 10.6032 6.08744 10.7792 6.05109 10.966C6.01474 11.1529 6.02199 11.3456 6.07227 11.5292H8.46415C8.49326 11.4229 8.50838 11.3132 8.50915 11.203C8.50684 10.8744 8.37486 10.56 8.14194 10.3283C7.90901 10.0965 7.59398 9.96612 7.2654 9.96547" fill="url(#paint32_radial_793_4758)"/>
<path d="M7.97477 11.2035C7.97519 11.1103 7.95712 11.0178 7.92162 10.9316C7.88611 10.8453 7.83388 10.767 7.76792 10.701C7.70197 10.635 7.6236 10.5828 7.53735 10.5473C7.4511 10.5118 7.35867 10.4937 7.2654 10.4941C7.17218 10.4938 7.07981 10.5119 6.99363 10.5475C6.90746 10.583 6.82916 10.6353 6.76328 10.7012C6.69739 10.7672 6.64521 10.8455 6.60974 10.9317C6.57428 11.0179 6.55623 11.1103 6.55665 11.2035C6.55665 11.3216 6.58477 11.4341 6.6354 11.5298H7.88977C7.94102 11.4341 7.97415 11.3216 7.97415 11.2035" fill="black"/>
<g filter="url(#filter13_f_793_4758)">
<path d="M8.39676 11.058C8.39676 10.658 8.07176 10.3912 7.98301 10.3105L7.58301 10.698L7.82926 11.1987L8.39676 11.058Z" fill="url(#paint33_linear_793_4758)"/>
</g>
<g filter="url(#filter14_f_793_4758)">
<path d="M7.01919 10.7346C7.28303 10.5948 7.43954 10.3732 7.36876 10.2396C7.29798 10.106 7.02672 10.111 6.76288 10.2508C6.49904 10.3906 6.34253 10.6122 6.41331 10.7458C6.48409 10.8794 6.75535 10.8744 7.01919 10.7346Z" fill="#C7A7A3" fill-opacity="0.9"/>
<path d="M7.01919 10.7346C7.28303 10.5948 7.43954 10.3732 7.36876 10.2396C7.29798 10.106 7.02672 10.111 6.76288 10.2508C6.49904 10.3906 6.34253 10.6122 6.41331 10.7458C6.48409 10.8794 6.75535 10.8744 7.01919 10.7346Z" fill="url(#paint34_radial_793_4758)"/>
</g>
<g filter="url(#filter15_f_793_4758)">
<path d="M10.8947 12.987C10.9337 13.0679 10.9488 13.1582 10.9383 13.2475C10.9278 13.3367 10.8921 13.421 10.8354 13.4907C10.704 13.656 10.5337 13.7861 10.3397 13.8693C10.1457 13.9525 9.93401 13.9863 9.72372 13.9675C9.51344 13.9487 9.31111 13.878 9.13489 13.7618C8.95868 13.6455 8.81409 13.4873 8.71412 13.3013C8.67074 13.2227 8.65064 13.1333 8.65617 13.0437C8.66171 12.954 8.69264 12.8678 8.74537 12.7951L9.58662 11.2432C9.62501 11.1724 9.68328 11.1144 9.75425 11.0763C9.82522 11.0383 9.90578 11.0218 9.98599 11.029C10.0662 11.0362 10.1426 11.0667 10.2056 11.1167C10.2687 11.1668 10.3158 11.2342 10.341 11.3107L10.8947 12.987Z" fill="url(#paint35_linear_793_4758)"/>
</g>
<g filter="url(#filter16_f_793_4758)">
<path d="M11.0086 12.6134C11.0523 12.687 11.0743 12.7715 11.0718 12.857C11.0694 12.9425 11.0427 13.0256 10.9948 13.0966C10.8841 13.2647 10.7333 13.4027 10.556 13.4982C10.3787 13.5937 10.1805 13.6437 9.9792 13.6437C9.77786 13.6437 9.57966 13.5937 9.4024 13.4982C9.22514 13.4027 9.07436 13.2647 8.96358 13.0966C8.91581 13.0256 8.88921 12.9424 8.88689 12.8569C8.88456 12.7714 8.90661 12.6869 8.95045 12.6134L9.61795 11.0672C9.6485 10.9967 9.69897 10.9368 9.76315 10.8946C9.82733 10.8525 9.90243 10.8301 9.9792 10.8301C10.056 10.8301 10.1311 10.8525 10.1953 10.8946C10.2594 10.9368 10.3099 10.9967 10.3405 11.0672L11.0086 12.6134Z" fill="#F9C5AE"/>
<path d="M11.0086 12.6134C11.0523 12.687 11.0743 12.7715 11.0718 12.857C11.0694 12.9425 11.0427 13.0256 10.9948 13.0966C10.8841 13.2647 10.7333 13.4027 10.556 13.4982C10.3787 13.5937 10.1805 13.6437 9.9792 13.6437C9.77786 13.6437 9.57966 13.5937 9.4024 13.4982C9.22514 13.4027 9.07436 13.2647 8.96358 13.0966C8.91581 13.0256 8.88921 12.9424 8.88689 12.8569C8.88456 12.7714 8.90661 12.6869 8.95045 12.6134L9.61795 11.0672C9.6485 10.9967 9.69897 10.9368 9.76315 10.8946C9.82733 10.8525 9.90243 10.8301 9.9792 10.8301C10.056 10.8301 10.1311 10.8525 10.1953 10.8946C10.2594 10.9368 10.3099 10.9967 10.3405 11.0672L11.0086 12.6134Z" fill="url(#paint36_radial_793_4758)"/>
<path d="M11.0086 12.6134C11.0523 12.687 11.0743 12.7715 11.0718 12.857C11.0694 12.9425 11.0427 13.0256 10.9948 13.0966C10.8841 13.2647 10.7333 13.4027 10.556 13.4982C10.3787 13.5937 10.1805 13.6437 9.9792 13.6437C9.77786 13.6437 9.57966 13.5937 9.4024 13.4982C9.22514 13.4027 9.07436 13.2647 8.96358 13.0966C8.91581 13.0256 8.88921 12.9424 8.88689 12.8569C8.88456 12.7714 8.90661 12.6869 8.95045 12.6134L9.61795 11.0672C9.6485 10.9967 9.69897 10.9368 9.76315 10.8946C9.82733 10.8525 9.90243 10.8301 9.9792 10.8301C10.056 10.8301 10.1311 10.8525 10.1953 10.8946C10.2594 10.9368 10.3099 10.9967 10.3405 11.0672L11.0086 12.6134Z" fill="url(#paint37_radial_793_4758)"/>
<path d="M11.0086 12.6134C11.0523 12.687 11.0743 12.7715 11.0718 12.857C11.0694 12.9425 11.0427 13.0256 10.9948 13.0966C10.8841 13.2647 10.7333 13.4027 10.556 13.4982C10.3787 13.5937 10.1805 13.6437 9.9792 13.6437C9.77786 13.6437 9.57966 13.5937 9.4024 13.4982C9.22514 13.4027 9.07436 13.2647 8.96358 13.0966C8.91581 13.0256 8.88921 12.9424 8.88689 12.8569C8.88456 12.7714 8.90661 12.6869 8.95045 12.6134L9.61795 11.0672C9.6485 10.9967 9.69897 10.9368 9.76315 10.8946C9.82733 10.8525 9.90243 10.8301 9.9792 10.8301C10.056 10.8301 10.1311 10.8525 10.1953 10.8946C10.2594 10.9368 10.3099 10.9967 10.3405 11.0672L11.0086 12.6134Z" fill="url(#paint38_linear_793_4758)"/>
<path d="M11.0086 12.6134C11.0523 12.687 11.0743 12.7715 11.0718 12.857C11.0694 12.9425 11.0427 13.0256 10.9948 13.0966C10.8841 13.2647 10.7333 13.4027 10.556 13.4982C10.3787 13.5937 10.1805 13.6437 9.9792 13.6437C9.77786 13.6437 9.57966 13.5937 9.4024 13.4982C9.22514 13.4027 9.07436 13.2647 8.96358 13.0966C8.91581 13.0256 8.88921 12.9424 8.88689 12.8569C8.88456 12.7714 8.90661 12.6869 8.95045 12.6134L9.61795 11.0672C9.6485 10.9967 9.69897 10.9368 9.76315 10.8946C9.82733 10.8525 9.90243 10.8301 9.9792 10.8301C10.056 10.8301 10.1311 10.8525 10.1953 10.8946C10.2594 10.9368 10.3099 10.9967 10.3405 11.0672L11.0086 12.6134Z" fill="url(#paint39_radial_793_4758)"/>
<path d="M11.0086 12.6134C11.0523 12.687 11.0743 12.7715 11.0718 12.857C11.0694 12.9425 11.0427 13.0256 10.9948 13.0966C10.8841 13.2647 10.7333 13.4027 10.556 13.4982C10.3787 13.5937 10.1805 13.6437 9.9792 13.6437C9.77786 13.6437 9.57966 13.5937 9.4024 13.4982C9.22514 13.4027 9.07436 13.2647 8.96358 13.0966C8.91581 13.0256 8.88921 12.9424 8.88689 12.8569C8.88456 12.7714 8.90661 12.6869 8.95045 12.6134L9.61795 11.0672C9.6485 10.9967 9.69897 10.9368 9.76315 10.8946C9.82733 10.8525 9.90243 10.8301 9.9792 10.8301C10.056 10.8301 10.1311 10.8525 10.1953 10.8946C10.2594 10.9368 10.3099 10.9967 10.3405 11.0672L11.0086 12.6134Z" fill="url(#paint40_linear_793_4758)"/>
</g>
<g filter="url(#filter17_f_793_4758)">
<path d="M15.1753 3.64227C14.6484 3.43414 13.1484 2.97852 11.3672 2.82227" stroke="#443E40" stroke-width="0.25" stroke-linecap="round"/>
</g>
<g filter="url(#filter18_f_793_4758)">
<path d="M7.78125 3.76953C7.905 4.26453 8.39875 5.46891 9.38312 6.32828" stroke="url(#paint41_linear_793_4758)" stroke-width="0.25" stroke-linecap="round"/>
</g>
<g filter="url(#filter19_f_793_4758)">
<path d="M11.7804 3.43015C10.3529 4.08203 9.77602 5.30203 9.66602 5.83078C10.0404 5.70578 11.1504 5.45203 12.5948 5.43453C14.0398 5.41703 15.0179 5.6914 15.326 5.83078L15.8766 3.43078C15.106 3.15828 13.2079 2.77765 11.7804 3.43015Z" fill="url(#paint42_radial_793_4758)"/>
</g>
<g filter="url(#filter20_f_793_4758)">
<path d="M16.8093 8.7586L16.8087 8.75857C16.7266 8.75384 16.6563 8.81649 16.6516 8.8985L16.5551 10.5707C16.5504 10.6527 16.613 10.7231 16.695 10.7278L16.6957 10.7278C16.7777 10.7326 16.848 10.6699 16.8527 10.5879L16.9492 8.91568C16.954 8.83366 16.8913 8.76334 16.8093 8.7586Z" fill="url(#paint43_linear_793_4758)"/>
</g>
<g filter="url(#filter21_f_793_4758)">
<path d="M3.10436 8.51758C3.10207 8.46067 3.1462 8.41268 3.20294 8.41039C3.25967 8.40811 3.30753 8.45238 3.30982 8.50929L3.39723 10.6763C3.39953 10.7332 3.3554 10.7812 3.29866 10.7835C3.24193 10.7858 3.19407 10.7415 3.19178 10.6846L3.10436 8.51758Z" fill="url(#paint44_linear_793_4758)"/>
</g>
<defs>
<filter id="filter0_i_793_4758" x="3.10547" y="12.5605" width="3.56836" height="4.84375" filterUnits="userSpaceOnUse" color-interpolation-filters="sRGB">
<feFlood flood-opacity="0" result="BackgroundImageFix"/>
<feBlend mode="normal" in="SourceGraphic" in2="BackgroundImageFix" result="shape"/>
<feColorMatrix in="SourceAlpha" type="matrix" values="0 0 0 0 0 0 0 0 0 0 0 0 0 0 0 0 0 0 127 0" result="hardAlpha"/>
<feOffset dx="0.25"/>
<feGaussianBlur stdDeviation="0.3"/>
<feComposite in2="hardAlpha" operator="arithmetic" k2="-1" k3="1"/>
<feColorMatrix type="matrix" values="0 0 0 0 0.329412 0 0 0 0 0.270588 0 0 0 0 0.25098 0 0 0 1 0"/>
<feBlend mode="normal" in2="shape" result="effect1_innerShadow_793_4758"/>
</filter>
<filter id="filter1_i_793_4758" x="13.5488" y="12.0605" width="3.56836" height="5.34375" filterUnits="userSpaceOnUse" color-interpolation-filters="sRGB">
<feFlood flood-opacity="0" result="BackgroundImageFix"/>
<feBlend mode="normal" in="SourceGraphic" in2="BackgroundImageFix" result="shape"/>
<feColorMatrix in="SourceAlpha" type="matrix" values="0 0 0 0 0 0 0 0 0 0 0 0 0 0 0 0 0 0 127 0" result="hardAlpha"/>
<feOffset dx="0.25" dy="-0.5"/>
<feGaussianBlur stdDeviation="0.375"/>
<feComposite in2="hardAlpha" operator="arithmetic" k2="-1" k3="1"/>
<feColorMatrix type="matrix" values="0 0 0 0 0.168627 0 0 0 0 0.0784314 0 0 0 0 0.211765 0 0 0 1 0"/>
<feBlend mode="normal" in2="shape" result="effect1_innerShadow_793_4758"/>
</filter>
<filter id="filter2_f_793_4758" x="2.50391" y="9.44727" width="3.07812" height="3.07812" filterUnits="userSpaceOnUse" color-interpolation-filters="sRGB">
<feFlood flood-opacity="0" result="BackgroundImageFix"/>
<feBlend mode="normal" in="SourceGraphic" in2="BackgroundImageFix" result="shape"/>
<feGaussianBlur stdDeviation="0.125" result="effect1_foregroundBlur_793_4758"/>
</filter>
<filter id="filter3_f_793_4758" x="14.418" y="9.48633" width="3" height="3" filterUnits="userSpaceOnUse" color-interpolation-filters="sRGB">
<feFlood flood-opacity="0" result="BackgroundImageFix"/>
<feBlend mode="normal" in="SourceGraphic" in2="BackgroundImageFix" result="shape"/>
<feGaussianBlur stdDeviation="0.125" result="effect1_foregroundBlur_793_4758"/>
</filter>
<filter id="filter4_ii_793_4758" x="3.12891" y="2.43164" width="14.6484" height="16.25" filterUnits="userSpaceOnUse" color-interpolation-filters="sRGB">
<feFlood flood-opacity="0" result="BackgroundImageFix"/>
<feBlend mode="normal" in="SourceGraphic" in2="BackgroundImageFix" result="shape"/>
<feColorMatrix in="SourceAlpha" type="matrix" values="0 0 0 0 0 0 0 0 0 0 0 0 0 0 0 0 0 0 127 0" result="hardAlpha"/>
<feOffset dx="1.25"/>
<feGaussianBlur stdDeviation="0.75"/>
<feComposite in2="hardAlpha" operator="arithmetic" k2="-1" k3="1"/>
<feColorMatrix type="matrix" values="0 0 0 0 0.87451 0 0 0 0 0.65098 0 0 0 0 0.576471 0 0 0 1 0"/>
<feBlend mode="normal" in2="shape" result="effect1_innerShadow_793_4758"/>
<feColorMatrix in="SourceAlpha" type="matrix" values="0 0 0 0 0 0 0 0 0 0 0 0 0 0 0 0 0 0 127 0" result="hardAlpha"/>
<feOffset dx="-0.5"/>
<feGaussianBlur stdDeviation="1"/>
<feComposite in2="hardAlpha" operator="arithmetic" k2="-1" k3="1"/>
<feColorMatrix type="matrix" values="0 0 0 0 1 0 0 0 0 0.843137 0 0 0 0 0.733333 0 0 0 1 0"/>
<feBlend mode="normal" in2="effect1_innerShadow_793_4758" result="effect2_innerShadow_793_4758"/>
</filter>
<filter id="filter5_i_793_4758" x="5.55566" y="7.71562" width="2.79395" height="1.48164" filterUnits="userSpaceOnUse" color-interpolation-filters="sRGB">
<feFlood flood-opacity="0" result="BackgroundImageFix"/>
<feBlend mode="normal" in="SourceGraphic" in2="BackgroundImageFix" result="shape"/>
<feColorMatrix in="SourceAlpha" type="matrix" values="0 0 0 0 0 0 0 0 0 0 0 0 0 0 0 0 0 0 127 0" result="hardAlpha"/>
<feOffset dx="0.25" dy="-0.3"/>
<feGaussianBlur stdDeviation="0.15"/>
<feComposite in2="hardAlpha" operator="arithmetic" k2="-1" k3="1"/>
<feColorMatrix type="matrix" values="0 0 0 0 0.160784 0 0 0 0 0.117647 0 0 0 0 0.117647 0 0 0 1 0"/>
<feBlend mode="normal" in2="shape" result="effect1_innerShadow_793_4758"/>
</filter>
<filter id="filter6_f_793_4758" x="5.69922" y="8.08203" width="2.29395" height="0.931641" filterUnits="userSpaceOnUse" color-interpolation-filters="sRGB">
<feFlood flood-opacity="0" result="BackgroundImageFix"/>
<feBlend mode="normal" in="SourceGraphic" in2="BackgroundImageFix" result="shape"/>
<feGaussianBlur stdDeviation="0.125" result="effect1_foregroundBlur_793_4758"/>
</filter>
<filter id="filter7_i_793_4758" x="11.874" y="7.71562" width="2.79395" height="1.48164" filterUnits="userSpaceOnUse" color-interpolation-filters="sRGB">
<feFlood flood-opacity="0" result="BackgroundImageFix"/>
<feBlend mode="normal" in="SourceGraphic" in2="BackgroundImageFix" result="shape"/>
<feColorMatrix in="SourceAlpha" type="matrix" values="0 0 0 0 0 0 0 0 0 0 0 0 0 0 0 0 0 0 127 0" result="hardAlpha"/>
<feOffset dx="0.25" dy="-0.3"/>
<feGaussianBlur stdDeviation="0.15"/>
<feComposite in2="hardAlpha" operator="arithmetic" k2="-1" k3="1"/>
<feColorMatrix type="matrix" values="0 0 0 0 0.160784 0 0 0 0 0.117647 0 0 0 0 0.117647 0 0 0 1 0"/>
<feBlend mode="normal" in2="shape" result="effect1_innerShadow_793_4758"/>
</filter>
<filter id="filter8_f_793_4758" x="11.999" y="8.05078" width="2.29395" height="0.931641" filterUnits="userSpaceOnUse" color-interpolation-filters="sRGB">
<feFlood flood-opacity="0" result="BackgroundImageFix"/>
<feBlend mode="normal" in="SourceGraphic" in2="BackgroundImageFix" result="shape"/>
<feGaussianBlur stdDeviation="0.125" result="effect1_foregroundBlur_793_4758"/>
</filter>
<filter id="filter9_f_793_4758" x="7.57187" y="13.6734" width="4.81816" height="1.94219" filterUnits="userSpaceOnUse" color-interpolation-filters="sRGB">
<feFlood flood-opacity="0" result="BackgroundImageFix"/>
<feBlend mode="normal" in="SourceGraphic" in2="BackgroundImageFix" result="shape"/>
<feGaussianBlur stdDeviation="0.05" result="effect1_foregroundBlur_793_4758"/>
</filter>
<filter id="filter10_ii_793_4758" x="1.93359" y="0.392578" width="16.25" height="10.75" filterUnits="userSpaceOnUse" color-interpolation-filters="sRGB">
<feFlood flood-opacity="0" result="BackgroundImageFix"/>
<feBlend mode="normal" in="SourceGraphic" in2="BackgroundImageFix" result="shape"/>
<feColorMatrix in="SourceAlpha" type="matrix" values="0 0 0 0 0 0 0 0 0 0 0 0 0 0 0 0 0 0 127 0" result="hardAlpha"/>
<feOffset dy="-0.75"/>
<feGaussianBlur stdDeviation="0.625"/>
<feComposite in2="hardAlpha" operator="arithmetic" k2="-1" k3="1"/>
<feColorMatrix type="matrix" values="0 0 0 0 0.101961 0 0 0 0 0.0431373 0 0 0 0 0.101961 0 0 0 1 0"/>
<feBlend mode="normal" in2="shape" result="effect1_innerShadow_793_4758"/>
<feColorMatrix in="SourceAlpha" type="matrix" values="0 0 0 0 0 0 0 0 0 0 0 0 0 0 0 0 0 0 127 0" result="hardAlpha"/>
<feOffset dy="-0.35"/>
<feGaussianBlur stdDeviation="0.5"/>
<feComposite in2="hardAlpha" operator="arithmetic" k2="-1" k3="1"/>
<feColorMatrix type="matrix" values="0 0 0 0 0.0941176 0 0 0 0 0.0352941 0 0 0 0 0.054902 0 0 0 1 0"/>
<feBlend mode="normal" in2="effect1_innerShadow_793_4758" result="effect2_innerShadow_793_4758"/>
</filter>
<filter id="filter11_f_793_4758" x="11.7135" y="10.0504" width="1.01738" height="0.891406" filterUnits="userSpaceOnUse" color-interpolation-filters="sRGB">
<feFlood flood-opacity="0" result="BackgroundImageFix"/>
<feBlend mode="normal" in="SourceGraphic" in2="BackgroundImageFix" result="shape"/>
<feGaussianBlur stdDeviation="0.05" result="effect1_foregroundBlur_793_4758"/>
</filter>
<filter id="filter12_f_793_4758" x="12.9211" y="10.1945" width="1.08457" height="1.11484" filterUnits="userSpaceOnUse" color-interpolation-filters="sRGB">
<feFlood flood-opacity="0" result="BackgroundImageFix"/>
<feBlend mode="normal" in="SourceGraphic" in2="BackgroundImageFix" result="shape"/>
<feGaussianBlur stdDeviation="0.1" result="effect1_foregroundBlur_793_4758"/>
</filter>
<filter id="filter13_f_793_4758" x="7.38301" y="10.1105" width="1.21348" height="1.28867" filterUnits="userSpaceOnUse" color-interpolation-filters="sRGB">
<feFlood flood-opacity="0" result="BackgroundImageFix"/>
<feBlend mode="normal" in="SourceGraphic" in2="BackgroundImageFix" result="shape"/>
<feGaussianBlur stdDeviation="0.1" result="effect1_foregroundBlur_793_4758"/>
</filter>
<filter id="filter14_f_793_4758" x="6.29648" y="10.0426" width="1.18926" height="0.901172" filterUnits="userSpaceOnUse" color-interpolation-filters="sRGB">
<feFlood flood-opacity="0" result="BackgroundImageFix"/>
<feBlend mode="normal" in="SourceGraphic" in2="BackgroundImageFix" result="shape"/>
<feGaussianBlur stdDeviation="0.05" result="effect1_foregroundBlur_793_4758"/>
</filter>
<filter id="filter15_f_793_4758" x="8.05527" y="10.4273" width="3.48613" height="4.14531" filterUnits="userSpaceOnUse" color-interpolation-filters="sRGB">
<feFlood flood-opacity="0" result="BackgroundImageFix"/>
<feBlend mode="normal" in="SourceGraphic" in2="BackgroundImageFix" result="shape"/>
<feGaussianBlur stdDeviation="0.3" result="effect1_foregroundBlur_793_4758"/>
</filter>
<filter id="filter16_f_793_4758" x="8.68672" y="10.6301" width="2.58555" height="3.21445" filterUnits="userSpaceOnUse" color-interpolation-filters="sRGB">
<feFlood flood-opacity="0" result="BackgroundImageFix"/>
<feBlend mode="normal" in="SourceGraphic" in2="BackgroundImageFix" result="shape"/>
<feGaussianBlur stdDeviation="0.1" result="effect1_foregroundBlur_793_4758"/>
</filter>
<filter id="filter17_f_793_4758" x="10.6422" y="2.09727" width="5.25859" height="2.27031" filterUnits="userSpaceOnUse" color-interpolation-filters="sRGB">
<feFlood flood-opacity="0" result="BackgroundImageFix"/>
<feBlend mode="normal" in="SourceGraphic" in2="BackgroundImageFix" result="shape"/>
<feGaussianBlur stdDeviation="0.3" result="effect1_foregroundBlur_793_4758"/>
</filter>
<filter id="filter18_f_793_4758" x="7.25625" y="3.24453" width="2.65156" height="3.60859" filterUnits="userSpaceOnUse" color-interpolation-filters="sRGB">
<feFlood flood-opacity="0" result="BackgroundImageFix"/>
<feBlend mode="normal" in="SourceGraphic" in2="BackgroundImageFix" result="shape"/>
<feGaussianBlur stdDeviation="0.2" result="effect1_foregroundBlur_793_4758"/>
</filter>
<filter id="filter19_f_793_4758" x="8.16602" y="1.57031" width="9.21094" height="5.75977" filterUnits="userSpaceOnUse" color-interpolation-filters="sRGB">
<feFlood flood-opacity="0" result="BackgroundImageFix"/>
<feBlend mode="normal" in="SourceGraphic" in2="BackgroundImageFix" result="shape"/>
<feGaussianBlur stdDeviation="0.75" result="effect1_foregroundBlur_793_4758"/>
</filter>
<filter id="filter20_f_793_4758" x="16.3047" y="8.50781" width="0.894531" height="2.4707" filterUnits="userSpaceOnUse" color-interpolation-filters="sRGB">
<feFlood flood-opacity="0" result="BackgroundImageFix"/>
<feBlend mode="normal" in="SourceGraphic" in2="BackgroundImageFix" result="shape"/>
<feGaussianBlur stdDeviation="0.125" result="effect1_foregroundBlur_793_4758"/>
</filter>
<filter id="filter21_f_793_4758" x="2.85449" y="8.16016" width="0.792969" height="2.87305" filterUnits="userSpaceOnUse" color-interpolation-filters="sRGB">
<feFlood flood-opacity="0" result="BackgroundImageFix"/>
<feBlend mode="normal" in="SourceGraphic" in2="BackgroundImageFix" result="shape"/>
<feGaussianBlur stdDeviation="0.125" result="effect1_foregroundBlur_793_4758"/>
</filter>
<linearGradient id="paint0_linear_793_4758" x1="4.76484" y1="12.5605" x2="4.76484" y2="17.4043" gradientUnits="userSpaceOnUse">
<stop stop-color="#1C181B"/>
<stop offset="1" stop-color="#18111D"/>
</linearGradient>
<linearGradient id="paint1_linear_793_4758" x1="15.2082" y1="12.3137" x2="15.2082" y2="17.4043" gradientUnits="userSpaceOnUse">
<stop stop-color="#422F33"/>
<stop offset="1" stop-color="#2E232C"/>
</linearGradient>
<radialGradient id="paint2_radial_793_4758" cx="0" cy="0" r="1" gradientUnits="userSpaceOnUse" gradientTransform="translate(16.8676 13.1143) rotate(90) scale(3.4375 0.852337)">
<stop stop-color="#333233"/>
<stop offset="1" stop-color="#333233" stop-opacity="0"/>
</radialGradient>
<linearGradient id="paint3_linear_793_4758" x1="2.49984" y1="9.9707" x2="4.04297" y2="12.4513" gradientUnits="userSpaceOnUse">
<stop stop-color="#BB8875"/>
<stop offset="1" stop-color="#C6877D"/>
</linearGradient>
<radialGradient id="paint4_radial_793_4758" cx="0" cy="0" r="1" gradientUnits="userSpaceOnUse" gradientTransform="translate(4.60979 10.8695) rotate(177.563) scale(2.7564 2.77637)">
<stop offset="0.871" stop-color="#EAB19A" stop-opacity="0"/>
<stop offset="1" stop-color="#EAB19A"/>
</radialGradient>
<radialGradient id="paint5_radial_793_4758" cx="0" cy="0" r="1" gradientUnits="userSpaceOnUse" gradientTransform="translate(4.0425 10.9864) rotate(143.843) scale(1.25794)">
<stop offset="0.233" stop-color="#B87C6D"/>
<stop offset="1" stop-color="#C88E80"/>
</radialGradient>
<radialGradient id="paint6_radial_793_4758" cx="0" cy="0" r="1" gradientUnits="userSpaceOnUse" gradientTransform="translate(15.7813 11.9044) rotate(-43.409) scale(2.98426 2.79271)">
<stop offset="0.417" stop-color="#F2BBA8"/>
<stop offset="0.862" stop-color="#FFD7C0"/>
</radialGradient>
<radialGradient id="paint7_radial_793_4758" cx="0" cy="0" r="1" gradientUnits="userSpaceOnUse" gradientTransform="translate(15.918 10.4982) rotate(90) scale(2.51953)">
<stop offset="0.881" stop-color="#D59D93" stop-opacity="0"/>
<stop offset="1" stop-color="#D59D93"/>
</radialGradient>
<radialGradient id="paint8_radial_793_4758" cx="0" cy="0" r="1" gradientUnits="userSpaceOnUse" gradientTransform="translate(16.4455 10.6157) rotate(97.8521) scale(1.14353 1.20594)">
<stop offset="0.256" stop-color="#D9A48B"/>
<stop offset="1" stop-color="#D9A48B" stop-opacity="0"/>
</radialGradient>
<radialGradient id="paint9_radial_793_4758" cx="0" cy="0" r="1" gradientUnits="userSpaceOnUse" gradientTransform="translate(17.1967 9.09195) rotate(107.435) scale(0.619264 1.90177)">
<stop stop-color="#C3977A"/>
<stop offset="1" stop-color="#C3977A" stop-opacity="0"/>
</radialGradient>
<radialGradient id="paint10_radial_793_4758" cx="0" cy="0" r="1" gradientUnits="userSpaceOnUse" gradientTransform="translate(16.2305 10.2538) rotate(91.254) scale(1.33821 1.15576)">
<stop offset="0.564" stop-color="#DBA084"/>
<stop offset="1" stop-color="#DBA084" stop-opacity="0"/>
</radialGradient>
<radialGradient id="paint11_radial_793_4758" cx="0" cy="0" r="1" gradientUnits="userSpaceOnUse" gradientTransform="translate(14.3555 10.9804) rotate(180) scale(8.28125 9.14313)">
<stop offset="0.172" stop-color="#FFDDC0"/>
<stop offset="1" stop-color="#DFAB9F"/>
</radialGradient>
<radialGradient id="paint12_radial_793_4758" cx="0" cy="0" r="1" gradientUnits="userSpaceOnUse" gradientTransform="translate(10.0857 9.45664) rotate(90) scale(9.225 8.80856)">
<stop offset="0.771" stop-color="#B47896" stop-opacity="0"/>
<stop offset="1" stop-color="#B47896"/>
</radialGradient>
<radialGradient id="paint13_radial_793_4758" cx="0" cy="0" r="1" gradientUnits="userSpaceOnUse" gradientTransform="translate(7.89054 17.4323) rotate(-55.7131) scale(5.2006 10.9584)">
<stop stop-color="#BF838F"/>
<stop offset="1" stop-color="#BF838F" stop-opacity="0"/>
</radialGradient>
<radialGradient id="paint14_radial_793_4758" cx="0" cy="0" r="1" gradientUnits="userSpaceOnUse" gradientTransform="translate(10.8399 5.31602) rotate(26.565) scale(3.66855 2.46644)">
<stop offset="0.292" stop-color="#C38D7F"/>
<stop offset="1" stop-color="#C38D7F" stop-opacity="0"/>
</radialGradient>
<radialGradient id="paint15_radial_793_4758" cx="0" cy="0" r="1" gradientUnits="userSpaceOnUse" gradientTransform="translate(13.0099 10.251) rotate(-90) scale(1.20614 1.70279)">
<stop offset="0.412" stop-color="#FABEAC"/>
<stop offset="1" stop-color="#FABEAC" stop-opacity="0"/>
</radialGradient>
<radialGradient id="paint16_radial_793_4758" cx="0" cy="0" r="1" gradientUnits="userSpaceOnUse" gradientTransform="translate(7.09304 10.2654) rotate(-90) scale(1.50413 2.12347)">
<stop offset="0.412" stop-color="#D0978F"/>
<stop offset="1" stop-color="#D0978F" stop-opacity="0"/>
</radialGradient>
<radialGradient id="paint17_radial_793_4758" cx="0" cy="0" r="1" gradientUnits="userSpaceOnUse" gradientTransform="translate(8.35768 5.19766) rotate(54.678) scale(1.96211 0.965419)">
<stop stop-color="#A26F61"/>
<stop offset="1" stop-color="#A26F61" stop-opacity="0"/>
</radialGradient>
<radialGradient id="paint18_radial_793_4758" cx="0" cy="0" r="1" gradientUnits="userSpaceOnUse" gradientTransform="translate(10.9505 9.35727) rotate(90) scale(9.67219 12.2053)">
<stop offset="0.792" stop-color="#BB7F90" stop-opacity="0"/>
<stop offset="0.963" stop-color="#BB7F90"/>
</radialGradient>
<linearGradient id="paint19_linear_793_4758" x1="7.67422" y1="8.72311" x2="5.54547" y2="8.54811" gradientUnits="userSpaceOnUse">
<stop stop-color="#323232"/>
<stop offset="1" stop-color="#323232" stop-opacity="0"/>
</linearGradient>
<linearGradient id="paint20_linear_793_4758" x1="13.974" y1="8.69186" x2="11.8453" y2="8.51686" gradientUnits="userSpaceOnUse">
<stop stop-color="#323232"/>
<stop offset="1" stop-color="#323232" stop-opacity="0"/>
</linearGradient>
<linearGradient id="paint21_linear_793_4758" x1="8.56344" y1="15.1202" x2="9.10031" y2="14.2321" gradientUnits="userSpaceOnUse">
<stop offset="0.224" stop-color="#C28A8E"/>
<stop offset="0.51" stop-color="#C28A8E" stop-opacity="0"/>
</linearGradient>
<linearGradient id="paint22_linear_793_4758" x1="8.67124" y1="15.2435" x2="12.1675" y2="14.2472" gradientUnits="userSpaceOnUse">
<stop stop-color="#88014E"/>
<stop offset="1" stop-color="#87004D"/>
</linearGradient>
<linearGradient id="paint23_linear_793_4758" x1="7.01172" y1="9.0332" x2="17.0311" y2="3.79883" gradientUnits="userSpaceOnUse">
<stop stop-color="#2B2B2C"/>
<stop offset="1" stop-color="#313131"/>
</linearGradient>
<radialGradient id="paint24_radial_793_4758" cx="0" cy="0" r="1" gradientUnits="userSpaceOnUse" gradientTransform="translate(7.22587 6.44527) rotate(-64.14) scale(2.48519 0.601287)">
<stop stop-color="#3E333B"/>
<stop offset="1" stop-color="#2C242A" stop-opacity="0"/>
</radialGradient>
<radialGradient id="paint25_radial_793_4758" cx="0" cy="0" r="1" gradientUnits="userSpaceOnUse" gradientTransform="translate(6.13152 1.92331) rotate(101.31) scale(0.995875 1.59637)">
<stop offset="0.254" stop-color="#454243"/>
<stop offset="1" stop-color="#454243" stop-opacity="0"/>
</radialGradient>
<radialGradient id="paint26_radial_793_4758" cx="0" cy="0" r="1" gradientUnits="userSpaceOnUse" gradientTransform="translate(4.29672 7.90008) rotate(-126.939) scale(6.5 2.92503)">
<stop offset="0.226" stop-color="#4E413C"/>
<stop offset="1" stop-color="#4E413C" stop-opacity="0"/>
</radialGradient>
<radialGradient id="paint27_radial_793_4758" cx="0" cy="0" r="1" gradientUnits="userSpaceOnUse" gradientTransform="translate(16.8166 3.44652) rotate(-152.7) scale(3.40679 0.767575)">
<stop stop-color="#4E4649"/>
<stop offset="1" stop-color="#4E4649" stop-opacity="0"/>
</radialGradient>
<radialGradient id="paint28_radial_793_4758" cx="0" cy="0" r="1" gradientUnits="userSpaceOnUse" gradientTransform="translate(12.8517 2.76383) rotate(5.2739) scale(2.54986 0.780316)">
<stop stop-color="#433D3F"/>
<stop offset="1" stop-color="#433D3F" stop-opacity="0"/>
</radialGradient>
<radialGradient id="paint29_radial_793_4758" cx="0" cy="0" r="1" gradientUnits="userSpaceOnUse" gradientTransform="translate(12.6968 10.6234) rotate(90) scale(1.12977 1.79702)">
<stop offset="0.802" stop-color="#7F594C"/>
<stop offset="1" stop-color="#644844"/>
</radialGradient>
<radialGradient id="paint30_radial_793_4758" cx="0" cy="0" r="1" gradientUnits="userSpaceOnUse" gradientTransform="translate(12.3786 10.741) rotate(-127.812) scale(0.526771 0.725238)">
<stop offset="0.766" stop-color="#FFE6E2" stop-opacity="0"/>
<stop offset="0.966" stop-color="#FFE6E2"/>
</radialGradient>
<linearGradient id="paint31_linear_793_4758" x1="13.7792" y1="10.6983" x2="13.3423" y2="10.9677" gradientUnits="userSpaceOnUse">
<stop stop-color="#B4948D"/>
<stop offset="1" stop-color="#B4948D" stop-opacity="0"/>
</linearGradient>
<radialGradient id="paint32_radial_793_4758" cx="0" cy="0" r="1" gradientUnits="userSpaceOnUse" gradientTransform="translate(7.26852 10.6267) rotate(90) scale(1.12546 1.79017)">
<stop offset="0.802" stop-color="#7F594C"/>
<stop offset="1" stop-color="#644844"/>
</radialGradient>
<linearGradient id="paint33_linear_793_4758" x1="8.29988" y1="10.7018" x2="7.86488" y2="10.9699" gradientUnits="userSpaceOnUse">
<stop stop-color="#B4948D"/>
<stop offset="1" stop-color="#B4948D" stop-opacity="0"/>
</linearGradient>
<radialGradient id="paint34_radial_793_4758" cx="0" cy="0" r="1" gradientUnits="userSpaceOnUse" gradientTransform="translate(7.07733 10.8884) rotate(-118.811) scale(0.68544 0.823926)">
<stop offset="0.766" stop-color="#FFE6E2" stop-opacity="0"/>
<stop offset="0.966" stop-color="#FFE6E2"/>
</radialGradient>
<linearGradient id="paint35_linear_793_4758" x1="9.85912" y1="11.0176" x2="9.59662" y2="13.9544" gradientUnits="userSpaceOnUse">
<stop stop-color="#D79E8F"/>
<stop offset="1" stop-color="#CF918F"/>
</linearGradient>
<radialGradient id="paint36_radial_793_4758" cx="0" cy="0" r="1" gradientUnits="userSpaceOnUse" gradientTransform="translate(10.5205 11.2972) rotate(78.6728) scale(2.80884 0.986599)">
<stop stop-color="#FFDDC3"/>
<stop offset="1" stop-color="#FFDDC3" stop-opacity="0"/>
</radialGradient>
<radialGradient id="paint37_radial_793_4758" cx="0" cy="0" r="1" gradientUnits="userSpaceOnUse" gradientTransform="translate(10.5042 12.7947) rotate(180) scale(0.855262 0.230263)">
<stop stop-color="#FFD7C3"/>
<stop offset="1" stop-color="#FFD7C3" stop-opacity="0"/>
</radialGradient>
<linearGradient id="paint38_linear_793_4758" x1="8.58546" y1="12.4328" x2="9.52858" y2="12.6084" gradientUnits="userSpaceOnUse">
<stop stop-color="#DEA791"/>
<stop offset="1" stop-color="#DEA791" stop-opacity="0"/>
</linearGradient>
<radialGradient id="paint39_radial_793_4758" cx="0" cy="0" r="1" gradientUnits="userSpaceOnUse" gradientTransform="translate(10.078 11.3372) rotate(90) scale(2.30469 3.82696)">
<stop offset="0.68" stop-color="#D19193" stop-opacity="0"/>
<stop offset="1" stop-color="#D19193"/>
</radialGradient>
<linearGradient id="paint40_linear_793_4758" x1="9.75545" y1="10.8297" x2="9.9792" y2="11.4353" gradientUnits="userSpaceOnUse">
<stop stop-color="#F0C5B1"/>
<stop offset="1" stop-color="#F0C5B1" stop-opacity="0"/>
</linearGradient>
<linearGradient id="paint41_linear_793_4758" x1="7.90875" y1="4.25828" x2="9.75437" y2="6.60203" gradientUnits="userSpaceOnUse">
<stop stop-color="#403637"/>
<stop offset="1" stop-color="#403637" stop-opacity="0"/>
</linearGradient>
<radialGradient id="paint42_radial_793_4758" cx="0" cy="0" r="1" gradientUnits="userSpaceOnUse" gradientTransform="translate(13.2035 3.79926) rotate(66.71) scale(3.21086 11.3992)">
<stop stop-color="#4D4749"/>
<stop offset="1" stop-color="#4D4749" stop-opacity="0"/>
</radialGradient>
<linearGradient id="paint43_linear_793_4758" x1="16.8727" y1="10.6216" x2="17.0362" y2="7.76565" gradientUnits="userSpaceOnUse">
<stop stop-color="#3B3639"/>
<stop offset="1" stop-color="#3B3639" stop-opacity="0"/>
</linearGradient>
<linearGradient id="paint44_linear_793_4758" x1="3.1747" y1="10.649" x2="3.03772" y2="7.2067" gradientUnits="userSpaceOnUse">
<stop offset="0.385" stop-color="#362C2A"/>
<stop offset="1" stop-color="#362C2A" stop-opacity="0"/>
</linearGradient>
</defs>
</svg>
