<svg width="20" height="20" viewBox="0 0 20 20" fill="none" xmlns="http://www.w3.org/2000/svg">
<path d="M4.47134 19.0211C3.81509 19.0211 3.28384 18.4898 3.29009 17.8336L3.29634 16.5023C3.29634 12.8961 6.29009 9.96484 9.97759 9.96484C13.6713 9.96484 16.6588 12.8898 16.6588 16.5023L16.7651 19.0211H4.47134Z" fill="url(#paint0_linear_793_4557)"/>
<path d="M4.47134 19.0211C3.81509 19.0211 3.28384 18.4898 3.29009 17.8336L3.29634 16.5023C3.29634 12.8961 6.29009 9.96484 9.97759 9.96484C13.6713 9.96484 16.6588 12.8898 16.6588 16.5023L16.7651 19.0211H4.47134Z" fill="url(#paint1_radial_793_4557)"/>
<path d="M9.8022 11.8527C10.4647 11.8527 10.996 11.3152 10.996 10.659V9.24648C10.996 9.08972 10.9651 8.93449 10.9051 8.78966C10.8451 8.64482 10.7572 8.51323 10.6463 8.40238C10.5355 8.29153 10.4039 8.20359 10.259 8.1436C10.1142 8.08361 9.95897 8.05273 9.8022 8.05273C9.64544 8.05273 9.49021 8.08361 9.34537 8.1436C9.20054 8.20359 9.06894 8.29153 8.95809 8.40238C8.84724 8.51323 8.75931 8.64482 8.69932 8.78966C8.63933 8.93449 8.60845 9.08972 8.60845 9.24648V10.659C8.6022 11.3215 9.1397 11.8527 9.8022 11.8527Z" fill="url(#paint2_linear_793_4557)"/>
<g filter="url(#filter0_f_793_4557)">
<path d="M7.15918 7.26258C7.25355 7.35008 7.50168 7.49383 7.82355 7.43383C8.1748 7.36695 8.37855 7.14695 8.42355 7.0332" stroke="url(#paint3_linear_793_4557)" stroke-width="0.1" stroke-linecap="round"/>
<path d="M7.15918 7.26258C7.25355 7.35008 7.50168 7.49383 7.82355 7.43383C8.1748 7.36695 8.37855 7.14695 8.42355 7.0332" stroke="url(#paint4_radial_793_4557)" stroke-width="0.1" stroke-linecap="round"/>
</g>
<g filter="url(#filter1_i_793_4557)">
<path d="M6.57186 8.45082C7.13999 8.3553 7.52312 7.81731 7.42759 7.24918C7.33207 6.68105 6.79408 6.29793 6.22595 6.39345C5.65782 6.48897 5.2747 7.02696 5.37022 7.59509C5.46574 8.16322 6.00373 8.54634 6.57186 8.45082Z" fill="url(#paint5_radial_793_4557)"/>
</g>
<g filter="url(#filter2_f_793_4557)">
<path d="M6.5021 8.03749C6.8408 7.98054 7.06921 7.65981 7.01226 7.32111C6.95532 6.98241 6.63458 6.75401 6.29588 6.81095C5.95719 6.8679 5.72878 7.18863 5.78573 7.52733C5.84267 7.86603 6.16341 8.09443 6.5021 8.03749Z" fill="url(#paint6_linear_793_4557)"/>
</g>
<g filter="url(#filter3_i_793_4557)">
<path d="M12.4351 7.46645C13.0033 7.37093 13.3864 6.83294 13.2909 6.26481C13.1954 5.69668 12.6574 5.31356 12.0892 5.40908C11.5211 5.5046 11.138 6.04259 11.2335 6.61072C11.329 7.17885 11.867 7.56197 12.4351 7.46645Z" fill="url(#paint7_linear_793_4557)"/>
<path d="M12.4351 7.46645C13.0033 7.37093 13.3864 6.83294 13.2909 6.26481C13.1954 5.69668 12.6574 5.31356 12.0892 5.40908C11.5211 5.5046 11.138 6.04259 11.2335 6.61072C11.329 7.17885 11.867 7.56197 12.4351 7.46645Z" fill="url(#paint8_radial_793_4557)"/>
</g>
<g filter="url(#filter4_f_793_4557)">
<path d="M12.3654 7.05116C12.7041 6.99421 12.9325 6.67348 12.8755 6.33478C12.8186 5.99608 12.4979 5.76768 12.1592 5.82462C11.8205 5.88157 11.5921 6.2023 11.649 6.541C11.706 6.8797 12.0267 7.1081 12.3654 7.05116Z" fill="#E4AF9A"/>
<path d="M12.3654 7.05116C12.7041 6.99421 12.9325 6.67348 12.8755 6.33478C12.8186 5.99608 12.4979 5.76768 12.1592 5.82462C11.8205 5.88157 11.5921 6.2023 11.649 6.541C11.706 6.8797 12.0267 7.1081 12.3654 7.05116Z" fill="url(#paint9_radial_793_4557)"/>
<path d="M12.3654 7.05116C12.7041 6.99421 12.9325 6.67348 12.8755 6.33478C12.8186 5.99608 12.4979 5.76768 12.1592 5.82462C11.8205 5.88157 11.5921 6.2023 11.649 6.541C11.706 6.8797 12.0267 7.1081 12.3654 7.05116Z" fill="url(#paint10_radial_793_4557)"/>
</g>
<g filter="url(#filter5_i_793_4557)">
<path d="M5.93497 6.20284C5.90747 6.03847 5.93997 5.83034 6.0556 5.70909L6.1381 5.59409C6.28185 5.43472 6.31435 5.22659 6.28185 5.02909L6.1931 4.50347C6.17688 4.42654 6.1891 4.34635 6.22748 4.27774C6.26586 4.20914 6.32781 4.15677 6.40185 4.13034C6.78247 3.96472 7.58122 3.66159 8.7706 3.46159C9.96122 3.26159 10.8156 3.28659 11.2287 3.31847C11.3662 3.32909 11.5206 3.43847 11.5481 3.60284L11.6368 4.12909C11.67 4.32597 11.8025 4.50659 11.9568 4.61597C12.3025 4.78034 12.3031 4.90347 12.3206 5.16284C12.3425 5.49722 12.4037 6.06159 12.4037 6.06159C12.4075 6.06102 12.4112 6.0604 12.415 6.05972L12.6612 8.52659C12.7456 9.63409 12.0162 10.5385 10.9937 10.7103L9.01497 11.0428C7.95997 11.2203 7.0081 10.5991 6.7256 9.52472C6.45122 8.41972 6.22497 7.30347 5.93497 6.20284Z" fill="url(#paint11_radial_793_4557)"/>
<path d="M5.93497 6.20284C5.90747 6.03847 5.93997 5.83034 6.0556 5.70909L6.1381 5.59409C6.28185 5.43472 6.31435 5.22659 6.28185 5.02909L6.1931 4.50347C6.17688 4.42654 6.1891 4.34635 6.22748 4.27774C6.26586 4.20914 6.32781 4.15677 6.40185 4.13034C6.78247 3.96472 7.58122 3.66159 8.7706 3.46159C9.96122 3.26159 10.8156 3.28659 11.2287 3.31847C11.3662 3.32909 11.5206 3.43847 11.5481 3.60284L11.6368 4.12909C11.67 4.32597 11.8025 4.50659 11.9568 4.61597C12.3025 4.78034 12.3031 4.90347 12.3206 5.16284C12.3425 5.49722 12.4037 6.06159 12.4037 6.06159C12.4075 6.06102 12.4112 6.0604 12.415 6.05972L12.6612 8.52659C12.7456 9.63409 12.0162 10.5385 10.9937 10.7103L9.01497 11.0428C7.95997 11.2203 7.0081 10.5991 6.7256 9.52472C6.45122 8.41972 6.22497 7.30347 5.93497 6.20284Z" fill="url(#paint12_linear_793_4557)"/>
<path d="M5.93497 6.20284C5.90747 6.03847 5.93997 5.83034 6.0556 5.70909L6.1381 5.59409C6.28185 5.43472 6.31435 5.22659 6.28185 5.02909L6.1931 4.50347C6.17688 4.42654 6.1891 4.34635 6.22748 4.27774C6.26586 4.20914 6.32781 4.15677 6.40185 4.13034C6.78247 3.96472 7.58122 3.66159 8.7706 3.46159C9.96122 3.26159 10.8156 3.28659 11.2287 3.31847C11.3662 3.32909 11.5206 3.43847 11.5481 3.60284L11.6368 4.12909C11.67 4.32597 11.8025 4.50659 11.9568 4.61597C12.3025 4.78034 12.3031 4.90347 12.3206 5.16284C12.3425 5.49722 12.4037 6.06159 12.4037 6.06159C12.4075 6.06102 12.4112 6.0604 12.415 6.05972L12.6612 8.52659C12.7456 9.63409 12.0162 10.5385 10.9937 10.7103L9.01497 11.0428C7.95997 11.2203 7.0081 10.5991 6.7256 9.52472C6.45122 8.41972 6.22497 7.30347 5.93497 6.20284Z" fill="url(#paint13_linear_793_4557)"/>
</g>
<path d="M5.93497 6.20284C5.90747 6.03847 5.93997 5.83034 6.0556 5.70909L6.1381 5.59409C6.28185 5.43472 6.31435 5.22659 6.28185 5.02909L6.1931 4.50347C6.17688 4.42654 6.1891 4.34635 6.22748 4.27774C6.26586 4.20914 6.32781 4.15677 6.40185 4.13034C6.78247 3.96472 7.58122 3.66159 8.7706 3.46159C9.96122 3.26159 10.8156 3.28659 11.2287 3.31847C11.3662 3.32909 11.5206 3.43847 11.5481 3.60284L11.6368 4.12909C11.67 4.32597 11.8025 4.50659 11.9568 4.61597C12.3025 4.78034 12.3031 4.90347 12.3206 5.16284C12.3425 5.49722 12.4037 6.06159 12.4037 6.06159C12.4075 6.06102 12.4112 6.0604 12.415 6.05972L12.6612 8.52659C12.7456 9.63409 12.0162 10.5385 10.9937 10.7103L9.01497 11.0428C7.95997 11.2203 7.0081 10.5991 6.7256 9.52472C6.45122 8.41972 6.22497 7.30347 5.93497 6.20284Z" fill="url(#paint14_linear_793_4557)"/>
<path d="M5.93497 6.20284C5.90747 6.03847 5.93997 5.83034 6.0556 5.70909L6.1381 5.59409C6.28185 5.43472 6.31435 5.22659 6.28185 5.02909L6.1931 4.50347C6.17688 4.42654 6.1891 4.34635 6.22748 4.27774C6.26586 4.20914 6.32781 4.15677 6.40185 4.13034C6.78247 3.96472 7.58122 3.66159 8.7706 3.46159C9.96122 3.26159 10.8156 3.28659 11.2287 3.31847C11.3662 3.32909 11.5206 3.43847 11.5481 3.60284L11.6368 4.12909C11.67 4.32597 11.8025 4.50659 11.9568 4.61597C12.3025 4.78034 12.3031 4.90347 12.3206 5.16284C12.3425 5.49722 12.4037 6.06159 12.4037 6.06159C12.4075 6.06102 12.4112 6.0604 12.415 6.05972L12.6612 8.52659C12.7456 9.63409 12.0162 10.5385 10.9937 10.7103L9.01497 11.0428C7.95997 11.2203 7.0081 10.5991 6.7256 9.52472C6.45122 8.41972 6.22497 7.30347 5.93497 6.20284Z" fill="url(#paint15_radial_793_4557)"/>
<path d="M5.93497 6.20284C5.90747 6.03847 5.93997 5.83034 6.0556 5.70909L6.1381 5.59409C6.28185 5.43472 6.31435 5.22659 6.28185 5.02909L6.1931 4.50347C6.17688 4.42654 6.1891 4.34635 6.22748 4.27774C6.26586 4.20914 6.32781 4.15677 6.40185 4.13034C6.78247 3.96472 7.58122 3.66159 8.7706 3.46159C9.96122 3.26159 10.8156 3.28659 11.2287 3.31847C11.3662 3.32909 11.5206 3.43847 11.5481 3.60284L11.6368 4.12909C11.67 4.32597 11.8025 4.50659 11.9568 4.61597C12.3025 4.78034 12.3031 4.90347 12.3206 5.16284C12.3425 5.49722 12.4037 6.06159 12.4037 6.06159C12.4075 6.06102 12.4112 6.0604 12.415 6.05972L12.6612 8.52659C12.7456 9.63409 12.0162 10.5385 10.9937 10.7103L9.01497 11.0428C7.95997 11.2203 7.0081 10.5991 6.7256 9.52472C6.45122 8.41972 6.22497 7.30347 5.93497 6.20284Z" fill="url(#paint16_linear_793_4557)"/>
<g filter="url(#filter6_f_793_4557)">
<path d="M11.1861 3.05469L9.39606 4.00656C9.25227 4.08299 9.14215 4.21029 9.0872 4.36358C9.03226 4.51687 9.03644 4.68513 9.09893 4.8355C9.16142 4.98587 9.27774 5.10754 9.42514 5.17674C9.57255 5.24593 9.74046 5.25768 9.89606 5.20969L11.7398 4.64031L11.1861 3.05469Z" fill="url(#paint17_linear_793_4557)"/>
</g>
<g filter="url(#filter7_i_793_4557)">
<path d="M11.624 2.43957L11.9109 2.52644C12.4122 2.67832 12.7653 3.16019 12.7597 3.73582L12.7109 5.67019C12.7109 5.86894 12.6053 6.02082 12.414 6.05769C12.4103 6.05857 12.4065 6.05941 12.4028 6.06019C12.4028 6.06019 12.3422 5.49582 12.3197 5.16144C12.3015 4.89019 12.2415 4.81644 11.9559 4.61457C11.8015 4.50519 11.669 4.32457 11.6359 4.12707L11.5478 3.60144C11.5197 3.43707 11.3653 3.32769 11.2278 3.31707C10.8147 3.28519 9.96028 3.25957 8.77028 3.46019C7.58028 3.66019 6.78153 3.96332 6.40153 4.12894C6.32737 4.15525 6.26528 4.20757 6.22678 4.27619C6.18827 4.34481 6.17597 4.42507 6.19215 4.50207L6.28028 5.02769C6.31403 5.22519 6.28028 5.43332 6.13778 5.59269L6.05528 5.70769C5.93965 5.82894 5.90653 6.03707 5.93403 6.20144C6.02778 6.55769 6.14965 7.07769 6.14965 7.07769C6.05529 7.09634 5.95737 7.07998 5.8742 7.03167C5.79103 6.98336 5.72832 6.9064 5.69778 6.81519L5.0184 5.00394C4.8634 4.48894 5.03965 3.91894 5.46403 3.61082L5.7059 3.43519C5.85465 3.30832 5.99778 3.14894 6.1409 2.99019L6.63153 2.26519C6.93965 1.87582 7.45215 1.68832 7.9534 1.84019C8.30455 1.88254 8.66046 1.82264 8.9784 1.66769C9.44653 1.42019 10.0303 1.45707 10.4878 1.75207L11.0665 2.16207C11.2265 2.30394 11.4084 2.37457 11.6234 2.44019" fill="#242324"/>
<path d="M11.624 2.43957L11.9109 2.52644C12.4122 2.67832 12.7653 3.16019 12.7597 3.73582L12.7109 5.67019C12.7109 5.86894 12.6053 6.02082 12.414 6.05769C12.4103 6.05857 12.4065 6.05941 12.4028 6.06019C12.4028 6.06019 12.3422 5.49582 12.3197 5.16144C12.3015 4.89019 12.2415 4.81644 11.9559 4.61457C11.8015 4.50519 11.669 4.32457 11.6359 4.12707L11.5478 3.60144C11.5197 3.43707 11.3653 3.32769 11.2278 3.31707C10.8147 3.28519 9.96028 3.25957 8.77028 3.46019C7.58028 3.66019 6.78153 3.96332 6.40153 4.12894C6.32737 4.15525 6.26528 4.20757 6.22678 4.27619C6.18827 4.34481 6.17597 4.42507 6.19215 4.50207L6.28028 5.02769C6.31403 5.22519 6.28028 5.43332 6.13778 5.59269L6.05528 5.70769C5.93965 5.82894 5.90653 6.03707 5.93403 6.20144C6.02778 6.55769 6.14965 7.07769 6.14965 7.07769C6.05529 7.09634 5.95737 7.07998 5.8742 7.03167C5.79103 6.98336 5.72832 6.9064 5.69778 6.81519L5.0184 5.00394C4.8634 4.48894 5.03965 3.91894 5.46403 3.61082L5.7059 3.43519C5.85465 3.30832 5.99778 3.14894 6.1409 2.99019L6.63153 2.26519C6.93965 1.87582 7.45215 1.68832 7.9534 1.84019C8.30455 1.88254 8.66046 1.82264 8.9784 1.66769C9.44653 1.42019 10.0303 1.45707 10.4878 1.75207L11.0665 2.16207C11.2265 2.30394 11.4084 2.37457 11.6234 2.44019" fill="url(#paint18_radial_793_4557)"/>
<path d="M11.624 2.43957L11.9109 2.52644C12.4122 2.67832 12.7653 3.16019 12.7597 3.73582L12.7109 5.67019C12.7109 5.86894 12.6053 6.02082 12.414 6.05769C12.4103 6.05857 12.4065 6.05941 12.4028 6.06019C12.4028 6.06019 12.3422 5.49582 12.3197 5.16144C12.3015 4.89019 12.2415 4.81644 11.9559 4.61457C11.8015 4.50519 11.669 4.32457 11.6359 4.12707L11.5478 3.60144C11.5197 3.43707 11.3653 3.32769 11.2278 3.31707C10.8147 3.28519 9.96028 3.25957 8.77028 3.46019C7.58028 3.66019 6.78153 3.96332 6.40153 4.12894C6.32737 4.15525 6.26528 4.20757 6.22678 4.27619C6.18827 4.34481 6.17597 4.42507 6.19215 4.50207L6.28028 5.02769C6.31403 5.22519 6.28028 5.43332 6.13778 5.59269L6.05528 5.70769C5.93965 5.82894 5.90653 6.03707 5.93403 6.20144C6.02778 6.55769 6.14965 7.07769 6.14965 7.07769C6.05529 7.09634 5.95737 7.07998 5.8742 7.03167C5.79103 6.98336 5.72832 6.9064 5.69778 6.81519L5.0184 5.00394C4.8634 4.48894 5.03965 3.91894 5.46403 3.61082L5.7059 3.43519C5.85465 3.30832 5.99778 3.14894 6.1409 2.99019L6.63153 2.26519C6.93965 1.87582 7.45215 1.68832 7.9534 1.84019C8.30455 1.88254 8.66046 1.82264 8.9784 1.66769C9.44653 1.42019 10.0303 1.45707 10.4878 1.75207L11.0665 2.16207C11.2265 2.30394 11.4084 2.37457 11.6234 2.44019" fill="url(#paint19_radial_793_4557)"/>
<path d="M11.624 2.43957L11.9109 2.52644C12.4122 2.67832 12.7653 3.16019 12.7597 3.73582L12.7109 5.67019C12.7109 5.86894 12.6053 6.02082 12.414 6.05769C12.4103 6.05857 12.4065 6.05941 12.4028 6.06019C12.4028 6.06019 12.3422 5.49582 12.3197 5.16144C12.3015 4.89019 12.2415 4.81644 11.9559 4.61457C11.8015 4.50519 11.669 4.32457 11.6359 4.12707L11.5478 3.60144C11.5197 3.43707 11.3653 3.32769 11.2278 3.31707C10.8147 3.28519 9.96028 3.25957 8.77028 3.46019C7.58028 3.66019 6.78153 3.96332 6.40153 4.12894C6.32737 4.15525 6.26528 4.20757 6.22678 4.27619C6.18827 4.34481 6.17597 4.42507 6.19215 4.50207L6.28028 5.02769C6.31403 5.22519 6.28028 5.43332 6.13778 5.59269L6.05528 5.70769C5.93965 5.82894 5.90653 6.03707 5.93403 6.20144C6.02778 6.55769 6.14965 7.07769 6.14965 7.07769C6.05529 7.09634 5.95737 7.07998 5.8742 7.03167C5.79103 6.98336 5.72832 6.9064 5.69778 6.81519L5.0184 5.00394C4.8634 4.48894 5.03965 3.91894 5.46403 3.61082L5.7059 3.43519C5.85465 3.30832 5.99778 3.14894 6.1409 2.99019L6.63153 2.26519C6.93965 1.87582 7.45215 1.68832 7.9534 1.84019C8.30455 1.88254 8.66046 1.82264 8.9784 1.66769C9.44653 1.42019 10.0303 1.45707 10.4878 1.75207L11.0665 2.16207C11.2265 2.30394 11.4084 2.37457 11.6234 2.44019" fill="url(#paint20_radial_793_4557)"/>
<path d="M11.624 2.43957L11.9109 2.52644C12.4122 2.67832 12.7653 3.16019 12.7597 3.73582L12.7109 5.67019C12.7109 5.86894 12.6053 6.02082 12.414 6.05769C12.4103 6.05857 12.4065 6.05941 12.4028 6.06019C12.4028 6.06019 12.3422 5.49582 12.3197 5.16144C12.3015 4.89019 12.2415 4.81644 11.9559 4.61457C11.8015 4.50519 11.669 4.32457 11.6359 4.12707L11.5478 3.60144C11.5197 3.43707 11.3653 3.32769 11.2278 3.31707C10.8147 3.28519 9.96028 3.25957 8.77028 3.46019C7.58028 3.66019 6.78153 3.96332 6.40153 4.12894C6.32737 4.15525 6.26528 4.20757 6.22678 4.27619C6.18827 4.34481 6.17597 4.42507 6.19215 4.50207L6.28028 5.02769C6.31403 5.22519 6.28028 5.43332 6.13778 5.59269L6.05528 5.70769C5.93965 5.82894 5.90653 6.03707 5.93403 6.20144C6.02778 6.55769 6.14965 7.07769 6.14965 7.07769C6.05529 7.09634 5.95737 7.07998 5.8742 7.03167C5.79103 6.98336 5.72832 6.9064 5.69778 6.81519L5.0184 5.00394C4.8634 4.48894 5.03965 3.91894 5.46403 3.61082L5.7059 3.43519C5.85465 3.30832 5.99778 3.14894 6.1409 2.99019L6.63153 2.26519C6.93965 1.87582 7.45215 1.68832 7.9534 1.84019C8.30455 1.88254 8.66046 1.82264 8.9784 1.66769C9.44653 1.42019 10.0303 1.45707 10.4878 1.75207L11.0665 2.16207C11.2265 2.30394 11.4084 2.37457 11.6234 2.44019" fill="url(#paint21_radial_793_4557)"/>
</g>
<g filter="url(#filter8_f_793_4557)">
<path d="M9.1424 6.88493L8.81302 8.01743C8.78677 8.24306 8.97302 8.43306 9.18615 8.39743L9.64052 8.32118C9.85365 8.28556 9.9674 8.04118 9.86927 7.83993L9.38615 6.84368C9.28115 6.62306 9.1724 6.64118 9.1424 6.88493Z" fill="#D89992"/>
</g>
<g filter="url(#filter9_f_793_4557)">
<path d="M9.06046 6.79557L8.90921 7.89807C8.90219 7.95071 8.9077 8.00427 8.92528 8.05439C8.94286 8.10451 8.97201 8.14977 9.01038 8.18649C9.04875 8.22322 9.09525 8.25037 9.14609 8.26574C9.19693 8.28111 9.25067 8.28426 9.30296 8.27494L9.78671 8.19369C9.83917 8.18539 9.88894 8.16482 9.93195 8.13366C9.97496 8.1025 10.01 8.06163 10.0343 8.01436C10.0585 7.9671 10.0712 7.91479 10.0714 7.86167C10.0717 7.80856 10.0593 7.75614 10.0355 7.70869L9.53171 6.71619C9.42234 6.49619 9.09484 6.55119 9.06046 6.79557Z" fill="#F1BEA3"/>
<path d="M9.06046 6.79557L8.90921 7.89807C8.90219 7.95071 8.9077 8.00427 8.92528 8.05439C8.94286 8.10451 8.97201 8.14977 9.01038 8.18649C9.04875 8.22322 9.09525 8.25037 9.14609 8.26574C9.19693 8.28111 9.25067 8.28426 9.30296 8.27494L9.78671 8.19369C9.83917 8.18539 9.88894 8.16482 9.93195 8.13366C9.97496 8.1025 10.01 8.06163 10.0343 8.01436C10.0585 7.9671 10.0712 7.91479 10.0714 7.86167C10.0717 7.80856 10.0593 7.75614 10.0355 7.70869L9.53171 6.71619C9.42234 6.49619 9.09484 6.55119 9.06046 6.79557Z" fill="url(#paint22_linear_793_4557)"/>
<path d="M9.06046 6.79557L8.90921 7.89807C8.90219 7.95071 8.9077 8.00427 8.92528 8.05439C8.94286 8.10451 8.97201 8.14977 9.01038 8.18649C9.04875 8.22322 9.09525 8.25037 9.14609 8.26574C9.19693 8.28111 9.25067 8.28426 9.30296 8.27494L9.78671 8.19369C9.83917 8.18539 9.88894 8.16482 9.93195 8.13366C9.97496 8.1025 10.01 8.06163 10.0343 8.01436C10.0585 7.9671 10.0712 7.91479 10.0714 7.86167C10.0717 7.80856 10.0593 7.75614 10.0355 7.70869L9.53171 6.71619C9.42234 6.49619 9.09484 6.55119 9.06046 6.79557Z" fill="url(#paint23_linear_793_4557)"/>
<path d="M9.06046 6.79557L8.90921 7.89807C8.90219 7.95071 8.9077 8.00427 8.92528 8.05439C8.94286 8.10451 8.97201 8.14977 9.01038 8.18649C9.04875 8.22322 9.09525 8.25037 9.14609 8.26574C9.19693 8.28111 9.25067 8.28426 9.30296 8.27494L9.78671 8.19369C9.83917 8.18539 9.88894 8.16482 9.93195 8.13366C9.97496 8.1025 10.01 8.06163 10.0343 8.01436C10.0585 7.9671 10.0712 7.91479 10.0714 7.86167C10.0717 7.80856 10.0593 7.75614 10.0355 7.70869L9.53171 6.71619C9.42234 6.49619 9.09484 6.55119 9.06046 6.79557Z" fill="url(#paint24_linear_793_4557)"/>
<path d="M9.06046 6.79557L8.90921 7.89807C8.90219 7.95071 8.9077 8.00427 8.92528 8.05439C8.94286 8.10451 8.97201 8.14977 9.01038 8.18649C9.04875 8.22322 9.09525 8.25037 9.14609 8.26574C9.19693 8.28111 9.25067 8.28426 9.30296 8.27494L9.78671 8.19369C9.83917 8.18539 9.88894 8.16482 9.93195 8.13366C9.97496 8.1025 10.01 8.06163 10.0343 8.01436C10.0585 7.9671 10.0712 7.91479 10.0714 7.86167C10.0717 7.80856 10.0593 7.75614 10.0355 7.70869L9.53171 6.71619C9.42234 6.49619 9.09484 6.55119 9.06046 6.79557Z" fill="url(#paint25_radial_793_4557)"/>
</g>
<path d="M8.77234 8.77055C9.03609 8.85617 9.33734 8.88055 9.64546 8.82867C9.93767 8.78194 10.2143 8.6653 10.4517 8.48867C10.4736 8.47205 10.5004 8.463 10.5279 8.46289C10.5554 8.46278 10.5822 8.47161 10.6042 8.48805C10.6265 8.50429 10.6424 8.52777 10.6492 8.55445C10.656 8.58113 10.6534 8.60935 10.6417 8.6343M8.77234 8.77055L10.6136 8.6218L8.77234 8.77055ZM8.77234 8.77055C8.74597 8.76219 8.7176 8.76267 8.69154 8.77192C8.66548 8.78117 8.64315 8.79869 8.62796 8.8218C8.61204 8.84427 8.60456 8.87164 8.60685 8.89908C8.60914 8.92652 8.62104 8.95228 8.64046 8.9718M8.77234 8.77055L8.66234 8.94992L8.77234 8.77055ZM10.6417 8.6343L10.6136 8.6218L10.6417 8.6343ZM10.6417 8.6343L10.6136 8.6218L10.6417 8.6343ZM10.6417 8.6343C10.5599 8.81784 10.4345 8.97821 10.2754 9.10103C10.1164 9.22386 9.92934 9.3053 9.73109 9.33805C9.53304 9.37195 9.32967 9.35618 9.13922 9.29215C8.94877 9.22812 8.77718 9.11783 8.63984 8.97117M10.6136 8.62117C10.5339 8.79995 10.4111 8.95617 10.2562 9.07582C10.1013 9.19548 9.91919 9.27484 9.72609 9.3068C9.53309 9.33999 9.33487 9.32477 9.14922 9.26248C8.96356 9.20019 8.79626 9.0928 8.66234 8.94992M8.63984 8.97117L8.66234 8.94992L8.63984 8.97117ZM8.63984 8.97117L8.66234 8.94992L8.63984 8.97117Z" fill="#88024E"/>
<path d="M8.77234 8.77055C9.03609 8.85617 9.33734 8.88055 9.64546 8.82867C9.93767 8.78194 10.2143 8.6653 10.4517 8.48867C10.4736 8.47205 10.5004 8.463 10.5279 8.46289C10.5554 8.46278 10.5822 8.47161 10.6042 8.48805C10.6265 8.50429 10.6424 8.52777 10.6492 8.55445C10.656 8.58113 10.6534 8.60935 10.6417 8.6343M8.77234 8.77055L10.6136 8.6218L10.6417 8.6343M8.77234 8.77055C8.74597 8.76219 8.7176 8.76267 8.69154 8.77192C8.66548 8.78117 8.64315 8.79869 8.62796 8.8218C8.61204 8.84427 8.60456 8.87164 8.60685 8.89908C8.60914 8.92652 8.62104 8.95228 8.64046 8.9718M8.77234 8.77055L8.66234 8.94992M10.6417 8.6343C10.5599 8.81784 10.4345 8.97821 10.2754 9.10103C10.1164 9.22386 9.92934 9.3053 9.73109 9.33805C9.53304 9.37195 9.32967 9.35617 9.13922 9.29215C8.94877 9.22812 8.77718 9.11783 8.63984 8.97117L8.66234 8.94992M8.66234 8.94992C8.79626 9.0928 8.96356 9.20019 9.14922 9.26248C9.33487 9.32477 9.53309 9.33999 9.72609 9.3068C9.91919 9.27484 10.1013 9.19548 10.2562 9.07582C10.4111 8.95617 10.5339 8.79995 10.6136 8.62117" stroke="url(#paint26_linear_793_4557)" stroke-width="0.1"/>
<g filter="url(#filter10_f_793_4557)">
<path d="M7.74527 7.51789C8.20919 7.51789 8.58527 7.14181 8.58527 6.67789C8.58527 6.21397 8.20919 5.83789 7.74527 5.83789C7.28135 5.83789 6.90527 6.21397 6.90527 6.67789C6.90527 7.14181 7.28135 7.51789 7.74527 7.51789Z" fill="url(#paint27_radial_793_4557)"/>
</g>
<g filter="url(#filter11_f_793_4557)">
<path d="M10.6134 7.06281C11.0774 7.06281 11.4534 6.68673 11.4534 6.22281C11.4534 5.75889 11.0774 5.38281 10.6134 5.38281C10.1495 5.38281 9.77344 5.75889 9.77344 6.22281C9.77344 6.68673 10.1495 7.06281 10.6134 7.06281Z" fill="url(#paint28_radial_793_4557)"/>
</g>
<path d="M7.13258 7.09494C7.18258 7.08869 7.23258 7.10119 7.27008 7.13244C7.3451 7.19304 7.4323 7.23676 7.52575 7.26063C7.61919 7.28449 7.71668 7.28795 7.81157 7.27075C7.90647 7.25355 7.99654 7.2161 8.07566 7.16096C8.15478 7.10581 8.22109 7.03427 8.27008 6.95119C8.29508 6.90744 8.33883 6.87619 8.38883 6.86994C8.52633 6.84494 8.63258 6.99494 8.56383 7.11994C8.42008 7.36369 8.17008 7.54494 7.87633 7.60119C7.57633 7.65119 7.28258 7.56994 7.06383 7.38869C6.94508 7.30119 6.99508 7.11994 7.13258 7.09494Z" fill="url(#paint29_radial_793_4557)"/>
<path d="M10.0258 6.58908C10.0758 6.58283 10.1258 6.59533 10.1633 6.62658C10.2383 6.68718 10.3255 6.7309 10.419 6.75477C10.5124 6.77864 10.6099 6.78209 10.7048 6.76489C10.7997 6.74769 10.8897 6.71024 10.9689 6.6551C11.048 6.59995 11.1143 6.52841 11.1633 6.44533C11.1883 6.40158 11.232 6.37033 11.282 6.36408C11.4195 6.33908 11.5258 6.48908 11.457 6.61408C11.3133 6.85783 11.0633 7.03908 10.7695 7.09533C10.4695 7.14533 10.1758 7.06408 9.95703 6.88283C9.93129 6.86372 9.91169 6.8375 9.90066 6.80739C9.88963 6.77728 9.88764 6.74461 9.89495 6.71338C9.90226 6.68216 9.91854 6.65376 9.94178 6.63167C9.96503 6.60959 9.99423 6.59478 10.0258 6.58908Z" fill="url(#paint30_radial_793_4557)"/>
<g filter="url(#filter12_f_793_4557)">
<path d="M10.0527 6.75867C10.1471 6.84617 10.3952 6.98992 10.7171 6.9293C11.0684 6.86305 11.2721 6.64305 11.3171 6.5293" stroke="url(#paint31_linear_793_4557)" stroke-width="0.1" stroke-linecap="round"/>
<path d="M10.0527 6.75867C10.1471 6.84617 10.3952 6.98992 10.7171 6.9293C11.0684 6.86305 11.2721 6.64305 11.3171 6.5293" stroke="url(#paint32_radial_793_4557)" stroke-width="0.1" stroke-linecap="round"/>
</g>
<g filter="url(#filter13_i_793_4557)">
<path d="M11.3368 4.8695H11.3355L11.3343 4.86825L11.3312 4.86638L11.3224 4.862C11.2882 4.84292 11.2527 4.82621 11.2162 4.812C11.1252 4.77454 11.0311 4.74546 10.9349 4.72513C10.6235 4.65989 10.3003 4.67975 9.99928 4.78263C9.95624 4.79529 9.91619 4.81651 9.88154 4.84501C9.84688 4.87351 9.81833 4.9087 9.79758 4.94848C9.77684 4.98827 9.76433 5.03182 9.7608 5.07655C9.75727 5.12128 9.7628 5.16626 9.77705 5.2088C9.7913 5.25135 9.81398 5.29058 9.84374 5.32416C9.8735 5.35774 9.90973 5.38497 9.95025 5.40423C9.99077 5.42349 10.0348 5.43438 10.0796 5.43625C10.1244 5.43813 10.1692 5.43094 10.2112 5.41513C10.3992 5.35025 10.6013 5.33729 10.7962 5.37763C10.8678 5.39287 10.9374 5.41636 11.0037 5.44763C11.08 5.48741 11.1688 5.49614 11.2515 5.47199C11.3341 5.44784 11.4042 5.39268 11.4472 5.31803C11.4901 5.24339 11.5025 5.15504 11.4818 5.07145C11.4611 4.98786 11.4096 4.9155 11.3368 4.8695Z" fill="#1E1E1E"/>
</g>
<g filter="url(#filter14_i_793_4557)">
<path d="M6.71801 5.64545L6.71926 5.64419L6.71989 5.64357L6.72239 5.64044L6.72864 5.63357C6.75541 5.60472 6.78357 5.57718 6.81301 5.55107C6.88675 5.48625 6.96624 5.4283 7.05051 5.37794C7.25676 5.25294 7.56051 5.12919 7.95364 5.12544C7.99859 5.12312 8.04355 5.12992 8.08582 5.14542C8.12808 5.16093 8.16676 5.18482 8.19955 5.21567C8.23234 5.24651 8.25855 5.28367 8.2766 5.32491C8.29465 5.36615 8.30417 5.41061 8.3046 5.45562C8.30502 5.50064 8.29633 5.54527 8.27905 5.58684C8.26178 5.62841 8.23627 5.66605 8.20407 5.6975C8.17186 5.72896 8.13363 5.75357 8.09167 5.76987C8.0497 5.78616 8.00488 5.7938 7.95989 5.79232C7.70864 5.79482 7.51989 5.87357 7.39489 5.94857C7.33219 5.98653 7.27409 6.03162 7.22176 6.08295C7.16293 6.14679 7.08154 6.18519 6.99486 6.19001C6.90818 6.19483 6.82303 6.16569 6.75748 6.10876C6.69194 6.05184 6.65115 5.97161 6.64378 5.88511C6.63641 5.79861 6.66304 5.71264 6.71801 5.64545Z" fill="#1E1E1E"/>
</g>
<g filter="url(#filter15_f_793_4557)">
<path d="M10.0527 4.99332C10.3096 4.9027 10.829 4.82895 11.234 5.04707" stroke="url(#paint33_linear_793_4557)" stroke-width="0.25" stroke-linecap="round"/>
</g>
<g filter="url(#filter16_f_793_4557)">
<path d="M6.88965 5.85375C7.06152 5.64125 7.46965 5.38 8.03027 5.375" stroke="url(#paint34_linear_793_4557)" stroke-width="0.25" stroke-linecap="round"/>
</g>
<path d="M18.2148 16.1094L15.1273 12.3281L13.1523 17.6844L18.2148 16.1094Z" fill="#58B2EC"/>
<path d="M1.375 19.0208L3.20625 13.2983C3.42563 12.4139 4.5 11.9833 5.4875 12.2896C6.475 12.5958 7.04375 13.7471 6.74125 14.5971L5.35625 19.0208H1.375Z" fill="url(#paint35_linear_793_4557)"/>
<path d="M1.375 19.0208L3.20625 13.2983C3.42563 12.4139 4.5 11.9833 5.4875 12.2896C6.475 12.5958 7.04375 13.7471 6.74125 14.5971L5.35625 19.0208H1.375Z" fill="url(#paint36_linear_793_4557)"/>
<path d="M1.375 19.0208L3.20625 13.2983C3.42563 12.4139 4.5 11.9833 5.4875 12.2896C6.475 12.5958 7.04375 13.7471 6.74125 14.5971L5.35625 19.0208H1.375Z" fill="url(#paint37_radial_793_4557)"/>
<path d="M1.375 19.0208L3.20625 13.2983C3.42563 12.4139 4.5 11.9833 5.4875 12.2896C6.475 12.5958 7.04375 13.7471 6.74125 14.5971L5.35625 19.0208H1.375Z" fill="url(#paint38_radial_793_4557)"/>
<path d="M1.375 19.0208L3.20625 13.2983C3.42563 12.4139 4.5 11.9833 5.4875 12.2896C6.475 12.5958 7.04375 13.7471 6.74125 14.5971L5.35625 19.0208H1.375Z" fill="url(#paint39_radial_793_4557)"/>
<path d="M1.375 19.0208L3.20625 13.2983C3.42563 12.4139 4.5 11.9833 5.4875 12.2896C6.475 12.5958 7.04375 13.7471 6.74125 14.5971L5.35625 19.0208H1.375Z" fill="url(#paint40_linear_793_4557)"/>
<path d="M1.375 19.0208L3.20625 13.2983C3.42563 12.4139 4.5 11.9833 5.4875 12.2896C6.475 12.5958 7.04375 13.7471 6.74125 14.5971L5.35625 19.0208H1.375Z" fill="url(#paint41_radial_793_4557)"/>
<g filter="url(#filter17_i_793_4557)">
<path d="M13.6466 15.2837C12.9154 14.0087 11.2841 13.5775 10.0154 14.3087L8.49662 15.1837C7.22162 15.915 6.79037 17.5462 7.52162 18.815L7.65287 19.0212H12.4841L12.6716 18.9087C12.9747 18.7357 13.2405 18.5045 13.4538 18.2282C13.6671 17.952 13.8235 17.6363 13.9142 17.2993C14.0048 16.9623 14.0278 16.6107 13.9819 16.2648C13.936 15.9188 13.822 15.5854 13.6466 15.2837Z" fill="url(#paint42_radial_793_4557)"/>
<path d="M13.6466 15.2837C12.9154 14.0087 11.2841 13.5775 10.0154 14.3087L8.49662 15.1837C7.22162 15.915 6.79037 17.5462 7.52162 18.815L7.65287 19.0212H12.4841L12.6716 18.9087C12.9747 18.7357 13.2405 18.5045 13.4538 18.2282C13.6671 17.952 13.8235 17.6363 13.9142 17.2993C14.0048 16.9623 14.0278 16.6107 13.9819 16.2648C13.936 15.9188 13.822 15.5854 13.6466 15.2837Z" fill="url(#paint43_radial_793_4557)"/>
<path d="M13.6466 15.2837C12.9154 14.0087 11.2841 13.5775 10.0154 14.3087L8.49662 15.1837C7.22162 15.915 6.79037 17.5462 7.52162 18.815L7.65287 19.0212H12.4841L12.6716 18.9087C12.9747 18.7357 13.2405 18.5045 13.4538 18.2282C13.6671 17.952 13.8235 17.6363 13.9142 17.2993C14.0048 16.9623 14.0278 16.6107 13.9819 16.2648C13.936 15.9188 13.822 15.5854 13.6466 15.2837Z" fill="url(#paint44_radial_793_4557)"/>
</g>
<path d="M14.8086 17.2285C15.5214 17.2285 16.2049 16.9454 16.7089 16.4414C17.2129 15.9374 17.4961 15.2538 17.4961 14.541C17.4961 13.8282 17.2129 13.1447 16.7089 12.6407C16.2049 12.1367 15.5214 11.8535 14.8086 11.8535C14.0958 11.8535 13.4122 12.1367 12.9082 12.6407C12.4042 13.1447 12.1211 13.8282 12.1211 14.541C12.1211 15.2538 12.4042 15.9374 12.9082 16.4414C13.4122 16.9454 14.0958 17.2285 14.8086 17.2285Z" fill="url(#paint45_radial_793_4557)"/>
<g filter="url(#filter18_i_793_4557)">
<path d="M13.4839 15.2332C13.1856 14.7172 13.0673 14.1166 13.1477 13.526C13.228 12.9354 13.5024 12.3883 13.9277 11.9707C13.5385 12.0809 13.1792 12.2773 12.8764 12.5453C12.5735 12.8133 12.3349 13.146 12.1782 13.5188C12.0215 13.8917 11.9508 14.295 11.9712 14.6989C11.9917 15.1028 12.1028 15.4969 12.2964 15.852C12.4959 16.2157 12.7768 16.5283 13.1172 16.7654C13.4576 17.0026 13.8482 17.1578 14.2585 17.2189C14.6689 17.28 15.0878 17.2454 15.4825 17.1178C15.8772 16.9902 16.2371 16.773 16.5339 16.4832C15.3839 16.802 14.1152 16.3207 13.4839 15.2332Z" fill="url(#paint46_radial_793_4557)"/>
<path d="M13.4839 15.2332C13.1856 14.7172 13.0673 14.1166 13.1477 13.526C13.228 12.9354 13.5024 12.3883 13.9277 11.9707C13.5385 12.0809 13.1792 12.2773 12.8764 12.5453C12.5735 12.8133 12.3349 13.146 12.1782 13.5188C12.0215 13.8917 11.9508 14.295 11.9712 14.6989C11.9917 15.1028 12.1028 15.4969 12.2964 15.852C12.4959 16.2157 12.7768 16.5283 13.1172 16.7654C13.4576 17.0026 13.8482 17.1578 14.2585 17.2189C14.6689 17.28 15.0878 17.2454 15.4825 17.1178C15.8772 16.9902 16.2371 16.773 16.5339 16.4832C15.3839 16.802 14.1152 16.3207 13.4839 15.2332Z" fill="url(#paint47_radial_793_4557)"/>
</g>
<g filter="url(#filter19_i_793_4557)">
<path d="M10.7369 16.3223C10.6122 16.2407 10.4611 16.2096 10.3143 16.2354C10.1675 16.2613 10.0361 16.3422 9.9469 16.4615C9.85766 16.5809 9.81728 16.7298 9.834 16.8779C9.85072 17.026 9.92327 17.1621 10.0369 17.2586L10.6181 17.7598C10.6275 17.7681 10.6342 17.779 10.6373 17.791C10.6405 17.8031 10.6399 17.8159 10.6358 17.8276C10.6316 17.8394 10.624 17.8497 10.6139 17.8571C10.6039 17.8645 10.5919 17.8687 10.5794 17.8692L8.30188 17.9142C8.15821 17.9203 8.02254 17.982 7.92356 18.0863C7.82458 18.1906 7.77005 18.3293 7.77151 18.4731C7.77297 18.6169 7.83031 18.7545 7.93139 18.8567C8.03247 18.959 8.16937 19.018 8.31313 19.0211H12.1006V18.3961L12.7644 17.6292L10.7369 16.3223Z" fill="#E1B0A4"/>
<path d="M10.7369 16.3223C10.6122 16.2407 10.4611 16.2096 10.3143 16.2354C10.1675 16.2613 10.0361 16.3422 9.9469 16.4615C9.85766 16.5809 9.81728 16.7298 9.834 16.8779C9.85072 17.026 9.92327 17.1621 10.0369 17.2586L10.6181 17.7598C10.6275 17.7681 10.6342 17.779 10.6373 17.791C10.6405 17.8031 10.6399 17.8159 10.6358 17.8276C10.6316 17.8394 10.624 17.8497 10.6139 17.8571C10.6039 17.8645 10.5919 17.8687 10.5794 17.8692L8.30188 17.9142C8.15821 17.9203 8.02254 17.982 7.92356 18.0863C7.82458 18.1906 7.77005 18.3293 7.77151 18.4731C7.77297 18.6169 7.83031 18.7545 7.93139 18.8567C8.03247 18.959 8.16937 19.018 8.31313 19.0211H12.1006V18.3961L12.7644 17.6292L10.7369 16.3223Z" fill="url(#paint48_radial_793_4557)"/>
<path d="M10.7369 16.3223C10.6122 16.2407 10.4611 16.2096 10.3143 16.2354C10.1675 16.2613 10.0361 16.3422 9.9469 16.4615C9.85766 16.5809 9.81728 16.7298 9.834 16.8779C9.85072 17.026 9.92327 17.1621 10.0369 17.2586L10.6181 17.7598C10.6275 17.7681 10.6342 17.779 10.6373 17.791C10.6405 17.8031 10.6399 17.8159 10.6358 17.8276C10.6316 17.8394 10.624 17.8497 10.6139 17.8571C10.6039 17.8645 10.5919 17.8687 10.5794 17.8692L8.30188 17.9142C8.15821 17.9203 8.02254 17.982 7.92356 18.0863C7.82458 18.1906 7.77005 18.3293 7.77151 18.4731C7.77297 18.6169 7.83031 18.7545 7.93139 18.8567C8.03247 18.959 8.16937 19.018 8.31313 19.0211H12.1006V18.3961L12.7644 17.6292L10.7369 16.3223Z" fill="url(#paint49_radial_793_4557)"/>
<path d="M10.7369 16.3223C10.6122 16.2407 10.4611 16.2096 10.3143 16.2354C10.1675 16.2613 10.0361 16.3422 9.9469 16.4615C9.85766 16.5809 9.81728 16.7298 9.834 16.8779C9.85072 17.026 9.92327 17.1621 10.0369 17.2586L10.6181 17.7598C10.6275 17.7681 10.6342 17.779 10.6373 17.791C10.6405 17.8031 10.6399 17.8159 10.6358 17.8276C10.6316 17.8394 10.624 17.8497 10.6139 17.8571C10.6039 17.8645 10.5919 17.8687 10.5794 17.8692L8.30188 17.9142C8.15821 17.9203 8.02254 17.982 7.92356 18.0863C7.82458 18.1906 7.77005 18.3293 7.77151 18.4731C7.77297 18.6169 7.83031 18.7545 7.93139 18.8567C8.03247 18.959 8.16937 19.018 8.31313 19.0211H12.1006V18.3961L12.7644 17.6292L10.7369 16.3223Z" fill="url(#paint50_linear_793_4557)"/>
<path d="M10.7369 16.3223C10.6122 16.2407 10.4611 16.2096 10.3143 16.2354C10.1675 16.2613 10.0361 16.3422 9.9469 16.4615C9.85766 16.5809 9.81728 16.7298 9.834 16.8779C9.85072 17.026 9.92327 17.1621 10.0369 17.2586L10.6181 17.7598C10.6275 17.7681 10.6342 17.779 10.6373 17.791C10.6405 17.8031 10.6399 17.8159 10.6358 17.8276C10.6316 17.8394 10.624 17.8497 10.6139 17.8571C10.6039 17.8645 10.5919 17.8687 10.5794 17.8692L8.30188 17.9142C8.15821 17.9203 8.02254 17.982 7.92356 18.0863C7.82458 18.1906 7.77005 18.3293 7.77151 18.4731C7.77297 18.6169 7.83031 18.7545 7.93139 18.8567C8.03247 18.959 8.16937 19.018 8.31313 19.0211H12.1006V18.3961L12.7644 17.6292L10.7369 16.3223Z" fill="url(#paint51_radial_793_4557)"/>
</g>
<path d="M11.873 17.0117C11.873 16.9869 11.8829 16.963 11.9005 16.9454C11.9181 16.9278 11.9419 16.918 11.9668 16.918H12.3687V19.023H11.873V17.0117Z" fill="url(#paint52_radial_793_4557)"/>
<path d="M11.873 17.0117C11.873 16.9869 11.8829 16.963 11.9005 16.9454C11.9181 16.9278 11.9419 16.918 11.9668 16.918H12.3687V19.023H11.873V17.0117Z" fill="url(#paint53_linear_793_4557)"/>
<path d="M12.884 16.3812C13.8827 16.2374 15.7384 15.8762 16.9734 15.5874C17.9246 15.4237 18.6234 16.3399 18.6234 17.3262C18.6234 18.1831 17.9846 18.7237 17.5321 18.9624C17.4541 19.002 17.3677 19.0219 17.2802 19.0206H12.2715V17.0924C12.2715 16.5943 12.4471 16.4668 12.884 16.3812Z" fill="url(#paint54_linear_793_4557)"/>
<path d="M12.884 16.3812C13.8827 16.2374 15.7384 15.8762 16.9734 15.5874C17.9246 15.4237 18.6234 16.3399 18.6234 17.3262C18.6234 18.1831 17.9846 18.7237 17.5321 18.9624C17.4541 19.002 17.3677 19.0219 17.2802 19.0206H12.2715V17.0924C12.2715 16.5943 12.4471 16.4668 12.884 16.3812Z" fill="url(#paint55_radial_793_4557)"/>
<path d="M6.383 13.826C6.2055 14.376 5.478 14.6335 4.758 14.401C4.038 14.1698 3.63737 13.6654 3.77487 12.9854C3.88737 12.4304 4.32675 11.8917 5.48612 12.2104C6.20675 12.4429 6.5605 13.276 6.383 13.826Z" fill="url(#paint56_radial_793_4557)"/>
<path d="M6.383 13.826C6.2055 14.376 5.478 14.6335 4.758 14.401C4.038 14.1698 3.63737 13.6654 3.77487 12.9854C3.88737 12.4304 4.32675 11.8917 5.48612 12.2104C6.20675 12.4429 6.5605 13.276 6.383 13.826Z" fill="url(#paint57_radial_793_4557)"/>
<path d="M6.383 13.826C6.2055 14.376 5.478 14.6335 4.758 14.401C4.038 14.1698 3.63737 13.6654 3.77487 12.9854C3.88737 12.4304 4.32675 11.8917 5.48612 12.2104C6.20675 12.4429 6.5605 13.276 6.383 13.826Z" fill="url(#paint58_radial_793_4557)"/>
<path d="M7.40254 13.1464L7.11504 12.8339C6.94004 12.6464 6.69004 12.5339 6.43379 12.5277C6.17129 12.5214 5.92129 12.6277 5.74004 12.8152L5.63379 12.9277L5.96504 12.3339C6.10254 12.0902 6.33379 11.9214 6.60254 11.8714C6.87129 11.8214 7.15254 11.8902 7.37129 12.0589L7.99004 12.5589C8.19629 12.7277 8.22754 13.0277 8.06504 13.2402C7.93379 13.4027 7.71504 13.4589 7.53379 13.3902C7.51149 13.2991 7.46631 13.2152 7.40254 13.1464Z" fill="url(#paint59_linear_793_4557)"/>
<path d="M6.60312 11.8785C6.42812 11.9097 6.26562 11.9972 6.14062 12.116C6.14687 12.0847 6.15312 12.0535 6.16562 12.0222L6.24062 11.816C6.41562 11.3285 6.92188 11.0222 7.43438 11.0972L8.47188 11.241C8.73438 11.2785 8.92188 11.5222 8.88438 11.7847C8.84688 12.0472 8.60313 12.2347 8.34063 12.1972L7.35937 12.0597C7.14687 11.8972 6.87187 11.8285 6.60312 11.8785Z" fill="url(#paint60_linear_793_4557)"/>
<path d="M9.70594 11.4375L10.0522 11.5375C10.0641 11.5409 10.0752 11.5466 10.0848 11.5543C10.0945 11.5619 10.1025 11.5714 10.1085 11.5822C10.1145 11.5931 10.1183 11.6049 10.1197 11.6172C10.1211 11.6295 10.12 11.6419 10.1166 11.6538L9.62656 13.36C9.61959 13.3837 9.60353 13.4037 9.58188 13.4157C9.56022 13.4276 9.53472 13.4305 9.51094 13.4238L9.16406 13.3238L9.70594 11.4375Z" fill="url(#paint61_linear_793_4557)"/>
<path d="M9.70594 11.4375L10.0522 11.5375C10.0641 11.5409 10.0752 11.5466 10.0848 11.5543C10.0945 11.5619 10.1025 11.5714 10.1085 11.5822C10.1145 11.5931 10.1183 11.6049 10.1197 11.6172C10.1211 11.6295 10.12 11.6419 10.1166 11.6538L9.62656 13.36C9.61959 13.3837 9.60353 13.4037 9.58188 13.4157C9.56022 13.4276 9.53472 13.4305 9.51094 13.4238L9.16406 13.3238L9.70594 11.4375Z" fill="url(#paint62_linear_793_4557)"/>
<path d="M9.70594 11.4375L10.0522 11.5375C10.0641 11.5409 10.0752 11.5466 10.0848 11.5543C10.0945 11.5619 10.1025 11.5714 10.1085 11.5822C10.1145 11.5931 10.1183 11.6049 10.1197 11.6172C10.1211 11.6295 10.12 11.6419 10.1166 11.6538L9.62656 13.36C9.61959 13.3837 9.60353 13.4037 9.58188 13.4157C9.56022 13.4276 9.53472 13.4305 9.51094 13.4238L9.16406 13.3238L9.70594 11.4375Z" fill="url(#paint63_radial_793_4557)"/>
<g filter="url(#filter20_f_793_4557)">
<path d="M4.86133 14.6659C5.2232 14.7534 6.06133 14.7734 6.52195 14.1484" stroke="url(#paint64_radial_793_4557)" stroke-width="0.4" stroke-linecap="round"/>
</g>
<path d="M7.46148 10.293L9.44398 10.8455C9.71273 10.9236 9.90898 11.1942 9.83586 11.4455L9.27336 13.3736C9.20148 13.6211 8.94086 13.753 8.63336 13.6698L6.67773 13.118L7.46148 10.293Z" fill="url(#paint65_linear_793_4557)"/>
<path d="M7.46148 10.293L9.44398 10.8455C9.71273 10.9236 9.90898 11.1942 9.83586 11.4455L9.27336 13.3736C9.20148 13.6211 8.94086 13.753 8.63336 13.6698L6.67773 13.118L7.46148 10.293Z" fill="url(#paint66_radial_793_4557)"/>
<path d="M9.26539 10.9581L7.61789 10.5L6.94727 12.9344L8.57227 13.3931C8.82727 13.4619 9.04414 13.3525 9.10352 13.1469L9.59102 11.4575C9.66789 11.2131 9.48852 11.0231 9.26539 10.9581Z" fill="url(#paint67_linear_793_4557)"/>
<g filter="url(#filter21_i_793_4557)">
<path d="M7.60387 10.5625L9.25074 11.0219C9.47387 11.0869 9.65387 11.2756 9.57637 11.52L9.08949 13.21C9.03012 13.4156 8.81324 13.525 8.55762 13.4556L6.93262 12.9969L7.60387 10.5625Z" fill="url(#paint68_linear_793_4557)"/>
<path d="M7.60387 10.5625L9.25074 11.0219C9.47387 11.0869 9.65387 11.2756 9.57637 11.52L9.08949 13.21C9.03012 13.4156 8.81324 13.525 8.55762 13.4556L6.93262 12.9969L7.60387 10.5625Z" fill="url(#paint69_radial_793_4557)"/>
<path d="M7.60387 10.5625L9.25074 11.0219C9.47387 11.0869 9.65387 11.2756 9.57637 11.52L9.08949 13.21C9.03012 13.4156 8.81324 13.525 8.55762 13.4556L6.93262 12.9969L7.60387 10.5625Z" fill="url(#paint70_linear_793_4557)"/>
</g>
<path d="M5.08043 11.0469C5.72543 10.3681 6.28043 10.1906 6.53043 10.1875L7.02918 10.7294L6.44793 12.9262C6.33543 13.1237 6.09543 13.5494 6.01355 13.6469C5.91105 13.7687 5.55418 14.0406 4.9098 13.7956C4.3548 13.585 4.19105 13.2344 4.1748 13.0781C4.32105 12.3481 4.58043 11.6044 5.08043 11.0469Z" fill="url(#paint71_linear_793_4557)"/>
<path d="M5.08043 11.0469C5.72543 10.3681 6.28043 10.1906 6.53043 10.1875L7.02918 10.7294L6.44793 12.9262C6.33543 13.1237 6.09543 13.5494 6.01355 13.6469C5.91105 13.7687 5.55418 14.0406 4.9098 13.7956C4.3548 13.585 4.19105 13.2344 4.1748 13.0781C4.32105 12.3481 4.58043 11.6044 5.08043 11.0469Z" fill="url(#paint72_radial_793_4557)"/>
<path d="M5.08043 11.0469C5.72543 10.3681 6.28043 10.1906 6.53043 10.1875L7.02918 10.7294L6.44793 12.9262C6.33543 13.1237 6.09543 13.5494 6.01355 13.6469C5.91105 13.7687 5.55418 14.0406 4.9098 13.7956C4.3548 13.585 4.19105 13.2344 4.1748 13.0781C4.32105 12.3481 4.58043 11.6044 5.08043 11.0469Z" fill="url(#paint73_radial_793_4557)"/>
<path d="M5.08043 11.0469C5.72543 10.3681 6.28043 10.1906 6.53043 10.1875L7.02918 10.7294L6.44793 12.9262C6.33543 13.1237 6.09543 13.5494 6.01355 13.6469C5.91105 13.7687 5.55418 14.0406 4.9098 13.7956C4.3548 13.585 4.19105 13.2344 4.1748 13.0781C4.32105 12.3481 4.58043 11.6044 5.08043 11.0469Z" fill="url(#paint74_radial_793_4557)"/>
<path d="M5.08043 11.0469C5.72543 10.3681 6.28043 10.1906 6.53043 10.1875L7.02918 10.7294L6.44793 12.9262C6.33543 13.1237 6.09543 13.5494 6.01355 13.6469C5.91105 13.7687 5.55418 14.0406 4.9098 13.7956C4.3548 13.585 4.19105 13.2344 4.1748 13.0781C4.32105 12.3481 4.58043 11.6044 5.08043 11.0469Z" fill="url(#paint75_radial_793_4557)"/>
<path d="M6.31176 10.5608C6.53363 10.6389 6.61176 10.7671 6.63363 10.8439L6.91176 11.0877L8.34426 11.3139C8.42431 11.3265 8.50611 11.322 8.5843 11.3008C8.66249 11.2795 8.73529 11.2419 8.79792 11.1905C8.86055 11.1391 8.91159 11.075 8.94769 11.0024C8.98379 10.9299 9.00414 10.8505 9.00738 10.7696C9.01053 10.6922 8.9979 10.6151 8.97028 10.5428C8.94266 10.4705 8.90062 10.4045 8.84671 10.349C8.79281 10.2935 8.72817 10.2495 8.65672 10.2197C8.58528 10.1899 8.50853 10.175 8.43113 10.1758C7.69738 10.1839 6.75176 10.1977 6.52863 10.1921C6.16238 10.1821 6.03301 10.4627 6.31113 10.5608" fill="#EABBA1"/>
<path d="M6.31176 10.5608C6.53363 10.6389 6.61176 10.7671 6.63363 10.8439L6.91176 11.0877L8.34426 11.3139C8.42431 11.3265 8.50611 11.322 8.5843 11.3008C8.66249 11.2795 8.73529 11.2419 8.79792 11.1905C8.86055 11.1391 8.91159 11.075 8.94769 11.0024C8.98379 10.9299 9.00414 10.8505 9.00738 10.7696C9.01053 10.6922 8.9979 10.6151 8.97028 10.5428C8.94266 10.4705 8.90062 10.4045 8.84671 10.349C8.79281 10.2935 8.72817 10.2495 8.65672 10.2197C8.58528 10.1899 8.50853 10.175 8.43113 10.1758C7.69738 10.1839 6.75176 10.1977 6.52863 10.1921C6.16238 10.1821 6.03301 10.4627 6.31113 10.5608" fill="url(#paint76_radial_793_4557)"/>
<path d="M6.31176 10.5608C6.53363 10.6389 6.61176 10.7671 6.63363 10.8439L6.91176 11.0877L8.34426 11.3139C8.42431 11.3265 8.50611 11.322 8.5843 11.3008C8.66249 11.2795 8.73529 11.2419 8.79792 11.1905C8.86055 11.1391 8.91159 11.075 8.94769 11.0024C8.98379 10.9299 9.00414 10.8505 9.00738 10.7696C9.01053 10.6922 8.9979 10.6151 8.97028 10.5428C8.94266 10.4705 8.90062 10.4045 8.84671 10.349C8.79281 10.2935 8.72817 10.2495 8.65672 10.2197C8.58528 10.1899 8.50853 10.175 8.43113 10.1758C7.69738 10.1839 6.75176 10.1977 6.52863 10.1921C6.16238 10.1821 6.03301 10.4627 6.31113 10.5608" fill="url(#paint77_radial_793_4557)"/>
<path d="M6.04354 11.1361C6.19542 11.2923 6.24979 11.4648 6.25792 11.5317L6.56104 11.8248L8.02354 12.0792C8.16563 12.104 8.3118 12.0727 8.43129 11.9919C8.55078 11.9112 8.63427 11.7872 8.66417 11.6461C8.68015 11.5697 8.68007 11.4908 8.66396 11.4144C8.64784 11.3381 8.61603 11.2659 8.57055 11.2025C8.52506 11.1391 8.46689 11.0858 8.39974 11.0461C8.33258 11.0064 8.25789 10.981 8.18042 10.9717C7.49917 10.8892 6.66792 10.7811 6.44354 10.7554C6.06042 10.7117 5.85292 10.9404 6.04354 11.1361Z" fill="#EABAA2"/>
<path d="M6.04354 11.1361C6.19542 11.2923 6.24979 11.4648 6.25792 11.5317L6.56104 11.8248L8.02354 12.0792C8.16563 12.104 8.3118 12.0727 8.43129 11.9919C8.55078 11.9112 8.63427 11.7872 8.66417 11.6461C8.68015 11.5697 8.68007 11.4908 8.66396 11.4144C8.64784 11.3381 8.61603 11.2659 8.57055 11.2025C8.52506 11.1391 8.46689 11.0858 8.39974 11.0461C8.33258 11.0064 8.25789 10.981 8.18042 10.9717C7.49917 10.8892 6.66792 10.7811 6.44354 10.7554C6.06042 10.7117 5.85292 10.9404 6.04354 11.1361Z" fill="url(#paint78_radial_793_4557)"/>
<path d="M6.04354 11.1361C6.19542 11.2923 6.24979 11.4648 6.25792 11.5317L6.56104 11.8248L8.02354 12.0792C8.16563 12.104 8.3118 12.0727 8.43129 11.9919C8.55078 11.9112 8.63427 11.7872 8.66417 11.6461C8.68015 11.5697 8.68007 11.4908 8.66396 11.4144C8.64784 11.3381 8.61603 11.2659 8.57055 11.2025C8.52506 11.1391 8.46689 11.0858 8.39974 11.0461C8.33258 11.0064 8.25789 10.981 8.18042 10.9717C7.49917 10.8892 6.66792 10.7811 6.44354 10.7554C6.06042 10.7117 5.85292 10.9404 6.04354 11.1361Z" fill="url(#paint79_radial_793_4557)"/>
<path d="M5.32519 11.8222C5.3217 11.7891 5.32765 11.7557 5.34236 11.7258C5.35707 11.696 5.37994 11.6709 5.40832 11.6535C6.02144 11.2222 6.66144 11.4629 6.89769 11.6535C7.08769 11.801 7.52269 12.1472 7.74957 12.3297C8.02832 12.5547 7.98207 12.9304 7.77644 13.1529C7.60394 13.3385 7.30707 13.3029 7.19519 13.2454L5.88457 12.4254C5.85019 12.2297 5.73769 12.0735 5.58457 12.0272C5.43019 11.981 5.33269 11.9441 5.32519 11.8222Z" fill="url(#paint80_radial_793_4557)"/>
<path d="M5.32519 11.8222C5.3217 11.7891 5.32765 11.7557 5.34236 11.7258C5.35707 11.696 5.37994 11.6709 5.40832 11.6535C6.02144 11.2222 6.66144 11.4629 6.89769 11.6535C7.08769 11.801 7.52269 12.1472 7.74957 12.3297C8.02832 12.5547 7.98207 12.9304 7.77644 13.1529C7.60394 13.3385 7.30707 13.3029 7.19519 13.2454L5.88457 12.4254C5.85019 12.2297 5.73769 12.0735 5.58457 12.0272C5.43019 11.981 5.33269 11.9441 5.32519 11.8222Z" fill="url(#paint81_radial_793_4557)"/>
<path d="M5.32519 11.8222C5.3217 11.7891 5.32765 11.7557 5.34236 11.7258C5.35707 11.696 5.37994 11.6709 5.40832 11.6535C6.02144 11.2222 6.66144 11.4629 6.89769 11.6535C7.08769 11.801 7.52269 12.1472 7.74957 12.3297C8.02832 12.5547 7.98207 12.9304 7.77644 13.1529C7.60394 13.3385 7.30707 13.3029 7.19519 13.2454L5.88457 12.4254C5.85019 12.2297 5.73769 12.0735 5.58457 12.0272C5.43019 11.981 5.33269 11.9441 5.32519 11.8222Z" fill="url(#paint82_radial_793_4557)"/>
<path d="M5.32519 11.8222C5.3217 11.7891 5.32765 11.7557 5.34236 11.7258C5.35707 11.696 5.37994 11.6709 5.40832 11.6535C6.02144 11.2222 6.66144 11.4629 6.89769 11.6535C7.08769 11.801 7.52269 12.1472 7.74957 12.3297C8.02832 12.5547 7.98207 12.9304 7.77644 13.1529C7.60394 13.3385 7.30707 13.3029 7.19519 13.2454L5.88457 12.4254C5.85019 12.2297 5.73769 12.0735 5.58457 12.0272C5.43019 11.981 5.33269 11.9441 5.32519 11.8222Z" fill="url(#paint83_radial_793_4557)"/>
<path d="M5.53501 13.3525C5.33814 13.49 5.08314 13.4844 4.96876 13.2838C4.72376 12.6919 5.41876 12.2969 5.90626 12.2857C6.63564 12.2688 7.00001 12.6788 7.11689 12.9863C7.23439 13.2938 7.25876 13.9094 6.69689 13.9488C6.19439 13.9832 6.16751 13.6363 6.08439 13.4844C6.00126 13.3332 5.71314 13.2282 5.53439 13.3532" fill="url(#paint84_radial_793_4557)"/>
<path d="M5.53501 13.3525C5.33814 13.49 5.08314 13.4844 4.96876 13.2838C4.72376 12.6919 5.41876 12.2969 5.90626 12.2857C6.63564 12.2688 7.00001 12.6788 7.11689 12.9863C7.23439 13.2938 7.25876 13.9094 6.69689 13.9488C6.19439 13.9832 6.16751 13.6363 6.08439 13.4844C6.00126 13.3332 5.71314 13.2282 5.53439 13.3532" fill="url(#paint85_radial_793_4557)"/>
<path d="M5.53501 13.3525C5.33814 13.49 5.08314 13.4844 4.96876 13.2838C4.72376 12.6919 5.41876 12.2969 5.90626 12.2857C6.63564 12.2688 7.00001 12.6788 7.11689 12.9863C7.23439 13.2938 7.25876 13.9094 6.69689 13.9488C6.19439 13.9832 6.16751 13.6363 6.08439 13.4844C6.00126 13.3332 5.71314 13.2282 5.53439 13.3532" fill="url(#paint86_radial_793_4557)"/>
<path d="M5.53501 13.3525C5.33814 13.49 5.08314 13.4844 4.96876 13.2838C4.72376 12.6919 5.41876 12.2969 5.90626 12.2857C6.63564 12.2688 7.00001 12.6788 7.11689 12.9863C7.23439 13.2938 7.25876 13.9094 6.69689 13.9488C6.19439 13.9832 6.16751 13.6363 6.08439 13.4844C6.00126 13.3332 5.71314 13.2282 5.53439 13.3532" fill="url(#paint87_radial_793_4557)"/>
<path d="M9.6582 13.2488L9.80008 13.292C9.85337 13.308 9.90997 13.3094 9.96403 13.2963C10.0181 13.2831 10.0676 13.2557 10.1076 13.217L10.3345 12.9963C10.3449 12.9863 10.3577 12.9791 10.3717 12.9755C10.3858 12.9718 10.4005 12.9719 10.4145 12.9757L10.6113 13.0282C10.6889 13.0492 10.7716 13.0385 10.8413 12.9984C10.911 12.9584 10.9619 12.8923 10.9829 12.8148C11.0039 12.7372 10.9932 12.6545 10.9531 12.5848C10.9131 12.5151 10.847 12.4642 10.7695 12.4432L10.5795 12.392C10.5638 12.3877 10.5498 12.379 10.5391 12.3669C10.5283 12.3548 10.5213 12.3398 10.5188 12.3238L10.4757 12.0488C10.4664 11.9896 10.4402 11.9343 10.4003 11.8895C10.3604 11.8447 10.3085 11.8124 10.2507 11.7963L10.0882 11.752L9.6582 13.2488Z" fill="url(#paint88_linear_793_4557)"/>
<path d="M9.6582 13.2488L9.80008 13.292C9.85337 13.308 9.90997 13.3094 9.96403 13.2963C10.0181 13.2831 10.0676 13.2557 10.1076 13.217L10.3345 12.9963C10.3449 12.9863 10.3577 12.9791 10.3717 12.9755C10.3858 12.9718 10.4005 12.9719 10.4145 12.9757L10.6113 13.0282C10.6889 13.0492 10.7716 13.0385 10.8413 12.9984C10.911 12.9584 10.9619 12.8923 10.9829 12.8148C11.0039 12.7372 10.9932 12.6545 10.9531 12.5848C10.9131 12.5151 10.847 12.4642 10.7695 12.4432L10.5795 12.392C10.5638 12.3877 10.5498 12.379 10.5391 12.3669C10.5283 12.3548 10.5213 12.3398 10.5188 12.3238L10.4757 12.0488C10.4664 11.9896 10.4402 11.9343 10.4003 11.8895C10.3604 11.8447 10.3085 11.8124 10.2507 11.7963L10.0882 11.752L9.6582 13.2488Z" fill="url(#paint89_radial_793_4557)"/>
<path d="M9.6582 13.2488L9.80008 13.292C9.85337 13.308 9.90997 13.3094 9.96403 13.2963C10.0181 13.2831 10.0676 13.2557 10.1076 13.217L10.3345 12.9963C10.3449 12.9863 10.3577 12.9791 10.3717 12.9755C10.3858 12.9718 10.4005 12.9719 10.4145 12.9757L10.6113 13.0282C10.6889 13.0492 10.7716 13.0385 10.8413 12.9984C10.911 12.9584 10.9619 12.8923 10.9829 12.8148C11.0039 12.7372 10.9932 12.6545 10.9531 12.5848C10.9131 12.5151 10.847 12.4642 10.7695 12.4432L10.5795 12.392C10.5638 12.3877 10.5498 12.379 10.5391 12.3669C10.5283 12.3548 10.5213 12.3398 10.5188 12.3238L10.4757 12.0488C10.4664 11.9896 10.4402 11.9343 10.4003 11.8895C10.3604 11.8447 10.3085 11.8124 10.2507 11.7963L10.0882 11.752L9.6582 13.2488Z" fill="url(#paint90_radial_793_4557)"/>
<path d="M9.6582 13.2488L9.80008 13.292C9.85337 13.308 9.90997 13.3094 9.96403 13.2963C10.0181 13.2831 10.0676 13.2557 10.1076 13.217L10.3345 12.9963C10.3449 12.9863 10.3577 12.9791 10.3717 12.9755C10.3858 12.9718 10.4005 12.9719 10.4145 12.9757L10.6113 13.0282C10.6889 13.0492 10.7716 13.0385 10.8413 12.9984C10.911 12.9584 10.9619 12.8923 10.9829 12.8148C11.0039 12.7372 10.9932 12.6545 10.9531 12.5848C10.9131 12.5151 10.847 12.4642 10.7695 12.4432L10.5795 12.392C10.5638 12.3877 10.5498 12.379 10.5391 12.3669C10.5283 12.3548 10.5213 12.3398 10.5188 12.3238L10.4757 12.0488C10.4664 11.9896 10.4402 11.9343 10.4003 11.8895C10.3604 11.8447 10.3085 11.8124 10.2507 11.7963L10.0882 11.752L9.6582 13.2488Z" fill="url(#paint91_radial_793_4557)"/>
<g filter="url(#filter22_f_793_4557)">
<path d="M4.12041 12.6172C3.99166 12.8872 3.92104 13.5222 4.66729 13.9009C5.41354 14.2803 5.91229 13.9941 6.06854 13.8034" stroke="url(#paint92_radial_793_4557)" stroke-width="0.2" stroke-linecap="round"/>
</g>
<g opacity="0.5" filter="url(#filter23_f_793_4557)">
<path d="M10.5459 16.7031L11.5671 17.4156" stroke="#EFC6B6" stroke-width="0.5" stroke-linecap="round"/>
</g>
<g opacity="0.5" filter="url(#filter24_f_793_4557)">
<path d="M8.27832 18.457H10.4883" stroke="#EEBDB1" stroke-width="0.4" stroke-linecap="round"/>
</g>
<defs>
<filter id="filter0_f_793_4557" x="7.00937" y="6.88242" width="1.56426" height="0.715625" filterUnits="userSpaceOnUse" color-interpolation-filters="sRGB">
<feFlood flood-opacity="0" result="BackgroundImageFix"/>
<feBlend mode="normal" in="SourceGraphic" in2="BackgroundImageFix" result="shape"/>
<feGaussianBlur stdDeviation="0.05" result="effect1_foregroundBlur_793_4557"/>
</filter>
<filter id="filter1_i_793_4557" x="5.35547" y="6.37891" width="2.28691" height="2.08594" filterUnits="userSpaceOnUse" color-interpolation-filters="sRGB">
<feFlood flood-opacity="0" result="BackgroundImageFix"/>
<feBlend mode="normal" in="SourceGraphic" in2="BackgroundImageFix" result="shape"/>
<feColorMatrix in="SourceAlpha" type="matrix" values="0 0 0 0 0 0 0 0 0 0 0 0 0 0 0 0 0 0 127 0" result="hardAlpha"/>
<feOffset dx="0.2"/>
<feGaussianBlur stdDeviation="0.15"/>
<feComposite in2="hardAlpha" operator="arithmetic" k2="-1" k3="1"/>
<feColorMatrix type="matrix" values="0 0 0 0 0.917647 0 0 0 0 0.694118 0 0 0 0 0.607843 0 0 0 1 0"/>
<feBlend mode="normal" in2="shape" result="effect1_innerShadow_793_4557"/>
</filter>
<filter id="filter2_f_793_4557" x="5.27734" y="6.30273" width="2.24316" height="2.24414" filterUnits="userSpaceOnUse" color-interpolation-filters="sRGB">
<feFlood flood-opacity="0" result="BackgroundImageFix"/>
<feBlend mode="normal" in="SourceGraphic" in2="BackgroundImageFix" result="shape"/>
<feGaussianBlur stdDeviation="0.25" result="effect1_foregroundBlur_793_4557"/>
</filter>
<filter id="filter3_i_793_4557" x="11.2188" y="5.14453" width="2.33691" height="2.33594" filterUnits="userSpaceOnUse" color-interpolation-filters="sRGB">
<feFlood flood-opacity="0" result="BackgroundImageFix"/>
<feBlend mode="normal" in="SourceGraphic" in2="BackgroundImageFix" result="shape"/>
<feColorMatrix in="SourceAlpha" type="matrix" values="0 0 0 0 0 0 0 0 0 0 0 0 0 0 0 0 0 0 127 0" result="hardAlpha"/>
<feOffset dx="0.25" dy="-0.25"/>
<feGaussianBlur stdDeviation="0.25"/>
<feComposite in2="hardAlpha" operator="arithmetic" k2="-1" k3="1"/>
<feColorMatrix type="matrix" values="0 0 0 0 0.843137 0 0 0 0 0.623529 0 0 0 0 0.580392 0 0 0 1 0"/>
<feBlend mode="normal" in2="shape" result="effect1_innerShadow_793_4557"/>
</filter>
<filter id="filter4_f_793_4557" x="11.1406" y="5.31641" width="2.24316" height="2.24414" filterUnits="userSpaceOnUse" color-interpolation-filters="sRGB">
<feFlood flood-opacity="0" result="BackgroundImageFix"/>
<feBlend mode="normal" in="SourceGraphic" in2="BackgroundImageFix" result="shape"/>
<feGaussianBlur stdDeviation="0.25" result="effect1_foregroundBlur_793_4557"/>
</filter>
<filter id="filter5_i_793_4557" x="5.92578" y="3.29688" width="6.74219" height="8.02539" filterUnits="userSpaceOnUse" color-interpolation-filters="sRGB">
<feFlood flood-opacity="0" result="BackgroundImageFix"/>
<feBlend mode="normal" in="SourceGraphic" in2="BackgroundImageFix" result="shape"/>
<feColorMatrix in="SourceAlpha" type="matrix" values="0 0 0 0 0 0 0 0 0 0 0 0 0 0 0 0 0 0 127 0" result="hardAlpha"/>
<feOffset dy="0.25"/>
<feGaussianBlur stdDeviation="0.375"/>
<feComposite in2="hardAlpha" operator="arithmetic" k2="-1" k3="1"/>
<feColorMatrix type="matrix" values="0 0 0 0 0.819608 0 0 0 0 0.615686 0 0 0 0 0.509804 0 0 0 1 0"/>
<feBlend mode="normal" in2="shape" result="effect1_innerShadow_793_4557"/>
</filter>
<filter id="filter6_f_793_4557" x="7.04883" y="1.05469" width="6.69141" height="6.18359" filterUnits="userSpaceOnUse" color-interpolation-filters="sRGB">
<feFlood flood-opacity="0" result="BackgroundImageFix"/>
<feBlend mode="normal" in="SourceGraphic" in2="BackgroundImageFix" result="shape"/>
<feGaussianBlur stdDeviation="1" result="effect1_foregroundBlur_793_4557"/>
</filter>
<filter id="filter7_i_793_4557" x="4.96289" y="1.00391" width="7.79688" height="6.08203" filterUnits="userSpaceOnUse" color-interpolation-filters="sRGB">
<feFlood flood-opacity="0" result="BackgroundImageFix"/>
<feBlend mode="normal" in="SourceGraphic" in2="BackgroundImageFix" result="shape"/>
<feColorMatrix in="SourceAlpha" type="matrix" values="0 0 0 0 0 0 0 0 0 0 0 0 0 0 0 0 0 0 127 0" result="hardAlpha"/>
<feOffset dy="-0.5"/>
<feGaussianBlur stdDeviation="0.375"/>
<feComposite in2="hardAlpha" operator="arithmetic" k2="-1" k3="1"/>
<feColorMatrix type="matrix" values="0 0 0 0 0.0392157 0 0 0 0 0.00784314 0 0 0 0 0.0196078 0 0 0 1 0"/>
<feBlend mode="normal" in2="shape" result="effect1_innerShadow_793_4557"/>
</filter>
<filter id="filter8_f_793_4557" x="8.06055" y="5.93945" width="2.59473" height="3.21289" filterUnits="userSpaceOnUse" color-interpolation-filters="sRGB">
<feFlood flood-opacity="0" result="BackgroundImageFix"/>
<feBlend mode="normal" in="SourceGraphic" in2="BackgroundImageFix" result="shape"/>
<feGaussianBlur stdDeviation="0.375" result="effect1_foregroundBlur_793_4557"/>
</filter>
<filter id="filter9_f_793_4557" x="8.65625" y="6.32812" width="1.66504" height="2.20117" filterUnits="userSpaceOnUse" color-interpolation-filters="sRGB">
<feFlood flood-opacity="0" result="BackgroundImageFix"/>
<feBlend mode="normal" in="SourceGraphic" in2="BackgroundImageFix" result="shape"/>
<feGaussianBlur stdDeviation="0.125" result="effect1_foregroundBlur_793_4557"/>
</filter>
<filter id="filter10_f_793_4557" x="6.25527" y="5.18789" width="2.97969" height="2.97969" filterUnits="userSpaceOnUse" color-interpolation-filters="sRGB">
<feFlood flood-opacity="0" result="BackgroundImageFix"/>
<feBlend mode="normal" in="SourceGraphic" in2="BackgroundImageFix" result="shape"/>
<feGaussianBlur stdDeviation="0.325" result="effect1_foregroundBlur_793_4557"/>
</filter>
<filter id="filter11_f_793_4557" x="9.12344" y="4.73281" width="2.97969" height="2.97969" filterUnits="userSpaceOnUse" color-interpolation-filters="sRGB">
<feFlood flood-opacity="0" result="BackgroundImageFix"/>
<feBlend mode="normal" in="SourceGraphic" in2="BackgroundImageFix" result="shape"/>
<feGaussianBlur stdDeviation="0.325" result="effect1_foregroundBlur_793_4557"/>
</filter>
<filter id="filter12_f_793_4557" x="9.90293" y="6.37852" width="1.56426" height="0.715625" filterUnits="userSpaceOnUse" color-interpolation-filters="sRGB">
<feFlood flood-opacity="0" result="BackgroundImageFix"/>
<feBlend mode="normal" in="SourceGraphic" in2="BackgroundImageFix" result="shape"/>
<feGaussianBlur stdDeviation="0.05" result="effect1_foregroundBlur_793_4557"/>
</filter>
<filter id="filter13_i_793_4557" x="9.75977" y="4.2875" width="1.98145" height="1.19883" filterUnits="userSpaceOnUse" color-interpolation-filters="sRGB">
<feFlood flood-opacity="0" result="BackgroundImageFix"/>
<feBlend mode="normal" in="SourceGraphic" in2="BackgroundImageFix" result="shape"/>
<feColorMatrix in="SourceAlpha" type="matrix" values="0 0 0 0 0 0 0 0 0 0 0 0 0 0 0 0 0 0 127 0" result="hardAlpha"/>
<feOffset dx="0.25" dy="-0.4"/>
<feGaussianBlur stdDeviation="0.3"/>
<feComposite in2="hardAlpha" operator="arithmetic" k2="-1" k3="1"/>
<feColorMatrix type="matrix" values="0 0 0 0 0.0431373 0 0 0 0 0.0196078 0 0 0 0 0.027451 0 0 0 1 0"/>
<feBlend mode="normal" in2="shape" result="effect1_innerShadow_793_4557"/>
</filter>
<filter id="filter14_i_793_4557" x="6.64258" y="4.725" width="1.91211" height="1.46641" filterUnits="userSpaceOnUse" color-interpolation-filters="sRGB">
<feFlood flood-opacity="0" result="BackgroundImageFix"/>
<feBlend mode="normal" in="SourceGraphic" in2="BackgroundImageFix" result="shape"/>
<feColorMatrix in="SourceAlpha" type="matrix" values="0 0 0 0 0 0 0 0 0 0 0 0 0 0 0 0 0 0 127 0" result="hardAlpha"/>
<feOffset dx="0.25" dy="-0.4"/>
<feGaussianBlur stdDeviation="0.3"/>
<feComposite in2="hardAlpha" operator="arithmetic" k2="-1" k3="1"/>
<feColorMatrix type="matrix" values="0 0 0 0 0.0431373 0 0 0 0 0.0196078 0 0 0 0 0.027451 0 0 0 1 0"/>
<feBlend mode="normal" in2="shape" result="effect1_innerShadow_793_4557"/>
</filter>
<filter id="filter15_f_793_4557" x="9.42773" y="4.2793" width="2.43164" height="1.39258" filterUnits="userSpaceOnUse" color-interpolation-filters="sRGB">
<feFlood flood-opacity="0" result="BackgroundImageFix"/>
<feBlend mode="normal" in="SourceGraphic" in2="BackgroundImageFix" result="shape"/>
<feGaussianBlur stdDeviation="0.25" result="effect1_foregroundBlur_793_4557"/>
</filter>
<filter id="filter16_f_793_4557" x="6.26465" y="4.75" width="2.39062" height="1.72852" filterUnits="userSpaceOnUse" color-interpolation-filters="sRGB">
<feFlood flood-opacity="0" result="BackgroundImageFix"/>
<feBlend mode="normal" in="SourceGraphic" in2="BackgroundImageFix" result="shape"/>
<feGaussianBlur stdDeviation="0.25" result="effect1_foregroundBlur_793_4557"/>
</filter>
<filter id="filter17_i_793_4557" x="7.16602" y="13.9531" width="7.08887" height="5.31836" filterUnits="userSpaceOnUse" color-interpolation-filters="sRGB">
<feFlood flood-opacity="0" result="BackgroundImageFix"/>
<feBlend mode="normal" in="SourceGraphic" in2="BackgroundImageFix" result="shape"/>
<feColorMatrix in="SourceAlpha" type="matrix" values="0 0 0 0 0 0 0 0 0 0 0 0 0 0 0 0 0 0 127 0" result="hardAlpha"/>
<feOffset dx="0.25" dy="0.25"/>
<feGaussianBlur stdDeviation="0.5"/>
<feComposite in2="hardAlpha" operator="arithmetic" k2="-1" k3="1"/>
<feColorMatrix type="matrix" values="0 0 0 0 0.290196 0 0 0 0 0.607843 0 0 0 0 0.341176 0 0 0 1 0"/>
<feBlend mode="normal" in2="shape" result="effect1_innerShadow_793_4557"/>
</filter>
<filter id="filter18_i_793_4557" x="11.8678" y="11.9707" width="4.66641" height="5.27734" filterUnits="userSpaceOnUse" color-interpolation-filters="sRGB">
<feFlood flood-opacity="0" result="BackgroundImageFix"/>
<feBlend mode="normal" in="SourceGraphic" in2="BackgroundImageFix" result="shape"/>
<feColorMatrix in="SourceAlpha" type="matrix" values="0 0 0 0 0 0 0 0 0 0 0 0 0 0 0 0 0 0 127 0" result="hardAlpha"/>
<feOffset dx="-0.1"/>
<feGaussianBlur stdDeviation="0.1"/>
<feComposite in2="hardAlpha" operator="arithmetic" k2="-1" k3="1"/>
<feColorMatrix type="matrix" values="0 0 0 0 0.258824 0 0 0 0 0.67451 0 0 0 0 0.45098 0 0 0 1 0"/>
<feBlend mode="normal" in2="shape" result="effect1_innerShadow_793_4557"/>
</filter>
<filter id="filter19_i_793_4557" x="7.77148" y="16.0266" width="5.19316" height="2.99492" filterUnits="userSpaceOnUse" color-interpolation-filters="sRGB">
<feFlood flood-opacity="0" result="BackgroundImageFix"/>
<feBlend mode="normal" in="SourceGraphic" in2="BackgroundImageFix" result="shape"/>
<feColorMatrix in="SourceAlpha" type="matrix" values="0 0 0 0 0 0 0 0 0 0 0 0 0 0 0 0 0 0 127 0" result="hardAlpha"/>
<feOffset dx="0.2" dy="-0.2"/>
<feGaussianBlur stdDeviation="0.25"/>
<feComposite in2="hardAlpha" operator="arithmetic" k2="-1" k3="1"/>
<feColorMatrix type="matrix" values="0 0 0 0 0.843137 0 0 0 0 0.678431 0 0 0 0 0.580392 0 0 0 1 0"/>
<feBlend mode="normal" in2="shape" result="effect1_innerShadow_793_4557"/>
</filter>
<filter id="filter20_f_793_4557" x="4.46113" y="13.7492" width="2.46055" height="1.36094" filterUnits="userSpaceOnUse" color-interpolation-filters="sRGB">
<feFlood flood-opacity="0" result="BackgroundImageFix"/>
<feBlend mode="normal" in="SourceGraphic" in2="BackgroundImageFix" result="shape"/>
<feGaussianBlur stdDeviation="0.1" result="effect1_foregroundBlur_793_4557"/>
</filter>
<filter id="filter21_i_793_4557" x="6.88262" y="10.5625" width="2.71211" height="2.91406" filterUnits="userSpaceOnUse" color-interpolation-filters="sRGB">
<feFlood flood-opacity="0" result="BackgroundImageFix"/>
<feBlend mode="normal" in="SourceGraphic" in2="BackgroundImageFix" result="shape"/>
<feColorMatrix in="SourceAlpha" type="matrix" values="0 0 0 0 0 0 0 0 0 0 0 0 0 0 0 0 0 0 127 0" result="hardAlpha"/>
<feOffset dx="-0.05"/>
<feGaussianBlur stdDeviation="0.05"/>
<feComposite in2="hardAlpha" operator="arithmetic" k2="-1" k3="1"/>
<feColorMatrix type="matrix" values="0 0 0 0 0.533333 0 0 0 0 0.552941 0 0 0 0 0.619608 0 0 0 1 0"/>
<feBlend mode="normal" in2="shape" result="effect1_innerShadow_793_4557"/>
</filter>
<filter id="filter22_f_793_4557" x="3.83945" y="12.4176" width="2.42949" height="1.86992" filterUnits="userSpaceOnUse" color-interpolation-filters="sRGB">
<feFlood flood-opacity="0" result="BackgroundImageFix"/>
<feBlend mode="normal" in="SourceGraphic" in2="BackgroundImageFix" result="shape"/>
<feGaussianBlur stdDeviation="0.05" result="effect1_foregroundBlur_793_4557"/>
</filter>
<filter id="filter23_f_793_4557" x="10.0459" y="16.2031" width="2.02148" height="1.71289" filterUnits="userSpaceOnUse" color-interpolation-filters="sRGB">
<feFlood flood-opacity="0" result="BackgroundImageFix"/>
<feBlend mode="normal" in="SourceGraphic" in2="BackgroundImageFix" result="shape"/>
<feGaussianBlur stdDeviation="0.125" result="effect1_foregroundBlur_793_4557"/>
</filter>
<filter id="filter24_f_793_4557" x="7.77812" y="17.9578" width="3.21035" height="0.998438" filterUnits="userSpaceOnUse" color-interpolation-filters="sRGB">
<feFlood flood-opacity="0" result="BackgroundImageFix"/>
<feBlend mode="normal" in="SourceGraphic" in2="BackgroundImageFix" result="shape"/>
<feGaussianBlur stdDeviation="0.15" result="effect1_foregroundBlur_793_4557"/>
</filter>
<linearGradient id="paint0_linear_793_4557" x1="12.0145" y1="11.8992" x2="7.70947" y2="19.1973" gradientUnits="userSpaceOnUse">
<stop stop-color="#2BA6EC"/>
<stop offset="1" stop-color="#1577E2"/>
</linearGradient>
<radialGradient id="paint1_radial_793_4557" cx="0" cy="0" r="1" gradientUnits="userSpaceOnUse" gradientTransform="translate(10.0273 10.8202) rotate(63.107) scale(1.86146 3.19777)">
<stop offset="0.114" stop-color="#1C8EC9"/>
<stop offset="1" stop-color="#1C8EC9" stop-opacity="0"/>
</radialGradient>
<linearGradient id="paint2_linear_793_4557" x1="9.8022" y1="11.0565" x2="10.6822" y2="11.4077" gradientUnits="userSpaceOnUse">
<stop offset="0.177" stop-color="#9F808A"/>
<stop offset="1" stop-color="#C4AAA7"/>
</linearGradient>
<linearGradient id="paint3_linear_793_4557" x1="7.1248" y1="7.2682" x2="8.55105" y2="7.36508" gradientUnits="userSpaceOnUse">
<stop stop-color="#2D2D2D"/>
<stop offset="1" stop-color="#2D2D2D" stop-opacity="0"/>
</linearGradient>
<radialGradient id="paint4_radial_793_4557" cx="0" cy="0" r="1" gradientUnits="userSpaceOnUse" gradientTransform="translate(8.42418 7.01383) rotate(128.419) scale(0.18073 0.228087)">
<stop offset="0.18" stop-color="#303030"/>
<stop offset="1" stop-color="#303030" stop-opacity="0"/>
</radialGradient>
<radialGradient id="paint5_radial_793_4557" cx="0" cy="0" r="1" gradientUnits="userSpaceOnUse" gradientTransform="translate(5.37022 7.59509) rotate(-9.544) scale(1.09669 1.91923)">
<stop offset="0.351" stop-color="#CF9888"/>
<stop offset="1" stop-color="#BE8C77"/>
</radialGradient>
<linearGradient id="paint6_linear_793_4557" x1="6.4278" y1="7.59556" x2="6.03334" y2="7.66189" gradientUnits="userSpaceOnUse">
<stop stop-color="#BA7C6B"/>
<stop offset="1" stop-color="#BE8474"/>
</linearGradient>
<linearGradient id="paint7_linear_793_4557" x1="12.8191" y1="5.65268" x2="12.5771" y2="7.30061" gradientUnits="userSpaceOnUse">
<stop stop-color="#FBD3BD"/>
<stop offset="1" stop-color="#F0B8A4"/>
</linearGradient>
<radialGradient id="paint8_radial_793_4557" cx="0" cy="0" r="1" gradientUnits="userSpaceOnUse" gradientTransform="translate(12.464 6.23588) rotate(-45.6047) scale(0.639099 0.729452)">
<stop offset="0.543" stop-color="#D9AA94"/>
<stop offset="1" stop-color="#D9AA94" stop-opacity="0"/>
</radialGradient>
<radialGradient id="paint9_radial_793_4557" cx="0" cy="0" r="1" gradientUnits="userSpaceOnUse" gradientTransform="translate(12.3222 6.94878) rotate(-71.0112) scale(1.07451 0.628915)">
<stop offset="0.755" stop-color="#D6A38D" stop-opacity="0"/>
<stop offset="0.916" stop-color="#D6A38D"/>
</radialGradient>
<radialGradient id="paint10_radial_793_4557" cx="0" cy="0" r="1" gradientUnits="userSpaceOnUse" gradientTransform="translate(12.2622 6.43827) rotate(35.163) scale(0.228 0.293925)">
<stop stop-color="#D5A58E"/>
<stop offset="1" stop-color="#D5A58E" stop-opacity="0"/>
</radialGradient>
<radialGradient id="paint11_radial_793_4557" cx="0" cy="0" r="1" gradientUnits="userSpaceOnUse" gradientTransform="translate(12.0503 7.73775) rotate(165.849) scale(4.71335 9.89519)">
<stop offset="0.14" stop-color="#FFDEBF"/>
<stop offset="0.676" stop-color="#D7A893"/>
</radialGradient>
<linearGradient id="paint12_linear_793_4557" x1="6.04747" y1="8.69847" x2="8.12872" y2="8.42097" gradientUnits="userSpaceOnUse">
<stop stop-color="#A58787"/>
<stop offset="1" stop-color="#DEAD9D" stop-opacity="0"/>
</linearGradient>
<linearGradient id="paint13_linear_793_4557" x1="6.3206" y1="9.39284" x2="7.4731" y2="9.15659" gradientUnits="userSpaceOnUse">
<stop stop-color="#E8AD97"/>
<stop offset="1" stop-color="#E8AD97" stop-opacity="0"/>
</linearGradient>
<linearGradient id="paint14_linear_793_4557" x1="12.7925" y1="8.28472" x2="11.425" y2="8.51909" gradientUnits="userSpaceOnUse">
<stop stop-color="#FFDDBF"/>
<stop offset="1" stop-color="#FFD2B7" stop-opacity="0"/>
</linearGradient>
<radialGradient id="paint15_radial_793_4557" cx="0" cy="0" r="1" gradientUnits="userSpaceOnUse" gradientTransform="translate(9.62804 5.84367) rotate(104.296) scale(5.22026 7.08619)">
<stop offset="0.664" stop-color="#D3A99B" stop-opacity="0"/>
<stop offset="1" stop-color="#A3818A"/>
</radialGradient>
<linearGradient id="paint16_linear_793_4557" x1="6.65935" y1="9.14409" x2="7.4406" y2="8.89034" gradientUnits="userSpaceOnUse">
<stop stop-color="#E3AB96"/>
<stop offset="1" stop-color="#E3AB96" stop-opacity="0"/>
</linearGradient>
<linearGradient id="paint17_linear_793_4557" x1="9.17919" y1="5.08094" x2="13.4467" y2="2.74656" gradientUnits="userSpaceOnUse">
<stop stop-color="#FFE3C8"/>
<stop offset="1" stop-color="#FFE3C8" stop-opacity="0"/>
</linearGradient>
<radialGradient id="paint18_radial_793_4557" cx="0" cy="0" r="1" gradientUnits="userSpaceOnUse" gradientTransform="translate(11.5778 3.94957) rotate(-84.4432) scale(1.91382 0.70971)">
<stop stop-color="#464344"/>
<stop offset="1" stop-color="#464344" stop-opacity="0"/>
</radialGradient>
<radialGradient id="paint19_radial_793_4557" cx="0" cy="0" r="1" gradientUnits="userSpaceOnUse" gradientTransform="translate(10.3834 3.03582) rotate(-4.28655) scale(2.40042 1.29069)">
<stop offset="0.335" stop-color="#4A4648"/>
<stop offset="1" stop-color="#4A4648" stop-opacity="0"/>
</radialGradient>
<radialGradient id="paint20_radial_793_4557" cx="0" cy="0" r="1" gradientUnits="userSpaceOnUse" gradientTransform="translate(8.43403 1.63019) rotate(80.4557) scale(1.04939 1.62522)">
<stop stop-color="#423D3F"/>
<stop offset="1" stop-color="#423D3F" stop-opacity="0"/>
</radialGradient>
<radialGradient id="paint21_radial_793_4557" cx="0" cy="0" r="1" gradientUnits="userSpaceOnUse" gradientTransform="translate(5.16653 6.50019) rotate(-45.7792) scale(2.38167 3.73129)">
<stop stop-color="#463C39"/>
<stop offset="1" stop-color="#463C39" stop-opacity="0"/>
</radialGradient>
<linearGradient id="paint22_linear_793_4557" x1="8.90171" y1="7.66744" x2="9.47984" y2="7.57057" gradientUnits="userSpaceOnUse">
<stop stop-color="#DFA790"/>
<stop offset="1" stop-color="#DFA790" stop-opacity="0"/>
</linearGradient>
<linearGradient id="paint23_linear_793_4557" x1="10.0461" y1="7.67932" x2="9.41234" y2="7.77682" gradientUnits="userSpaceOnUse">
<stop stop-color="#FFDFC4"/>
<stop offset="1" stop-color="#FFDFC4" stop-opacity="0"/>
</linearGradient>
<linearGradient id="paint24_linear_793_4557" x1="9.66421" y1="8.21432" x2="9.60546" y2="7.86119" gradientUnits="userSpaceOnUse">
<stop stop-color="#E5B39D"/>
<stop offset="1" stop-color="#E5B39D" stop-opacity="0"/>
</linearGradient>
<radialGradient id="paint25_radial_793_4557" cx="0" cy="0" r="1" gradientUnits="userSpaceOnUse" gradientTransform="translate(9.69421 7.88744) rotate(80.4568) scale(0.123047 0.395347)">
<stop stop-color="#FFD7C1"/>
<stop offset="1" stop-color="#FFD7C1" stop-opacity="0"/>
</radialGradient>
<linearGradient id="paint26_linear_793_4557" x1="9.07359" y1="9.33555" x2="9.27046" y2="8.8668" gradientUnits="userSpaceOnUse">
<stop stop-color="#D9A4A4"/>
<stop offset="0.663" stop-color="#D9A4A4" stop-opacity="0"/>
</linearGradient>
<radialGradient id="paint27_radial_793_4557" cx="0" cy="0" r="1" gradientUnits="userSpaceOnUse" gradientTransform="translate(7.64564 6.93081) rotate(-62.622) scale(1.04356 1.35174)">
<stop offset="0.053" stop-color="#DDAA96"/>
<stop offset="0.876" stop-color="#D29D8A"/>
</radialGradient>
<radialGradient id="paint28_radial_793_4557" cx="0" cy="0" r="1" gradientUnits="userSpaceOnUse" gradientTransform="translate(10.5134 6.47518) rotate(-62.622) scale(1.04356 1.35174)">
<stop offset="0.127" stop-color="#FFD9BB"/>
<stop offset="0.886" stop-color="#FFC8AC"/>
</radialGradient>
<radialGradient id="paint29_radial_793_4557" cx="0" cy="0" r="1" gradientUnits="userSpaceOnUse" gradientTransform="translate(7.06633 7.24119) rotate(-9.24403) scale(0.850894 1.38391)">
<stop stop-color="#070509"/>
<stop offset="1" stop-color="#131212"/>
</radialGradient>
<radialGradient id="paint30_radial_793_4557" cx="0" cy="0" r="1" gradientUnits="userSpaceOnUse" gradientTransform="translate(9.95953 6.73533) rotate(-9.24404) scale(0.850894 1.38391)">
<stop stop-color="#070509"/>
<stop offset="1" stop-color="#131212"/>
</radialGradient>
<linearGradient id="paint31_linear_793_4557" x1="10.019" y1="6.76367" x2="11.4446" y2="6.86117" gradientUnits="userSpaceOnUse">
<stop stop-color="#2D2D2D"/>
<stop offset="1" stop-color="#2D2D2D" stop-opacity="0"/>
</linearGradient>
<radialGradient id="paint32_radial_793_4557" cx="0" cy="0" r="1" gradientUnits="userSpaceOnUse" gradientTransform="translate(11.3177 6.5093) rotate(128.419) scale(0.18073 0.228087)">
<stop offset="0.18" stop-color="#303030"/>
<stop offset="1" stop-color="#303030" stop-opacity="0"/>
</radialGradient>
<linearGradient id="paint33_linear_793_4557" x1="10.8709" y1="4.9177" x2="10.5227" y2="4.43207" gradientUnits="userSpaceOnUse">
<stop stop-color="#353435"/>
<stop offset="1" stop-color="#353435" stop-opacity="0"/>
</linearGradient>
<linearGradient id="paint34_linear_793_4557" x1="7.5884" y1="5.38813" x2="6.80402" y2="5.20375" gradientUnits="userSpaceOnUse">
<stop stop-color="#353435"/>
<stop offset="1" stop-color="#353435" stop-opacity="0"/>
</linearGradient>
<linearGradient id="paint35_linear_793_4557" x1="5.6925" y1="16.7158" x2="2.27438" y2="15.7983" gradientUnits="userSpaceOnUse">
<stop stop-color="#2F71F9"/>
<stop offset="1" stop-color="#246BDA"/>
</linearGradient>
<linearGradient id="paint36_linear_793_4557" x1="2.19625" y1="16.4814" x2="3.42813" y2="16.8352" gradientUnits="userSpaceOnUse">
<stop stop-color="#4E83C4"/>
<stop offset="1" stop-color="#5082C1" stop-opacity="0"/>
</linearGradient>
<radialGradient id="paint37_radial_793_4557" cx="0" cy="0" r="1" gradientUnits="userSpaceOnUse" gradientTransform="translate(5.14687 13.3583) rotate(14.0362) scale(2.01324 1.61532)">
<stop offset="0.836" stop-color="#1972BA"/>
<stop offset="1" stop-color="#1972BA" stop-opacity="0"/>
</radialGradient>
<radialGradient id="paint38_radial_793_4557" cx="0" cy="0" r="1" gradientUnits="userSpaceOnUse" gradientTransform="translate(4.29476 12.4409) rotate(129.369) scale(1.47306 1.43717)">
<stop offset="0.384" stop-color="#2170A2"/>
<stop offset="1" stop-color="#2374A5" stop-opacity="0"/>
</radialGradient>
<radialGradient id="paint39_radial_793_4557" cx="0" cy="0" r="1" gradientUnits="userSpaceOnUse" gradientTransform="translate(5.37312 19.0208) rotate(-163.196) scale(0.754127 4.36429)">
<stop stop-color="#5289F2"/>
<stop offset="1" stop-color="#317FF4" stop-opacity="0"/>
</radialGradient>
<linearGradient id="paint40_linear_793_4557" x1="5.7675" y1="17.9771" x2="5.5225" y2="17.8989" gradientUnits="userSpaceOnUse">
<stop stop-color="#1E7EEE"/>
<stop offset="1" stop-color="#1E7EEE" stop-opacity="0"/>
</linearGradient>
<radialGradient id="paint41_radial_793_4557" cx="0" cy="0" r="1" gradientUnits="userSpaceOnUse" gradientTransform="translate(5.52812 13.3589) rotate(53.3061) scale(1.91212 2.42358)">
<stop offset="0.629" stop-color="#3395D2"/>
<stop offset="1" stop-color="#2E71F4" stop-opacity="0"/>
</radialGradient>
<radialGradient id="paint42_radial_793_4557" cx="0" cy="0" r="1" gradientUnits="userSpaceOnUse" gradientTransform="translate(10.5854 15.7594) rotate(109.107) scale(3.96863 2.95488)">
<stop stop-color="#31AE6A"/>
<stop offset="1" stop-color="#32996B"/>
</radialGradient>
<radialGradient id="paint43_radial_793_4557" cx="0" cy="0" r="1" gradientUnits="userSpaceOnUse" gradientTransform="translate(10.9659 17.7326) rotate(-132.901) scale(2.63961 4.20382)">
<stop stop-color="#208D47"/>
<stop offset="1" stop-color="#208D47" stop-opacity="0"/>
</radialGradient>
<radialGradient id="paint44_radial_793_4557" cx="0" cy="0" r="1" gradientUnits="userSpaceOnUse" gradientTransform="translate(13.1929 16.3456) rotate(-124.442) scale(2.90083 1.58732)">
<stop offset="0.393" stop-color="#148C3E"/>
<stop offset="1" stop-color="#148C3E" stop-opacity="0"/>
</radialGradient>
<radialGradient id="paint45_radial_793_4557" cx="0" cy="0" r="1" gradientUnits="userSpaceOnUse" gradientTransform="translate(17.0436 14.541) rotate(170.452) scale(3.82676 5.69578)">
<stop stop-color="#53F595"/>
<stop offset="1" stop-color="#31BE7D"/>
</radialGradient>
<radialGradient id="paint46_radial_793_4557" cx="0" cy="0" r="1" gradientUnits="userSpaceOnUse" gradientTransform="translate(13.193 14.4321) rotate(164.954) scale(1.88089 2.79382)">
<stop stop-color="#279F64"/>
<stop offset="1" stop-color="#3BA055"/>
</radialGradient>
<radialGradient id="paint47_radial_793_4557" cx="0" cy="0" r="1" gradientUnits="userSpaceOnUse" gradientTransform="translate(14.2508 16.2088) rotate(-141.694) scale(1.32338 1.74889)">
<stop stop-color="#289D47"/>
<stop offset="1" stop-color="#289D47" stop-opacity="0"/>
</radialGradient>
<radialGradient id="paint48_radial_793_4557" cx="0" cy="0" r="1" gradientUnits="userSpaceOnUse" gradientTransform="translate(9.96989 17.3022) rotate(33.14) scale(1.41119 0.496144)">
<stop stop-color="#CE9989"/>
<stop offset="1" stop-color="#CE9989" stop-opacity="0"/>
</radialGradient>
<radialGradient id="paint49_radial_793_4557" cx="0" cy="0" r="1" gradientUnits="userSpaceOnUse" gradientTransform="translate(8.07688 19.0211) scale(4.11133 0.726994)">
<stop stop-color="#CC9098"/>
<stop offset="1" stop-color="#CC9098" stop-opacity="0"/>
</radialGradient>
<linearGradient id="paint50_linear_793_4557" x1="11.3913" y1="16.693" x2="10.9781" y2="17.2523" gradientUnits="userSpaceOnUse">
<stop offset="0.175" stop-color="#E4C0A9"/>
<stop offset="1" stop-color="#E4C0A9" stop-opacity="0"/>
</linearGradient>
<radialGradient id="paint51_radial_793_4557" cx="0" cy="0" r="1" gradientUnits="userSpaceOnUse" gradientTransform="translate(12.04 18.3567) rotate(180) scale(0.643206 2.12795)">
<stop offset="0.083" stop-color="#CF9085"/>
<stop offset="1" stop-color="#CF9085" stop-opacity="0"/>
</radialGradient>
<radialGradient id="paint52_radial_793_4557" cx="0" cy="0" r="1" gradientUnits="userSpaceOnUse" gradientTransform="translate(12.2662 17.8917) rotate(90) scale(1.06446 0.392763)">
<stop offset="0.431" stop-color="#2176C7"/>
<stop offset="1" stop-color="#286AD9"/>
</radialGradient>
<linearGradient id="paint53_linear_793_4557" x1="12.2012" y1="16.8742" x2="12.1474" y2="17.1917" gradientUnits="userSpaceOnUse">
<stop stop-color="#0E6996"/>
<stop offset="1" stop-color="#0E6996" stop-opacity="0"/>
</linearGradient>
<linearGradient id="paint54_linear_793_4557" x1="16.5909" y1="17.0087" x2="16.8646" y2="19.3331" gradientUnits="userSpaceOnUse">
<stop stop-color="#27A9F1"/>
<stop offset="1" stop-color="#297EFF"/>
</linearGradient>
<radialGradient id="paint55_radial_793_4557" cx="0" cy="0" r="1" gradientUnits="userSpaceOnUse" gradientTransform="translate(17.7627 16.8721) rotate(168.154) scale(4.09104 1.0671)">
<stop stop-color="#48B6FF"/>
<stop offset="1" stop-color="#48B6FF" stop-opacity="0"/>
</radialGradient>
<radialGradient id="paint56_radial_793_4557" cx="0" cy="0" r="1" gradientUnits="userSpaceOnUse" gradientTransform="translate(4.22737 12.6935) rotate(72.8582) scale(1.78557 1.91714)">
<stop stop-color="#277AA9"/>
<stop offset="1" stop-color="#1F70CF"/>
</radialGradient>
<radialGradient id="paint57_radial_793_4557" cx="0" cy="0" r="1" gradientUnits="userSpaceOnUse" gradientTransform="translate(6.1905 13.301) rotate(145.77) scale(0.968544 0.514022)">
<stop offset="0.216" stop-color="#052E6B"/>
<stop offset="1" stop-color="#124EA0" stop-opacity="0"/>
</radialGradient>
<radialGradient id="paint58_radial_793_4557" cx="0" cy="0" r="1" gradientUnits="userSpaceOnUse" gradientTransform="translate(4.47612 13.0748) rotate(66.8736) scale(0.50971 0.294898)">
<stop offset="0.827" stop-color="#1A3F75"/>
<stop offset="1" stop-color="#1A3F75" stop-opacity="0"/>
</radialGradient>
<linearGradient id="paint59_linear_793_4557" x1="6.96441" y1="14.0671" x2="6.87254" y2="12.4152" gradientUnits="userSpaceOnUse">
<stop stop-color="#F38820"/>
<stop offset="1" stop-color="#F38820" stop-opacity="0"/>
</linearGradient>
<linearGradient id="paint60_linear_793_4557" x1="7.71938" y1="12.9372" x2="7.4775" y2="11.6985" gradientUnits="userSpaceOnUse">
<stop stop-color="#F38820"/>
<stop offset="1" stop-color="#F38820" stop-opacity="0"/>
</linearGradient>
<linearGradient id="paint61_linear_793_4557" x1="10.0484" y1="11.5613" x2="9.55969" y2="13.4275" gradientUnits="userSpaceOnUse">
<stop stop-color="#6CD9F5"/>
<stop offset="1" stop-color="#3782CE"/>
</linearGradient>
<linearGradient id="paint62_linear_793_4557" x1="9.50281" y1="13.565" x2="9.64219" y2="13.0081" gradientUnits="userSpaceOnUse">
<stop stop-color="#735CAF"/>
<stop offset="1" stop-color="#735CAF" stop-opacity="0"/>
</linearGradient>
<radialGradient id="paint63_radial_793_4557" cx="0" cy="0" r="1" gradientUnits="userSpaceOnUse" gradientTransform="translate(10.0059 11.8188) rotate(106.486) scale(0.817295 0.0998553)">
<stop stop-color="#78E0FF"/>
<stop offset="1" stop-color="#6CD8F5" stop-opacity="0"/>
</radialGradient>
<radialGradient id="paint64_radial_793_4557" cx="0" cy="0" r="1" gradientUnits="userSpaceOnUse" gradientTransform="translate(5.81883 14.6559) rotate(-108.658) scale(0.396831 1.13462)">
<stop stop-color="#429CE6"/>
<stop offset="1" stop-color="#429CE6" stop-opacity="0"/>
</radialGradient>
<linearGradient id="paint65_linear_793_4557" x1="9.34461" y1="11.0823" x2="8.64148" y2="13.7873" gradientUnits="userSpaceOnUse">
<stop stop-color="#58D4F5"/>
<stop offset="1" stop-color="#4760C0"/>
</linearGradient>
<radialGradient id="paint66_radial_793_4557" cx="0" cy="0" r="1" gradientUnits="userSpaceOnUse" gradientTransform="translate(9.88836 11.4061) rotate(107.761) scale(1.31256 0.10826)">
<stop stop-color="#78E2FF"/>
<stop offset="1" stop-color="#78E2FF" stop-opacity="0"/>
</radialGradient>
<linearGradient id="paint67_linear_793_4557" x1="9.53977" y1="11.3175" x2="8.84664" y2="11.0925" gradientUnits="userSpaceOnUse">
<stop stop-color="#43B1DB"/>
<stop offset="1" stop-color="#42B8E0"/>
</linearGradient>
<linearGradient id="paint68_linear_793_4557" x1="9.03262" y1="11.0144" x2="8.26387" y2="13.9831" gradientUnits="userSpaceOnUse">
<stop stop-color="#D2C9D1"/>
<stop offset="1" stop-color="#A07CB6"/>
</linearGradient>
<radialGradient id="paint69_radial_793_4557" cx="0" cy="0" r="1" gradientUnits="userSpaceOnUse" gradientTransform="translate(7.15914 11.8369) rotate(25.805) scale(0.9871 0.901837)">
<stop offset="0.127" stop-color="#6E574E"/>
<stop offset="1" stop-color="#6E574E" stop-opacity="0"/>
</radialGradient>
<linearGradient id="paint70_linear_793_4557" x1="7.84262" y1="13.3994" x2="7.97949" y2="12.725" gradientUnits="userSpaceOnUse">
<stop stop-color="#8B72AA"/>
<stop offset="1" stop-color="#B59CC2" stop-opacity="0"/>
</linearGradient>
<linearGradient id="paint71_linear_793_4557" x1="5.2623" y1="10.7" x2="5.60168" y2="13.5125" gradientUnits="userSpaceOnUse">
<stop stop-color="#DBAA8F"/>
<stop offset="1" stop-color="#C98E84"/>
</linearGradient>
<radialGradient id="paint72_radial_793_4557" cx="0" cy="0" r="1" gradientUnits="userSpaceOnUse" gradientTransform="translate(5.90855 11.8094) rotate(122.307) scale(2.35708 1.94556)">
<stop offset="0.556" stop-color="#C38486" stop-opacity="0"/>
<stop offset="1" stop-color="#BF7875"/>
</radialGradient>
<radialGradient id="paint73_radial_793_4557" cx="0" cy="0" r="1" gradientUnits="userSpaceOnUse" gradientTransform="translate(6.4749 10.8011) rotate(117.711) scale(2.77541 1.21032)">
<stop offset="0.269" stop-color="#EEBFA5"/>
<stop offset="1" stop-color="#DEAD92" stop-opacity="0"/>
</radialGradient>
<radialGradient id="paint74_radial_793_4557" cx="0" cy="0" r="1" gradientUnits="userSpaceOnUse" gradientTransform="translate(4.54543 11.5938) rotate(92.5529) scale(1.90694 0.457623)">
<stop stop-color="#DDA891"/>
<stop offset="1" stop-color="#DDA891" stop-opacity="0"/>
</radialGradient>
<radialGradient id="paint75_radial_793_4557" cx="0" cy="0" r="1" gradientUnits="userSpaceOnUse" gradientTransform="translate(5.63043 13.1706) rotate(81.5178) scale(0.662067 0.680145)">
<stop offset="0.28" stop-color="#C07E7E"/>
<stop offset="1" stop-color="#C07E7E" stop-opacity="0"/>
</radialGradient>
<radialGradient id="paint76_radial_793_4557" cx="0" cy="0" r="1" gradientUnits="userSpaceOnUse" gradientTransform="translate(7.94926 11.2252) rotate(-88.0811) scale(0.583296 2.43413)">
<stop offset="0.329" stop-color="#D8AB96"/>
<stop offset="1" stop-color="#D8AB96" stop-opacity="0"/>
</radialGradient>
<radialGradient id="paint77_radial_793_4557" cx="0" cy="0" r="1" gradientUnits="userSpaceOnUse" gradientTransform="translate(8.97968 10.4227) rotate(153.435) scale(0.491325 0.222731)">
<stop stop-color="#FFD7BF"/>
<stop offset="1" stop-color="#FFD7BF" stop-opacity="0"/>
</radialGradient>
<radialGradient id="paint78_radial_793_4557" cx="0" cy="0" r="1" gradientUnits="userSpaceOnUse" gradientTransform="translate(7.61411 12.0876) rotate(-80.715) scale(0.523006 2.34482)">
<stop offset="0.09" stop-color="#DBA48C"/>
<stop offset="1" stop-color="#DBA48C" stop-opacity="0"/>
</radialGradient>
<radialGradient id="paint79_radial_793_4557" cx="0" cy="0" r="1" gradientUnits="userSpaceOnUse" gradientTransform="translate(8.63417 11.2229) rotate(158.709) scale(0.712706 0.344628)">
<stop offset="0.283" stop-color="#FDD3BE"/>
<stop offset="1" stop-color="#EBBBA3" stop-opacity="0"/>
</radialGradient>
<radialGradient id="paint80_radial_793_4557" cx="0" cy="0" r="1" gradientUnits="userSpaceOnUse" gradientTransform="translate(6.96394 12.0054) rotate(118.195) scale(1.07479 3.77589)">
<stop offset="0.243" stop-color="#F1C0A9"/>
<stop offset="1" stop-color="#DAA695"/>
</radialGradient>
<radialGradient id="paint81_radial_793_4557" cx="0" cy="0" r="1" gradientUnits="userSpaceOnUse" gradientTransform="translate(7.19832 12.1747) rotate(37.8813) scale(1.8188 0.467052)">
<stop offset="0.254" stop-color="#F5C8B4"/>
<stop offset="1" stop-color="#EAB8A3" stop-opacity="0"/>
</radialGradient>
<radialGradient id="paint82_radial_793_4557" cx="0" cy="0" r="1" gradientUnits="userSpaceOnUse" gradientTransform="translate(7.74473 11.9306) rotate(136.002) scale(0.606225 1.23573)">
<stop offset="0.139" stop-color="#D9A38B"/>
<stop offset="1" stop-color="#D9A38B" stop-opacity="0"/>
</radialGradient>
<radialGradient id="paint83_radial_793_4557" cx="0" cy="0" r="1" gradientUnits="userSpaceOnUse" gradientTransform="translate(5.58707 12.0541) rotate(-36.0404) scale(0.371374 0.644566)">
<stop offset="0.269" stop-color="#E0AE97"/>
<stop offset="1" stop-color="#E0AE97" stop-opacity="0"/>
</radialGradient>
<radialGradient id="paint84_radial_793_4557" cx="0" cy="0" r="1" gradientUnits="userSpaceOnUse" gradientTransform="translate(5.54251 13.69) rotate(-56.979) scale(1.26096 1.4014)">
<stop offset="0.407" stop-color="#C58788"/>
<stop offset="1" stop-color="#E9B8A1"/>
</radialGradient>
<radialGradient id="paint85_radial_793_4557" cx="0" cy="0" r="1" gradientUnits="userSpaceOnUse" gradientTransform="translate(6.72876 12.7869) rotate(36.3) scale(0.896675 0.362984)">
<stop offset="0.06" stop-color="#FCCFBE"/>
<stop offset="1" stop-color="#FCCFBE" stop-opacity="0"/>
</radialGradient>
<radialGradient id="paint86_radial_793_4557" cx="0" cy="0" r="1" gradientUnits="userSpaceOnUse" gradientTransform="translate(6.37242 12.7576) rotate(97.522) scale(1.45622 3.03117)">
<stop offset="0.651" stop-color="#C28485" stop-opacity="0"/>
<stop offset="0.962" stop-color="#C28485"/>
</radialGradient>
<radialGradient id="paint87_radial_793_4557" cx="0" cy="0" r="1" gradientUnits="userSpaceOnUse" gradientTransform="translate(4.91814 13.2632) rotate(-41.7667) scale(0.457909 1.52701)">
<stop stop-color="#C68882"/>
<stop offset="1" stop-color="#C68882" stop-opacity="0"/>
</radialGradient>
<linearGradient id="paint88_linear_793_4557" x1="10.3251" y1="11.872" x2="9.96008" y2="13.4345" gradientUnits="userSpaceOnUse">
<stop stop-color="#F3C22A"/>
<stop offset="1" stop-color="#CE953A"/>
</linearGradient>
<radialGradient id="paint89_radial_793_4557" cx="0" cy="0" r="1" gradientUnits="userSpaceOnUse" gradientTransform="translate(10.3255 12.1916) rotate(105.675) scale(0.821568 0.214894)">
<stop stop-color="#FED466"/>
<stop offset="1" stop-color="#FED466" stop-opacity="0"/>
</radialGradient>
<radialGradient id="paint90_radial_793_4557" cx="0" cy="0" r="1" gradientUnits="userSpaceOnUse" gradientTransform="translate(10.5422 12.5281) rotate(105.036) scale(0.338787 0.0995)">
<stop stop-color="#FED064"/>
<stop offset="1" stop-color="#FED466" stop-opacity="0"/>
</radialGradient>
<radialGradient id="paint91_radial_793_4557" cx="0" cy="0" r="1" gradientUnits="userSpaceOnUse" gradientTransform="translate(10.992 12.6461) rotate(174.906) scale(0.274981 0.240956)">
<stop stop-color="#FFD267"/>
<stop offset="1" stop-color="#FFD267" stop-opacity="0"/>
</radialGradient>
<radialGradient id="paint92_radial_793_4557" cx="0" cy="0" r="1" gradientUnits="userSpaceOnUse" gradientTransform="translate(4.85479 13.9072) rotate(-96.789) scale(1.39393 2.12246)">
<stop stop-color="#377DCB"/>
<stop offset="1" stop-color="#377DCB" stop-opacity="0"/>
</radialGradient>
</defs>
</svg>
