<svg width="28" height="28" viewBox="0 0 28 28" fill="none" xmlns="http://www.w3.org/2000/svg">
<path opacity="0.15" d="M6.125 25.957C6.125 26.1891 6.95469 26.4117 8.43153 26.5758C9.90838 26.7398 11.9114 26.832 14 26.832C16.0886 26.832 18.0916 26.7398 19.5685 26.5758C21.0453 26.4117 21.875 26.1891 21.875 25.957C21.875 25.725 21.0453 25.5024 19.5685 25.3383C18.0916 25.1742 16.0886 25.082 14 25.082C11.9114 25.082 9.90838 25.1742 8.43153 25.3383C6.95469 25.5024 6.125 25.725 6.125 25.957Z" fill="#45413C"/>
<path d="M23.8474 13.2695C23.8465 12.8117 23.6811 12.3695 23.3812 12.0236C23.0813 11.6777 22.6671 11.4512 22.214 11.3854C21.4149 7.21453 18.0432 4.08203 14.0007 4.08203C9.9582 4.08203 6.58653 7.21453 5.78736 11.3854C5.33459 11.4521 4.92092 11.6795 4.62184 12.0259C4.32276 12.3724 4.1582 12.8148 4.1582 13.2724C4.1582 13.7301 4.32276 14.1725 4.62184 14.519C4.92092 14.8654 5.33459 15.0927 5.78736 15.1595C6.58653 19.3245 9.9582 22.457 14.0007 22.457C18.0432 22.457 21.4149 19.3245 22.214 15.1654C22.6686 15.0981 23.0837 14.8696 23.3836 14.5215C23.6835 14.1734 23.8481 13.729 23.8474 13.2695Z" fill="#D18660"/>
<path d="M5.47166 13.3687C5.56855 13.3392 5.65608 13.2849 5.72563 13.2113C5.79519 13.1376 5.84436 13.0471 5.86832 12.9487C6.3132 11.1277 7.35641 9.50881 8.83081 8.35126C10.3052 7.19371 12.1255 6.56453 14 6.56453C15.8745 6.56453 17.6948 7.19371 19.1692 8.35126C20.6436 9.50881 21.6868 11.1277 22.1317 12.9487C22.1556 13.0471 22.2048 13.1376 22.2743 13.2113C22.3439 13.2849 22.4314 13.3392 22.5283 13.3687C22.9775 13.4998 23.362 13.7929 23.6075 14.1912C23.7648 13.9095 23.8472 13.5922 23.8467 13.2695C23.8458 12.8117 23.6804 12.3695 23.3805 12.0236C23.0806 11.6777 22.6664 11.4512 22.2133 11.3854C21.4142 7.21453 18.0425 4.08203 14 4.08203C9.95749 4.08203 6.58582 7.21453 5.78666 11.3854C5.33362 11.4512 4.91935 11.6777 4.61949 12.0236C4.31963 12.3695 4.15417 12.8117 4.15332 13.2695C4.15282 13.5922 4.23517 13.9095 4.39249 14.1912C4.638 13.7929 5.02253 13.4998 5.47166 13.3687Z" fill="#E09F7E"/>
<path d="M23.8474 13.2695C23.8465 12.8117 23.6811 12.3695 23.3812 12.0236C23.0813 11.6777 22.6671 11.4512 22.214 11.3854C21.4149 7.21453 18.0432 4.08203 14.0007 4.08203C9.9582 4.08203 6.58653 7.21453 5.78736 11.3854C5.33459 11.4521 4.92092 11.6795 4.62184 12.0259C4.32276 12.3724 4.1582 12.8148 4.1582 13.2724C4.1582 13.7301 4.32276 14.1725 4.62184 14.519C4.92092 14.8654 5.33459 15.0927 5.78736 15.1595C6.58653 19.3245 9.9582 22.457 14.0007 22.457C18.0432 22.457 21.4149 19.3245 22.214 15.1654C22.6686 15.0981 23.0837 14.8696 23.3836 14.5215C23.6835 14.1734 23.8481 13.729 23.8474 13.2695Z" stroke="#45413C" stroke-linecap="round" stroke-linejoin="round"/>
<path d="M9.07129 12.7742C9.07129 12.9127 9.11234 13.048 9.18926 13.1631C9.26618 13.2782 9.3755 13.368 9.50341 13.4209C9.63132 13.4739 9.77207 13.4878 9.90785 13.4608C10.0436 13.4338 10.1684 13.3671 10.2663 13.2692C10.3642 13.1713 10.4308 13.0466 10.4578 12.9108C10.4848 12.775 10.471 12.6342 10.418 12.5063C10.365 12.3784 10.2753 12.2691 10.1602 12.1922C10.0451 12.1153 9.90974 12.0742 9.77129 12.0742C9.58564 12.0742 9.40759 12.148 9.27631 12.2792C9.14504 12.4105 9.07129 12.5886 9.07129 12.7742ZM18.9296 12.7742C18.9296 12.9127 18.8886 13.048 18.8117 13.1631C18.7347 13.2782 18.6254 13.368 18.4975 13.4209C18.3696 13.4739 18.2288 13.4878 18.0931 13.4608C17.9573 13.4338 17.8325 13.3671 17.7346 13.2692C17.6368 13.1713 17.5701 13.0466 17.5431 12.9108C17.5161 12.775 17.5299 12.6342 17.5829 12.5063C17.6359 12.3784 17.7256 12.2691 17.8407 12.1922C17.9558 12.1153 18.0912 12.0742 18.2296 12.0742C18.4153 12.0742 18.5933 12.148 18.7246 12.2792C18.8559 12.4105 18.9296 12.5886 18.9296 12.7742Z" fill="#45413C" stroke="#45413C" stroke-linecap="round" stroke-linejoin="round"/>
<path d="M11.4276 17.0332C11.3699 17.0335 11.313 17.0461 11.2607 17.0702C11.2084 17.0944 11.1618 17.1295 11.1243 17.1732C11.0863 17.2167 11.0583 17.2679 11.0422 17.3233C11.026 17.3787 11.0222 17.437 11.0309 17.494C11.1479 18.197 11.5105 18.8357 12.0542 19.2964C12.5979 19.7571 13.2874 20.0099 14.0001 20.0099C14.7127 20.0099 15.4023 19.7571 15.946 19.2964C16.4897 18.8357 16.8523 18.197 16.9693 17.494C16.978 17.437 16.9741 17.3787 16.958 17.3233C16.9419 17.2679 16.9139 17.2167 16.8759 17.1732C16.8383 17.1295 16.7918 17.0944 16.7395 17.0702C16.6871 17.0461 16.6302 17.0335 16.5726 17.0332H11.4276Z" fill="#FF6242"/>
<path d="M13.9996 18.2698C13.1806 18.2412 12.3756 18.4877 11.7129 18.9698C11.9981 19.2956 12.3497 19.5567 12.7441 19.7356C13.1385 19.9145 13.5665 20.0071 13.9996 20.0071C14.4326 20.0071 14.8606 19.9145 15.255 19.7356C15.6494 19.5567 16.001 19.2956 16.2862 18.9698C15.6236 18.4877 14.8186 18.2412 13.9996 18.2698Z" fill="#FFA694"/>
<path d="M11.4276 17.0332C11.3699 17.0335 11.313 17.0461 11.2607 17.0702C11.2084 17.0944 11.1618 17.1295 11.1243 17.1732C11.0863 17.2167 11.0583 17.2679 11.0422 17.3233C11.026 17.3787 11.0222 17.437 11.0309 17.494C11.1479 18.197 11.5105 18.8357 12.0542 19.2964C12.5979 19.7571 13.2874 20.0099 14.0001 20.0099C14.7127 20.0099 15.4023 19.7571 15.946 19.2964C16.4897 18.8357 16.8523 18.197 16.9693 17.494C16.978 17.437 16.9741 17.3787 16.958 17.3233C16.9419 17.2679 16.9139 17.2167 16.8759 17.1732C16.8383 17.1295 16.7918 17.0944 16.7395 17.0702C16.6871 17.0461 16.6302 17.0335 16.5726 17.0332H11.4276Z" stroke="#45413C" stroke-linecap="round" stroke-linejoin="round"/>
<path d="M7.70605 15.7554C7.70605 15.8993 7.80131 16.0373 7.97088 16.139C8.14044 16.2407 8.37042 16.2979 8.61022 16.2979C8.85002 16.2979 9.08 16.2407 9.24956 16.139C9.41913 16.0373 9.51439 15.8993 9.51439 15.7554C9.51439 15.6115 9.41913 15.4735 9.24956 15.3718C9.08 15.27 8.85002 15.2129 8.61022 15.2129C8.37042 15.2129 8.14044 15.27 7.97088 15.3718C7.80131 15.4735 7.70605 15.6115 7.70605 15.7554ZM18.4861 15.7554C18.4861 15.8993 18.5813 16.0373 18.7509 16.139C18.9204 16.2407 19.1504 16.2979 19.3902 16.2979C19.63 16.2979 19.86 16.2407 20.0296 16.139C20.1991 16.0373 20.2944 15.8993 20.2944 15.7554C20.2944 15.6115 20.1991 15.4735 20.0296 15.3718C19.86 15.27 19.63 15.2129 19.3902 15.2129C19.1504 15.2129 18.9204 15.27 18.7509 15.3718C18.5813 15.4735 18.4861 15.6115 18.4861 15.7554Z" fill="#BD704A"/>
<path d="M16.6428 6.18329C16.6447 5.66485 16.493 5.15746 16.2068 4.72512C15.9207 4.29278 15.513 3.95485 15.035 3.75394C14.5571 3.55304 14.0304 3.49815 13.5213 3.59621C13.0122 3.69427 12.5436 3.94089 12.1745 4.30496C12.3362 4.25095 12.5056 4.22338 12.6761 4.22329C12.9406 4.22381 13.2006 4.29168 13.4316 4.4205C13.6626 4.54931 13.857 4.73483 13.9964 4.95957C14.1359 5.1843 14.2158 5.44085 14.2287 5.70502C14.2416 5.96919 14.1869 6.23229 14.07 6.46951C13.953 6.70674 13.7776 6.91027 13.5602 7.06092C13.3428 7.21157 13.0906 7.30439 12.8275 7.33061C12.5643 7.35684 12.2987 7.31561 12.0559 7.21081C11.8131 7.10601 11.6009 6.9411 11.4395 6.73162C11.5755 7.36678 11.9417 7.92916 12.4675 8.31048C12.9934 8.69181 13.6417 8.86512 14.2877 8.79704C14.9336 8.72897 15.5316 8.42432 15.9664 7.94176C16.4012 7.4592 16.6421 6.83285 16.6428 6.18329Z" fill="#614B44"/>
<path d="M14.0697 5.08805C14.6298 5.23813 15.1248 5.56864 15.478 6.02841C15.8313 6.48818 16.0231 7.05157 16.0239 7.63138C16.0297 7.72268 16.0297 7.81425 16.0239 7.90555C16.4693 7.39206 16.6987 6.72608 16.664 6.0472C16.6293 5.36831 16.3331 4.72922 15.8376 4.26387C15.3421 3.79852 14.6857 3.54304 14.0059 3.55096C13.3262 3.55889 12.6759 3.82961 12.1914 4.30638C12.3532 4.25238 12.5225 4.2248 12.6931 4.22472C12.9799 4.2273 13.2604 4.30936 13.5035 4.46176C13.7465 4.61417 13.9425 4.83096 14.0697 5.08805Z" fill="#947063"/>
<path d="M16.6428 6.18329C16.6447 5.66485 16.493 5.15746 16.2068 4.72512C15.9207 4.29278 15.513 3.95485 15.035 3.75394C14.5571 3.55304 14.0304 3.49815 13.5213 3.59621C13.0122 3.69427 12.5436 3.94089 12.1745 4.30496C12.3362 4.25095 12.5056 4.22338 12.6761 4.22329C12.9406 4.22381 13.2006 4.29168 13.4316 4.4205C13.6626 4.54931 13.857 4.73483 13.9964 4.95957C14.1359 5.1843 14.2158 5.44085 14.2287 5.70502C14.2416 5.96919 14.1869 6.23229 14.07 6.46951C13.953 6.70674 13.7776 6.91027 13.5602 7.06092C13.3428 7.21157 13.0906 7.30439 12.8275 7.33061C12.5643 7.35684 12.2987 7.31561 12.0559 7.21081C11.8131 7.10601 11.6009 6.9411 11.4395 6.73162C11.5755 7.36678 11.9417 7.92916 12.4675 8.31048C12.9934 8.69181 13.6417 8.86512 14.2877 8.79704C14.9336 8.72897 15.5316 8.42432 15.9664 7.94176C16.4012 7.4592 16.6421 6.83285 16.6428 6.18329Z" stroke="#45413C" stroke-linecap="round" stroke-linejoin="round"/>
</svg>
