<svg width="20" height="20" viewBox="0 0 20 20" fill="none" xmlns="http://www.w3.org/2000/svg">
<path d="M4.14551 14.3984C4.68423 14.3984 5.20089 14.1844 5.58182 13.8035C5.96275 13.4226 6.17676 12.9059 6.17676 12.3672C6.17676 11.8285 5.96275 11.3118 5.58182 10.9309C5.20089 10.5499 4.68423 10.3359 4.14551 10.3359C3.60679 10.3359 3.09013 10.5499 2.7092 10.9309C2.32826 11.3118 2.11426 11.8285 2.11426 12.3672C2.11426 12.9059 2.32826 13.4226 2.7092 13.8035C3.09013 14.1844 3.60679 14.3984 4.14551 14.3984Z" fill="url(#paint0_linear_793_4691)"/>
<path d="M4.14551 14.3984C4.68423 14.3984 5.20089 14.1844 5.58182 13.8035C5.96275 13.4226 6.17676 12.9059 6.17676 12.3672C6.17676 11.8285 5.96275 11.3118 5.58182 10.9309C5.20089 10.5499 4.68423 10.3359 4.14551 10.3359C3.60679 10.3359 3.09013 10.5499 2.7092 10.9309C2.32826 11.3118 2.11426 11.8285 2.11426 12.3672C2.11426 12.9059 2.32826 13.4226 2.7092 13.8035C3.09013 14.1844 3.60679 14.3984 4.14551 14.3984Z" fill="url(#paint1_radial_793_4691)"/>
<g filter="url(#filter0_f_793_4691)">
<path d="M4.14531 13.6285C4.48015 13.6285 4.80127 13.4955 5.03803 13.2587C5.2748 13.022 5.40781 12.7009 5.40781 12.366C5.40781 12.0312 5.2748 11.7101 5.03803 11.4733C4.80127 11.2365 4.48015 11.1035 4.14531 11.1035C3.81048 11.1035 3.48935 11.2365 3.25259 11.4733C3.01583 11.7101 2.88281 12.0312 2.88281 12.366C2.88281 12.7009 3.01583 13.022 3.25259 13.2587C3.48935 13.4955 3.81048 13.6285 4.14531 13.6285Z" fill="url(#paint2_radial_793_4691)"/>
</g>
<path d="M16.0205 14.3984C16.5592 14.3984 17.0759 14.1844 17.4568 13.8035C17.8378 13.4226 18.0518 12.9059 18.0518 12.3672C18.0518 11.8285 17.8378 11.3118 17.4568 10.9309C17.0759 10.5499 16.5592 10.3359 16.0205 10.3359C15.4818 10.3359 14.9651 10.5499 14.5842 10.9309C14.2033 11.3118 13.9893 11.8285 13.9893 12.3672C13.9893 12.9059 14.2033 13.4226 14.5842 13.8035C14.9651 14.1844 15.4818 14.3984 16.0205 14.3984Z" fill="url(#paint3_linear_793_4691)"/>
<path d="M16.0205 14.3984C16.5592 14.3984 17.0759 14.1844 17.4568 13.8035C17.8378 13.4226 18.0518 12.9059 18.0518 12.3672C18.0518 11.8285 17.8378 11.3118 17.4568 10.9309C17.0759 10.5499 16.5592 10.3359 16.0205 10.3359C15.4818 10.3359 14.9651 10.5499 14.5842 10.9309C14.2033 11.3118 13.9893 11.8285 13.9893 12.3672C13.9893 12.9059 14.2033 13.4226 14.5842 13.8035C14.9651 14.1844 15.4818 14.3984 16.0205 14.3984Z" fill="url(#paint4_radial_793_4691)"/>
<path d="M16.0205 14.3984C16.5592 14.3984 17.0759 14.1844 17.4568 13.8035C17.8378 13.4226 18.0518 12.9059 18.0518 12.3672C18.0518 11.8285 17.8378 11.3118 17.4568 10.9309C17.0759 10.5499 16.5592 10.3359 16.0205 10.3359C15.4818 10.3359 14.9651 10.5499 14.5842 10.9309C14.2033 11.3118 13.9893 11.8285 13.9893 12.3672C13.9893 12.9059 14.2033 13.4226 14.5842 13.8035C14.9651 14.1844 15.4818 14.3984 16.0205 14.3984Z" fill="url(#paint5_radial_793_4691)"/>
<path d="M16.0205 14.3984C16.5592 14.3984 17.0759 14.1844 17.4568 13.8035C17.8378 13.4226 18.0518 12.9059 18.0518 12.3672C18.0518 11.8285 17.8378 11.3118 17.4568 10.9309C17.0759 10.5499 16.5592 10.3359 16.0205 10.3359C15.4818 10.3359 14.9651 10.5499 14.5842 10.9309C14.2033 11.3118 13.9893 11.8285 13.9893 12.3672C13.9893 12.9059 14.2033 13.4226 14.5842 13.8035C14.9651 14.1844 15.4818 14.3984 16.0205 14.3984Z" fill="url(#paint6_radial_793_4691)"/>
<g filter="url(#filter1_f_793_4691)">
<path d="M16.0207 13.6677C16.1915 13.6677 16.3606 13.634 16.5184 13.5687C16.6762 13.5033 16.8196 13.4075 16.9403 13.2867C17.0611 13.1659 17.1569 13.0226 17.2223 12.8648C17.2876 12.707 17.3213 12.5378 17.3213 12.367C17.3213 12.1962 17.2876 12.0271 17.2223 11.8693C17.1569 11.7115 17.0611 11.5681 16.9403 11.4474C16.8196 11.3266 16.6762 11.2308 16.5184 11.1654C16.3606 11.1 16.1915 11.0664 16.0207 11.0664C15.6756 11.0664 15.3447 11.2035 15.1008 11.4474C14.8568 11.6914 14.7197 12.0223 14.7197 12.3673C14.7197 12.7124 14.8568 13.0433 15.1008 13.2872C15.3447 13.5312 15.6756 13.6677 16.0207 13.6677Z" fill="url(#paint7_radial_793_4691)"/>
</g>
<g filter="url(#filter2_ii_793_4691)">
<path d="M14.6014 3.59336C13.6459 2.87194 12.4824 2.47943 11.2852 2.47461H8.9064C7.72015 2.47461 6.55953 2.86836 5.59015 3.59336C3.93828 4.83711 3.04515 6.90586 3.24953 9.02461L3.81078 14.0946C3.99578 16.0571 5.2964 17.7071 7.1014 18.2696C9.05328 18.8759 11.1389 18.8759 13.0902 18.2696C14.8945 17.7071 16.1958 16.0571 16.3808 14.0946L16.942 9.02524C17.1458 6.90649 16.2533 4.83711 14.6014 3.59336Z" fill="url(#paint8_linear_793_4691)"/>
<path d="M14.6014 3.59336C13.6459 2.87194 12.4824 2.47943 11.2852 2.47461H8.9064C7.72015 2.47461 6.55953 2.86836 5.59015 3.59336C3.93828 4.83711 3.04515 6.90586 3.24953 9.02461L3.81078 14.0946C3.99578 16.0571 5.2964 17.7071 7.1014 18.2696C9.05328 18.8759 11.1389 18.8759 13.0902 18.2696C14.8945 17.7071 16.1958 16.0571 16.3808 14.0946L16.942 9.02524C17.1458 6.90649 16.2533 4.83711 14.6014 3.59336Z" fill="url(#paint9_linear_793_4691)"/>
<path d="M14.6014 3.59336C13.6459 2.87194 12.4824 2.47943 11.2852 2.47461H8.9064C7.72015 2.47461 6.55953 2.86836 5.59015 3.59336C3.93828 4.83711 3.04515 6.90586 3.24953 9.02461L3.81078 14.0946C3.99578 16.0571 5.2964 17.7071 7.1014 18.2696C9.05328 18.8759 11.1389 18.8759 13.0902 18.2696C14.8945 17.7071 16.1958 16.0571 16.3808 14.0946L16.942 9.02524C17.1458 6.90649 16.2533 4.83711 14.6014 3.59336Z" fill="url(#paint10_linear_793_4691)"/>
<path d="M14.6014 3.59336C13.6459 2.87194 12.4824 2.47943 11.2852 2.47461H8.9064C7.72015 2.47461 6.55953 2.86836 5.59015 3.59336C3.93828 4.83711 3.04515 6.90586 3.24953 9.02461L3.81078 14.0946C3.99578 16.0571 5.2964 17.7071 7.1014 18.2696C9.05328 18.8759 11.1389 18.8759 13.0902 18.2696C14.8945 17.7071 16.1958 16.0571 16.3808 14.0946L16.942 9.02524C17.1458 6.90649 16.2533 4.83711 14.6014 3.59336Z" fill="url(#paint11_radial_793_4691)"/>
<path d="M14.6014 3.59336C13.6459 2.87194 12.4824 2.47943 11.2852 2.47461H8.9064C7.72015 2.47461 6.55953 2.86836 5.59015 3.59336C3.93828 4.83711 3.04515 6.90586 3.24953 9.02461L3.81078 14.0946C3.99578 16.0571 5.2964 17.7071 7.1014 18.2696C9.05328 18.8759 11.1389 18.8759 13.0902 18.2696C14.8945 17.7071 16.1958 16.0571 16.3808 14.0946L16.942 9.02524C17.1458 6.90649 16.2533 4.83711 14.6014 3.59336Z" fill="url(#paint12_radial_793_4691)"/>
<path d="M14.6014 3.59336C13.6459 2.87194 12.4824 2.47943 11.2852 2.47461H8.9064C7.72015 2.47461 6.55953 2.86836 5.59015 3.59336C3.93828 4.83711 3.04515 6.90586 3.24953 9.02461L3.81078 14.0946C3.99578 16.0571 5.2964 17.7071 7.1014 18.2696C9.05328 18.8759 11.1389 18.8759 13.0902 18.2696C14.8945 17.7071 16.1958 16.0571 16.3808 14.0946L16.942 9.02524C17.1458 6.90649 16.2533 4.83711 14.6014 3.59336Z" fill="url(#paint13_radial_793_4691)"/>
<path d="M14.6014 3.59336C13.6459 2.87194 12.4824 2.47943 11.2852 2.47461H8.9064C7.72015 2.47461 6.55953 2.86836 5.59015 3.59336C3.93828 4.83711 3.04515 6.90586 3.24953 9.02461L3.81078 14.0946C3.99578 16.0571 5.2964 17.7071 7.1014 18.2696C9.05328 18.8759 11.1389 18.8759 13.0902 18.2696C14.8945 17.7071 16.1958 16.0571 16.3808 14.0946L16.942 9.02524C17.1458 6.90649 16.2533 4.83711 14.6014 3.59336Z" fill="url(#paint14_radial_793_4691)"/>
<path d="M14.6014 3.59336C13.6459 2.87194 12.4824 2.47943 11.2852 2.47461H8.9064C7.72015 2.47461 6.55953 2.86836 5.59015 3.59336C3.93828 4.83711 3.04515 6.90586 3.24953 9.02461L3.81078 14.0946C3.99578 16.0571 5.2964 17.7071 7.1014 18.2696C9.05328 18.8759 11.1389 18.8759 13.0902 18.2696C14.8945 17.7071 16.1958 16.0571 16.3808 14.0946L16.942 9.02524C17.1458 6.90649 16.2533 4.83711 14.6014 3.59336Z" fill="url(#paint15_radial_793_4691)"/>
<path d="M14.6014 3.59336C13.6459 2.87194 12.4824 2.47943 11.2852 2.47461H8.9064C7.72015 2.47461 6.55953 2.86836 5.59015 3.59336C3.93828 4.83711 3.04515 6.90586 3.24953 9.02461L3.81078 14.0946C3.99578 16.0571 5.2964 17.7071 7.1014 18.2696C9.05328 18.8759 11.1389 18.8759 13.0902 18.2696C14.8945 17.7071 16.1958 16.0571 16.3808 14.0946L16.942 9.02524C17.1458 6.90649 16.2533 4.83711 14.6014 3.59336Z" fill="url(#paint16_radial_793_4691)"/>
</g>
<path d="M14.6014 3.59336C13.6459 2.87194 12.4824 2.47943 11.2852 2.47461H8.9064C7.72015 2.47461 6.55953 2.86836 5.59015 3.59336C3.93828 4.83711 3.04515 6.90586 3.24953 9.02461L3.81078 14.0946C3.99578 16.0571 5.2964 17.7071 7.1014 18.2696C9.05328 18.8759 11.1389 18.8759 13.0902 18.2696C14.8945 17.7071 16.1958 16.0571 16.3808 14.0946L16.942 9.02524C17.1458 6.90649 16.2533 4.83711 14.6014 3.59336Z" fill="url(#paint17_linear_793_4691)"/>
<path d="M14.6014 3.59336C13.6459 2.87194 12.4824 2.47943 11.2852 2.47461H8.9064C7.72015 2.47461 6.55953 2.86836 5.59015 3.59336C3.93828 4.83711 3.04515 6.90586 3.24953 9.02461L3.81078 14.0946C3.99578 16.0571 5.2964 17.7071 7.1014 18.2696C9.05328 18.8759 11.1389 18.8759 13.0902 18.2696C14.8945 17.7071 16.1958 16.0571 16.3808 14.0946L16.942 9.02524C17.1458 6.90649 16.2533 4.83711 14.6014 3.59336Z" fill="url(#paint18_radial_793_4691)"/>
<g filter="url(#filter3_f_793_4691)">
<path d="M8.22072 14.5002C7.99134 14.3771 7.74759 14.6396 7.89197 14.8627L7.93134 14.8365C8.16243 15.198 8.48078 15.4955 8.85706 15.7016C9.23334 15.9077 9.65544 16.0158 10.0845 16.0159C10.5133 16.015 10.9351 15.9065 11.3113 15.7005C11.6874 15.4945 12.0059 15.1974 12.2376 14.8365C12.3495 14.6615 12.1563 14.4477 11.9701 14.5421C11.3854 14.8445 10.7364 15.0014 10.0782 14.9996C9.4238 15.0029 8.77853 14.8458 8.19884 14.5421L8.22072 14.5002Z" stroke="url(#paint19_linear_793_4691)" stroke-width="0.15"/>
</g>
<g filter="url(#filter4_i_793_4691)">
<path d="M10.0779 14.999C9.4235 15.0023 8.77824 14.8452 8.19855 14.5415C8.01167 14.4409 7.81292 14.654 7.93105 14.8359C8.16214 15.1973 8.48049 15.4948 8.85677 15.7009C9.23304 15.907 9.65515 16.0151 10.0842 16.0152C10.513 16.0143 10.9349 15.9059 11.311 15.6999C11.6871 15.4938 12.0056 15.1968 12.2373 14.8359C12.3492 14.6609 12.156 14.4471 11.9698 14.5415C11.3851 14.8438 10.7362 15.0007 10.0779 14.999Z" fill="#89024E"/>
</g>
<path d="M13.0266 10.6875C14.0329 10.6875 14.8829 11.3812 15.1141 12.3187C15.1829 12.5875 14.9766 12.8437 14.7016 12.8437H11.2641C11.0454 12.8437 10.8704 12.6437 10.9141 12.425C11.1079 11.4375 11.9766 10.6875 13.0266 10.6875ZM6.77661 10.6875C5.77036 10.6875 4.92036 11.3812 4.68911 12.3187C4.62036 12.5875 4.82661 12.8437 5.10161 12.8437H8.53911C8.75786 12.8437 8.93286 12.6437 8.88911 12.425C8.79181 11.936 8.52824 11.4957 8.14315 11.179C7.75806 10.8623 7.27521 10.6886 6.77661 10.6875Z" fill="white"/>
<path d="M12.7074 11.1055C12.9188 11.1057 13.1273 11.1546 13.3167 11.2485C13.5061 11.3423 13.6713 11.4786 13.7994 11.6467C13.9276 11.8148 14.0153 12.0101 14.0557 12.2176C14.0961 12.4251 14.0881 12.6391 14.0324 12.843H11.3762C11.3449 12.7242 11.3262 12.6055 11.3262 12.4805C11.3262 11.7242 11.9449 11.1055 12.7074 11.1055Z" fill="url(#paint20_radial_793_4691)"/>
<path d="M7.09532 11.1055C6.88395 11.1057 6.67547 11.1546 6.48608 11.2485C6.2967 11.3423 6.1315 11.4786 6.00332 11.6467C5.87515 11.8148 5.78745 12.0101 5.74704 12.2176C5.70663 12.4251 5.7146 12.6391 5.77032 12.843H8.42657C8.45782 12.7242 8.47657 12.6055 8.47657 12.4805C8.47032 11.7242 7.85782 11.1055 7.09532 11.1055Z" fill="url(#paint21_radial_793_4691)"/>
<path d="M11.9201 12.4809C11.9201 12.0434 12.2701 11.6934 12.7076 11.6934C13.1451 11.6934 13.4951 12.0434 13.4951 12.4809C13.4951 12.6121 13.4639 12.7371 13.4076 12.8434H12.0139C11.9514 12.7371 11.9201 12.6121 11.9201 12.4809ZM7.88262 12.4809C7.88262 12.0434 7.53262 11.6934 7.09512 11.6934C6.65762 11.6934 6.30762 12.0434 6.30762 12.4809C6.30762 12.6121 6.33887 12.7371 6.39512 12.8434H7.78887C7.84512 12.7371 7.88262 12.6121 7.88262 12.4809Z" fill="black"/>
<g filter="url(#filter5_i_793_4691)">
<path d="M6.00781 9.44795C6.37656 9.3167 6.88906 9.22295 7.55156 9.28545" stroke="#1F1917" stroke-miterlimit="10" stroke-linecap="round" stroke-linejoin="round"/>
</g>
<g filter="url(#filter6_f_793_4691)">
<path d="M6.04297 9.38936C6.41172 9.25811 6.92422 9.16436 7.58672 9.22686" stroke="url(#paint22_linear_793_4691)" stroke-width="0.3" stroke-miterlimit="10" stroke-linecap="round" stroke-linejoin="round"/>
</g>
<g filter="url(#filter7_f_793_4691)">
<path d="M11.5517 5.71547L14.2767 4.26172C16.0104 5.51172 16.0886 7.77109 16.0104 8.38297L12.5648 8.85172C12.1757 8.90435 11.7805 8.81855 11.4482 8.60934C11.116 8.40012 10.8678 8.08078 10.7471 7.70715C10.6264 7.33351 10.6408 6.92934 10.7879 6.56528C10.935 6.20122 11.2053 5.90042 11.5517 5.71547Z" fill="url(#paint23_linear_793_4691)"/>
</g>
<g filter="url(#filter8_f_793_4691)">
<path d="M10.1578 1.8767C9.23719 1.73795 8.43469 1.87482 7.91406 2.57045C9.16031 2.57045 10.8641 3.33545 10.6172 4.97232C10.5478 5.43232 10.4834 5.73482 10.1578 6.01607C10.1053 6.05946 10.0687 6.11906 10.0537 6.1855C10.0388 6.25194 10.0463 6.32148 10.0751 6.38319C10.1039 6.4449 10.1524 6.4953 10.213 6.52647C10.2735 6.55765 10.3427 6.56784 10.4097 6.55545C11.3991 6.36607 12.0409 5.6567 12.1878 4.5992C12.3741 3.29607 11.4603 2.0742 10.1578 1.8767Z" fill="url(#paint24_linear_793_4691)"/>
</g>
<g filter="url(#filter9_i_793_4691)">
<path d="M9.89453 1.27365C9.40999 1.26751 8.93292 1.39342 8.51451 1.63786C8.0961 1.8823 7.75214 2.23605 7.51953 2.66115C7.90703 2.57365 8.30078 2.52365 8.69453 2.52365H8.78828C9.91953 2.52365 10.8695 3.44865 10.8633 4.5799C10.857 5.0924 10.6695 5.5549 10.357 5.91115C10.3066 5.96647 10.2759 6.03694 10.2697 6.11156C10.2636 6.18617 10.2823 6.26072 10.323 6.32355C10.3637 6.38639 10.4241 6.43397 10.4947 6.45886C10.5653 6.48376 10.6422 6.48456 10.7133 6.46115C11.2405 6.28189 11.6983 5.9419 12.0223 5.48899C12.3463 5.03608 12.5202 4.49302 12.5195 3.93615C12.5258 2.48615 11.3445 1.2924 9.89453 1.27365Z" fill="#222120"/>
<path d="M9.89453 1.27365C9.40999 1.26751 8.93292 1.39342 8.51451 1.63786C8.0961 1.8823 7.75214 2.23605 7.51953 2.66115C7.90703 2.57365 8.30078 2.52365 8.69453 2.52365H8.78828C9.91953 2.52365 10.8695 3.44865 10.8633 4.5799C10.857 5.0924 10.6695 5.5549 10.357 5.91115C10.3066 5.96647 10.2759 6.03694 10.2697 6.11156C10.2636 6.18617 10.2823 6.26072 10.323 6.32355C10.3637 6.38639 10.4241 6.43397 10.4947 6.45886C10.5653 6.48376 10.6422 6.48456 10.7133 6.46115C11.2405 6.28189 11.6983 5.9419 12.0223 5.48899C12.3463 5.03608 12.5202 4.49302 12.5195 3.93615C12.5258 2.48615 11.3445 1.2924 9.89453 1.27365Z" fill="url(#paint25_radial_793_4691)"/>
<path d="M9.89453 1.27365C9.40999 1.26751 8.93292 1.39342 8.51451 1.63786C8.0961 1.8823 7.75214 2.23605 7.51953 2.66115C7.90703 2.57365 8.30078 2.52365 8.69453 2.52365H8.78828C9.91953 2.52365 10.8695 3.44865 10.8633 4.5799C10.857 5.0924 10.6695 5.5549 10.357 5.91115C10.3066 5.96647 10.2759 6.03694 10.2697 6.11156C10.2636 6.18617 10.2823 6.26072 10.323 6.32355C10.3637 6.38639 10.4241 6.43397 10.4947 6.45886C10.5653 6.48376 10.6422 6.48456 10.7133 6.46115C11.2405 6.28189 11.6983 5.9419 12.0223 5.48899C12.3463 5.03608 12.5202 4.49302 12.5195 3.93615C12.5258 2.48615 11.3445 1.2924 9.89453 1.27365Z" fill="url(#paint26_radial_793_4691)"/>
<path d="M9.89453 1.27365C9.40999 1.26751 8.93292 1.39342 8.51451 1.63786C8.0961 1.8823 7.75214 2.23605 7.51953 2.66115C7.90703 2.57365 8.30078 2.52365 8.69453 2.52365H8.78828C9.91953 2.52365 10.8695 3.44865 10.8633 4.5799C10.857 5.0924 10.6695 5.5549 10.357 5.91115C10.3066 5.96647 10.2759 6.03694 10.2697 6.11156C10.2636 6.18617 10.2823 6.26072 10.323 6.32355C10.3637 6.38639 10.4241 6.43397 10.4947 6.45886C10.5653 6.48376 10.6422 6.48456 10.7133 6.46115C11.2405 6.28189 11.6983 5.9419 12.0223 5.48899C12.3463 5.03608 12.5202 4.49302 12.5195 3.93615C12.5258 2.48615 11.3445 1.2924 9.89453 1.27365Z" fill="url(#paint27_radial_793_4691)"/>
<path d="M9.89453 1.27365C9.40999 1.26751 8.93292 1.39342 8.51451 1.63786C8.0961 1.8823 7.75214 2.23605 7.51953 2.66115C7.90703 2.57365 8.30078 2.52365 8.69453 2.52365H8.78828C9.91953 2.52365 10.8695 3.44865 10.8633 4.5799C10.857 5.0924 10.6695 5.5549 10.357 5.91115C10.3066 5.96647 10.2759 6.03694 10.2697 6.11156C10.2636 6.18617 10.2823 6.26072 10.323 6.32355C10.3637 6.38639 10.4241 6.43397 10.4947 6.45886C10.5653 6.48376 10.6422 6.48456 10.7133 6.46115C11.2405 6.28189 11.6983 5.9419 12.0223 5.48899C12.3463 5.03608 12.5202 4.49302 12.5195 3.93615C12.5258 2.48615 11.3445 1.2924 9.89453 1.27365Z" fill="url(#paint28_radial_793_4691)"/>
</g>
<g filter="url(#filter10_f_793_4691)">
<path d="M10.0014 14.3984C10.3201 14.3984 10.6045 14.2234 10.767 13.9596C10.9158 13.7184 10.7601 13.3965 10.4889 13.3965H9.5139C9.24327 13.3965 9.08077 13.7252 9.2364 13.959C9.3989 14.2302 9.68327 14.3984 10.0014 14.3984Z" fill="#DA9C94"/>
</g>
<g filter="url(#filter11_f_793_4691)">
<path d="M10.0838 14.1802C10.4025 14.1802 10.6863 14.004 10.8494 13.7409C10.9982 13.4996 10.8425 13.1777 10.5713 13.1777H9.5963C9.32505 13.1777 9.16255 13.5071 9.3188 13.7409C9.4813 14.0115 9.76567 14.1796 10.0838 14.1796" fill="url(#paint29_radial_793_4691)"/>
<path d="M10.0838 14.1802C10.4025 14.1802 10.6863 14.004 10.8494 13.7409C10.9982 13.4996 10.8425 13.1777 10.5713 13.1777H9.5963C9.32505 13.1777 9.16255 13.5071 9.3188 13.7409C9.4813 14.0115 9.76567 14.1796 10.0838 14.1796" fill="url(#paint30_radial_793_4691)"/>
</g>
<g filter="url(#filter12_f_793_4691)">
<path d="M12.6067 11.3954C12.7048 11.5267 12.5004 11.6867 12.2673 11.8604C12.0342 12.0348 11.861 12.1573 11.7635 12.026C11.6654 11.8948 11.7748 11.6479 12.0073 11.4735C12.2404 11.2998 12.5085 11.2648 12.6067 11.3954Z" fill="#C7A7A3"/>
<path d="M12.6067 11.3954C12.7048 11.5267 12.5004 11.6867 12.2673 11.8604C12.0342 12.0348 11.861 12.1573 11.7635 12.026C11.6654 11.8948 11.7748 11.6479 12.0073 11.4735C12.2404 11.2998 12.5085 11.2648 12.6067 11.3954Z" fill="url(#paint31_radial_793_4691)"/>
</g>
<g filter="url(#filter13_f_793_4691)">
<path d="M13.932 12.2984C13.8911 12.0294 13.7665 11.7801 13.5758 11.5859L13.1758 12.0247L13.3558 12.3766L13.932 12.2984Z" fill="url(#paint32_linear_793_4691)"/>
</g>
<g filter="url(#filter14_f_793_4691)">
<path d="M8.35234 12.3177C8.35234 11.8739 7.99109 11.5777 7.89297 11.4883L7.44922 11.9177L7.72234 12.4739L8.35234 12.3177Z" fill="url(#paint33_linear_793_4691)"/>
</g>
<g filter="url(#filter15_f_793_4691)">
<path d="M6.8224 11.961C7.11522 11.8059 7.28893 11.56 7.21039 11.4117C7.13186 11.2635 6.83082 11.2691 6.538 11.4242C6.24519 11.5793 6.07148 11.8252 6.15001 11.9735C6.22855 12.1217 6.52959 12.1161 6.8224 11.961Z" fill="#C7A7A3" fill-opacity="0.9"/>
<path d="M6.8224 11.961C7.11522 11.8059 7.28893 11.56 7.21039 11.4117C7.13186 11.2635 6.83082 11.2691 6.538 11.4242C6.24519 11.5793 6.07148 11.8252 6.15001 11.9735C6.22855 12.1217 6.52959 12.1161 6.8224 11.961Z" fill="url(#paint34_radial_793_4691)"/>
</g>
<g filter="url(#filter16_i_793_4691)">
<path d="M13.8641 9.44795C13.4953 9.3167 12.9828 9.22295 12.3203 9.28545" stroke="#1F1917" stroke-miterlimit="10" stroke-linecap="round" stroke-linejoin="round"/>
</g>
<g filter="url(#filter17_f_793_4691)">
<path d="M13.8641 9.35811C13.4953 9.22686 12.9828 9.13311 12.3203 9.19561" stroke="url(#paint35_linear_793_4691)" stroke-width="0.3" stroke-miterlimit="10" stroke-linecap="round" stroke-linejoin="round"/>
</g>
<defs>
<filter id="filter0_f_793_4691" x="2.63281" y="10.8535" width="3.02539" height="3.02539" filterUnits="userSpaceOnUse" color-interpolation-filters="sRGB">
<feFlood flood-opacity="0" result="BackgroundImageFix"/>
<feBlend mode="normal" in="SourceGraphic" in2="BackgroundImageFix" result="shape"/>
<feGaussianBlur stdDeviation="0.125" result="effect1_foregroundBlur_793_4691"/>
</filter>
<filter id="filter1_f_793_4691" x="14.4697" y="10.8164" width="3.10156" height="3.10156" filterUnits="userSpaceOnUse" color-interpolation-filters="sRGB">
<feFlood flood-opacity="0" result="BackgroundImageFix"/>
<feBlend mode="normal" in="SourceGraphic" in2="BackgroundImageFix" result="shape"/>
<feGaussianBlur stdDeviation="0.125" result="effect1_foregroundBlur_793_4691"/>
</filter>
<filter id="filter2_ii_793_4691" x="2.8207" y="2.47461" width="15.4" height="16.25" filterUnits="userSpaceOnUse" color-interpolation-filters="sRGB">
<feFlood flood-opacity="0" result="BackgroundImageFix"/>
<feBlend mode="normal" in="SourceGraphic" in2="BackgroundImageFix" result="shape"/>
<feColorMatrix in="SourceAlpha" type="matrix" values="0 0 0 0 0 0 0 0 0 0 0 0 0 0 0 0 0 0 127 0" result="hardAlpha"/>
<feOffset dx="1.25"/>
<feGaussianBlur stdDeviation="1"/>
<feComposite in2="hardAlpha" operator="arithmetic" k2="-1" k3="1"/>
<feColorMatrix type="matrix" values="0 0 0 0 0.905882 0 0 0 0 0.682353 0 0 0 0 0.592157 0 0 0 1 0"/>
<feBlend mode="normal" in2="shape" result="effect1_innerShadow_793_4691"/>
<feColorMatrix in="SourceAlpha" type="matrix" values="0 0 0 0 0 0 0 0 0 0 0 0 0 0 0 0 0 0 127 0" result="hardAlpha"/>
<feOffset dx="-0.4"/>
<feGaussianBlur stdDeviation="0.6"/>
<feComposite in2="hardAlpha" operator="arithmetic" k2="-1" k3="1"/>
<feColorMatrix type="matrix" values="0 0 0 0 1 0 0 0 0 0.85098 0 0 0 0 0.737255 0 0 0 1 0"/>
<feBlend mode="normal" in2="effect1_innerShadow_793_4691" result="effect2_innerShadow_793_4691"/>
</filter>
<filter id="filter3_f_793_4691" x="7.67344" y="14.2926" width="4.77227" height="1.89922" filterUnits="userSpaceOnUse" color-interpolation-filters="sRGB">
<feFlood flood-opacity="0" result="BackgroundImageFix"/>
<feBlend mode="normal" in="SourceGraphic" in2="BackgroundImageFix" result="shape"/>
<feGaussianBlur stdDeviation="0.05" result="effect1_foregroundBlur_793_4691"/>
</filter>
<filter id="filter4_i_793_4691" x="7.89551" y="14.5156" width="4.375" height="1.5" filterUnits="userSpaceOnUse" color-interpolation-filters="sRGB">
<feFlood flood-opacity="0" result="BackgroundImageFix"/>
<feBlend mode="normal" in="SourceGraphic" in2="BackgroundImageFix" result="shape"/>
<feColorMatrix in="SourceAlpha" type="matrix" values="0 0 0 0 0 0 0 0 0 0 0 0 0 0 0 0 0 0 127 0" result="hardAlpha"/>
<feOffset/>
<feGaussianBlur stdDeviation="0.5"/>
<feComposite in2="hardAlpha" operator="arithmetic" k2="-1" k3="1"/>
<feColorMatrix type="matrix" values="0 0 0 0 0.529412 0 0 0 0 0 0 0 0 0 0.301961 0 0 0 1 0"/>
<feBlend mode="normal" in2="shape" result="effect1_innerShadow_793_4691"/>
</filter>
<filter id="filter5_i_793_4691" x="5.50781" y="8.46562" width="2.79395" height="1.48164" filterUnits="userSpaceOnUse" color-interpolation-filters="sRGB">
<feFlood flood-opacity="0" result="BackgroundImageFix"/>
<feBlend mode="normal" in="SourceGraphic" in2="BackgroundImageFix" result="shape"/>
<feColorMatrix in="SourceAlpha" type="matrix" values="0 0 0 0 0 0 0 0 0 0 0 0 0 0 0 0 0 0 127 0" result="hardAlpha"/>
<feOffset dx="0.25" dy="-0.3"/>
<feGaussianBlur stdDeviation="0.25"/>
<feComposite in2="hardAlpha" operator="arithmetic" k2="-1" k3="1"/>
<feColorMatrix type="matrix" values="0 0 0 0 0.105882 0 0 0 0 0.0666667 0 0 0 0 0.0980392 0 0 0 1 0"/>
<feBlend mode="normal" in2="shape" result="effect1_innerShadow_793_4691"/>
</filter>
<filter id="filter6_f_793_4691" x="5.69258" y="8.85664" width="2.24375" height="0.882422" filterUnits="userSpaceOnUse" color-interpolation-filters="sRGB">
<feFlood flood-opacity="0" result="BackgroundImageFix"/>
<feBlend mode="normal" in="SourceGraphic" in2="BackgroundImageFix" result="shape"/>
<feGaussianBlur stdDeviation="0.1" result="effect1_foregroundBlur_793_4691"/>
</filter>
<filter id="filter7_f_793_4691" x="8.16602" y="1.76172" width="10.3643" height="9.60547" filterUnits="userSpaceOnUse" color-interpolation-filters="sRGB">
<feFlood flood-opacity="0" result="BackgroundImageFix"/>
<feBlend mode="normal" in="SourceGraphic" in2="BackgroundImageFix" result="shape"/>
<feGaussianBlur stdDeviation="1.25" result="effect1_foregroundBlur_793_4691"/>
</filter>
<filter id="filter8_f_793_4691" x="7.41406" y="1.32812" width="5.29785" height="5.73242" filterUnits="userSpaceOnUse" color-interpolation-filters="sRGB">
<feFlood flood-opacity="0" result="BackgroundImageFix"/>
<feBlend mode="normal" in="SourceGraphic" in2="BackgroundImageFix" result="shape"/>
<feGaussianBlur stdDeviation="0.25" result="effect1_foregroundBlur_793_4691"/>
</filter>
<filter id="filter9_i_793_4691" x="7.41953" y="1.07344" width="5.1" height="5.40508" filterUnits="userSpaceOnUse" color-interpolation-filters="sRGB">
<feFlood flood-opacity="0" result="BackgroundImageFix"/>
<feBlend mode="normal" in="SourceGraphic" in2="BackgroundImageFix" result="shape"/>
<feColorMatrix in="SourceAlpha" type="matrix" values="0 0 0 0 0 0 0 0 0 0 0 0 0 0 0 0 0 0 127 0" result="hardAlpha"/>
<feOffset dx="-0.1" dy="-0.2"/>
<feGaussianBlur stdDeviation="0.25"/>
<feComposite in2="hardAlpha" operator="arithmetic" k2="-1" k3="1"/>
<feColorMatrix type="matrix" values="0 0 0 0 0.176471 0 0 0 0 0.129412 0 0 0 0 0.121569 0 0 0 1 0"/>
<feBlend mode="normal" in2="shape" result="effect1_innerShadow_793_4691"/>
</filter>
<filter id="filter10_f_793_4691" x="8.67578" y="12.8965" width="2.64844" height="2.00195" filterUnits="userSpaceOnUse" color-interpolation-filters="sRGB">
<feFlood flood-opacity="0" result="BackgroundImageFix"/>
<feBlend mode="normal" in="SourceGraphic" in2="BackgroundImageFix" result="shape"/>
<feGaussianBlur stdDeviation="0.25" result="effect1_foregroundBlur_793_4691"/>
</filter>
<filter id="filter11_f_793_4691" x="9.00781" y="12.9277" width="2.14941" height="1.50195" filterUnits="userSpaceOnUse" color-interpolation-filters="sRGB">
<feFlood flood-opacity="0" result="BackgroundImageFix"/>
<feBlend mode="normal" in="SourceGraphic" in2="BackgroundImageFix" result="shape"/>
<feGaussianBlur stdDeviation="0.125" result="effect1_foregroundBlur_793_4691"/>
</filter>
<filter id="filter12_f_793_4691" x="11.6275" y="11.2164" width="1.1043" height="0.965625" filterUnits="userSpaceOnUse" color-interpolation-filters="sRGB">
<feFlood flood-opacity="0" result="BackgroundImageFix"/>
<feBlend mode="normal" in="SourceGraphic" in2="BackgroundImageFix" result="shape"/>
<feGaussianBlur stdDeviation="0.05" result="effect1_foregroundBlur_793_4691"/>
</filter>
<filter id="filter13_f_793_4691" x="12.9758" y="11.3859" width="1.15586" height="1.19102" filterUnits="userSpaceOnUse" color-interpolation-filters="sRGB">
<feFlood flood-opacity="0" result="BackgroundImageFix"/>
<feBlend mode="normal" in="SourceGraphic" in2="BackgroundImageFix" result="shape"/>
<feGaussianBlur stdDeviation="0.1" result="effect1_foregroundBlur_793_4691"/>
</filter>
<filter id="filter14_f_793_4691" x="7.24922" y="11.2883" width="1.30332" height="1.38633" filterUnits="userSpaceOnUse" color-interpolation-filters="sRGB">
<feFlood flood-opacity="0" result="BackgroundImageFix"/>
<feBlend mode="normal" in="SourceGraphic" in2="BackgroundImageFix" result="shape"/>
<feGaussianBlur stdDeviation="0.1" result="effect1_foregroundBlur_793_4691"/>
</filter>
<filter id="filter15_f_793_4691" x="6.03086" y="11.2047" width="1.29863" height="0.977344" filterUnits="userSpaceOnUse" color-interpolation-filters="sRGB">
<feFlood flood-opacity="0" result="BackgroundImageFix"/>
<feBlend mode="normal" in="SourceGraphic" in2="BackgroundImageFix" result="shape"/>
<feGaussianBlur stdDeviation="0.05" result="effect1_foregroundBlur_793_4691"/>
</filter>
<filter id="filter16_i_793_4691" x="11.5703" y="8.46562" width="2.79395" height="1.48164" filterUnits="userSpaceOnUse" color-interpolation-filters="sRGB">
<feFlood flood-opacity="0" result="BackgroundImageFix"/>
<feBlend mode="normal" in="SourceGraphic" in2="BackgroundImageFix" result="shape"/>
<feColorMatrix in="SourceAlpha" type="matrix" values="0 0 0 0 0 0 0 0 0 0 0 0 0 0 0 0 0 0 127 0" result="hardAlpha"/>
<feOffset dx="-0.25" dy="-0.3"/>
<feGaussianBlur stdDeviation="0.25"/>
<feComposite in2="hardAlpha" operator="arithmetic" k2="-1" k3="1"/>
<feColorMatrix type="matrix" values="0 0 0 0 0.105882 0 0 0 0 0.0666667 0 0 0 0 0.0980392 0 0 0 1 0"/>
<feBlend mode="normal" in2="shape" result="effect1_innerShadow_793_4691"/>
</filter>
<filter id="filter17_f_793_4691" x="11.9699" y="8.82539" width="2.24375" height="0.882422" filterUnits="userSpaceOnUse" color-interpolation-filters="sRGB">
<feFlood flood-opacity="0" result="BackgroundImageFix"/>
<feBlend mode="normal" in="SourceGraphic" in2="BackgroundImageFix" result="shape"/>
<feGaussianBlur stdDeviation="0.1" result="effect1_foregroundBlur_793_4691"/>
</filter>
<linearGradient id="paint0_linear_793_4691" x1="2.44113" y1="10.6484" x2="3.90613" y2="14.3984" gradientUnits="userSpaceOnUse">
<stop stop-color="#D5967D"/>
<stop offset="1" stop-color="#CA8581"/>
</linearGradient>
<radialGradient id="paint1_radial_793_4691" cx="0" cy="0" r="1" gradientUnits="userSpaceOnUse" gradientTransform="translate(4.14542 12.4843) rotate(176.967) scale(2.21502 2.30332)">
<stop offset="0.795" stop-color="#ECB099" stop-opacity="0"/>
<stop offset="1" stop-color="#ECB099"/>
</radialGradient>
<radialGradient id="paint2_radial_793_4691" cx="0" cy="0" r="1" gradientUnits="userSpaceOnUse" gradientTransform="translate(4.14469 12.3654) rotate(90) scale(1.26228)">
<stop stop-color="#CC8A77"/>
<stop offset="1" stop-color="#CF8B77"/>
</radialGradient>
<linearGradient id="paint3_linear_793_4691" x1="17.8224" y1="11.3128" x2="16.208" y2="13.9297" gradientUnits="userSpaceOnUse">
<stop stop-color="#FFDBC1"/>
<stop offset="1" stop-color="#EBB2A3"/>
</linearGradient>
<radialGradient id="paint4_radial_793_4691" cx="0" cy="0" r="1" gradientUnits="userSpaceOnUse" gradientTransform="translate(16.2374 11.6241) rotate(90.948) scale(2.94962 2.82676)">
<stop offset="0.766" stop-color="#C88E90" stop-opacity="0"/>
<stop offset="1" stop-color="#C88E90"/>
</radialGradient>
<radialGradient id="paint5_radial_793_4691" cx="0" cy="0" r="1" gradientUnits="userSpaceOnUse" gradientTransform="translate(16.2374 12.1134) rotate(-48.351) scale(1.73819 1.71524)">
<stop offset="0.586" stop-color="#F7B899"/>
<stop offset="0.883" stop-color="#F7B899" stop-opacity="0"/>
</radialGradient>
<radialGradient id="paint6_radial_793_4691" cx="0" cy="0" r="1" gradientUnits="userSpaceOnUse" gradientTransform="translate(16.3574 12.9241) rotate(-77.9694) scale(2.43632 1.9132)">
<stop offset="0.879" stop-color="#F5C9AE" stop-opacity="0"/>
<stop offset="1" stop-color="#F5C9AE"/>
</radialGradient>
<radialGradient id="paint7_radial_793_4691" cx="0" cy="0" r="1" gradientUnits="userSpaceOnUse" gradientTransform="translate(16.4459 12.4652) rotate(8.973) scale(0.939225 1.38853)">
<stop offset="0.55" stop-color="#F7BCA4"/>
<stop offset="1" stop-color="#F6B799"/>
</radialGradient>
<linearGradient id="paint8_linear_793_4691" x1="5.93765" y1="10.5996" x2="13.047" y2="10.5996" gradientUnits="userSpaceOnUse">
<stop stop-color="#F7C2AD"/>
<stop offset="1" stop-color="#FFD0BA"/>
</linearGradient>
<linearGradient id="paint9_linear_793_4691" x1="10.0958" y1="19.0859" x2="10.0958" y2="15.8827" gradientUnits="userSpaceOnUse">
<stop offset="0.195" stop-color="#BC7F90"/>
<stop offset="1" stop-color="#BC7F90" stop-opacity="0"/>
</linearGradient>
<linearGradient id="paint10_linear_793_4691" x1="4.3364" y1="11.2734" x2="11.3677" y2="13.0702" gradientUnits="userSpaceOnUse">
<stop stop-color="#D6A091"/>
<stop offset="1" stop-color="#D6A091" stop-opacity="0"/>
</linearGradient>
<radialGradient id="paint11_radial_793_4691" cx="0" cy="0" r="1" gradientUnits="userSpaceOnUse" gradientTransform="translate(3.43765 12.2502) rotate(82.1709) scale(6.30881 1.92357)">
<stop stop-color="#EAB09A"/>
<stop offset="1" stop-color="#EAB09A" stop-opacity="0"/>
</radialGradient>
<radialGradient id="paint12_radial_793_4691" cx="0" cy="0" r="1" gradientUnits="userSpaceOnUse" gradientTransform="translate(6.75828 18.724) rotate(-95.4923) scale(8.1625 12.8081)">
<stop offset="0.109" stop-color="#C48A90"/>
<stop offset="1" stop-color="#C48A90" stop-opacity="0"/>
</radialGradient>
<radialGradient id="paint13_radial_793_4691" cx="0" cy="0" r="1" gradientUnits="userSpaceOnUse" gradientTransform="translate(6.91453 11.4884) rotate(-61.8214) scale(1.86122 2.48162)">
<stop offset="0.189" stop-color="#CE9390"/>
<stop offset="1" stop-color="#CE9390" stop-opacity="0"/>
</radialGradient>
<radialGradient id="paint14_radial_793_4691" cx="0" cy="0" r="1" gradientUnits="userSpaceOnUse" gradientTransform="translate(13.3595 11.6446) rotate(-79.5793) scale(1.72772 2.02292)">
<stop offset="0.235" stop-color="#F3B6A7"/>
<stop offset="1" stop-color="#F5B8A9" stop-opacity="0"/>
</radialGradient>
<radialGradient id="paint15_radial_793_4691" cx="0" cy="0" r="1" gradientUnits="userSpaceOnUse" gradientTransform="translate(15.7034 12.0932) rotate(108.435) scale(3.58227 5.83663)">
<stop stop-color="#FFDDC0"/>
<stop offset="1" stop-color="#FFDDC0" stop-opacity="0"/>
</radialGradient>
<radialGradient id="paint16_radial_793_4691" cx="0" cy="0" r="1" gradientUnits="userSpaceOnUse" gradientTransform="translate(3.47703 5.53086) rotate(32.957) scale(4.23644 7.98481)">
<stop stop-color="#E5B095"/>
<stop offset="1" stop-color="#E5B095" stop-opacity="0"/>
</radialGradient>
<linearGradient id="paint17_linear_793_4691" x1="10.0958" y1="19.0859" x2="10.0958" y2="16.8984" gradientUnits="userSpaceOnUse">
<stop offset="0.195" stop-color="#B47999"/>
<stop offset="1" stop-color="#B47999" stop-opacity="0"/>
</linearGradient>
<radialGradient id="paint18_radial_793_4691" cx="0" cy="0" r="1" gradientUnits="userSpaceOnUse" gradientTransform="translate(10.8984 13.9299) rotate(-106.498) scale(11.6923 16.8935)">
<stop offset="0.825" stop-color="#D3B19D" stop-opacity="0"/>
<stop offset="1" stop-color="#D3B19D"/>
</radialGradient>
<linearGradient id="paint19_linear_793_4691" x1="8.62322" y1="15.6377" x2="8.93572" y2="15.0715" gradientUnits="userSpaceOnUse">
<stop stop-color="#DEABA7"/>
<stop offset="1" stop-color="#DEABA7" stop-opacity="0"/>
</linearGradient>
<radialGradient id="paint20_radial_793_4691" cx="0" cy="0" r="1" gradientUnits="userSpaceOnUse" gradientTransform="translate(12.7043 11.8398) rotate(90) scale(1.25 1.98826)">
<stop offset="0.802" stop-color="#865B4F"/>
<stop offset="1" stop-color="#704D49"/>
</radialGradient>
<radialGradient id="paint21_radial_793_4691" cx="0" cy="0" r="1" gradientUnits="userSpaceOnUse" gradientTransform="translate(7.09845 11.8398) rotate(90) scale(1.25 1.98826)">
<stop offset="0.802" stop-color="#865B4F"/>
<stop offset="1" stop-color="#704D49"/>
</radialGradient>
<linearGradient id="paint22_linear_793_4691" x1="6.04297" y1="9.59248" x2="7.77422" y2="9.26561" gradientUnits="userSpaceOnUse">
<stop stop-color="#343434"/>
<stop offset="1" stop-color="#343434" stop-opacity="0"/>
</linearGradient>
<linearGradient id="paint23_linear_793_4691" x1="11.5623" y1="8.38297" x2="19.4142" y2="3.96922" gradientUnits="userSpaceOnUse">
<stop stop-color="#FFE5CA"/>
<stop offset="1" stop-color="#FFE5CA" stop-opacity="0"/>
</linearGradient>
<linearGradient id="paint24_linear_793_4691" x1="10.2853" y1="1.8942" x2="9.63594" y2="6.57795" gradientUnits="userSpaceOnUse">
<stop offset="0.568" stop-color="#C49275"/>
<stop offset="1" stop-color="#E3AB91"/>
</linearGradient>
<radialGradient id="paint25_radial_793_4691" cx="0" cy="0" r="1" gradientUnits="userSpaceOnUse" gradientTransform="translate(7.51953 4.0074) rotate(-11.0394) scale(4.98071 4.15503)">
<stop offset="0.733" stop-color="#3D3D3E" stop-opacity="0"/>
<stop offset="1" stop-color="#3D3D3E"/>
</radialGradient>
<radialGradient id="paint26_radial_793_4691" cx="0" cy="0" r="1" gradientUnits="userSpaceOnUse" gradientTransform="translate(7.51968 4.33939) rotate(-23.69) scale(4.18048 4.03645)">
<stop offset="0.714" stop-color="#443934"/>
<stop offset="0.969" stop-color="#443934" stop-opacity="0"/>
</radialGradient>
<radialGradient id="paint27_radial_793_4691" cx="0" cy="0" r="1" gradientUnits="userSpaceOnUse" gradientTransform="translate(10.4752 5.14365) rotate(-122.764) scale(4.20113 4.33131)">
<stop offset="0.825" stop-color="#453B36" stop-opacity="0"/>
<stop offset="1" stop-color="#453B36"/>
</radialGradient>
<radialGradient id="paint28_radial_793_4691" cx="0" cy="0" r="1" gradientUnits="userSpaceOnUse" gradientTransform="translate(9.57003 3.14786) rotate(57.863) scale(3.59821 3.45602)">
<stop offset="0.862" stop-color="#251D20" stop-opacity="0"/>
<stop offset="0.966" stop-color="#251D20"/>
</radialGradient>
<radialGradient id="paint29_radial_793_4691" cx="0" cy="0" r="1" gradientUnits="userSpaceOnUse" gradientTransform="translate(9.59942 13.5584) rotate(1.40878) scale(1.19177 0.61623)">
<stop offset="0.541" stop-color="#E6AFA3"/>
<stop offset="1" stop-color="#FFD4BF"/>
</radialGradient>
<radialGradient id="paint30_radial_793_4691" cx="0" cy="0" r="1" gradientUnits="userSpaceOnUse" gradientTransform="translate(10.0825 13.1777) rotate(90) scale(0.888675 1.12167)">
<stop offset="0.559" stop-color="#E0A39C" stop-opacity="0"/>
<stop offset="1" stop-color="#E0A39C"/>
</radialGradient>
<radialGradient id="paint31_radial_793_4691" cx="0" cy="0" r="1" gradientUnits="userSpaceOnUse" gradientTransform="translate(12.3529 11.9698) rotate(-127.812) scale(0.582826 0.802411)">
<stop offset="0.766" stop-color="#FFE6E2" stop-opacity="0"/>
<stop offset="0.966" stop-color="#FFE6E2"/>
</radialGradient>
<linearGradient id="paint32_linear_793_4691" x1="13.9027" y1="11.9222" x2="13.4195" y2="12.2203" gradientUnits="userSpaceOnUse">
<stop stop-color="#B4948D"/>
<stop offset="1" stop-color="#B4948D" stop-opacity="0"/>
</linearGradient>
<linearGradient id="paint33_linear_793_4691" x1="8.24484" y1="11.9227" x2="7.76172" y2="12.2208" gradientUnits="userSpaceOnUse">
<stop stop-color="#B4948D"/>
<stop offset="1" stop-color="#B4948D" stop-opacity="0"/>
</linearGradient>
<radialGradient id="paint34_radial_793_4691" cx="0" cy="0" r="1" gradientUnits="userSpaceOnUse" gradientTransform="translate(6.88649 12.1326) rotate(-118.811) scale(0.761288 0.9151)">
<stop offset="0.766" stop-color="#FFE6E2" stop-opacity="0"/>
<stop offset="0.966" stop-color="#FFE6E2"/>
</radialGradient>
<linearGradient id="paint35_linear_793_4691" x1="13.7791" y1="9.53561" x2="12.0991" y2="9.17561" gradientUnits="userSpaceOnUse">
<stop stop-color="#343434"/>
<stop offset="1" stop-color="#343434" stop-opacity="0"/>
</linearGradient>
</defs>
</svg>
