<svg width="20" height="20" viewBox="0 0 20 20" fill="none" xmlns="http://www.w3.org/2000/svg">
<path d="M19.9686 14.8011C19.9426 14.7232 19.9016 14.6512 19.8478 14.5892C19.794 14.5272 19.7285 14.4764 19.6551 14.4397C19.5817 14.403 19.5018 14.3811 19.4199 14.3753C19.338 14.3694 19.2558 14.3798 19.1779 14.4058L17.817 14.8597L15.5592 10.3441C15.5073 10.2403 15.4276 10.1531 15.3289 10.0921C15.2303 10.0311 15.1166 9.9988 15.0006 9.99874H8.7506V8.12374H13.1256C13.2914 8.12374 13.4503 8.05789 13.5675 7.94068C13.6847 7.82347 13.7506 7.6645 13.7506 7.49874C13.7506 7.33298 13.6847 7.17401 13.5675 7.0568C13.4503 6.93959 13.2914 6.87374 13.1256 6.87374H8.7506V6.17061C9.33976 6.01849 9.85322 5.65672 10.1947 5.15311C10.5362 4.6495 10.6823 4.03862 10.6057 3.43499C10.529 2.83136 10.2348 2.27641 9.77824 1.87416C9.32168 1.47192 8.73408 1.25 8.1256 1.25C7.51711 1.25 6.92952 1.47192 6.47295 1.87416C6.01639 2.27641 5.7222 2.83136 5.64552 3.43499C5.56885 4.03862 5.71496 4.6495 6.05647 5.15311C6.39798 5.65672 6.91144 6.01849 7.5006 6.17061V7.01515C6.15299 7.32315 4.96598 8.11661 4.16614 9.24407C3.36629 10.3715 3.00962 11.754 3.1642 13.1277C3.31877 14.5014 3.97377 15.7701 5.00418 16.6916C6.03458 17.6131 7.36824 18.1229 8.7506 18.1237C11.3693 18.1237 13.7264 16.3495 14.3561 13.905C14.3766 13.8255 14.3812 13.7427 14.3698 13.6614C14.3583 13.5801 14.3309 13.5018 14.2892 13.4311C14.2475 13.3604 14.1923 13.2985 14.1267 13.2492C14.061 13.1998 13.9864 13.1638 13.9068 13.1433C13.8273 13.1228 13.7446 13.1181 13.6632 13.1296C13.5819 13.141 13.5037 13.1684 13.433 13.2101C13.3622 13.2518 13.3004 13.3071 13.251 13.3727C13.2016 13.4383 13.1656 13.513 13.1451 13.5925C12.6639 15.4675 10.7748 16.8737 8.7506 16.8737C7.69997 16.8734 6.68456 16.495 5.88994 15.8076C5.09533 15.1203 4.5746 14.17 4.42291 13.1304C4.27122 12.0908 4.49872 11.0313 5.06382 10.1456C5.62892 9.25986 6.49387 8.60709 7.5006 8.30655V10.6237C7.5006 10.7895 7.56645 10.9485 7.68366 11.0657C7.80087 11.1829 7.95984 11.2487 8.1256 11.2487H14.6139L16.9412 15.9034C17.0087 16.0379 17.1224 16.1435 17.2614 16.201C17.4005 16.2584 17.5556 16.2637 17.6983 16.2159L19.5733 15.5909C19.7303 15.5385 19.8602 15.4259 19.9343 15.2778C20.0084 15.1297 20.0208 14.9582 19.9686 14.8011ZM6.8756 3.74874C6.8756 3.50151 6.94891 3.25984 7.08626 3.05428C7.22361 2.84872 7.41884 2.6885 7.64724 2.59389C7.87565 2.49928 8.12699 2.47453 8.36946 2.52276C8.61194 2.57099 8.83467 2.69004 9.00948 2.86486C9.1843 3.03967 9.30335 3.2624 9.35158 3.50488C9.39981 3.74735 9.37506 3.99869 9.28045 4.22709C9.18584 4.4555 9.02562 4.65072 8.82006 4.78808C8.6145 4.92543 8.37282 4.99874 8.1256 4.99874C7.79408 4.99874 7.47614 4.86704 7.24171 4.63262C7.00729 4.3982 6.8756 4.08026 6.8756 3.74874Z" fill="black"/>
</svg>
