<svg width="24" height="24" viewBox="0 0 24 24" fill="none" xmlns="http://www.w3.org/2000/svg">
<path d="M17.1405 4.50648C15.123 4.56198 13.5592 5.10948 12.0367 5.63898C10.4085 6.20448 8.87175 6.73773 6.7425 6.75948C5.31975 6.78198 3.89475 6.53598 2.4945 6.05148L1.5 5.70798V18.5195L1.9995 18.6972C3.30375 19.1585 4.63725 19.4247 5.96475 19.4877C6.17525 19.4977 6.38175 19.5027 6.58425 19.5027C8.844 19.5027 10.5743 18.9027 12.252 18.3237C14.0205 17.7117 15.6885 17.1335 17.9647 17.2407C19.1712 17.3029 20.3621 17.5415 21.4995 17.9487L22.5 18.3027V5.48598L22.0065 5.30598C20.7302 4.84143 19.3906 4.57436 18.0338 4.51398C17.7362 4.50105 17.4382 4.49854 17.1405 4.50648ZM17.181 5.99598C17.4355 5.98798 17.6978 5.98898 17.9678 5.99898C18.2483 6.01098 18.5287 6.03648 18.8085 6.06948C18.9226 6.54007 19.2147 6.9481 19.6234 7.20782C20.032 7.46755 20.5255 7.55874 21 7.46223V14.2887C20.7543 14.2387 20.5011 14.2386 20.2553 14.2884C20.0096 14.3382 19.7764 14.4368 19.5695 14.5785C19.3626 14.7201 19.1864 14.9019 19.0511 15.1131C18.9159 15.3242 18.8244 15.5603 18.7822 15.8075C18.5338 15.7821 18.2847 15.7636 18.0353 15.752C15.474 15.6395 13.5855 16.2837 11.76 16.9167C9.98925 17.5302 8.3115 18.11 6.03675 18.002C5.75345 17.987 5.47077 17.962 5.18925 17.927C5.07417 17.4577 4.78202 17.0511 4.37395 16.7924C3.96589 16.5336 3.47355 16.4427 3 16.5387V9.71223C3.24716 9.76253 3.50194 9.7623 3.74901 9.71156C3.99608 9.66082 4.23033 9.56061 4.43766 9.41697C4.64499 9.27333 4.82112 9.08923 4.95544 8.87574C5.08976 8.66226 5.1795 8.4238 5.21925 8.17473C5.733 8.22798 6.24675 8.25873 6.759 8.25048C9.13275 8.22648 10.8585 7.62573 12.5287 7.04523C13.9995 6.53298 15.4013 6.05148 17.181 5.99598ZM12 9.00048C12 10.0797 11.5793 10.5005 10.5 10.5005V12.0005C11.082 12.0005 11.5778 11.8872 12 11.6915V15.0005H13.5V9.00048H12ZM17.625 9.75048C17.3266 9.75048 17.0405 9.869 16.8295 10.08C16.6185 10.291 16.5 10.5771 16.5 10.8755C16.5 11.1738 16.6185 11.46 16.8295 11.671C17.0405 11.882 17.3266 12.0005 17.625 12.0005C17.9234 12.0005 18.2095 11.882 18.4205 11.671C18.6315 11.46 18.75 11.1738 18.75 10.8755C18.75 10.5771 18.6315 10.291 18.4205 10.08C18.2095 9.869 17.9234 9.75048 17.625 9.75048ZM6.375 12.0005C6.07663 12.0005 5.79048 12.119 5.5795 12.33C5.36853 12.541 5.25 12.8271 5.25 13.1255C5.25 13.4238 5.36853 13.71 5.5795 13.921C5.79048 14.132 6.07663 14.2505 6.375 14.2505C6.67337 14.2505 6.95952 14.132 7.1705 13.921C7.38147 13.71 7.5 13.4238 7.5 13.1255C7.5 12.8271 7.38147 12.541 7.1705 12.33C6.95952 12.119 6.67337 12.0005 6.375 12.0005Z" fill="#1C1C1C"/>
</svg>
