<svg width="24" height="24" viewBox="0 0 24 24" fill="none" xmlns="http://www.w3.org/2000/svg">
<path d="M14.2501 7.5C14.0512 7.5 13.8604 7.57902 13.7197 7.71967C13.5791 7.86032 13.5001 8.05109 13.5001 8.25C13.5001 8.44891 13.5791 8.63968 13.7197 8.78033C13.8604 8.92098 14.0512 9 14.2501 9H18.7501C18.949 9 19.1398 8.92098 19.2804 8.78033C19.4211 8.63968 19.5001 8.44891 19.5001 8.25C19.5001 8.05109 19.4211 7.86032 19.2804 7.71967C19.1398 7.57902 18.949 7.5 18.7501 7.5H14.2501ZM14.2501 10.5C14.0512 10.5 13.8604 10.579 13.7197 10.7197C13.5791 10.8603 13.5001 11.0511 13.5001 11.25C13.5001 11.4489 13.5791 11.6397 13.7197 11.7803C13.8604 11.921 14.0512 12 14.2501 12H18.7501C18.949 12 19.1398 11.921 19.2804 11.7803C19.4211 11.6397 19.5001 11.4489 19.5001 11.25C19.5001 11.0511 19.4211 10.8603 19.2804 10.7197C19.1398 10.579 18.949 10.5 18.7501 10.5H14.2501ZM13.5001 14.25C13.5001 14.0511 13.5791 13.8603 13.7197 13.7197C13.8604 13.579 14.0512 13.5 14.2501 13.5H17.2501C17.449 13.5 17.6398 13.579 17.7804 13.7197C17.9211 13.8603 18.0001 14.0511 18.0001 14.25C18.0001 14.4489 17.9211 14.6397 17.7804 14.7803C17.6398 14.921 17.449 15 17.2501 15H14.2501C14.0512 15 13.8604 14.921 13.7197 14.7803C13.5791 14.6397 13.5001 14.4489 13.5001 14.25ZM9.91508 9.75C9.91508 10.992 8.83658 12 7.50008 12C6.16358 12 5.08508 10.992 5.08508 9.75C5.08508 8.508 6.16358 7.5 7.50008 7.5C8.83658 7.5 9.91508 8.508 9.91508 9.75ZM7.50008 12H7.44008C6.06008 12 4.86008 12.8775 4.53008 14.13C4.41008 14.5725 4.77008 15.003 5.25758 15.003H9.75758C10.2466 15.003 10.6051 14.574 10.4866 14.13C10.1521 12.879 8.95658 12 7.57658 12H7.51658H7.50008Z" fill="#1C1C1C"/>
<path fill-rule="evenodd" clip-rule="evenodd" d="M0.4905 5.45941C0 6.42241 0 7.67941 0 10.1994V13.7994C0 16.3194 0 17.5794 0.4905 18.5394C0.923458 19.3841 1.61081 20.0714 2.4555 20.5044C3.4185 20.9949 4.6755 20.9949 7.1955 20.9949H16.7955C19.3155 20.9949 20.5755 20.9949 21.5355 20.5044C22.3814 20.0731 23.0692 19.3853 23.5005 18.5394C23.991 17.5764 23.991 16.3194 23.991 13.7994V10.1994C23.991 7.67941 23.991 6.41941 23.5005 5.45941C23.0692 4.6135 22.3814 3.92569 21.5355 3.49441C20.5725 3.00391 19.3155 3.00391 16.7955 3.00391H7.1955C4.6755 3.00391 3.4155 3.00391 2.4555 3.49441C1.61081 3.92736 0.923458 4.61472 0.4905 5.45941ZM16.8405 4.50241H7.2405C5.955 4.50241 5.0805 4.50241 4.4055 4.55941C3.7485 4.61191 3.411 4.70941 3.177 4.82941C2.61254 5.11702 2.15362 5.57594 1.866 6.14041C1.746 6.37441 1.6485 6.71041 1.596 7.36891C1.5405 8.04391 1.539 8.91391 1.539 10.2039V13.8039C1.539 15.0894 1.5405 15.9639 1.596 16.6389C1.65 17.2959 1.7475 17.6334 1.866 17.8674C2.154 18.4314 2.613 18.8904 3.177 19.1784C3.411 19.2984 3.7485 19.3959 4.4055 19.4484C5.0805 19.5024 5.9505 19.5039 7.2405 19.5039H16.8405C18.126 19.5039 19.0005 19.5039 19.6755 19.4484C20.3325 19.3944 20.67 19.2969 20.904 19.1784C21.468 18.8904 21.927 18.4314 22.215 17.8674C22.335 17.6334 22.4325 17.2959 22.485 16.6374C22.5405 15.9624 22.542 15.0924 22.542 13.8024V10.2024C22.542 8.91841 22.5405 8.04241 22.485 7.36741C22.431 6.71191 22.3335 6.37441 22.215 6.14041C21.9274 5.57594 21.4685 5.11702 20.904 4.82941C20.67 4.70941 20.3325 4.61191 19.6755 4.55941C19.0005 4.50391 18.1305 4.50241 16.8405 4.50241Z" fill="#1C1C1C"/>
</svg>
