<svg width="16" height="17" viewBox="0 0 16 17" fill="none" xmlns="http://www.w3.org/2000/svg">
<path d="M4.26699 3.67302C5.26053 2.69934 6.59819 2.1571 7.98928 2.16413C9.38036 2.17116 10.7125 2.72688 11.6961 3.71054C12.6798 4.6942 13.2355 6.02631 13.2425 7.4174C13.2496 8.80848 12.7073 10.1461 11.7337 11.1397L8.94299 13.9304C8.69295 14.1803 8.35387 14.3207 8.00032 14.3207C7.64677 14.3207 7.30769 14.1803 7.05766 13.9304L4.26699 11.1397C3.27691 10.1495 2.7207 8.8066 2.7207 7.40635C2.7207 6.0061 3.27691 4.66319 4.26699 3.67302Z" stroke="#263238" stroke-linejoin="round"/>
<path d="M8 9.40625C9.10457 9.40625 10 8.51082 10 7.40625C10 6.30168 9.10457 5.40625 8 5.40625C6.89543 5.40625 6 6.30168 6 7.40625C6 8.51082 6.89543 9.40625 8 9.40625Z" stroke="#263238" stroke-linecap="round" stroke-linejoin="round"/>
</svg>
