<svg width="24" height="24" viewBox="0 0 24 24" fill="none" xmlns="http://www.w3.org/2000/svg">
<path d="M8.30783 6.6V5.88C8.30783 4.287 8.30783 3 11.2618 3H12.7378C15.6918 3 15.6918 4.287 15.6918 5.88V6.6M8.30783 21H15.6918C19.4018 21 20.0668 19.55 20.2608 17.787L20.9528 10.587C21.2028 8.391 20.5558 6.6 16.6148 6.6H7.38483C3.44383 6.6 2.79783 8.391 3.04683 10.587L3.73883 17.787C3.93283 19.55 4.59783 21 8.30783 21Z" stroke="#1C1C1C" stroke-width="1.25" stroke-linecap="round" stroke-linejoin="round"/>
<path d="M9.8114 13.331C7.46811 13.0725 5.21657 12.2747 3.2334 11M14.2334 13.331C16.5767 13.0725 18.8282 12.2747 20.8114 11M13.9994 13.5C13.9994 14.0304 13.7887 14.5391 13.4136 14.9142C13.0385 15.2893 12.5298 15.5 11.9994 15.5C11.469 15.5 10.9603 15.2893 10.5852 14.9142C10.2101 14.5391 9.9994 14.0304 9.9994 13.5C9.9994 12.9696 10.2101 12.4609 10.5852 12.0858C10.9603 11.7107 11.469 11.5 11.9994 11.5C12.5298 11.5 13.0385 11.7107 13.4136 12.0858C13.7887 12.4609 13.9994 12.9696 13.9994 13.5Z" stroke="#1C1C1C" stroke-width="1.25" stroke-linecap="round" stroke-linejoin="round"/>
</svg>
