<svg width="20" height="20" viewBox="0 0 20 20" fill="none" xmlns="http://www.w3.org/2000/svg">
<path d="M16.043 11.2101C16.0597 11.1768 16.0761 11.1432 16.0919 11.1099L17.8125 7.49703V6.60285L17.6929 6.43844C17.6702 6.40742 15.4255 3.32355 14.6649 2.30953C13.8226 1.18641 13.0114 0.685586 12.0348 0.685586C11.2731 0.685586 10.4997 1.04766 9.73699 1.76172C9.55404 1.93367 9.38101 2.11589 9.21875 2.3075C9.05649 2.11588 8.88347 1.93365 8.70051 1.76168C7.9377 1.04762 7.16457 0.685547 6.40266 0.685547C5.42609 0.685547 4.61492 1.18637 3.77262 2.30949C3.01203 3.32355 0.767266 6.40742 0.744648 6.4384L0.625 6.60285V7.49703L2.3452 11.1094C2.36126 11.1433 2.3777 11.1769 2.39449 11.2103C2.84018 12.0966 3.52694 12.839 4.37582 13.3523C5.22268 13.8656 6.19414 14.1368 7.18441 14.1361H11.253C12.2433 14.1368 13.2147 13.8656 14.0616 13.3523C14.9105 12.839 15.5973 12.0964 16.043 11.2101ZM7.18449 12.8861C5.63504 12.8861 4.1934 12.0083 3.51184 10.6499C3.49894 10.6243 3.48634 10.5984 3.47402 10.5725L1.875 7.21461V7.00969C2.35156 6.35543 4.11859 3.93156 4.77262 3.05945C5.51539 2.06906 6.01344 1.93555 6.40266 1.93555C7.30551 1.93555 8.25461 3.04645 8.54352 3.47359L8.72922 3.75035H9.70828L9.89398 3.47359C10.1617 3.07457 11.1297 1.93555 12.0348 1.93555C12.4241 1.93555 12.9221 2.06906 13.6649 3.05949C14.3189 3.93148 16.0859 6.35543 16.5625 7.00969V7.21461L14.9632 10.573C14.951 10.5988 14.9384 10.6245 14.9258 10.6497C14.2441 12.0083 12.8025 12.8861 11.253 12.8861H7.18449Z" fill="black"/>
<path d="M11.8916 4.4082L11.4981 4.85328C11.489 4.86363 10.5484 5.8857 9.21855 5.8857C7.88426 5.8857 6.94645 4.86152 6.93902 4.85328L6.54555 4.4082L3.27832 7.0132L5.01242 10.5111L5.45996 10.4472C7.95302 10.0909 10.4841 10.0909 12.9771 10.4472L13.4247 10.5111L15.1588 7.0132L11.8916 4.4082ZM12.7046 9.14934C10.3898 8.85684 8.04732 8.85684 5.73246 9.14934L4.84629 7.36172L6.44168 6.0898C6.97195 6.52059 7.95121 7.13582 9.21855 7.13582C10.4859 7.13582 11.4652 6.52059 11.9954 6.0898L13.5908 7.36184L12.7046 9.14934ZM13.3893 14.9774V16.2274C14.3415 16.2262 15.2668 15.9114 16.0223 15.3318C16.7777 14.7521 17.3213 13.9398 17.5689 13.0204L16.3611 12.6967C16.1851 13.3505 15.7986 13.9282 15.2615 14.3404C14.7243 14.7526 14.0664 14.9765 13.3893 14.9774Z" fill="black"/>
<path d="M18.7767 13.3438C18.139 15.7214 15.9657 17.4772 13.3896 17.4772V18.7272C16.5431 18.7272 19.2036 16.5779 19.9842 13.6673L18.7767 13.3438Z" fill="black"/>
</svg>
