<svg width="24" height="24" viewBox="0 0 24 24" fill="none" xmlns="http://www.w3.org/2000/svg">
<path d="M5.63608 18.3647C4.80034 17.529 4.13739 16.5368 3.68509 15.4449C3.2328 14.353 3 13.1826 3 12.0007C3 10.8188 3.2328 9.64848 3.68509 8.55654C4.13739 7.4646 4.80034 6.47245 5.63608 5.63672M18.3641 5.63672C19.1998 6.47245 19.8628 7.4646 20.3151 8.55654C20.7674 9.64848 21.0002 10.8188 21.0002 12.0007C21.0002 13.1826 20.7674 14.353 20.3151 15.4449C19.8628 16.5368 19.1998 17.529 18.3641 18.3647M8.46408 15.5367C7.99965 15.0724 7.63123 14.5212 7.37987 13.9144C7.12852 13.3077 6.99915 12.6574 6.99915 12.0007C6.99915 11.344 7.12852 10.6937 7.37987 10.087C7.63123 9.48028 7.99965 8.92903 8.46408 8.46472M15.5361 8.46472C16.0005 8.92903 16.3689 9.48028 16.6203 10.087C16.8716 10.6937 17.001 11.344 17.001 12.0007C17.001 12.6574 16.8716 13.3077 16.6203 13.9144C16.3689 14.5212 16.0005 15.0724 15.5361 15.5367M13.0001 12.0007C13.0001 12.2659 12.8947 12.5203 12.7072 12.7078C12.5196 12.8954 12.2653 13.0007 12.0001 13.0007C11.7349 13.0007 11.4805 12.8954 11.293 12.7078C11.1054 12.5203 11.0001 12.2659 11.0001 12.0007C11.0001 11.7355 11.1054 11.4811 11.293 11.2936C11.4805 11.1061 11.7349 11.0007 12.0001 11.0007C12.2653 11.0007 12.5196 11.1061 12.7072 11.2936C12.8947 11.4811 13.0001 11.7355 13.0001 12.0007Z" stroke="black" stroke-width="1.6" stroke-linecap="round" stroke-linejoin="round"/>
</svg>
