<svg width="24" height="24" viewBox="0 0 24 24" fill="none" xmlns="http://www.w3.org/2000/svg">
<path d="M12 10C14.2091 10 16 8.20914 16 6C16 3.79086 14.2091 2 12 2C9.79086 2 8 3.79086 8 6C8 8.20914 9.79086 10 12 10Z" stroke="black" stroke-width="1.5"/>
<path d="M15 13.327C14.0152 13.1071 13.009 12.9974 12 13C7.582 13 4 15.015 4 17.5C4 19.985 4 22 12 22C17.687 22 19.331 20.982 19.807 19.5" stroke="black" stroke-width="1.5"/>
<path d="M20.8291 13.1716C21.2006 13.543 21.4952 13.984 21.6962 14.4693C21.8973 14.9546 22.0007 15.4748 22.0007 16.0001C22.0007 16.5254 21.8973 17.0456 21.6962 17.5309C21.4952 18.0162 21.2006 18.4572 20.8291 18.8286C20.4577 19.2 20.0167 19.4947 19.5314 19.6957C19.0461 19.8967 18.5259 20.0002 18.0006 20.0002C17.4753 20.0002 16.9552 19.8967 16.4698 19.6957C15.9845 19.4947 15.5436 19.2 15.1721 18.8286L20.8281 13.1726M15.1711 18.8286C14.4209 18.0784 13.9995 17.061 13.9995 16.0001C13.9995 15.4748 14.103 14.9546 14.304 14.4693C14.505 13.984 14.7997 13.543 15.1711 13.1716C15.5426 12.8002 15.9835 12.5055 16.4688 12.3045C16.9542 12.1035 17.4743 12 17.9996 12C19.0605 12 20.0779 12.4214 20.8281 13.1716" stroke="black" stroke-width="1.5" stroke-linejoin="round"/>
</svg>
